<?xml version="1.0" standalone="no"?>
<!DOCTYPE svg PUBLIC "-//W3C//DTD SVG 20010904//EN"
 "http://www.w3.org/TR/2001/REC-SVG-20010904/DTD/svg10.dtd">
<svg version="1.0" xmlns="http://www.w3.org/2000/svg"
 width="512.000000pt" height="512.000000pt" viewBox="0 0 512.000000 512.000000"
 preserveAspectRatio="xMidYMid meet">

<g transform="translate(0.000000,512.000000) scale(0.100000,-0.100000)"
fill="#000000" stroke="none">
<path d="M2613 5035 c-508 -92 -831 -533 -718 -982 37 -144 153 -324 268 -413
30 -24 53 -48 51 -54 -14 -40 -104 -391 -104 -406 0 -23 45 -60 74 -60 14 0
77 57 187 166 l166 166 59 -13 c35 -8 115 -13 199 -13 173 2 291 29 438 103
l97 49 98 -49 c146 -74 264 -101 437 -103 84 0 164 5 199 13 l59 13 166 -166
c118 -118 173 -166 189 -166 26 0 72 41 72 64 0 9 -22 98 -49 198 -27 101 -51
190 -53 199 -2 10 19 35 54 63 116 94 217 251 260 403 28 99 30 266 5 363 -25
94 -97 235 -161 311 -110 134 -304 253 -486 299 -237 59 -511 24 -726 -94
l-63 -35 -83 44 c-192 101 -427 138 -635 100z m307 -136 c218 -35 417 -157
529 -325 135 -201 140 -450 14 -658 -95 -155 -272 -278 -478 -332 -93 -24
-302 -24 -398 -1 -38 9 -73 17 -79 17 -6 0 -50 -39 -99 -87 -49 -48 -89 -83
-89 -79 0 5 12 51 26 102 14 52 23 103 19 113 -3 10 -37 42 -75 71 -118 87
-212 214 -250 338 -117 379 162 767 607 842 70 11 199 11 273 -1z m1193 -23
c258 -76 444 -251 513 -481 29 -95 25 -250 -9 -343 -48 -137 -128 -244 -247
-333 -38 -28 -72 -60 -75 -70 -4 -10 5 -61 19 -113 14 -51 26 -97 26 -102 0
-4 -40 31 -89 79 -49 48 -95 87 -102 87 -8 -1 -41 -7 -74 -15 -188 -45 -394
-23 -573 62 l-53 25 36 41 c144 169 208 329 208 522 -1 181 -58 337 -179 485
l-65 81 63 28 c35 16 80 34 102 41 146 47 350 49 499 6z"/>
<path d="M2357 4580 c-33 -26 -37 -78 -9 -103 17 -15 61 -17 430 -17 399 0
413 1 432 20 25 25 26 61 1 91 l-19 24 -404 3 c-398 3 -405 2 -431 -18z"/>
<path d="M2380 4303 c-50 -19 -68 -84 -32 -116 17 -15 62 -17 435 -17 l416 0
15 22 c21 30 20 61 -3 89 l-19 24 -399 2 c-219 1 -405 -1 -413 -4z"/>
<path d="M2347 3992 c-24 -26 -21 -75 4 -98 20 -18 42 -19 431 -19 l410 0 19
24 c23 28 24 59 3 89 l-15 22 -418 0 c-392 0 -419 -1 -434 -18z"/>
<path d="M3830 4303 c-50 -19 -68 -84 -32 -116 29 -26 107 -23 126 5 21 30 20
71 -2 91 -20 19 -69 29 -92 20z"/>
<path d="M4130 4303 c-50 -19 -68 -84 -32 -116 29 -26 107 -23 126 5 21 30 20
71 -2 91 -20 19 -69 29 -92 20z"/>
<path d="M4430 4303 c-50 -19 -68 -84 -32 -116 26 -24 104 -23 125 1 22 25 22
75 -1 95 -20 19 -69 29 -92 20z"/>
<path d="M935 4058 c-260 -22 -452 -180 -535 -443 -33 -104 -39 -316 -12 -445
37 -181 109 -323 225 -446 l77 -82 0 -93 c0 -140 -34 -181 -157 -193 -234 -21
-426 -186 -479 -412 -30 -127 -3 -292 63 -387 l26 -38 33 -642 c18 -353 34
-671 36 -706 7 -111 -74 -101 845 -101 l794 0 24 25 25 24 0 401 0 400 170 0
c165 0 170 1 184 23 15 22 406 1468 406 1500 0 9 -9 26 -20 37 -19 19 -33 20
-550 20 l-530 0 -14 -22 c-8 -13 -20 -44 -27 -70 -11 -47 -12 -48 -49 -48 -46
0 -96 37 -116 87 -8 18 -14 68 -14 113 l0 81 55 51 c108 98 203 270 248 448
31 125 31 343 -1 455 -35 121 -86 210 -168 292 -135 137 -306 191 -539 171z
m245 -155 c160 -44 259 -144 317 -316 24 -74 27 -96 27 -222 -1 -123 -4 -151
-28 -230 -82 -272 -260 -450 -460 -463 -174 -11 -345 116 -447 333 -55 117
-70 183 -76 330 -4 100 -1 146 11 199 54 228 201 364 416 384 95 9 170 5 240
-15z m-280 -1358 c71 -20 172 -20 235 0 28 8 53 15 58 15 4 0 7 -19 7 -43 0
-60 24 -136 59 -185 l30 -40 -38 -15 c-122 -49 -354 -48 -485 2 l-29 12 26 27
c42 44 67 110 67 180 0 34 3 62 8 62 4 0 32 -7 62 -15z m1585 -232 c-7 -27
-84 -311 -170 -633 -86 -322 -158 -593 -161 -603 -5 -16 -29 -17 -321 -17
l-316 0 49 36 c130 97 163 149 164 255 0 109 -55 195 -155 240 -22 10 -57 19
-77 19 -29 0 -38 4 -38 18 0 9 43 176 95 370 52 195 95 356 95 358 0 2 191 4
424 4 l425 0 -14 -47z m-1843 -127 c113 -62 201 -81 378 -81 176 0 248 16 372
83 37 20 69 34 72 31 3 -3 -158 -618 -175 -666 -2 -7 -71 -55 -153 -108 l-150
-95 -79 153 c-44 83 -91 174 -106 202 -31 60 -67 78 -109 54 -53 -29 -45 -57
88 -317 67 -130 128 -243 137 -249 9 -7 28 -13 41 -13 13 0 120 62 249 145
204 131 230 145 270 145 38 0 51 -6 79 -34 28 -28 34 -41 34 -77 -1 -24 -6
-54 -13 -67 -15 -25 -505 -387 -554 -408 -54 -23 -146 -18 -203 11 -46 23 -75
58 -329 398 -239 319 -282 380 -296 431 -36 123 -1 265 87 361 59 65 112 99
188 119 81 22 103 19 172 -18z m-162 -1111 c111 -149 192 -248 222 -270 66
-51 142 -75 232 -75 102 0 162 24 287 115 l102 75 218 0 219 0 0 -355 0 -355
-704 0 -704 0 -7 113 c-19 318 -50 987 -45 987 3 -1 84 -106 180 -235z"/>
<path d="M3524 2640 c-242 -63 -436 -257 -500 -500 -23 -87 -24 -254 -1 -340
40 -154 141 -301 269 -396 l58 -42 -73 -22 c-106 -32 -279 -119 -381 -191
-290 -207 -501 -539 -561 -883 -21 -122 -20 -148 8 -174 l23 -22 1333 0 1332
0 26 26 c24 24 25 29 18 92 -4 37 -20 117 -35 177 -66 257 -186 462 -382 651
-149 144 -299 238 -483 304 -49 18 -99 35 -109 39 -16 6 -11 12 33 40 104 67
211 208 256 338 134 385 -89 803 -483 904 -99 25 -250 25 -348 -1z m316 -135
c93 -25 180 -75 250 -145 110 -110 162 -236 162 -390 0 -157 -53 -283 -166
-396 -81 -81 -164 -126 -271 -149 -95 -20 -157 -19 -249 5 -99 25 -165 61
-240 130 -146 135 -211 325 -172 510 44 209 194 375 391 431 75 22 221 24 295
4z m113 -1266 c404 -81 739 -358 897 -740 28 -67 58 -168 75 -257 l7 -32
-1232 0 -1232 0 7 43 c36 214 159 457 318 624 298 314 730 449 1160 362z"/>
</g>
</svg>
