<?xml version="1.0" standalone="no"?>
<!DOCTYPE svg PUBLIC "-//W3C//DTD SVG 20010904//EN"
 "http://www.w3.org/TR/2001/REC-SVG-20010904/DTD/svg10.dtd">
<svg version="1.0" xmlns="http://www.w3.org/2000/svg"
 width="64.000000pt" height="64.000000pt" viewBox="0 0 64.000000 64.000000"
 preserveAspectRatio="xMidYMid meet">

<g transform="translate(0.000000,64.000000) scale(0.100000,-0.100000)"
fill="#c13a73" stroke="none">
<path d="M364 626 c-3 -8 -3 -20 1 -26 4 -6 -19 -10 -69 -10 -112 0 -106 7
-106 -131 l0 -118 -43 -19 c-47 -21 -77 -67 -77 -119 0 -32 33 -91 55 -99 8
-4 15 -18 15 -33 0 -30 32 -71 55 -71 17 0 55 39 55 57 0 10 43 13 188 15
l187 3 3 244 c2 171 -1 248 -9 257 -8 10 -35 14 -89 14 -73 0 -77 1 -76 23 1
19 -5 22 -42 25 -30 2 -44 -1 -48 -12z m78 -18 c-20 -20 -14 -38 14 -38 19 0
25 -4 22 -17 -3 -15 -14 -18 -68 -18 -54 0 -65 3 -68 18 -3 13 3 17 22 17 28
0 34 18 14 38 -9 9 -2 12 32 12 34 0 41 -3 32 -12z m-122 -48 c0 -5 -20 -10
-45 -10 l-44 0 -3 -107 c-2 -74 -7 -108 -15 -111 -10 -3 -13 25 -13 117 l0
121 60 0 c33 0 60 -4 60 -10z m295 -235 l0 -240 -182 -3 c-106 -1 -183 1 -183
7 0 17 32 21 163 21 186 0 177 -13 177 242 l0 198 -45 0 c-25 0 -45 5 -45 10
0 7 22 10 58 8 l57 -3 0 -240z m-288 204 c7 -7 37 -9 84 -5 41 3 94 7 119 8
l45 3 3 -182 2 -183 -25 0 c-20 0 -25 -5 -25 -25 l0 -25 -120 0 c-112 0 -120
1 -111 18 5 9 19 26 30 36 23 21 30 46 7 27 -23 -19 -27 45 -4 66 10 9 18 21
18 26 0 6 -9 2 -20 -8 -19 -17 -21 -17 -46 9 -15 14 -31 26 -35 26 -10 0 -12
203 -2 213 10 11 68 8 80 -4z m-77 -226 c46 -31 63 -76 49 -128 -6 -19 -21
-42 -34 -51 -14 -9 -25 -23 -25 -30 0 -8 -4 -14 -10 -14 -5 0 -10 18 -10 41 0
30 6 46 22 58 14 12 19 24 15 35 -10 26 -50 16 -57 -14 l-6 -25 -7 28 c-5 18
-14 27 -28 27 -30 0 -36 -30 -11 -51 16 -12 22 -28 22 -58 0 -23 -4 -41 -10
-41 -5 0 -10 6 -10 14 0 7 -11 21 -25 30 -13 9 -29 33 -36 55 -9 31 -9 44 5
72 30 63 104 88 156 52z m-80 -104 c0 -11 -4 -17 -10 -14 -5 3 -10 13 -10 21
0 8 5 14 10 14 6 0 10 -9 10 -21z m70 7 c0 -8 -4 -18 -10 -21 -5 -3 -10 3 -10
14 0 12 5 21 10 21 6 0 10 -6 10 -14z m-43 -108 c-2 -13 -4 -3 -4 22 0 25 2
35 4 23 2 -13 2 -33 0 -45z m363 52 c0 -5 -4 -10 -10 -10 -5 0 -10 5 -10 10 0
6 5 10 10 10 6 0 10 -4 10 -10z m-347 -97 c-13 -2 -33 -2 -45 0 -13 2 -3 4 22
4 25 0 35 -2 23 -4z m0 -30 c-7 -2 -21 -2 -30 0 -10 3 -4 5 12 5 17 0 24 -2
18 -5z"/>
<path d="M330 465 c-8 -9 -22 -14 -32 -12 -22 6 -24 -11 -2 -20 16 -6 63 31
52 42 -3 3 -11 -2 -18 -10z"/>
<path d="M390 470 c0 -6 32 -10 75 -10 43 0 75 4 75 10 0 6 -32 10 -75 10 -43
0 -75 -4 -75 -10z"/>
<path d="M390 430 c0 -5 23 -10 50 -10 28 0 50 5 50 10 0 6 -22 10 -50 10 -27
0 -50 -4 -50 -10z"/>
<path d="M330 375 c-8 -10 -21 -13 -34 -9 -20 6 -20 5 -3 -12 16 -18 18 -18
39 4 12 12 19 24 16 27 -3 3 -11 -1 -18 -10z"/>
<path d="M390 380 c0 -6 30 -10 69 -10 39 0 73 5 76 10 4 6 -22 10 -69 10 -44
0 -76 -4 -76 -10z"/>
<path d="M390 340 c0 -5 23 -10 50 -10 28 0 50 5 50 10 0 6 -22 10 -50 10 -27
0 -50 -4 -50 -10z"/>
<path d="M390 290 c0 -6 30 -10 69 -10 39 0 73 5 76 10 4 6 -22 10 -69 10 -44
0 -76 -4 -76 -10z"/>
<path d="M413 253 c15 -2 39 -2 55 0 15 2 2 4 -28 4 -30 0 -43 -2 -27 -4z"/>
<path d="M428 203 c23 -2 59 -2 80 0 20 2 1 4 -43 4 -44 0 -61 -2 -37 -4z"/>
<path d="M408 163 c12 -2 32 -2 45 0 12 2 2 4 -23 4 -25 0 -35 -2 -22 -4z"/>
<path d="M100 365 c0 -15 18 -40 24 -34 3 3 -1 14 -9 25 -8 10 -14 15 -15 9z"/>
<path d="M40 290 c20 -13 33 -13 25 0 -3 6 -14 10 -23 10 -15 0 -15 -2 -2 -10z"/>
<path d="M10 210 c0 -5 9 -10 20 -10 11 0 20 5 20 10 0 6 -9 10 -20 10 -11 0
-20 -4 -20 -10z"/>
<path d="M40 130 c-13 -8 -13 -10 2 -10 9 0 20 5 23 10 8 13 -5 13 -25 0z"/>
</g>
</svg>
