<?xml version="1.0" encoding="UTF-8"?>
<svg id="Layer_2" data-name="Layer 2" xmlns="http://www.w3.org/2000/svg" viewBox="0 0 24 24">
  <defs>
    <style>
      .cls-1 {
        fill: none;
      }

      .cls-1, .cls-2, .cls-3 {
        stroke-width: 0px;
      }

      .cls-2 {
        fill: #2c292a;
      }

      .cls-3 {
        fill: #bb496d;
      }
    </style>
  </defs>
  <g id="Layer_1-2" data-name="Layer 1">
    <g>
      <rect class="cls-1" width="24" height="24"/>
      <path class="cls-3" d="m8.21,9.12c.27,0,.49.07.69.22.21.16.35.36.43.63l.22.7h3.87v3.85l.7.22c.28.09.48.22.64.43.15.2.22.41.22.67s-.07.47-.22.67c-.16.21-.36.34-.64.43l-.7.22v3.85h-2.45c-.21-.38-.5-.71-.85-.98-.56-.44-1.21-.66-1.92-.66s-1.35.22-1.92.66c-.35.27-.63.6-.85.98h-2.45v-2.41c.36-.2.68-.47.95-.8.47-.56.71-1.22.71-1.96s-.24-1.39-.71-1.96c-.27-.33-.59-.6-.95-.8v-2.41h3.87l.22-.7c.09-.27.22-.47.43-.63.2-.15.42-.22.69-.22m0-1c-.48,0-.91.14-1.29.42-.37.28-.64.66-.78,1.13h-3.31c-.23,0-.43.08-.59.24-.16.16-.24.35-.24.58v3.25c.47.14.87.4,1.18.78.32.38.47.82.47,1.32s-.16.94-.47,1.32c-.32.38-.71.64-1.18.78v3.25c0,.23.08.43.24.58.16.16.36.24.59.24h3.27c.15-.5.42-.89.8-1.19.39-.3.82-.45,1.31-.45s.92.15,1.31.45c.39.3.65.7.8,1.19h3.27c.23,0,.43-.08.59-.24.16-.16.24-.35.24-.58v-3.29c.47-.15.85-.41,1.14-.78.28-.37.43-.8.43-1.28s-.14-.91-.43-1.28c-.28-.37-.66-.63-1.14-.78v-3.29c0-.23-.08-.43-.24-.58-.16-.16-.36-.24-.59-.24h-3.31c-.15-.47-.41-.85-.78-1.13-.37-.28-.8-.42-1.29-.42h0Z"/>
      <path class="cls-2" d="m20.07,3c-.42.12-.81.36-1.13.69-.5.51-.76,1.16-.76,1.87s.27,1.37.78,1.87c.37.36.8.59,1.29.69h-1.29c-.61,0-1.09.44-1.13,1.03-.02.33.1.65.33.91.05.07.1.14.13.22,0,.02.04.11.04.32,0,.32-.1.55-.31.77-.21.21-.45.31-.77.31s-.55-.1-.77-.31c-.21-.21-.31-.45-.31-.77,0-.22.03-.31.04-.32.04-.08.08-.16.13-.22.24-.26.36-.58.33-.91-.04-.59-.52-1.03-1.13-1.03h-1.29c.49-.1.92-.34,1.29-.69.51-.5.78-1.15.78-1.87s-.26-1.36-.76-1.87c-.32-.33-.71-.56-1.13-.69h5.63m-6.55,4.57h0,0m8.03-5.57h-8.59c-.13,0-.24.04-.33.13-.09.09-.13.2-.13.33v1.27c0,.12.03.22.1.29.06.07.14.1.22.1.06,0,.1,0,.14-.02.04-.02.08-.04.13-.06.09-.05.18-.08.27-.1.09-.02.2-.03.33-.03.46,0,.84.16,1.16.49.32.33.48.72.48,1.18s-.16.84-.48,1.15c-.32.31-.71.47-1.16.47-.13,0-.23,0-.3-.03-.07-.02-.14-.05-.21-.09-.05-.03-.1-.04-.16-.05-.05,0-.12-.01-.21-.01-.11,0-.19.07-.24.21-.05.14-.08.28-.08.41v1.05c0,.13.04.24.13.33.09.09.2.13.33.13h2.59c.08,0,.13.03.13.09,0,.06-.02.12-.09.18-.13.15-.23.32-.31.5-.08.19-.12.42-.12.71,0,.58.2,1.07.6,1.48.4.4.89.6,1.48.6s1.07-.2,1.48-.6c.4-.4.6-.89.6-1.48,0-.29-.04-.52-.12-.71-.08-.19-.18-.35-.31-.5-.06-.06-.09-.12-.09-.18,0-.06.05-.09.13-.09h2.59c.13,0,.24-.04.33-.13.09-.09.13-.2.13-.33v-1.3c0-.11-.03-.19-.09-.26-.06-.07-.13-.1-.21-.1-.04,0-.09,0-.14,0-.05,0-.12.02-.19.05-.09.04-.18.07-.27.09-.09.02-.19.03-.28.03-.46,0-.84-.16-1.16-.47-.32-.31-.48-.7-.48-1.15s.16-.85.48-1.18c.32-.33.71-.49,1.16-.49.12,0,.23.01.33.04.1.03.2.06.29.1.04.03.08.05.13.06.05.01.09.02.13.02.08,0,.15-.03.21-.09.06-.06.09-.16.09-.29v-1.27c0-.13-.04-.24-.13-.33-.09-.09-.2-.13-.33-.13h0Z"/>
    </g>
  </g>
</svg>