<svg width="512" height="512" viewBox="0 0 512 512" fill="none" xmlns="http://www.w3.org/2000/svg">
<g clip-path="url(#clip0_5_6)">
<path d="M205.179 78.8686C206.462 78.8628 206.462 78.8628 207.772 78.8569C208.712 78.8578 209.653 78.8587 210.622 78.8596C211.62 78.8566 212.619 78.8536 213.648 78.8506C217.011 78.8418 220.373 78.8404 223.736 78.8389C226.14 78.8342 228.545 78.8292 230.949 78.8238C237.492 78.8107 244.036 78.8042 250.579 78.7998C254.665 78.797 258.75 78.7928 262.836 78.7883C274.146 78.7761 285.457 78.7658 296.768 78.7624C297.854 78.7621 297.854 78.7621 298.961 78.7618C299.687 78.7615 300.413 78.7613 301.16 78.7611C302.631 78.7607 304.101 78.7602 305.572 78.7598C306.301 78.7595 307.031 78.7593 307.782 78.7591C319.602 78.7551 331.422 78.7377 343.242 78.7144C355.376 78.6907 367.51 78.6782 379.644 78.6771C386.458 78.6761 393.271 78.6704 400.084 78.6522C406.492 78.6352 412.9 78.6336 419.308 78.6424C421.661 78.6432 424.015 78.6388 426.368 78.6289C429.578 78.6163 432.788 78.6221 435.998 78.6325C436.931 78.6245 437.865 78.6164 438.827 78.6081C444.85 78.6541 449.267 79.4789 453.863 83.7187C454.342 84.3066 454.82 84.8944 455.312 85.5C455.804 86.0878 456.295 86.6756 456.801 87.2812C459.053 90.5089 459.133 93.3942 459.161 97.2024C459.171 98.2639 459.18 99.3254 459.19 100.419C459.197 102.139 459.197 102.139 459.203 103.895C459.209 105.075 459.215 106.255 459.22 107.471C459.23 109.97 459.236 112.469 459.24 114.968C459.25 118.787 459.281 122.605 459.312 126.424C459.319 128.852 459.324 131.279 459.328 133.707C459.34 134.848 459.353 135.989 459.366 137.164C459.347 143.865 458.872 148.532 454.457 153.863C450.009 157.783 446.929 158.792 441 159C441 163.29 441 167.58 441 172C442.361 172.227 443.722 172.454 445.125 172.687C450.078 173.809 452.527 175.279 456 179C459.489 185.237 459.452 190.954 459.434 197.996C459.439 199.144 459.444 200.291 459.449 201.473C459.456 203.893 459.455 206.313 459.446 208.733C459.438 212.422 459.466 216.11 459.498 219.799C459.5 222.156 459.499 224.514 459.496 226.871C459.507 227.967 459.519 229.063 459.53 230.192C459.46 238 458.262 243.458 452.812 249.375C448.951 251.606 445.385 252.215 441 253C441 257.29 441 261.58 441 266C442.155 266.021 443.31 266.041 444.5 266.062C449.954 266.732 453.542 269.876 457 274C458.711 277.597 459.255 280.462 459.275 284.429C459.284 285.491 459.294 286.552 459.304 287.646C459.302 289.351 459.302 289.351 459.301 291.09C459.305 292.267 459.309 293.444 459.314 294.657C459.32 297.145 459.32 299.632 459.316 302.119C459.313 305.92 459.336 309.72 459.361 313.521C459.364 315.94 459.364 318.359 459.363 320.777C459.372 321.912 459.382 323.046 459.391 324.215C459.352 330.867 458.987 335.762 454.281 340.863C453.693 341.342 453.106 341.82 452.5 342.312C451.912 342.804 451.324 343.295 450.719 343.801C446.854 346.497 442.815 346.138 438.312 346.12C437.126 346.122 437.126 346.122 435.916 346.123C433.258 346.124 430.6 346.119 427.943 346.114C426.041 346.113 424.139 346.113 422.237 346.114C417.066 346.114 411.895 346.108 406.724 346.101C401.322 346.095 395.921 346.095 390.52 346.093C380.288 346.09 370.057 346.082 359.825 346.072C348.178 346.061 336.532 346.055 324.885 346.05C300.923 346.04 276.962 346.022 253 346C252.807 346.81 252.614 347.619 252.416 348.453C252.156 349.523 251.896 350.592 251.628 351.694C251.373 352.751 251.118 353.808 250.856 354.897C249.649 359.273 247.842 363.205 245.812 367.25C245.444 368.007 245.076 368.763 244.697 369.543C243.808 371.367 242.906 373.184 242 375C245.094 378.219 248.205 381.42 251.332 384.607C252.391 385.691 253.445 386.779 254.494 387.872C256.014 389.453 257.55 391.016 259.09 392.578C260.006 393.521 260.923 394.463 261.867 395.435C264.183 397.558 266.334 398.634 269.257 399.762C274.103 401.861 277.345 404.634 281.017 408.37C281.975 409.315 281.975 409.315 282.952 410.279C285.039 412.344 287.108 414.427 289.176 416.512C290.632 417.965 292.09 419.417 293.548 420.869C296.592 423.907 299.628 426.953 302.657 430.006C306.529 433.905 310.422 437.782 314.322 441.652C317.333 444.645 320.332 447.65 323.327 450.658C324.757 452.092 326.191 453.522 327.629 454.948C329.642 456.948 331.638 458.963 333.63 460.983C334.219 461.562 334.807 462.14 335.414 462.736C341.141 468.611 344.447 475.509 345.035 483.742C344.913 491.599 342.399 498.452 336.949 504.141C330.558 510.113 325.611 512.28 316.75 512.438C315.528 512.477 314.306 512.517 313.047 512.559C302.021 511.638 294.516 503.331 287.192 495.899C285.428 494.116 283.637 492.364 281.842 490.613C280.704 489.476 279.568 488.336 278.434 487.195C277.901 486.678 277.369 486.162 276.821 485.629C273.241 481.934 272.092 479.135 272 474C273.799 470.817 275.015 469.379 278.438 468.062C282.898 467.954 285.417 469.486 288.739 472.414C289.723 473.405 290.699 474.404 291.668 475.41C292.189 475.938 292.71 476.465 293.246 477.009C294.901 478.686 296.545 480.374 298.188 482.062C299.843 483.753 301.5 485.441 303.161 487.127C304.191 488.174 305.219 489.225 306.242 490.279C309.656 493.765 311.445 495.157 316.312 495.312C319.602 495.26 320.953 495.025 323.938 493.438C326.606 490.284 327.444 488.1 328 484C326.125 478.35 323.465 474.899 319.243 470.789C318.668 470.213 318.092 469.636 317.498 469.042C315.608 467.155 313.705 465.283 311.801 463.41C310.481 462.098 309.163 460.785 307.845 459.472C304.387 456.029 300.917 452.598 297.444 449.169C293.897 445.664 290.362 442.147 286.826 438.631C279.895 431.743 272.952 424.867 266 418C264.888 418.946 263.777 419.893 262.666 420.84C262.047 421.368 261.428 421.895 260.79 422.438C258.444 424.485 256.247 426.657 254.062 428.875C253.29 429.656 252.518 430.437 251.723 431.242C251.154 431.822 250.586 432.402 250 433C253.131 436.741 256.232 440.248 259.812 443.562C262.133 445.862 262.989 446.969 264.125 450.125C263.973 453.619 263.135 455.255 261 458C257.921 460.053 256.631 460.474 253.033 459.825C248.42 457.954 245.147 453.955 241.75 450.438C240.948 449.651 240.146 448.864 239.32 448.053C232.869 441.51 232.869 441.51 231.684 437.16C229.668 430.49 223.208 425.701 218.312 421C217.217 419.93 216.123 418.858 215.029 417.785C212.366 415.176 209.687 412.584 207 410C205.535 410.729 205.535 410.729 204.041 411.473C178.578 424.022 150.414 428.066 123.015 419.235C97.9527 410.573 78.1111 394.001 65 371C64.5256 370.178 64.0513 369.355 63.5625 368.508C51.7376 346.558 49.4563 318.895 56 295C64.719 266.762 83.032 244.723 109.044 230.852C116.089 227.271 123.365 224.969 131 223C131.946 222.754 132.892 222.508 133.867 222.254C151.514 218.546 171.03 220.252 188 226C187.979 224.83 187.958 223.66 187.937 222.455C187.864 218.087 187.818 213.718 187.78 209.35C187.76 207.464 187.733 205.579 187.698 203.693C187.649 200.973 187.627 198.252 187.609 195.531C187.589 194.698 187.568 193.864 187.547 193.005C187.545 187.236 188.672 182.781 192 178C196.309 173.844 200.062 172.364 206 172C206 167.71 206 163.42 206 159C204.845 158.979 203.69 158.959 202.5 158.937C197.046 158.268 193.458 155.124 190 151C188.289 147.403 187.745 144.538 187.725 140.571C187.716 139.509 187.706 138.448 187.696 137.354C187.698 135.649 187.698 135.649 187.699 133.91C187.695 132.733 187.691 131.556 187.686 130.343C187.68 127.855 187.68 125.368 187.684 122.881C187.687 119.08 187.664 115.28 187.639 111.479C187.636 109.06 187.636 106.641 187.637 104.223C187.628 103.088 187.618 101.954 187.609 100.785C187.648 94.1328 188.013 89.2378 192.719 84.1367C193.307 83.6585 193.894 83.1802 194.5 82.6875C195.088 82.1964 195.676 81.7052 196.281 81.1992C199.189 79.1703 201.743 78.8744 205.179 78.8686ZM204 96C203.902 97.4374 203.872 98.8796 203.871 100.32C203.867 101.238 203.864 102.156 203.861 103.101C203.863 104.099 203.865 105.097 203.867 106.125C203.866 107.142 203.865 108.159 203.864 109.208C203.864 111.363 203.865 113.518 203.87 115.674C203.875 118.986 203.87 122.297 203.863 125.609C203.864 127.698 203.865 129.786 203.867 131.875C203.865 132.873 203.863 133.871 203.861 134.899C203.864 135.817 203.867 136.734 203.871 137.68C203.871 138.492 203.872 139.304 203.873 140.14C203.796 142.015 203.796 142.015 205 143C206.36 143.101 207.725 143.136 209.089 143.142C209.957 143.149 210.825 143.156 211.719 143.163C212.664 143.167 213.609 143.171 214.582 143.176C216.566 143.199 218.549 143.223 220.533 143.248C223.674 143.283 226.814 143.313 229.954 143.326C232.977 143.341 235.998 143.382 239.02 143.426C239.958 143.424 240.897 143.422 241.864 143.42C248.358 143.542 248.358 143.542 251.593 145.848C253.528 148.807 253.578 150.533 253 154C250.828 156.851 249.627 157.883 246.067 158.546C244.402 158.577 244.402 158.577 242.703 158.609C241.498 158.642 240.293 158.674 239.051 158.707C237.169 158.728 237.169 158.728 235.25 158.75C233.98 158.78 232.711 158.809 231.402 158.84C228.269 158.911 225.134 158.958 222 159C222 163.29 222 167.58 222 172C288.99 172 355.98 172 425 172C425 167.71 425 163.42 425 159C423.167 158.996 421.335 158.993 419.446 158.989C402.2 158.952 384.954 158.895 367.708 158.816C358.841 158.776 349.974 158.744 341.107 158.729C333.379 158.716 325.652 158.689 317.924 158.645C313.832 158.623 309.739 158.607 305.647 158.608C301.795 158.609 297.945 158.591 294.093 158.559C292.679 158.55 291.265 158.549 289.851 158.554C287.921 158.561 285.991 158.541 284.062 158.519C282.981 158.515 281.901 158.512 280.788 158.508C277.313 157.875 276.126 156.773 274 154C273.5 151 273.5 151 274 148C276.201 145.058 277.387 144.101 281.051 143.495C282.255 143.493 283.459 143.49 284.7 143.488C285.709 143.478 285.709 143.478 286.738 143.467C288.99 143.449 291.241 143.46 293.493 143.47C295.108 143.463 296.722 143.454 298.337 143.444C302.721 143.42 307.105 143.421 311.489 143.425C316.072 143.426 320.654 143.403 325.237 143.383C333.916 143.347 342.595 143.331 351.274 143.323C364.028 143.31 376.782 143.272 389.536 143.229C390.47 143.226 391.404 143.223 392.365 143.219C394.226 143.213 396.087 143.207 397.947 143.2C403.411 143.182 408.875 143.171 414.339 143.166C417.73 143.162 421.12 143.155 424.51 143.146C426.088 143.143 427.667 143.142 429.245 143.143C431.39 143.143 433.535 143.138 435.681 143.131C437.486 143.129 437.485 143.129 439.327 143.127C441.92 143.304 441.92 143.304 443 142C443.098 140.563 443.128 139.12 443.129 137.68C443.134 136.303 443.134 136.303 443.139 134.899C443.137 133.901 443.135 132.903 443.133 131.875C443.134 130.858 443.135 129.841 443.136 128.792C443.136 126.637 443.135 124.482 443.13 122.326C443.125 119.014 443.13 115.703 443.137 112.391C443.136 110.302 443.135 108.214 443.133 106.125C443.136 104.628 443.136 104.628 443.139 103.101C443.136 102.183 443.133 101.266 443.129 100.32C443.129 99.5084 443.128 98.6964 443.127 97.8599C443.204 95.9845 443.204 95.9845 442 95C438.956 94.8998 435.934 94.8656 432.889 94.873C431.921 94.8715 430.953 94.8699 429.956 94.8683C426.686 94.8643 423.416 94.8675 420.146 94.8706C417.813 94.8693 415.48 94.8675 413.146 94.8653C406.789 94.8607 400.432 94.8625 394.074 94.8657C388.109 94.8679 382.144 94.8662 376.18 94.8647C363.645 94.8619 351.111 94.8652 338.577 94.8705C327.811 94.875 317.044 94.8742 306.278 94.8696C293.79 94.8643 281.302 94.8622 268.814 94.8652C262.198 94.8668 255.582 94.867 248.967 94.8637C242.748 94.8608 236.53 94.8628 230.312 94.8686C228.023 94.8699 225.733 94.8695 223.444 94.8673C220.333 94.8646 217.222 94.868 214.111 94.873C213.192 94.8708 212.274 94.8686 211.327 94.8663C207.346 94.4784 207.346 94.4784 204 96ZM204 189C203.881 190.395 203.83 191.797 203.807 193.197C203.791 194.088 203.775 194.979 203.758 195.897C203.714 199.977 203.673 204.057 203.65 208.137C203.633 210.292 203.606 212.447 203.568 214.603C203.513 217.701 203.491 220.799 203.477 223.898C203.454 224.864 203.431 225.83 203.408 226.825C203.411 227.722 203.414 228.62 203.417 229.544C203.408 230.334 203.4 231.124 203.392 231.938C203.842 234.176 203.842 234.176 205.951 235.606C210.167 237.534 213.811 237.409 218.395 237.367C219.346 237.371 220.296 237.374 221.275 237.377C224.461 237.385 227.647 237.371 230.833 237.356C233.116 237.357 235.399 237.359 237.682 237.363C243.884 237.368 250.086 237.354 256.289 237.337C262.771 237.322 269.254 237.323 275.737 237.322C286.621 237.319 297.504 237.304 308.388 237.281C319.593 237.258 330.798 237.244 342.003 237.24C342.693 237.24 343.384 237.24 344.095 237.24C345.486 237.239 346.877 237.239 348.268 237.238C348.955 237.238 349.641 237.238 350.348 237.238C351.032 237.237 351.716 237.237 352.422 237.237C363.738 237.233 375.054 237.22 386.37 237.207C390.238 237.203 394.107 237.2 397.976 237.197C404.044 237.193 410.112 237.182 416.18 237.168C418.413 237.163 420.645 237.161 422.878 237.16C425.914 237.158 428.95 237.15 431.986 237.14C433.326 237.142 433.326 237.142 434.693 237.143C438.982 237.25 438.982 237.25 443 236C443.025 229.325 443.043 222.65 443.055 215.974C443.06 213.702 443.067 211.429 443.075 209.156C443.088 205.897 443.093 202.638 443.098 199.379C443.103 198.356 443.108 197.333 443.113 196.279C443.113 195.338 443.113 194.397 443.114 193.428C443.116 192.595 443.118 191.763 443.12 190.905C443.21 188.99 443.21 188.99 442 188C438.956 187.9 435.934 187.866 432.889 187.873C431.921 187.871 430.953 187.87 429.956 187.868C426.686 187.864 423.416 187.867 420.146 187.871C417.813 187.869 415.48 187.867 413.146 187.865C406.789 187.861 400.432 187.863 394.074 187.866C388.109 187.868 382.144 187.866 376.18 187.865C363.645 187.862 351.111 187.865 338.577 187.871C327.811 187.875 317.044 187.874 306.278 187.87C293.79 187.864 281.302 187.862 268.814 187.865C262.198 187.867 255.582 187.867 248.967 187.864C242.748 187.861 236.53 187.863 230.312 187.869C228.023 187.87 225.733 187.87 223.444 187.867C220.333 187.865 217.222 187.868 214.111 187.873C213.192 187.871 212.274 187.869 211.327 187.866C207.346 187.478 207.346 187.478 204 189ZM94 262C93.3851 262.54 92.7702 263.08 92.1367 263.637C77.5323 276.965 69.6659 298.341 68.7188 317.676C68.0348 341.416 75.8876 363.437 92 381C108.522 397.949 129.927 407.573 153.625 408.188C174.656 407.866 194.086 400.685 210 387C210.602 386.542 211.204 386.085 211.824 385.613C228.271 372.847 237.027 351.202 239.684 331.168C241.893 309.042 235.565 286.726 221.625 269.312C220.099 267.528 218.558 265.756 217 264C216.385 263.29 215.77 262.579 215.137 261.848C202.351 248.022 181.499 237.925 162.788 236.876C135.629 236.008 113.84 243.048 94 262ZM229 253C230.98 255.64 232.96 258.28 235 261C235.628 261.978 236.256 262.955 236.904 263.962C239.369 266.358 240.995 266.594 244.385 266.645C245.453 266.624 245.453 266.624 246.542 266.601C247.305 266.606 248.068 266.61 248.854 266.614C251.413 266.622 253.97 266.595 256.528 266.568C258.361 266.566 260.194 266.567 262.028 266.57C267.007 266.571 271.985 266.542 276.964 266.507C282.167 266.476 287.369 266.473 292.571 266.467C302.424 266.451 312.277 266.41 322.129 266.36C333.346 266.304 344.562 266.277 355.778 266.252C378.852 266.199 401.926 266.111 425 266C425 261.71 425 257.42 425 253C360.32 253 295.64 253 229 253ZM248 282C248.203 282.74 248.406 283.479 248.615 284.241C248.882 285.22 249.15 286.199 249.426 287.207C249.69 288.174 249.955 289.14 250.228 290.136C251.201 293.746 252.109 297.369 253 301C253.557 300.678 254.114 300.355 254.688 300.023C258.676 298.258 262.726 298.432 267 299C269.625 300.625 269.625 300.625 271 303C271.595 306.567 271.439 308.275 269.562 311.375C265.815 313.752 262.329 313.486 258 313C257.01 312.67 256.02 312.34 255 312C255.33 317.94 255.66 323.88 256 330C280.234 330.023 304.468 330.041 328.702 330.052C339.954 330.057 351.205 330.064 362.457 330.075C372.26 330.085 382.063 330.092 391.866 330.094C397.06 330.095 402.254 330.098 407.448 330.106C412.331 330.112 417.213 330.115 422.096 330.113C423.894 330.113 425.691 330.115 427.489 330.119C429.932 330.124 432.375 330.123 434.818 330.12C435.9 330.125 435.9 330.125 437.003 330.129C440.283 330.402 440.283 330.402 443 329C443.098 327.563 443.128 326.12 443.129 324.68C443.134 323.303 443.134 323.303 443.139 321.899C443.137 320.901 443.135 319.903 443.133 318.875C443.134 317.858 443.135 316.841 443.136 315.792C443.136 313.637 443.135 311.482 443.13 309.326C443.125 306.014 443.13 302.703 443.137 299.391C443.136 297.302 443.135 295.214 443.133 293.125C443.136 291.628 443.136 291.628 443.139 290.101C443.136 289.183 443.133 288.266 443.129 287.32C443.129 286.508 443.128 285.696 443.127 284.86C443.204 282.985 443.204 282.985 442 282C439.496 281.902 437.019 281.87 434.515 281.88C433.325 281.878 433.325 281.878 432.112 281.877C429.434 281.876 426.756 281.881 424.078 281.886C422.166 281.887 420.255 281.887 418.344 281.886C413.137 281.886 407.931 281.892 402.724 281.899C397.29 281.905 391.855 281.905 386.421 281.907C376.122 281.91 365.823 281.918 355.524 281.928C343.802 281.939 332.08 281.945 320.359 281.95C296.239 281.96 272.12 281.978 248 282ZM231 388C229.868 389.225 228.769 390.481 227.688 391.75C225.213 394.649 222.709 397.291 220 400C226.27 406.27 232.54 412.54 239 419C242.668 417.166 244.468 415.749 247.25 412.875C248.31 411.788 248.31 411.788 249.391 410.68C249.922 410.125 250.453 409.571 251 409C249.545 405.652 247.702 403.456 245.121 400.891C243.987 399.759 243.987 399.759 242.83 398.605C242.041 397.828 241.251 397.051 240.438 396.25C239.247 395.061 239.247 395.061 238.033 393.848C234.935 390.093 234.935 390.093 231 388Z" fill="#C83E6F"/>
<path d="M81.99 78.5959C82.6736 78.5891 83.3571 78.5822 84.0615 78.5751C86.3107 78.5569 88.5593 78.5607 90.8086 78.5664C92.3789 78.5618 93.9492 78.5565 95.5195 78.5505C98.8071 78.5416 102.094 78.544 105.382 78.5539C109.587 78.5654 113.79 78.5452 117.994 78.516C121.237 78.4976 124.478 78.498 127.72 78.5037C129.27 78.5038 130.82 78.4978 132.369 78.4854C134.54 78.4704 136.71 78.4812 138.881 78.4983C140.73 78.4985 140.73 78.4985 142.617 78.4988C150.704 79.6968 156.236 86.903 161.75 92.4375C162.612 93.2838 163.475 94.13 164.363 95.0019C165.187 95.825 166.011 96.6481 166.859 97.4961C167.607 98.2404 168.354 98.9848 169.124 99.7517C173.382 104.855 173.293 109.843 173.275 116.193C173.28 117.111 173.285 118.028 173.29 118.974C173.304 122.002 173.303 125.03 173.301 128.059C173.305 130.167 173.309 132.275 173.314 134.384C173.321 138.801 173.321 143.219 173.316 147.636C173.31 153.293 173.327 158.95 173.35 164.607C173.365 168.961 173.366 173.314 173.362 177.668C173.363 179.754 173.368 181.839 173.378 183.925C173.391 186.843 173.384 189.76 173.372 192.677C173.38 193.536 173.388 194.395 173.395 195.28C173.345 201.077 172.3 205.22 168.5 209.812C164.733 212.794 160.113 212.155 155.569 212.161C154.708 212.166 153.848 212.171 152.961 212.176C150.112 212.191 147.263 212.198 144.414 212.203C142.435 212.209 140.456 212.215 138.477 212.22C134.326 212.231 130.174 212.237 126.023 212.24C120.705 212.246 115.386 212.27 110.068 212.298C105.979 212.317 101.89 212.322 97.8017 212.324C95.8409 212.327 93.8801 212.335 91.9194 212.348C89.176 212.365 86.4333 212.363 83.6899 212.356C82.8804 212.366 82.0709 212.375 81.2368 212.384C76.6426 212.35 73.5707 211.981 70 209C65.8236 204.362 66.5783 198.659 66.6118 192.771C66.6065 191.638 66.6013 190.504 66.5959 189.336C66.5827 185.588 66.5914 181.841 66.6015 178.094C66.5995 175.49 66.5966 172.886 66.5928 170.282C66.5874 164.824 66.5946 159.367 66.6089 153.91C66.6252 147.606 66.6199 141.303 66.6034 134.999C66.5881 128.928 66.5897 122.856 66.5985 116.785C66.6005 114.205 66.5981 111.624 66.5911 109.044C66.5835 105.438 66.5951 101.834 66.6118 98.2285C66.6057 97.1603 66.5996 96.0921 66.5934 94.9915C66.6733 85.694 66.6733 85.694 70 82C73.9321 78.8774 77.0442 78.6176 81.99 78.5959ZM83 95C83 128.33 83 161.66 83 196C107.42 196 131.84 196 157 196C157.466 181.284 157.466 181.284 157.781 166.566C157.876 160.55 157.988 154.537 158.207 148.523C160.124 124.449 160.124 124.449 152.731 102.357C145.544 94.8168 136.788 93.775 126.75 93.4375C121.478 93.4486 116.275 93.7334 111 94C101.76 94.33 92.52 94.66 83 95Z" fill="black"/>
<path d="M199 269C199.851 269.654 200.702 270.307 201.578 270.98C212.652 280.214 221.407 296.649 223 311C224.297 332.399 221.446 350.928 207.16 367.691C194.754 380.95 178.931 390.644 160.297 391.273C140.36 391.792 124.071 387.982 108.688 374.562C107.11 373.058 105.546 371.538 104 370C103.375 369.41 102.75 368.819 102.106 368.211C97.9756 363.978 95.223 359.139 92.5 353.937C92.137 353.264 91.774 352.592 91.3999 351.898C89.0851 347.249 88.6297 344.196 90 339C92.2323 336.437 93.5805 336.062 96.9375 335.562C100.792 336.113 102.176 337.353 105 340C106.484 342.664 106.484 342.664 107.75 345.625C114.681 360.16 126.275 367.651 141 373C153.372 376.508 167.377 374.212 178.703 368.68C181.255 367.247 183.621 365.703 186 364C186.771 363.448 187.542 362.897 188.336 362.328C197.164 355.278 204.456 343.304 206 332C207.436 314.68 204.503 300.379 193.121 286.75C183.142 276.105 169.427 270.25 154.938 269.75C140.74 269.961 127.179 275.201 116.773 284.992C109.994 292.668 105.793 301.87 102.438 311.437C101 315 101 315 98 317C94.3128 317.481 92.4393 317.229 89.125 315.5C86.7812 312.743 86.2713 311.131 86.5196 307.527C89.7989 290.277 100.101 275.528 114.125 265.25C140.572 247.273 174.166 249.266 199 269Z" fill="black"/>
<path d="M320.927 358.823C322.429 358.804 322.429 358.804 323.962 358.784C325.584 358.773 325.584 358.773 327.238 358.762C328.352 358.754 329.465 358.746 330.613 358.737C332.971 358.723 335.328 358.713 337.686 358.705C341.288 358.688 344.889 358.644 348.49 358.6C350.781 358.589 353.072 358.581 355.363 358.574C356.439 358.557 357.514 358.539 358.622 358.521C364.532 358.538 368.515 358.719 373 363C376.867 368.321 376.451 373.994 376.434 380.313C376.439 381.4 376.444 382.487 376.45 383.607C376.456 385.9 376.455 388.192 376.446 390.485C376.438 393.988 376.466 397.489 376.498 400.992C376.5 403.224 376.499 405.456 376.496 407.688C376.507 408.731 376.519 409.775 376.53 410.851C376.474 416.706 376.143 420.496 372 425C367.336 429.264 361.308 428.45 355.348 428.434C354.215 428.439 353.082 428.444 351.915 428.449C349.522 428.456 347.129 428.455 344.736 428.446C341.079 428.438 337.424 428.466 333.768 428.498C331.44 428.5 329.113 428.499 326.785 428.496C325.694 428.507 324.604 428.519 323.48 428.53C317.379 428.474 313.555 428.232 309 424C307.057 420.88 306.732 418.438 306.678 414.792C306.659 413.754 306.639 412.715 306.62 411.646C306.611 410.529 306.603 409.412 306.594 408.262C306.582 407.108 306.571 405.953 306.559 404.764C306.54 402.323 306.527 399.881 306.52 397.439C306.5 393.712 306.438 389.986 306.375 386.26C306.362 383.885 306.352 381.511 306.344 379.137C306.307 377.471 306.307 377.471 306.269 375.771C306.305 369.473 306.946 365.781 311.418 361.202C314.428 358.915 317.292 358.864 320.927 358.823ZM323 375C323 387.21 323 399.42 323 412C335.21 412 347.42 412 360 412C360 399.79 360 387.58 360 375C347.79 375 335.58 375 323 375Z" fill="black"/>
<path d="M410.531 358.469C411.64 358.465 412.75 358.461 413.893 358.457C416.233 358.454 418.573 358.462 420.912 358.479C424.488 358.5 428.061 358.479 431.637 358.453C433.914 358.456 436.191 358.461 438.469 358.469C439.534 358.461 440.6 358.453 441.698 358.444C447.595 358.518 451.471 358.815 456 363C460.229 367.648 459.432 373.539 459.398 379.469C459.401 380.582 459.404 381.695 459.407 382.842C459.409 385.192 459.404 387.542 459.391 389.892C459.375 393.487 459.391 397.081 459.41 400.676C459.408 402.961 459.404 405.246 459.398 407.531C459.404 408.605 459.41 409.679 459.417 410.786C459.328 420.215 459.328 420.215 456 424C455.359 424.753 454.717 425.506 454.056 426.281C449.245 428.987 444.521 428.551 439.094 428.496C437.357 428.498 437.357 428.498 435.586 428.501C433.142 428.499 430.697 428.487 428.253 428.467C424.513 428.438 420.775 428.446 417.035 428.459C414.659 428.453 412.282 428.444 409.906 428.434C408.788 428.437 407.67 428.439 406.519 428.442C405.474 428.43 404.43 428.417 403.353 428.404C402.438 428.399 401.523 428.393 400.58 428.388C396.287 427.743 393.819 426.081 391.212 422.641C389.892 419.766 389.62 417.886 389.612 414.738C389.597 413.201 389.597 413.201 389.583 411.634C389.589 410.538 389.595 409.442 389.601 408.312C389.599 407.177 389.596 406.042 389.593 404.872C389.591 402.475 389.596 400.078 389.609 397.681C389.625 394.013 389.609 390.347 389.59 386.68C389.592 384.349 389.596 382.018 389.601 379.688C389.595 378.592 389.589 377.496 389.583 376.366C389.592 375.342 389.602 374.317 389.612 373.262C389.614 372.364 389.616 371.467 389.619 370.542C390.265 366.229 392.318 363.63 395.467 360.721C400.509 358.265 404.991 358.427 410.531 358.469ZM406 375C406 387.21 406 399.42 406 412C418.21 412 430.42 412 443 412C443 399.79 443 387.58 443 375C430.79 375 418.58 375 406 375Z" fill="black"/>
<path d="M152.338 -0.404068C153.379 -0.416752 154.42 -0.429436 155.493 -0.442505C156.608 -0.439569 157.723 -0.436634 158.871 -0.433609C160.026 -0.438851 161.181 -0.444093 162.371 -0.449493C164.811 -0.45591 167.251 -0.454581 169.692 -0.44606C173.421 -0.437554 177.148 -0.466314 180.877 -0.498062C183.25 -0.499674 185.623 -0.499096 187.996 -0.496109C189.665 -0.51296 189.665 -0.51296 191.368 -0.530151C197.512 -0.474964 201.419 -0.280138 206 3.99998C207.931 7.10522 208.26 9.50373 208.29 13.1323C208.303 14.1537 208.316 15.1751 208.329 16.2275C208.331 17.3255 208.334 18.4234 208.336 19.5547C208.346 21.2561 208.346 21.2561 208.356 22.992C208.366 25.3909 208.371 27.7899 208.37 30.1889C208.375 33.8543 208.411 37.5184 208.449 41.1836C208.455 43.5156 208.459 45.8476 208.461 48.1797C208.475 49.2736 208.49 50.3675 208.504 51.4946C208.469 57.4365 208.314 61.4973 204 66C198.711 69.8269 193.177 69.4357 186.906 69.3984C185.841 69.4013 184.776 69.4042 183.679 69.4071C181.433 69.4092 179.188 69.4037 176.942 69.3911C173.512 69.375 170.082 69.391 166.652 69.4101C164.466 69.4082 162.28 69.4043 160.094 69.3984C158.561 69.4075 158.561 69.4075 156.997 69.4168C151.642 69.3641 147.488 69.2476 143 66C138.005 60.7433 138.432 55.3155 138.504 48.4687C138.502 47.3595 138.501 46.2502 138.499 45.1073C138.501 42.7673 138.513 40.4273 138.533 38.0874C138.562 34.5122 138.554 30.9385 138.541 27.3633C138.547 25.0859 138.556 22.8086 138.566 20.5312C138.563 19.4655 138.56 18.3997 138.557 17.3016C138.626 11.867 138.699 7.5605 142 2.99998C145.542 0.466941 148.003 -0.378399 152.338 -0.404068ZM155 15C155 27.54 155 40.08 155 53C167.21 53 179.42 53 192 53C192 40.46 192 27.92 192 15C179.79 15 167.58 15 155 15Z" fill="black"/>
<path d="M334.912 110.482C335.811 110.475 336.711 110.468 337.638 110.461C340.612 110.444 343.585 110.455 346.559 110.469C348.626 110.466 350.693 110.462 352.761 110.457C357.094 110.451 361.427 110.46 365.761 110.479C371.314 110.501 376.866 110.488 382.42 110.464C386.689 110.45 390.959 110.454 395.228 110.465C397.276 110.467 399.323 110.464 401.37 110.455C404.234 110.445 407.096 110.46 409.959 110.482C411.227 110.47 411.227 110.47 412.52 110.458C416.549 110.516 418.534 110.706 422.024 112.907C424.144 115.153 424.684 115.964 424.625 119C424.644 119.99 424.644 119.99 424.664 121C423.597 124.213 421.837 125.206 419 127C416.02 127.58 413.095 127.547 410.066 127.518C409.176 127.525 408.286 127.532 407.369 127.539C404.433 127.556 401.498 127.545 398.562 127.531C396.519 127.534 394.475 127.538 392.432 127.543C388.151 127.549 383.871 127.54 379.591 127.522C374.106 127.499 368.622 127.512 363.138 127.536C358.918 127.55 354.7 127.546 350.48 127.535C348.458 127.533 346.436 127.536 344.414 127.545C341.587 127.555 338.761 127.54 335.934 127.518C335.099 127.526 334.265 127.534 333.405 127.542C329.401 127.484 327.45 127.284 323.981 125.093C322 123 322 123 321.371 121C321.393 120.34 321.415 119.68 321.438 119C321.436 118.34 321.435 117.68 321.434 117C323.384 110.113 328.926 110.425 334.912 110.482Z" fill="black"/>
<path d="M335.934 297.482C336.824 297.475 337.714 297.468 338.631 297.461C341.567 297.444 344.502 297.455 347.438 297.469C349.481 297.466 351.525 297.462 353.568 297.457C357.849 297.451 362.129 297.46 366.409 297.479C371.894 297.501 377.378 297.488 382.862 297.464C387.082 297.45 391.3 297.454 395.52 297.465C397.542 297.467 399.564 297.464 401.586 297.455C404.413 297.445 407.239 297.46 410.066 297.482C410.901 297.474 411.735 297.466 412.595 297.458C416.598 297.516 418.549 297.715 422.017 299.907C424.145 302.153 424.684 302.959 424.625 306C424.644 306.99 424.644 306.99 424.664 308C423.597 311.213 421.837 312.206 419 314C416.02 314.58 413.095 314.547 410.066 314.518C409.176 314.525 408.286 314.532 407.369 314.539C404.433 314.556 401.498 314.545 398.562 314.531C396.519 314.534 394.475 314.538 392.432 314.543C388.151 314.549 383.871 314.54 379.591 314.522C374.106 314.499 368.622 314.512 363.138 314.536C358.918 314.55 354.7 314.546 350.48 314.535C348.458 314.533 346.436 314.536 344.414 314.545C341.587 314.555 338.761 314.54 335.934 314.518C335.099 314.526 334.265 314.534 333.405 314.542C329.402 314.484 327.451 314.285 323.983 312.093C321.855 309.847 321.316 309.041 321.375 306C321.362 305.34 321.349 304.68 321.336 304C323.576 297.254 330.013 297.425 335.934 297.482Z" fill="black"/>
<path d="M337.437 203.839C338.286 203.834 339.136 203.829 340.011 203.824C342.817 203.809 345.623 203.802 348.43 203.797C350.383 203.791 352.336 203.785 354.288 203.78C358.382 203.769 362.476 203.763 366.57 203.76C371.811 203.754 377.052 203.73 382.293 203.702C386.327 203.683 390.361 203.678 394.395 203.676C396.327 203.673 398.259 203.665 400.191 203.652C402.895 203.635 405.6 203.637 408.304 203.644C409.099 203.634 409.894 203.625 410.713 203.616C415.527 203.652 418.825 204.344 423 207C424.546 210.092 424.294 212.594 424 216C422.544 218.194 422.544 218.194 420 220C416.995 220.592 414.035 220.546 410.981 220.518C410.07 220.525 409.159 220.532 408.22 220.539C405.209 220.556 402.199 220.545 399.188 220.531C397.095 220.534 395.003 220.538 392.911 220.543C388.526 220.549 384.142 220.54 379.757 220.521C374.134 220.499 368.512 220.512 362.89 220.536C358.569 220.55 354.249 220.546 349.929 220.535C347.856 220.533 345.782 220.536 343.709 220.545C340.812 220.555 337.916 220.54 335.02 220.518C334.161 220.526 333.303 220.534 332.419 220.542C328.607 220.488 326.627 220.448 323.464 218.186C321.327 214.995 321.531 212.753 322 209C323.349 206.438 324.094 205.287 326.873 204.407C330.367 203.738 333.892 203.844 337.437 203.839Z" fill="black"/>
<path d="M189 299C191.592 300.698 191.964 301.882 192.875 304.875C193.053 309.317 191.122 311.694 188.282 314.999C187.652 315.642 187.023 316.286 186.374 316.948C185.656 317.685 184.938 318.423 184.198 319.182C183.427 319.962 182.655 320.743 181.859 321.547C181.059 322.359 180.259 323.17 179.434 324.007C177.742 325.717 176.047 327.425 174.35 329.13C171.759 331.741 169.19 334.372 166.621 337.004C164.973 338.665 163.323 340.326 161.672 341.984C160.908 342.773 160.144 343.561 159.357 344.374C156.027 347.676 153.793 349.747 149.271 351.188C143 350.827 139.786 347.036 135.516 342.746C134.764 341.994 134.764 341.994 133.997 341.226C132.946 340.172 131.897 339.116 130.851 338.057C129.246 336.434 127.634 334.819 126.02 333.205C117.122 324.265 117.122 324.265 116.625 319.125C116.68 315.796 116.865 315.167 119.062 312.437C122.014 310.993 123.721 310.61 126.951 311.16C131.671 313.095 135.007 317.417 138.438 321.062C139.264 321.916 140.091 322.77 140.943 323.65C142.976 325.754 144.994 327.87 147 330C149.848 328.708 151.883 327.358 154.069 325.127C154.639 324.549 155.21 323.972 155.798 323.378C156.704 322.446 156.704 322.446 157.629 321.496C158.26 320.858 158.891 320.219 159.541 319.561C161.553 317.525 163.558 315.482 165.562 313.437C168.204 310.743 170.852 308.055 173.504 305.371C174.11 304.748 174.717 304.125 175.341 303.483C176.192 302.622 176.192 302.622 177.061 301.744C177.557 301.237 178.054 300.73 178.565 300.208C181.951 297.358 184.982 297.995 189 299Z" fill="black"/>
<path d="M109 139.434C109.873 139.427 110.745 139.421 111.644 139.415C113.487 139.408 115.329 139.411 117.172 139.424C119.991 139.437 122.806 139.403 125.625 139.365C127.417 139.364 129.208 139.366 131 139.371C131.842 139.358 132.683 139.345 133.551 139.331C139.379 139.424 139.379 139.424 142.531 142.348C144.327 145.591 144.622 147.347 144 151C142.133 153.303 140.643 154.678 138 156C135.36 156.123 132.747 156.188 130.105 156.203C129.321 156.209 128.537 156.215 127.728 156.22C126.067 156.23 124.405 156.236 122.743 156.24C120.208 156.25 117.673 156.281 115.139 156.313C113.523 156.319 111.908 156.324 110.293 156.328C109.537 156.34 108.782 156.353 108.004 156.366C103.047 156.345 99.5704 155.57 95.9999 152C95.413 144.84 95.413 144.84 97.464 141.904C101.19 139.107 104.452 139.407 109 139.434Z" fill="black"/>
<path d="M109.738 112.797C110.876 112.788 110.876 112.788 112.036 112.78C113.641 112.77 115.246 112.764 116.85 112.76C119.293 112.75 121.735 112.719 124.178 112.688C125.74 112.681 127.301 112.676 128.863 112.672C129.588 112.66 130.314 112.647 131.061 112.634C135.775 112.655 139.005 113.49 143 116C144.427 118.853 144.31 120.835 144 124C142.543 126.66 142.543 126.66 140 129C137.002 129.736 134.075 129.677 131 129.629C130.127 129.631 129.255 129.634 128.355 129.636C126.513 129.635 124.67 129.622 122.828 129.597C120.009 129.563 117.194 129.576 114.375 129.596C112.583 129.589 110.792 129.579 109 129.566C108.158 129.571 107.316 129.576 106.449 129.581C100.616 129.464 100.616 129.464 97.4684 127.092C94.9832 123.552 95.5278 121.249 95.9999 117C99.2318 112.229 104.516 112.827 109.738 112.797Z" fill="black"/>
<path d="M111.5 165.437C112.437 165.414 113.374 165.39 114.34 165.365C119.022 165.375 121.287 165.463 125.117 168.348C127 171 127 171 127.625 174C126.753 178.184 125.416 179.427 122 182C118.484 182.712 115.076 182.653 111.5 182.562C110.094 182.579 110.094 182.579 108.66 182.596C104.355 182.55 101.67 182.383 97.8828 180.215C95.9095 177.893 95.3164 176.998 95.375 174C95.3621 173.34 95.3492 172.68 95.3359 172C97.7589 164.703 105.154 165.363 111.5 165.437Z" fill="black"/>
<path d="M234.5 204.25C235.66 204.351 235.66 204.351 236.844 204.453C239.464 205.118 240.43 205.808 242 208C242.398 210.156 242.398 210.156 242.375 212.5C242.383 213.273 242.39 214.047 242.398 214.844C242 217 242 217 240.848 218.754C238.221 220.525 236.206 220.434 233.062 220.438C232.022 220.457 230.982 220.476 229.91 220.496C226.328 219.885 225.166 218.873 223 216C222.5 212.5 222.5 212.5 223 209C226.258 204.731 229.271 203.727 234.5 204.25Z" fill="black"/>
<path d="M270.5 206.625C272.612 209.97 272.554 212.119 272 216C270.688 218.438 270.688 218.438 268 220C263.349 220.621 258.903 221.023 254.684 218.754C253 217 253 217 252.504 214.844C252.523 214.07 252.543 213.297 252.562 212.5C252.564 211.727 252.565 210.953 252.566 210.156C253.093 207.536 253.941 206.651 256 205C260.643 202.937 266.375 203.944 270.5 206.625Z" fill="black"/>
<path d="M267 111C270.568 113.426 271.746 114.783 272.625 119C271.754 123.179 270.504 124.569 267 127C262.482 127.94 259.071 127.525 254.937 125.5C252.581 122.46 252.309 120.678 252.598 116.906C253 115 253 115 254.375 112.5C258.487 110.15 262.389 110.143 267 111Z" fill="black"/>
<path d="M238 111C240.625 112.5 240.625 112.5 242 115C242.594 117.815 242.645 120.191 242 123C239.852 125.772 238.286 126.756 234.84 127.41C230.557 127.689 228.533 127.37 224.938 124.875C223 122 223 122 222.375 119C224.121 110.617 230.609 109.691 238 111Z" fill="black"/>
</g>
<defs>
<clipPath id="clip0_5_6">
<rect width="512" height="512" fill="white"/>
</clipPath>
</defs>
</svg>
