<svg id="Layer_1" data-name="Layer 1" xmlns="http://www.w3.org/2000/svg" viewBox="0 0 24 24"><defs><style>.cls-1,.cls-2{fill:none;stroke-linecap:round;}.cls-1{stroke:#c83e6f;stroke-linejoin:round;}.cls-2{stroke:#282828;stroke-miterlimit:10;}.cls-3{fill:#c83e6f;}</style></defs><line class="cls-1" x1="2.5" y1="21.5" x2="21.5" y2="21.5"/><line class="cls-2" x1="2.5" y1="20" x2="21.5" y2="20"/><path class="cls-2" d="M6.25,10h0a.75.75,0,0,1,.75.75V20a0,0,0,0,1,0,0H5.5a0,0,0,0,1,0,0V10.75A.75.75,0,0,1,6.25,10Z"/><path class="cls-2" d="M17.75,10h0a.75.75,0,0,1,.75.75V20a0,0,0,0,1,0,0H17a0,0,0,0,1,0,0V10.75A.75.75,0,0,1,17.75,10Z"/><line class="cls-2" x1="7" y1="18.5" x2="16.5" y2="18.5"/><line class="cls-2" x1="5.5" y1="13" x2="2.5" y2="13"/><line class="cls-2" x1="21.5" y1="13" x2="18.5" y2="13"/><path class="cls-3" d="M4,14.5a.5.5,0,1,0,.5.5.5.5,0,0,0-.5-.5Z"/><path class="cls-3" d="M4,16a.5.5,0,1,0,.5.5A.5.5,0,0,0,4,16Z"/><path class="cls-3" d="M4,17.5a.5.5,0,1,0,.5.5.5.5,0,0,0-.5-.5Z"/><path class="cls-3" d="M2.5,14.5A.5.5,0,1,0,3,15a.5.5,0,0,0-.5-.5Z"/><path class="cls-3" d="M2.5,16a.5.5,0,1,0,.5.5.5.5,0,0,0-.5-.5Z"/><path class="cls-3" d="M2.5,17.5A.5.5,0,1,0,3,18a.5.5,0,0,0-.5-.5Z"/><path class="cls-3" d="M21.5,14.5a.5.5,0,1,0,.5.5.5.5,0,0,0-.5-.5Z"/><path class="cls-3" d="M21.5,16a.5.5,0,1,0,.5.5.5.5,0,0,0-.5-.5Z"/><path class="cls-3" d="M21.5,17.5a.5.5,0,1,0,.5.5.5.5,0,0,0-.5-.5Z"/><path class="cls-3" d="M20,14.5a.5.5,0,1,0,.5.5.5.5,0,0,0-.5-.5Z"/><path class="cls-3" d="M20,16a.5.5,0,1,0,.5.5A.5.5,0,0,0,20,16Z"/><path class="cls-3" d="M20,17.5a.5.5,0,1,0,.5.5.5.5,0,0,0-.5-.5Z"/><line class="cls-2" x1="7.5" y1="11.5" x2="16.5" y2="11.5"/><rect class="cls-2" x="9" y="9.5" width="1.5" height="9"/><rect class="cls-2" x="13.5" y="9.5" width="1.5" height="9"/><line class="cls-2" x1="10.5" y1="16" x2="13.5" y2="16"/><line class="cls-2" x1="10.5" y1="14" x2="13.5" y2="14"/><line class="cls-2" x1="10.5" y1="9.5" x2="13.5" y2="9.5"/><path class="cls-2" d="M12,5V6.5s2.5,0,2.5,1.5-1,1.5-1,1.5"/><path class="cls-2" d="M12,5V6.5S9.5,6.5,9.5,8s1,1.5,1,1.5"/><line class="cls-2" x1="15" y1="13.5" x2="16.5" y2="13.5"/><line class="cls-2" x1="7.5" y1="13.5" x2="9" y2="13.5"/><line class="cls-2" x1="15" y1="17" x2="16.5" y2="17"/><line class="cls-2" x1="7.5" y1="17" x2="9" y2="17"/></svg>