<svg id="Layer_1" data-name="Layer 1" xmlns="http://www.w3.org/2000/svg" viewBox="0 0 24 24"><defs><style>.cls-1,.cls-2{fill:none;stroke:#282828;stroke-linecap:round;}.cls-1{stroke-miterlimit:10;}.cls-2{stroke-linejoin:round;}.cls-3{fill:#c83e6f;}</style></defs><line class="cls-1" x1="12" y1="2" x2="12" y2="6"/><rect class="cls-2" x="11" y="6" width="2" height="2"/><rect class="cls-2" x="10.5" y="8" width="3" height="13.5"/><line class="cls-1" x1="10.5" y1="11" x2="13" y2="11"/><circle class="cls-3" cx="12" cy="9.5" r="0.5"/><rect class="cls-1" x="4.5" y="20" width="15" height="1.5"/><rect class="cls-1" x="4.5" y="18.5" width="6" height="1.5"/><rect class="cls-1" x="13.5" y="18.5" width="6" height="1.5"/><rect class="cls-1" x="13.5" y="17" width="6" height="1.5"/><rect class="cls-1" x="4.5" y="17" width="6" height="1.5"/><rect class="cls-2" x="19.5" y="14.5" width="2" height="7"/><rect class="cls-2" x="17" y="15.5" width="2" height="1.5"/><rect class="cls-3" x="19.5" y="12.5" width="2" height="1" rx="0.5"/><rect class="cls-2" x="2.5" y="14.5" width="2" height="7"/><rect class="cls-1" x="4.5" y="15.5" width="2" height="1.5"/><rect class="cls-3" x="2.5" y="12.5" width="2" height="1" rx="0.5"/><line class="cls-1" x1="17.5" y1="18.5" x2="17.5" y2="20"/><line class="cls-1" x1="15.5" y1="18.5" x2="15.5" y2="20"/><line class="cls-1" x1="8.5" y1="18.5" x2="8.5" y2="20"/><line class="cls-1" x1="6.5" y1="18.5" x2="6.5" y2="20"/></svg>