<svg id="Layer_1" data-name="Layer 1" xmlns="http://www.w3.org/2000/svg" viewBox="0 0 24 24"><defs><style>.cls-1{fill:#c83e6f;}.cls-2{fill:none;stroke:#282828;stroke-linecap:round;stroke-linejoin:round;}</style></defs><path class="cls-1" d="M20.12,17.8a1.74,1.74,0,0,0-1.39-.57h-3a2.2,2.2,0,0,0-.39-1.35,2,2,0,0,0-.92-.73L8.64,13,8.37,13l-.29,0H3.5A1.5,1.5,0,0,0,2,14.42v5.16a1.5,1.5,0,0,0,1.5,1.5H6v-1.3l7.18,2.09a1.52,1.52,0,0,0,.87,0l6.55-2v-.62A2.11,2.11,0,0,0,20.12,17.8ZM5,13.92v6.16H3.5a.5.5,0,0,1-.5-.5V14.42a.5.5,0,0,1,.5-.5Zm8.42,7L6,18.73V13.92H8.21l.1,0,5.76,2.11a1,1,0,0,1,.49.4,1.55,1.55,0,0,1,.17.76c-.71,0-1.27,0-1.68,0A4,4,0,0,1,12,17l-2-.73-.34,1,2.19.72a4.15,4.15,0,0,0,1.06.24c.34,0,.72.05,1.15.05h4.74a.85.85,0,0,1,.55.2.9.9,0,0,1,.27.66l-5.84,1.8A.57.57,0,0,1,13.42,20.9Z"/><path class="cls-2" d="M11.55,10.93l-.58-1a.62.62,0,0,1,.16-.81l1-.74a1.09,1.09,0,0,1,0-.18V7.81a1.09,1.09,0,0,1,0-.18l-1-.74A.62.62,0,0,1,11,6.08l.95-1.65a.63.63,0,0,1,.79-.27l1.12.47.31-.21.33-.16.15-1.21a.63.63,0,0,1,.62-.55h1.9a.64.64,0,0,1,.63.55l.15,1.21a3.36,3.36,0,0,1,.33.16l.31.21,1.12-.47a.62.62,0,0,1,.78.27l1,1.65a.64.64,0,0,1-.17.81l-1,.74a1.1,1.1,0,0,1,0,.18v.38a.57.57,0,0,1,0,.18l1,.74a.62.62,0,0,1,.16.81l-.95,1.65a.63.63,0,0,1-.79.27l-1.1-.47-.32.21-.32.16L17.77,13a.64.64,0,0,1-.63.55h-1.9a.63.63,0,0,1-.62-.55l-.15-1.21-.34-.16-.3-.21-1.12.47a.63.63,0,0,1-.79-.27l-.37-.64m4.67-1A2,2,0,0,0,18,8.85a.54.54,0,0,0,.08-.21,2,2,0,0,0-1-2.4.78.78,0,0,0-.21-.09,2,2,0,0,0-2,.49,1.93,1.93,0,0,0,0,2.72A1.81,1.81,0,0,0,16.22,9.92Z"/></svg>