<svg id="Layer_1" data-name="Layer 1" xmlns="http://www.w3.org/2000/svg" viewBox="0 0 24 24"><defs><style>.cls-1,.cls-2{fill:none;}.cls-1{stroke:#c83e6f;stroke-miterlimit:10;}.cls-2{stroke:#282828;stroke-linecap:round;stroke-linejoin:round;}</style></defs><path class="cls-1" d="M9.23,16l-.58-1A1.06,1.06,0,0,0,8,14.51l-1.08-.24a1.06,1.06,0,0,1-.83-1.13L6.16,12a1.06,1.06,0,0,0-.26-.8l-.75-.85a1.09,1.09,0,0,1,0-1.4L5.9,8.1a1.06,1.06,0,0,0,.26-.8L6.05,6.16A1.06,1.06,0,0,1,6.88,5L8,4.79a1.06,1.06,0,0,0,.69-.49l.58-1a1.06,1.06,0,0,1,1.32-.44l1,.44a1.06,1.06,0,0,0,.82,0l1-.44a1.06,1.06,0,0,1,1.32.44l.58,1a1.06,1.06,0,0,0,.69.49L17.12,5A1.06,1.06,0,0,1,18,6.16L17.84,7.3a1.06,1.06,0,0,0,.26.8l.75.85a1.09,1.09,0,0,1,0,1.4l-.75.85a1.06,1.06,0,0,0-.26.8L18,13.14a1.06,1.06,0,0,1-.83,1.13L16,14.51a1.06,1.06,0,0,0-.69.49l-.58,1a1.06,1.06,0,0,1-1.32.44l-1-.44a1.06,1.06,0,0,0-.82,0l-1,.44A1.06,1.06,0,0,1,9.23,16Z"/><path class="cls-1" d="M8.5,15v6.35a.12.12,0,0,0,.16.1l3-.84a1.33,1.33,0,0,1,.74,0l3,.84a.12.12,0,0,0,.16-.1V15"/><polyline class="cls-2" points="9 10 11 11.9 15 8"/></svg>