<svg id="Layer_1" data-name="Layer 1" xmlns="http://www.w3.org/2000/svg" viewBox="0 0 24 24"><defs><style>.cls-1{fill:none;stroke:#282828;stroke-linecap:round;stroke-linejoin:round;}.cls-2{fill:#c83e6f;}</style></defs><path class="cls-1" d="M15.72,10l-.4-.28-.16-.11c0-.1,0-.2,0-.3l.5-.41A.64.64,0,0,0,15.84,8c-.06-.12-.13-.24-.2-.36s-.3-.51-.44-.77a.67.67,0,0,0-.89-.32l-.3.12-.33.13a.76.76,0,0,0-.22-.11l0,0s0,0,0-.06,0-.32-.07-.46a.51.51,0,0,0,0-.13.68.68,0,0,0-.18-.46.64.64,0,0,0-.42-.18H11.25a.68.68,0,0,0-.63.54l-.1.73-.25.15-.61-.25a.69.69,0,0,0-.89.31L8.08,8.06A.55.55,0,0,0,8,8.45a.72.72,0,0,0,.28.44l.53.41c0,.1,0,.21,0,.32l-.5.41a.64.64,0,0,0-.17.89c.07.12.13.24.2.35.15.26.3.52.44.78a.69.69,0,0,0,.89.32l.55-.22.08,0,.25.14,0,.16a4.61,4.61,0,0,1,.07.5.65.65,0,0,0,.64.59h1.47a.64.64,0,0,0,.63-.53l0-.29.06-.42c.08,0,.17-.09.25-.15l.66.27a.65.65,0,0,0,.81-.28l.29-.51c.14-.24.28-.48.41-.72A.62.62,0,0,0,15.72,10ZM9.42,7.06h0l0,.07Z"/><path class="cls-2" d="M12,3a6.26,6.26,0,0,1,4.61,1.89A6.26,6.26,0,0,1,18.5,9.5a6.3,6.3,0,0,1-.87,3.24A6.59,6.59,0,0,1,15.47,15H8.53a6.59,6.59,0,0,1-2.16-2.26A6.3,6.3,0,0,1,5.5,9.5,6.26,6.26,0,0,1,7.39,4.89,6.26,6.26,0,0,1,12,3m0-1A7.23,7.23,0,0,0,6.69,4.19,7.23,7.23,0,0,0,4.5,9.5a7.32,7.32,0,0,0,1,3.75A7.68,7.68,0,0,0,8.25,16h7.5a7.68,7.68,0,0,0,2.74-2.75,7.32,7.32,0,0,0,1-3.75,7.23,7.23,0,0,0-2.19-5.31A7.23,7.23,0,0,0,12,2Z"/><circle class="cls-1" cx="12" cy="9.5" r="1"/><path class="cls-2" d="M15,17H9a.5.5,0,0,0,0,1h6a.5.5,0,0,0,0-1Z"/><path class="cls-2" d="M15,19H9a.5.5,0,0,0,0,1h6a.5.5,0,0,0,0-1Z"/><path class="cls-2" d="M14,21H10a.5.5,0,0,0,0,1h4a.5.5,0,0,0,0-1Z"/></svg>