<svg id="Layer_1" data-name="Layer 1" xmlns="http://www.w3.org/2000/svg" viewBox="0 0 24 24"><defs><style>.cls-1{fill:#c83e6f;}.cls-2{fill:#282828;}</style></defs><path class="cls-1" d="M8.21,9.12a1.1,1.1,0,0,1,.69.22,1.16,1.16,0,0,1,.43.63l.22.7h3.87v3.84l.71.22a1.26,1.26,0,0,1,.64.43,1.06,1.06,0,0,1,.22.67,1,1,0,0,1-.22.67,1.2,1.2,0,0,1-.64.43l-.71.22V21H11a3.19,3.19,0,0,0-.85-1,3.12,3.12,0,0,0-3.84,0,3.16,3.16,0,0,0-.84,1H3V18.59a3.46,3.46,0,0,0,1-.8,3,3,0,0,0,.71-2A3,3,0,0,0,4,13.88a3.3,3.3,0,0,0-1-.8V10.67H6.87l.22-.7a1.17,1.17,0,0,1,.44-.63,1.07,1.07,0,0,1,.68-.22m0-1a2.07,2.07,0,0,0-1.28.42,2.15,2.15,0,0,0-.79,1.13H2.83a.8.8,0,0,0-.59.23.81.81,0,0,0-.24.59v3.25a2.3,2.3,0,0,1,1.18.78,2,2,0,0,1,0,2.63A2.37,2.37,0,0,1,2,17.93v3.25a.78.78,0,0,0,.24.58.81.81,0,0,0,.59.24H6.1a2.28,2.28,0,0,1,.81-1.19,2.05,2.05,0,0,1,1.3-.45,2.08,2.08,0,0,1,1.31.45,2.32,2.32,0,0,1,.8,1.19H13.6a.82.82,0,0,0,.82-.82V17.89a2.21,2.21,0,0,0,1.14-.78A2.08,2.08,0,0,0,16,15.83a2.1,2.1,0,0,0-.43-1.28,2.14,2.14,0,0,0-1.14-.77V10.49a.81.81,0,0,0-.24-.59.78.78,0,0,0-.58-.23H10.28A2.19,2.19,0,0,0,9.5,8.54a2.08,2.08,0,0,0-1.29-.42Z"/><path class="cls-2" d="M20.07,3a2.67,2.67,0,0,0-1.9,2.56,2.6,2.6,0,0,0,2.07,2.56H19a1.11,1.11,0,0,0-1.13,1,1.22,1.22,0,0,0,.34.91,1.26,1.26,0,0,1,.13.23.75.75,0,0,1,0,.32,1.08,1.08,0,1,1-2.16,0,.75.75,0,0,1,0-.32,1.26,1.26,0,0,1,.13-.23,1.22,1.22,0,0,0,.34-.91,1.11,1.11,0,0,0-1.13-1H14.26a2.6,2.6,0,0,0,2.07-2.56A2.67,2.67,0,0,0,14.43,3h5.64M13.52,7.57h0m8-5.57H13a.44.44,0,0,0-.46.46V3.73a.39.39,0,0,0,.1.29.28.28,0,0,0,.22.1l.14,0L13.09,4a1.48,1.48,0,0,1,.27-.1,1.66,1.66,0,0,1,1.49.46,1.61,1.61,0,0,1,.48,1.17,1.57,1.57,0,0,1-.48,1.16,1.61,1.61,0,0,1-1.16.46l-.3,0a.78.78,0,0,1-.21-.09A.44.44,0,0,0,13,7h-.21q-.16,0-.24.21a1.19,1.19,0,0,0-.08.4v1a.41.41,0,0,0,.13.32.44.44,0,0,0,.33.13h2.59c.08,0,.13,0,.13.1a.22.22,0,0,1-.09.18,2.07,2.07,0,0,0-.3.5,1.81,1.81,0,0,0-.12.71,2.08,2.08,0,1,0,4.16,0,1.81,1.81,0,0,0-.12-.71,2.07,2.07,0,0,0-.3-.5.22.22,0,0,1-.09-.18c0-.06.05-.1.13-.1h2.59A.44.44,0,0,0,21.87,9,.41.41,0,0,0,22,8.67V7.37a.39.39,0,0,0-.09-.26.34.34,0,0,0-.22-.1h-.14l-.19.05a1.07,1.07,0,0,1-.27.09l-.28,0a1.61,1.61,0,0,1-1.16-.46,1.57,1.57,0,0,1-.48-1.16,1.61,1.61,0,0,1,.48-1.17,1.56,1.56,0,0,1,1.16-.49,1.69,1.69,0,0,1,.33,0l.29.1a.31.31,0,0,0,.13.06.32.32,0,0,0,.13,0A.33.33,0,0,0,21.91,4,.42.42,0,0,0,22,3.73V2.46A.44.44,0,0,0,21.54,2Z"/></svg>