<svg id="Layer_1" data-name="Layer 1" xmlns="http://www.w3.org/2000/svg" viewBox="0 0 24 24"><defs><style>.cls-1{fill:#282828;}.cls-2{fill:#c83e6f;}</style></defs><path class="cls-1" d="M13.23,10.27h0M13,10.5l.49.45-5,5.38L8,15.88l5-5.38M5.38,18.18a1,1,0,0,1,.7.28,1,1,0,0,1,.34.74A1.62,1.62,0,0,1,6,20.44a1.63,1.63,0,0,1-1.2.56H4.67a2.18,2.18,0,0,1-.85-.17,2.19,2.19,0,0,0,.49-1.55,1,1,0,0,1,.28-.76,1,1,0,0,1,.74-.33h0M13,9.37h0a.65.65,0,0,0-.46.22L6.61,15.94l2,1.81,5.89-6.36a.68.68,0,0,0,.19-.48.65.65,0,0,0-.23-.47l-.95-.89A.64.64,0,0,0,13,9.37ZM5.38,17.18H5.29a2,2,0,0,0-1.43.65,1.94,1.94,0,0,0-.54,1.47,1.23,1.23,0,0,1-.43,1,1.51,1.51,0,0,1-.89.38,3.33,3.33,0,0,0,1.25.95A3.45,3.45,0,0,0,4.67,22h.12a2.64,2.64,0,0,0,1.9-.88,2.64,2.64,0,0,0,.73-2,2,2,0,0,0-.66-1.43,2,2,0,0,0-1.38-.55Z"/><path class="cls-2" d="M19.86,10.29V9.73L21,8.89a1.36,1.36,0,0,0,.36-1.76L20,4.88a1.36,1.36,0,0,0-1.7-.58l-1.27.54-.22-.14-.26-.14L16.4,3.19A1.35,1.35,0,0,0,15.06,2H12.47a1.36,1.36,0,0,0-1.35,1.19L11,4.56l-.24.13-.23.15L9.21,4.3a1.37,1.37,0,0,0-1.71.58L6.21,7.13a1.37,1.37,0,0,0,.35,1.76l1.11.84v.54l-1.11.84a1.37,1.37,0,0,0-.35,1.76l.84,1.47.74-.72-.72-1.25a.35.35,0,0,1,.1-.46l1.55-1.18,0-.3a1.09,1.09,0,0,1,0-.18v-.5a1.09,1.09,0,0,1,0-.18l0-.3L7.17,8.09a.35.35,0,0,1-.1-.46l1.3-2.25a.36.36,0,0,1,.45-.16L10.6,6l.23-.17a2.59,2.59,0,0,1,.39-.25,2.75,2.75,0,0,1,.38-.2l.27-.11.24-1.94A.36.36,0,0,1,12.47,3h2.59a.35.35,0,0,1,.35.31l.24,1.95.28.11a2.22,2.22,0,0,1,.38.18l.38.26.23.17,1.79-.76a.35.35,0,0,1,.44.16l1.3,2.25a.36.36,0,0,1-.09.46L18.8,9.27l0,.3a1.1,1.1,0,0,1,0,.18v.5a.5.5,0,0,1,0,.12l-.09.33,1.59,1.21a.36.36,0,0,1,.09.46l-1.29,2.25a.36.36,0,0,1-.45.15L16.92,14l-.23.17c-.12.09-.25.17-.38.25a3.6,3.6,0,0,1-.39.2l-.27.11-.24,1.94a.35.35,0,0,1-.35.31H12.47a.36.36,0,0,1-.36-.31L11.9,15,11,16.12l.09.69A1.36,1.36,0,0,0,12.47,18h2.59a1.35,1.35,0,0,0,1.34-1.19l.17-1.37.24-.13.24-.15,1.25.53a1.34,1.34,0,0,0,1.7-.57l1.3-2.25A1.37,1.37,0,0,0,21,11.11Z"/><path class="cls-2" d="M15.2,7.17A1.51,1.51,0,0,0,14.76,7a3.21,3.21,0,0,0-3.18.8,3.14,3.14,0,0,0-.84,2.75l1-.93A2.08,2.08,0,0,1,13.8,7.88a4,4,0,0,1,.74.08l.13.06a2.25,2.25,0,0,1,1.14,2.74.78.78,0,0,1-.05.14,2.59,2.59,0,0,1-1,1l-1.14,1.24h.16a3.16,3.16,0,0,0,2.81-1.7,1.72,1.72,0,0,0,.18-.42A3.27,3.27,0,0,0,15.2,7.17Z"/></svg>