<svg id="Layer_1" data-name="Layer 1" xmlns="http://www.w3.org/2000/svg" viewBox="0 0 24 24"><defs><style>.cls-1{fill:#c83e6f;}.cls-2{fill:none;stroke:#282828;stroke-miterlimit:10;}.cls-3{fill:#282828;}</style></defs><path class="cls-1" d="M15,17H9a.5.5,0,0,0,0,1h6a.5.5,0,0,0,0-1Z"/><path class="cls-1" d="M15,19H9a.5.5,0,0,0,0,1h6a.5.5,0,0,0,0-1Z"/><path class="cls-1" d="M14,21H10a.5.5,0,0,0,0,1h4a.5.5,0,0,0,0-1Z"/><path class="cls-1" d="M11.5,15H8a6.59,6.59,0,0,1-2.16-2.26A6.3,6.3,0,0,1,5,9.5,6.26,6.26,0,0,1,6.89,4.89,6.26,6.26,0,0,1,11.5,3V2A7.23,7.23,0,0,0,6.19,4.19,7.23,7.23,0,0,0,4,9.5a7.32,7.32,0,0,0,1,3.75A7.68,7.68,0,0,0,7.75,16H11.5Z"/><circle class="cls-2" cx="12" cy="9" r="2.5"/><path class="cls-3" d="M18.64,9.46,18,9l.53-.43.09-.07A1.53,1.53,0,0,0,19,6.43l-.36-.62C18.4,5.42,18.17,5,18,4.64a1.58,1.58,0,0,0-2.06-.73l-.49.2-.27.1c0-.2-.05-.39-.08-.56l0-.14a1.6,1.6,0,0,0-.44-1.08,1.48,1.48,0,0,0-1-.43H13a.5.5,0,0,0,0,1h.57a.44.44,0,0,1,.31.13.6.6,0,0,1,.15.4s0,.13,0,.15l0,.13a6.72,6.72,0,0,1,.1.69.77.77,0,0,0,.07.29.45.45,0,0,0,.24.23l.1,0a.57.57,0,0,1,.21.12.55.55,0,0,0,.5.06A4.9,4.9,0,0,1,15.8,5l.49-.2a.59.59,0,0,1,.79.28l.71,1.26.33.56a.54.54,0,0,1-.16.79l-.08.07-.72.58A.51.51,0,0,0,17,8.8a1.77,1.77,0,0,1,0,.4.52.52,0,0,0,.22.46l.89.62a.51.51,0,0,1,.17.77l-1.12,2a.52.52,0,0,1-.68.24l-1.05-.43a.51.51,0,0,0-.45,0,3.47,3.47,0,0,1-.37.21.52.52,0,0,0-.27.37l-.17,1.14a.53.53,0,0,1-.52.42H13a.5.5,0,0,0,0,1h.62a1.52,1.52,0,0,0,1.5-1.27l.14-.88.81.32A1.52,1.52,0,0,0,18,13.51l1.12-2A1.5,1.5,0,0,0,18.64,9.46Z"/></svg>