<svg id="Layer_1" data-name="Layer 1" xmlns="http://www.w3.org/2000/svg" viewBox="0 0 24 24"><defs><style>.cls-1{fill:#c83e6f;}.cls-2{fill:#282828;}</style></defs><path class="cls-1" d="M18.5,22H5.5A1.5,1.5,0,0,1,4,20.5V3.5A1.5,1.5,0,0,1,5.5,2h8.09a1.52,1.52,0,0,1,1.06.44l4.91,4.91A1.52,1.52,0,0,1,20,8.41V20.5A1.5,1.5,0,0,1,18.5,22ZM5.5,3a.5.5,0,0,0-.5.5v17a.5.5,0,0,0,.5.5h13a.5.5,0,0,0,.5-.5V8.41a.47.47,0,0,0-.15-.35L13.94,3.15A.47.47,0,0,0,13.59,3Z"/><path class="cls-1" d="M19.5,8.5H15A1.5,1.5,0,0,1,13.5,7V2.5h1V7a.5.5,0,0,0,.5.5h4.5Z"/><rect class="cls-2" x="12" y="12.97" width="5" height="1" rx="0.5"/><path class="cls-2" d="M8.44,15h0a.48.48,0,0,1-.36-.16l-.94-1a.5.5,0,0,1,.74-.67l.59.64,1.63-1.63a.49.49,0,0,1,.7.7l-2,2A.47.47,0,0,1,8.44,15Z"/><rect class="cls-2" x="12" y="16.97" width="5" height="1" rx="0.5"/><path class="cls-2" d="M8.44,19h0a.48.48,0,0,1-.36-.16l-.94-1a.5.5,0,0,1,.74-.67l.59.64,1.63-1.63a.49.49,0,0,1,.7.7l-2,2A.47.47,0,0,1,8.44,19Z"/><rect class="cls-2" x="12" y="8.97" width="5" height="1" rx="0.5"/><path class="cls-2" d="M8.44,11h0a.48.48,0,0,1-.36-.16l-.94-1a.5.5,0,0,1,.74-.67l.59.64,1.63-1.63a.49.49,0,0,1,.7.7l-2,2A.47.47,0,0,1,8.44,11Z"/><rect class="cls-2" x="12" y="12.97" width="5" height="1" rx="0.5"/><path class="cls-2" d="M8.44,15h0a.48.48,0,0,1-.36-.16l-.94-1a.5.5,0,0,1,.74-.67l.59.64,1.63-1.63a.49.49,0,0,1,.7.7l-2,2A.47.47,0,0,1,8.44,15Z"/></svg>