<svg id="Layer_1" data-name="Layer 1" xmlns="http://www.w3.org/2000/svg" viewBox="0 0 24 24"><defs><style>.cls-1,.cls-2,.cls-3{fill:none;stroke-linecap:round;}.cls-1{stroke:#c83e6f;}.cls-1,.cls-2{stroke-linejoin:round;}.cls-2,.cls-3{stroke:#282828;}.cls-3{stroke-miterlimit:10;}.cls-4{fill:#282828;}</style></defs><path class="cls-1" d="M19,15s1,.65,1,1v5.5H18V16C18,15.65,19,15,19,15Z"/><path class="cls-1" d="M5,15s1,.65,1,1v5.5H4V16C4,15.65,5,15,5,15Z"/><path class="cls-1" d="M12,13.5s2,1,2,2v6H10v-6C10,14.5,12,13.5,12,13.5Z"/><rect class="cls-2" x="3.5" y="10" width="17" height="1.5"/><rect class="cls-2" x="2.5" y="11.5" width="19" height="10"/><rect class="cls-3" x="7.5" y="8" width="9" height="13.5"/><path class="cls-3" d="M15.5,5.5s1,.65,1,1V8h-2V6.5C14.5,6.15,15.5,5.5,15.5,5.5Z"/><path class="cls-3" d="M8.5,5.5s1,.65,1,1V8h-2V6.5C7.5,6.15,8.5,5.5,8.5,5.5Z"/><line class="cls-3" x1="9.75" y1="10" x2="9.75" y2="11.5"/><line class="cls-3" x1="12" y1="10" x2="12" y2="11.5"/><line class="cls-3" x1="7.5" y1="10" x2="7.5" y2="11.5"/><line class="cls-3" x1="14.25" y1="10" x2="14.25" y2="11.5"/><line class="cls-3" x1="20" y1="11.5" x2="20" y2="12.5"/><line class="cls-3" x1="18" y1="11.5" x2="18" y2="12.5"/><line class="cls-3" x1="6" y1="12" x2="6" y2="13"/><line class="cls-3" x1="4" y1="12" x2="4" y2="13"/><line class="cls-3" x1="16.5" y1="10" x2="16.5" y2="11.5"/><rect class="cls-4" x="2" y="21" width="20" height="1"/></svg>