<svg id="Layer_1" data-name="Layer 1" xmlns="http://www.w3.org/2000/svg" viewBox="0 0 24 24"><defs><style>.cls-1,.cls-2,.cls-3{fill:none;}.cls-1{stroke:#c83e6f;}.cls-1,.cls-3{stroke-linecap:round;}.cls-1,.cls-2{stroke-linejoin:round;}.cls-2,.cls-3{stroke:#282828;}.cls-3{stroke-miterlimit:10;}</style></defs><path class="cls-1" d="M16,21.5V12.89a.89.89,0,0,0-.89-.89H8.39a.89.89,0,0,0-.89.89V21.5"/><rect class="cls-2" x="6.5" y="4" width="10" height="2"/><rect class="cls-2" x="6" y="6" width="11.5" height="2"/><polygon class="cls-2" points="18.5 10 5 10 4 8.5 19.5 8.5 18.5 10"/><polygon class="cls-2" points="14.5 4 8.5 4 10 2.5 13 2.5 14.5 4"/><line class="cls-3" x1="18.5" y1="10" x2="18.5" y2="21"/><line class="cls-3" x1="5" y1="10" x2="5" y2="21"/><path class="cls-1" d="M14.5,16.75a2.75,2.75,0,0,0-5.5,0"/><line class="cls-1" x1="14.5" y1="17" x2="14.5" y2="21.5"/><line class="cls-1" x1="14.5" y1="16" x2="19" y2="16"/><line class="cls-1" x1="14.5" y1="18" x2="19" y2="18"/><line class="cls-1" x1="4.5" y1="16" x2="9" y2="16"/><line class="cls-1" x1="4.5" y1="18" x2="9" y2="18"/><line class="cls-1" x1="9" y1="21.5" x2="9" y2="17"/><line class="cls-3" x1="2.5" y1="21.5" x2="9" y2="21.5"/><line class="cls-3" x1="14.5" y1="21.5" x2="21.5" y2="21.5"/><line class="cls-1" x1="12" y1="12.5" x2="12" y2="14"/></svg>