<svg width="512" height="512" viewBox="0 0 512 512" fill="none" xmlns="http://www.w3.org/2000/svg">
<path d="M160 93C223.36 93 286.72 93 352 93C352 105.54 352 118.08 352 131C349.03 131 346.06 131 343 131C343 147.83 343 164.66 343 182C376.66 182 410.32 182 445 182C445 191.57 445 201.14 445 211C448.3 211 451.6 211 455 211C455 279.64 455 348.28 455 419C323.66 419 192.32 419 57 419C57 350.36 57 281.72 57 211C64.26 211 71.52 211 79 211C78.9884 208.99 78.9768 206.981 78.9648 204.91C78.9579 202.971 78.951 201.031 78.9451 199.092C78.94 197.741 78.9332 196.39 78.9246 195.038C78.9125 193.1 78.9073 191.161 78.9023 189.223C78.8971 188.055 78.8919 186.887 78.8865 185.684C79 183 79 183 80 182C82.8914 181.905 85.7589 181.874 88.6506 181.886C90.0115 181.886 90.0115 181.886 91.3998 181.886C94.4137 181.887 97.4275 181.895 100.441 181.902C102.525 181.904 104.609 181.906 106.692 181.907C112.188 181.91 117.684 181.92 123.18 181.931C129.768 181.943 136.356 181.948 142.944 181.954C152.962 181.964 162.981 181.983 173 182C173 165.17 173 148.34 173 131C168.71 131 164.42 131 160 131C160 118.46 160 105.92 160 93ZM171 104C171 109.28 171 114.56 171 120C227.1 120 283.2 120 341 120C341 114.72 341 109.44 341 104C284.9 104 228.8 104 171 104ZM184 131C184 142.22 184 153.44 184 165C192.58 165 201.16 165 210 165C210 153.78 210 142.56 210 131C201.42 131 192.84 131 184 131ZM221 131C221 142.22 221 153.44 221 165C244.43 165 267.86 165 292 165C292 153.78 292 142.56 292 131C268.57 131 245.14 131 221 131ZM304 131C304 142.22 304 153.44 304 165C313.24 165 322.48 165 332 165C332 153.78 332 142.56 332 131C322.76 131 313.52 131 304 131ZM184 176C184 181.61 184 187.22 184 193C232.84 193 281.68 193 332 193C332 187.39 332 181.78 332 176C283.16 176 234.32 176 184 176ZM90 194C90 199.61 90 205.22 90 211C117.39 211 144.78 211 173 211C173 205.39 173 199.78 173 194C145.61 194 118.22 194 90 194ZM343 194C343 199.61 343 205.22 343 211C373.03 211 403.06 211 434 211C434 205.39 434 199.78 434 194C403.97 194 373.94 194 343 194ZM184 205C184 206.98 184 208.96 184 211C192.91 211 201.82 211 211 211C211 215.29 211 219.58 211 224C240.7 224 270.4 224 301 224C301 219.71 301 215.42 301 211C311.23 211 321.46 211 332 211C332 209.02 332 207.04 332 205C283.16 205 234.32 205 184 205ZM68 223C68 230.59 68 238.18 68 246C72.95 246 77.9 246 83 246C83 238.41 83 230.82 83 223C78.05 223 73.1 223 68 223ZM94 223C94 230.59 94 238.18 94 246C100.6 246 107.2 246 114 246C114 238.41 114 230.82 114 223C107.4 223 100.8 223 94 223ZM126 223C126 230.59 126 238.18 126 246C132.6 246 139.2 246 146 246C146 238.41 146 230.82 146 223C139.4 223 132.8 223 126 223ZM157 223C157 230.59 157 238.18 157 246C163.6 246 170.2 246 177 246C177 238.41 177 230.82 177 223C170.4 223 163.8 223 157 223ZM189 223C189 230.59 189 238.18 189 246C192.63 246 196.26 246 200 246C200 238.41 200 230.82 200 223C196.37 223 192.74 223 189 223ZM312 223C312 230.59 312 238.18 312 246C316.62 246 321.24 246 326 246C326 238.41 326 230.82 326 223C321.38 223 316.76 223 312 223ZM338 223C338 230.59 338 238.18 338 246C344.6 246 351.2 246 358 246C358 238.41 358 230.82 358 223C351.4 223 344.8 223 338 223ZM369 223C369 230.59 369 238.18 369 246C375.93 246 382.86 246 390 246C390 238.41 390 230.82 390 223C383.07 223 376.14 223 369 223ZM401 223C401 230.59 401 238.18 401 246C407.6 246 414.2 246 421 246C421 238.41 421 230.82 421 223C414.4 223 407.8 223 401 223ZM432 223C432 230.59 432 238.18 432 246C435.96 246 439.92 246 444 246C444 238.41 444 230.82 444 223C440.04 223 436.08 223 432 223ZM211 236C211 292.76 211 349.52 211 408C212.98 408 214.96 408 217 408C217.001 407.424 217.003 406.849 217.004 406.256C217.042 392.198 217.101 378.14 217.184 364.082C217.224 357.284 217.256 350.485 217.271 343.687C217.285 337.118 217.321 330.55 217.368 323.982C217.383 321.484 217.391 318.985 217.392 316.487C217.414 284.088 217.414 284.088 229.812 271.102C237.786 263.481 247.626 260.606 258.516 260.789C269.057 261.684 278.63 266.074 285.875 273.812C291.101 280.234 294.096 287.645 294.158 295.923C294.168 296.913 294.178 297.903 294.188 298.923C294.194 300.002 294.199 301.082 294.205 302.194C294.215 303.336 294.225 304.478 294.235 305.654C294.267 309.431 294.292 313.208 294.316 316.984C294.337 319.602 294.358 322.219 294.379 324.837C294.429 331.024 294.474 337.211 294.517 343.398C294.567 350.443 294.622 357.487 294.677 364.532C294.791 379.021 294.898 393.511 295 408C296.98 408 298.96 408 301 408C301 351.24 301 294.48 301 236C271.3 236 241.6 236 211 236ZM68 257C68 306.83 68 356.66 68 408C111.56 408 155.12 408 200 408C200 358.17 200 308.34 200 257C156.44 257 112.88 257 68 257ZM312 257C312 306.83 312 356.66 312 408C355.56 408 399.12 408 444 408C444 358.17 444 308.34 444 257C400.44 257 356.88 257 312 257ZM235.125 280.625C228.85 288.722 227.403 297.528 227.546 307.53C227.545 308.624 227.545 309.718 227.544 310.845C227.547 314.422 227.578 317.998 227.609 321.574C227.617 324.07 227.623 326.565 227.627 329.06C227.642 335.598 227.681 342.136 227.725 348.674C227.776 356.535 227.792 364.395 227.815 372.256C227.854 384.171 227.931 396.085 228 408C246.48 408 264.96 408 284 408C284.116 387.982 284.116 387.982 284.195 367.965C284.219 359.797 284.247 351.629 284.302 343.46C284.346 336.873 284.369 330.285 284.38 323.698C284.387 321.188 284.401 318.679 284.423 316.17C284.452 312.646 284.456 309.124 284.454 305.6C284.468 304.57 284.483 303.54 284.498 302.479C284.448 293.732 282.358 285.358 276 279C268.729 272.92 261.986 271.46 252.543 271.629C245.343 272.383 240.127 275.486 235.125 280.625Z" fill="#282828"/>
<path d="M409 269C412.96 269 416.92 269 421 269C421 284.51 421 300.02 421 316C417.04 316 413.08 316 409 316C409 300.49 409 284.98 409 269Z" fill="#C83E6F"/>
<path d="M372 269C375.63 269 379.26 269 383 269C383 284.51 383 300.02 383 316C379.37 316 375.74 316 372 316C372 300.49 372 284.98 372 269Z" fill="#C83E6F"/>
<path d="M339 269C342.63 269 346.26 269 350 269C350 284.51 350 300.02 350 316C346.37 316 342.74 316 339 316C339 300.49 339 284.98 339 269Z" fill="#C83E6F"/>
<path d="M166 269C169.63 269 173.26 269 177 269C177 284.51 177 300.02 177 316C173.37 316 169.74 316 166 316C166 300.49 166 284.98 166 269Z" fill="#C83E6F"/>
<path d="M129 269C132.63 269 136.26 269 140 269C140 284.51 140 300.02 140 316C136.37 316 132.74 316 129 316C129 300.49 129 284.98 129 269Z" fill="#C83E6F"/>
<path d="M95 269C98.63 269 102.26 269 106 269C106 284.51 106 300.02 106 316C102.37 316 98.74 316 95 316C95 300.49 95 284.98 95 269Z" fill="#C83E6F"/>
</svg>
