<svg id="Layer_1" data-name="Layer 1" xmlns="http://www.w3.org/2000/svg" viewBox="0 0 24 24"><defs><style>.cls-1{fill:#282828;}.cls-2{fill:#c83e6f;}</style></defs><path class="cls-1" d="M21.85,21.15h0l-3.32-3.31a3.71,3.71,0,0,0,.57-1,3.55,3.55,0,0,0,.21-1.24,3.69,3.69,0,0,0-3.73-3.73,3.69,3.69,0,0,0-3.73,3.73,3.69,3.69,0,0,0,3.73,3.73,3.87,3.87,0,0,0,1.21-.19,2.75,2.75,0,0,0,1-.58l3.31,3.3a.48.48,0,0,0,.36.16.5.5,0,0,0,.35-.85Zm-4.32-3.63a2.78,2.78,0,0,1-3.88,0,2.78,2.78,0,0,1,0-3.88,2.73,2.73,0,0,1,4.67,1.94A2.62,2.62,0,0,1,17.53,17.52Z"/><path class="cls-2" d="M17.53,4.47A1.59,1.59,0,0,0,16.38,4h-4.7a1.58,1.58,0,0,0-.34-1.38,1.74,1.74,0,0,0-2.66,0A1.62,1.62,0,0,0,8.32,4H3.62A1.6,1.6,0,0,0,2,5.62V19a1.55,1.55,0,0,0,.47,1.14,1.56,1.56,0,0,0,1.15.48H12a.5.5,0,0,0,.5-.5.5.5,0,0,0-.5-.5H3.62a.6.6,0,0,1-.43-.2A.58.58,0,0,1,3,19V5.73a.58.58,0,0,1,.19-.42.59.59,0,0,1,.43-.19H16.38a.65.65,0,0,1,.62.61v4.89a.5.5,0,0,0,1,0v-5A1.59,1.59,0,0,0,17.53,4.47Zm-7-.24a.75.75,0,0,1-1.29-.54.76.76,0,0,1,.21-.54.8.8,0,0,1,1.08,0,.76.76,0,0,1,.21.54A.73.73,0,0,1,10.54,4.23Z"/><rect class="cls-2" x="5" y="7" width="10" height="1" rx="0.5"/><rect class="cls-2" x="5" y="10.48" width="8.5" height="1" rx="0.5"/><rect class="cls-2" x="5" y="13.95" width="6" height="1" rx="0.5"/></svg>