<?xml version="1.0" encoding="utf-8"?>
<!-- Generator: Adobe Illustrator 27.0.0, SVG Export Plug-In . SVG Version: 6.00 Build 0)  -->
<svg version="1.1" id="Layer_2_00000045620690605409305570000000194340464020750237_"
	 xmlns="http://www.w3.org/2000/svg" xmlns:xlink="http://www.w3.org/1999/xlink" x="0px" y="0px" viewBox="0 0 24 24"
	 style="enable-background:new 0 0 24 24;" xml:space="preserve">
<style type="text/css">
	.st0{fill:none;stroke:#C83E6F;stroke-width:0.75;stroke-miterlimit:10;}
	.st1{fill:#282828;stroke:#282828;stroke-width:0.3;stroke-miterlimit:10;}
	.st2{fill:#C83E6F;stroke:#C83E6F;stroke-width:0.3;stroke-miterlimit:10;}
</style>
<path class="st0" d="M12,13.9L12,13.9c-0.8,0-1.4,0.6-1.4,1.4v5.8h2.7v-5.8C13.4,14.5,12.8,13.9,12,13.9z"/>
<g>
	<path class="st1" d="M21.9,11.2c-0.2,0-0.4,0-0.6,0V9.7h-5V7.2c0.1,0,0.3,0,0.4,0V5.3H7.3v1.8h0.6v2.6H3.3c0,0.4,0,0.8,0,1.2
		c0,0.2-0.1,0.3-0.3,0.3c-0.3,0-0.5,0-0.8,0c0,0.1,0,0.2,0,0.3v9.6c0,0.2,0,0.3,0.3,0.3c2.7,0,5.3,0,8,0h4.3c2.3,0,4.5,0,6.8,0
		c0.3,0,0.3,0,0.3-0.3v-9.5C21.9,11.4,21.9,11.3,21.9,11.2z M16.3,10.2h4.5c0,0.3,0,0.6,0,0.8c0,0-0.1,0.1-0.2,0.1
		c-0.4,0-0.8,0-1.3,0h-3V10.2z M20.2,11.7v1.2h-1.1v-1.2H20.2z M18.6,11.7v1.2h-1v-1.2H18.6z M17.1,11.7c0,0.4,0,0.7,0,1.1L17,12.9
		c-0.3,0-0.6,0-1,0v-1.2C16,11.7,17.1,11.7,17.1,11.7z M7.8,6.6V5.8h8.4v0.8C16.2,6.6,7.8,6.6,7.8,6.6z M8.4,9.5l0.1-0.1
		c0,0,0.1,0,0.2,0h6.8c0.3,0,0.3,0,0.3,0.4v0.6H8.4C8.4,10,8.4,9.8,8.4,9.5z M8.4,7.2h1.4c0,0.5,0,1.1,0,1.6L9.7,8.9
		c-0.4,0-0.7,0-1.1,0L8.5,8.8C8.4,8.2,8.4,7.7,8.4,7.2z M10.2,8.6c0-0.5,0-1,0-1.5h3.6v1.7c-0.1,0-0.2,0-0.2,0c-1,0-2,0-3.1,0
		C10.3,8.9,10.2,8.8,10.2,8.6z M14.3,8.9V7.2h1.5c0,0.5,0,1.1,0,1.6l-0.1,0.1C15.2,8.9,14.8,8.9,14.3,8.9z M8.1,11.7v1.2
		c-0.3,0-0.6,0-1,0L7,12.8c0-0.4,0-0.7,0-1.1C7,11.7,8.1,11.7,8.1,11.7z M3.8,10.2h4.1v0.9H3.8V10.2z M6.6,11.7v1.1l-0.1,0.1h-1
		v-1.2C5.5,11.7,6.6,11.7,6.6,11.7z M5,11.7v1.2c-0.3,0-0.6,0-1,0l-0.1-0.1c0-0.3,0-0.7,0-1.1C3.9,11.7,5,11.7,5,11.7z M3.4,11.7
		v1.2c-0.2,0-0.5,0-0.7,0l-0.1-0.1c0-0.4,0-0.7,0-1.1C2.6,11.7,3.4,11.7,3.4,11.7z M9.3,20.9H8.8c-2,0-3.9,0-5.9,0
		c-0.2,0-0.3-0.1-0.3-0.3c0-2.3,0-4.6,0-7c0-0.2,0.1-0.3,0.3-0.3c2,0,4,0,6.1,0c0.1,0,0.2,0,0.3,0V20.9z M9.3,12.9H8.6v-1.2h0.6
		L9.3,12.9L9.3,12.9z M14.2,20.9H10c0,0-0.1,0-0.3,0v-8.6h4.4L14.2,20.9L14.2,20.9z M14.2,11.2v0.6H9.8v-0.6H8.4
		c-0.1-0.4-0.1-0.4,0.3-0.4h6.8c0.4,0,0.4,0,0.3,0.4H14.2z M15.5,11.7v1.2c-0.2,0-0.5,0-0.7,0l-0.1-0.1c0-0.3,0-0.7,0-1.1
		C14.7,11.7,15.5,11.7,15.5,11.7z M21.3,20.6c0,0.2,0,0.3-0.3,0.3c-2,0-4,0-6.1,0c-0.1,0-0.2,0-0.3,0v-0.3c0-2.3,0-4.6,0-6.9
		c0-0.2,0.1-0.3,0.3-0.3c2,0,4,0,6,0c0.2,0,0.3,0.1,0.3,0.3v6.9H21.3z M21.3,12.8l-0.1,0.1c-0.2,0-0.3,0-0.5,0v-1.2h0.6
		C21.3,12,21.3,12.4,21.3,12.8z"/>
	<path class="st2" d="M4.1,14c0.2,0,0.3,0,0.4,0c0,0.7,0,1.5,0,2.2c-0.1,0-0.3,0-0.4,0C4.1,15.5,4.1,14.8,4.1,14z"/>
	<path class="st2" d="M6.2,14c0,0.7,0,1.5,0,2.2c-0.2,0-0.3,0-0.5,0c0-0.7,0-1.5,0-2.2C5.9,14,6,14,6.2,14z"/>
	<path class="st2" d="M8,16.2c-0.2,0-0.3,0-0.4,0c0-0.7,0-1.4,0-2.2c0.1,0,0.3,0,0.4,0C8,14.8,8,15.5,8,16.2z"/>
	<path class="st2" d="M16.6,16.2c-0.1,0-0.3,0-0.5,0c0-0.2,0-0.4,0-0.6c0-0.4,0-1.6,0-1.6s0,0,0.5,0C16.6,14.8,16.6,15.5,16.6,16.2z
		"/>
	<path class="st2" d="M17.8,14c0.2,0,0.3,0,0.4,0c0,0.7,0,1.5,0,2.2c-0.1,0-0.3,0-0.4,0C17.8,15.5,17.8,14.8,17.8,14z"/>
	<path class="st2" d="M20.1,16.2c-0.1,0-0.3,0-0.4,0c0-0.7,0-1.5,0-2.2c0.1,0,0.3,0,0.4,0C20.1,14.8,20.1,15.5,20.1,16.2z"/>
</g>
</svg>
