<?xml version="1.0" encoding="UTF-8"?>
<svg id="Layer_2" data-name="Layer 2" xmlns="http://www.w3.org/2000/svg" viewBox="0 0 24 24">
  <defs>
    <style>
      .cls-1, .cls-2, .cls-3, .cls-4 {
        fill: none;
      }

      .cls-1, .cls-3, .cls-4 {
        stroke-linecap: round;
      }

      .cls-1, .cls-4 {
        stroke: #c83e6f;
        stroke-linejoin: round;
      }

      .cls-2 {
        stroke-width: 0px;
      }

      .cls-3 {
        stroke: #282828;
        stroke-miterlimit: 10;
      }

      .cls-4 {
        stroke-width: .5px;
      }
    </style>
  </defs>
  <g id="Layer_1-2" data-name="Layer 1">
    <g>
      <rect class="cls-2" width="24" height="24"/>
      <line class="cls-4" x1="12" y1="12" x2="12" y2="13.5"/>
      <line class="cls-4" x1="13" y1="12" x2="13" y2="13.5"/>
      <line class="cls-4" x1="20" y1="18.5" x2="20" y2="19.5"/>
      <line class="cls-4" x1="20" y1="16.5" x2="20" y2="17.5"/>
      <line class="cls-4" x1="20" y1="20.5" x2="20" y2="21.5"/>
      <line class="cls-4" x1="4" y1="18.5" x2="4" y2="19.5"/>
      <line class="cls-4" x1="4" y1="16.5" x2="4" y2="17.5"/>
      <line class="cls-4" x1="4" y1="20.5" x2="4" y2="21.5"/>
      <line class="cls-4" x1="11" y1="12" x2="11" y2="13.5"/>
      <path class="cls-1" d="m12,18s1,.65,1,1v2.5h-2v-2.5c0-.35,1-1,1-1Z"/>
      <line class="cls-3" x1="2.5" y1="21.5" x2="21.5" y2="21.5"/>
      <line class="cls-3" x1="2.5" y1="15" x2="5.5" y2="15"/>
      <line class="cls-3" x1="18.5" y1="15" x2="21.5" y2="15"/>
      <rect class="cls-3" x="3" y="15" width="2" height="6.5"/>
      <rect class="cls-3" x="19" y="15" width="2" height="6.5"/>
      <rect class="cls-3" x="14.5" y="15.5" width="1.5" height="6"/>
      <path class="cls-3" d="m15.25,14h0c.41,0,.75.34.75.75v.75h-1.5v-.75c0-.41.34-.75.75-.75Z"/>
      <path class="cls-3" d="m8.75,14h0c.41,0,.75.34.75.75v.75h-1.5v-.75c0-.41.34-.75.75-.75Z"/>
      <path class="cls-3" d="m4,12h0c.41,0,.75.34.75.75v.75h-1.5v-.75c0-.41.34-.75.75-.75Z"/>
      <path class="cls-3" d="m12,7.5h0c.41,0,.75.34.75.75v.75h-1.5v-.75c0-.41.34-.75.75-.75Z"/>
      <rect class="cls-3" x="3.25" y="13.5" width="1.5" height="1.5"/>
      <path class="cls-3" d="m20,12h0c.41,0,.75.34.75.75v.75h-1.5v-.75c0-.41.34-.75.75-.75Z"/>
      <rect class="cls-3" x="19.25" y="13.5" width="1.5" height="1.5"/>
      <rect class="cls-3" x="8" y="15.5" width="1.5" height="6"/>
      <rect class="cls-3" x="16" y="16.5" width="3" height="5"/>
      <rect class="cls-3" x="5" y="16.5" width="3" height="5"/>
      <line class="cls-3" x1="3" y1="19.5" x2="5" y2="19.5"/>
      <line class="cls-3" x1="3" y1="17.5" x2="5" y2="17.5"/>
      <line class="cls-3" x1="8" y1="19.5" x2="9.5" y2="19.5"/>
      <line class="cls-3" x1="8" y1="17.5" x2="9.5" y2="17.5"/>
      <line class="cls-3" x1="14.5" y1="19.5" x2="16" y2="19.5"/>
      <line class="cls-3" x1="14.5" y1="17.5" x2="16" y2="17.5"/>
      <line class="cls-3" x1="19" y1="19.5" x2="21" y2="19.5"/>
      <line class="cls-3" x1="19" y1="17.5" x2="21" y2="17.5"/>
      <line class="cls-3" x1="16.5" y1="20" x2="18.5" y2="20"/>
      <line class="cls-3" x1="16.5" y1="18" x2="18.5" y2="18"/>
      <line class="cls-3" x1="5.5" y1="20" x2="7.5" y2="20"/>
      <line class="cls-3" x1="5.5" y1="18" x2="7.5" y2="18"/>
      <rect class="cls-3" x="9.5" y="15" width="5" height="1.5"/>
      <path class="cls-3" d="m11,13.5h2c.83,0,1.5.67,1.5,1.5h-5c0-.83.67-1.5,1.5-1.5Z"/>
      <rect class="cls-3" x="9.5" y="12" width="5" height="1.5"/>
      <path class="cls-3" d="m12,9h0c1.38,0,2.5,1.12,2.5,2.5v.5h-5v-.5c0-1.38,1.12-2.5,2.5-2.5Z"/>
      <line class="cls-3" x1="12" y1="7.5" x2="12" y2="6.5"/>
    </g>
  </g>
</svg>