<svg width="100" height="92" viewBox="0 0 100 92" fill="none" xmlns="http://www.w3.org/2000/svg">
<path d="M94.7926 91.8387C97.6104 91.8387 99.8947 89.5544 99.8947 86.7366V5.10215C99.8947 2.28431 97.6104 0 94.7926 0H5.10215C2.28431 0 0 2.28431 0 5.10215V86.7365C0 89.5544 2.28431 91.8387 5.10215 91.8387H94.7926ZM8.32456 88.6163C5.50672 88.6163 3.22241 86.332 3.22241 83.5141V28.1424C3.22241 25.3245 5.50672 23.0402 8.32456 23.0402H91.5702C94.388 23.0402 96.6723 25.3245 96.6723 28.1424V83.5141C96.6723 86.332 94.388 88.6163 91.5702 88.6163H8.32456ZM91.5702 3.22241C94.388 3.22241 96.6723 5.50672 96.6723 8.32456V14.7157C96.6723 17.5335 94.388 19.8178 91.5702 19.8178H8.32456C5.50672 19.8178 3.22241 17.5335 3.22241 14.7157V8.32456C3.22241 5.50672 5.50672 3.22241 8.32456 3.22241H91.5702Z" fill="black"/>
<path d="M18.353 35.2445C17.9195 35.6202 17.8808 36.2795 18.2675 36.7033L33.6884 53.607C34.045 53.9979 34.0436 54.5965 33.6853 54.9858L18.2482 71.7588C17.8685 72.1714 17.8928 72.8132 18.3028 73.1958L19.2248 74.0563C19.6399 74.4437 20.2915 74.4178 20.6745 73.9985L38.0402 54.9859C38.3962 54.5962 38.3962 53.9993 38.0402 53.6096L20.6493 34.5695C20.2762 34.161 19.6456 34.1242 19.2275 34.4866L18.353 35.2445Z" fill="#C83F6F"/>
<path d="M81.1509 71.6987H43.8783C43.3148 71.6987 42.8579 72.1556 42.8579 72.7192V73.9007C42.8579 74.4643 43.3148 74.9211 43.8783 74.9211H81.1509C81.7145 74.9211 82.1713 74.4643 82.1713 73.9007V72.7192C82.1713 72.1556 81.7145 71.6987 81.1509 71.6987Z" fill="#C83F6F"/>
</svg>
