<svg width="73" height="100" viewBox="0 0 73 100" fill="none" xmlns="http://www.w3.org/2000/svg">
<path d="M36.4307 0C16.3416 0 0 16.3466 0 36.4407C0 49.7337 5.47976 55.8547 11.2824 62.3377C12.1778 63.3407 13.1024 64.3731 14.0174 65.4397C17.2319 69.2021 18.7926 73.4392 18.7926 78.3957V84.5459C18.7926 92.9613 25.6374 99.8065 34.0533 99.8065H38.8236C47.239 99.8065 54.0843 92.9618 54.0843 84.5459V78.3957C54.0843 73.4444 55.645 69.2074 58.8595 65.4447C59.7744 64.3732 60.6992 63.3409 61.5945 62.3427C67.3972 55.86 72.8769 49.7399 72.8769 36.4457C72.872 16.3466 56.5248 0 36.4307 0ZM36.4307 39.2927C38.3926 39.2927 39.9876 40.8828 39.9876 42.8447C39.9876 44.8066 38.3926 46.4016 36.4307 46.4016C34.4736 46.4016 32.8787 44.8066 32.8787 42.8447C32.8836 40.8876 34.4736 39.2927 36.4307 39.2927ZM34.4981 35.6819C31.3423 36.5381 29.0134 39.4248 29.0134 42.8448C29.0134 46.9399 32.3404 50.2719 36.4356 50.2719C40.5308 50.2719 43.8626 46.9399 43.8626 42.8448C43.8626 39.4199 41.5288 36.5333 38.3682 35.6819V24.3554L50.6732 42.4881L43.1776 57.0436H29.688L22.1925 42.4881L34.4926 24.3604L34.4981 35.6819ZM42.4241 62.978H30.4469V60.9134H42.4241V62.978ZM30.4469 66.848H42.4241V72.5871H30.4469V66.848ZM50.2818 76.4621C50.2377 77.0982 50.2084 77.7391 50.2084 78.3899V84.261H22.663V78.3899C22.663 77.7342 22.6386 77.0933 22.5897 76.4621H50.2818ZM38.8233 95.93H34.0529C29.0282 95.93 24.7569 92.6568 23.2451 88.1311H49.6256C48.1187 92.6568 43.848 95.93 38.8233 95.93ZM58.7069 59.7485C57.7969 60.7662 56.8575 61.8181 55.9132 62.9189C53.3935 65.8692 51.7301 69.064 50.8836 72.5868H46.2992L46.2943 59.4454L54.6411 43.2366C54.9641 42.6055 54.92 41.852 54.5237 41.2649L38.0356 16.9686C37.6736 16.4353 37.0767 16.1173 36.4358 16.1173C35.7949 16.1173 35.193 16.4353 34.8359 16.9686L18.3528 41.2649C17.9565 41.852 17.9076 42.6055 18.2354 43.2366L26.5823 59.4454V72.5868H21.9978C21.1465 69.069 19.483 65.8692 16.9633 62.9189C16.019 61.8132 15.0797 60.7661 14.1696 59.7485C8.42078 53.3245 3.8754 48.2508 3.8754 36.4354C3.8754 18.4794 18.4798 3.87002 36.4358 3.87002C54.3919 3.87002 69.0012 18.4794 69.0012 36.4354C68.9964 48.2512 64.4559 53.3244 58.7069 59.7485Z" fill="black"/>
<mask id="mask0_62_213" style="mask-type:alpha" maskUnits="userSpaceOnUse" x="0" y="0" width="73" height="100">
<path d="M36.5239 0C16.4348 0 0.0932617 16.3466 0.0932617 36.4407C0.0932617 49.7337 5.57302 55.8547 11.3757 62.3377C12.271 63.3407 13.1957 64.3731 14.1107 65.4397C17.3251 69.2021 18.8859 73.4392 18.8859 78.3957V84.5459C18.8859 92.9613 25.7306 99.8065 34.1466 99.8065H38.9169C47.3323 99.8065 54.1775 92.9618 54.1775 84.5459V78.3957C54.1775 73.4444 55.7383 69.2074 58.9528 65.4447C59.8677 64.3732 60.7925 63.3409 61.6878 62.3427C67.4904 55.86 72.9702 49.7399 72.9702 36.4457C72.9653 16.3466 56.6181 0 36.5239 0ZM36.5239 39.2927C38.4859 39.2927 40.0808 40.8828 40.0808 42.8447C40.0808 44.8066 38.4859 46.4016 36.5239 46.4016C34.5669 46.4016 32.9719 44.8066 32.9719 42.8447C32.9768 40.8876 34.5669 39.2927 36.5239 39.2927ZM34.5913 35.6819C31.4356 36.5381 29.1067 39.4248 29.1067 42.8448C29.1067 46.9399 32.4336 50.2719 36.5288 50.2719C40.6241 50.2719 43.9559 46.9399 43.9559 42.8448C43.9559 39.4199 41.6221 36.5333 38.4615 35.6819V24.3554L50.7664 42.4881L43.2709 57.0436H29.7813L22.2857 42.4881L34.5858 24.3604L34.5913 35.6819ZM42.5174 62.978H30.5402V60.9134H42.5174V62.978ZM30.5402 66.848H42.5174V72.5871H30.5402V66.848ZM50.375 76.4621C50.331 77.0982 50.3016 77.7391 50.3016 78.3899V84.261H22.7563V78.3899C22.7563 77.7342 22.7318 77.0933 22.6829 76.4621H50.375ZM38.9165 95.93H34.1462C29.1215 95.93 24.8501 92.6568 23.3383 88.1311H49.7188C48.2119 92.6568 43.9412 95.93 38.9165 95.93ZM58.8002 59.7485C57.8902 60.7662 56.9507 61.8181 56.0065 62.9189C53.4868 65.8692 51.8233 69.064 50.9769 72.5868H46.3924L46.3875 59.4454L54.7344 43.2366C55.0573 42.6055 55.0133 41.852 54.617 41.2649L38.1289 16.9686C37.7668 16.4353 37.1699 16.1173 36.529 16.1173C35.8881 16.1173 35.2863 16.4353 34.9292 16.9686L18.4461 41.2649C18.0498 41.852 18.0008 42.6055 18.3286 43.2366L26.6755 59.4454V72.5868H22.0911C21.2398 69.069 19.5763 65.8692 17.0566 62.9189C16.1123 61.8132 15.1729 60.7661 14.2628 59.7485C8.51404 53.3245 3.96866 48.2508 3.96866 36.4354C3.96866 18.4794 18.573 3.87002 36.5291 3.87002C54.4852 3.87002 69.0945 18.4794 69.0945 36.4354C69.0896 48.2512 64.5491 53.3244 58.8002 59.7485Z" fill="black"/>
</mask>
<g mask="url(#mask0_62_213)">
<path d="M48.9212 72.2504H25.0399L12.1807 31.3765L38.8176 10.2507L63.1582 31.3765L48.9212 72.2504Z" fill="#C83F6F"/>
</g>
</svg>
