<svg width="102" height="102" viewBox="0 0 102 102" fill="none" xmlns="http://www.w3.org/2000/svg">
<path d="M63.4986 76.0025C61.8408 76.0025 60.119 75.8651 58.0799 75.5682C57.394 75.4698 56.8549 74.9292 56.7565 74.2434L55.7425 67.1363C55.6206 66.2817 56.2143 65.4896 57.069 65.3677C57.9252 65.2396 58.7159 65.8396 58.8377 66.6942L59.6846 72.631C62.4736 72.9669 64.5252 72.9669 67.3142 72.631L68.1611 66.6942C68.2549 66.0489 68.7377 65.5271 69.3752 65.388C72.5564 64.6975 75.5751 63.4429 78.3438 61.6619C78.897 61.3088 79.6063 61.3354 80.1266 61.7275L84.9344 65.3318C86.0297 64.4694 86.9766 63.6398 87.8047 62.8118C88.6328 61.9837 89.4641 61.0354 90.3266 59.9402L86.7219 55.1329C86.3297 54.6111 86.3032 53.9002 86.6563 53.3503C88.4375 50.5818 89.6891 47.5634 90.3828 44.3825C90.5219 43.745 91.0437 43.2607 91.6891 43.1685L97.6265 42.3218C97.7937 40.9266 97.8734 39.6924 97.8734 38.5081C97.8734 37.3239 97.7937 36.0881 97.6265 34.6944L91.6891 33.8477C91.0437 33.7539 90.5219 33.2712 90.3828 32.6337C89.6922 29.4528 88.4375 26.4344 86.6563 23.6659C86.3032 23.116 86.3297 22.4051 86.7219 21.8833L90.3234 17.0807C88.7297 15.0887 86.9219 13.2795 84.9297 11.6875L80.1266 15.2887C79.6063 15.6793 78.8985 15.7059 78.3438 15.3543C75.5751 13.5733 72.5564 12.3218 69.3752 11.6282C68.7377 11.4891 68.2533 10.9673 68.1611 10.3221L67.3142 4.38519C64.5252 4.04928 62.4736 4.04928 59.6846 4.38519L58.8377 10.3221C58.744 10.9673 58.2612 11.4891 57.6237 11.6282C54.4425 12.3203 51.4237 13.5733 48.655 15.3543C48.1019 15.7059 47.3925 15.6793 46.8722 15.2887L42.0691 11.6875C40.0769 13.2811 38.2676 15.0887 36.6754 17.0807L40.2769 21.8833C40.6691 22.4051 40.6957 23.116 40.3426 23.6659C38.5613 26.4344 37.3082 29.4528 36.616 32.6337C36.477 33.2712 35.9551 33.7555 35.3098 33.8477L29.3723 34.6944C29.2052 36.0927 29.1255 37.327 29.1255 38.5081C29.1255 39.6892 29.2052 40.925 29.3723 42.3218L35.3098 43.1685C36.1645 43.2904 36.7582 44.0825 36.6363 44.9371C36.5145 45.7901 35.7301 46.3854 34.8676 46.2635L27.7583 45.2496C27.0724 45.1511 26.5317 44.6121 26.4333 43.9247C26.138 41.8812 26.0005 40.1611 26.0005 38.5081C26.0005 36.8552 26.138 35.135 26.4333 33.0915C26.5302 32.4056 27.0708 31.8666 27.7583 31.7666L33.8129 30.9027C34.5317 28.0967 35.6457 25.4142 37.1379 22.9035L33.4614 18.0009C33.0442 17.4479 33.0442 16.6854 33.4582 16.1308C35.6317 13.2186 38.2082 10.6408 41.1207 8.46913C41.6738 8.05511 42.4379 8.05511 42.991 8.47225L47.8941 12.1484C50.4034 10.6564 53.0878 9.54245 55.894 8.82377L56.7581 2.7713C56.8549 2.08699 57.394 1.54643 58.0815 1.44644C62.158 0.851188 64.8408 0.851188 68.9189 1.44644C69.6049 1.54486 70.1439 2.08543 70.2423 2.7713L71.1064 8.82377C73.9126 9.54245 76.597 10.6564 79.1063 12.1484L84.0094 8.47225C84.5625 8.05511 85.3266 8.05511 85.8797 8.46913C88.7922 10.6423 91.3703 13.2186 93.5422 16.1308C93.9562 16.6854 93.9562 17.4479 93.539 18.0009L89.8625 22.9035C91.3547 25.4142 92.4687 28.0967 93.1875 30.9027L99.2406 31.7666C99.9249 31.8635 100.466 32.4025 100.566 33.0899C100.862 35.1288 101 36.8505 101 38.5081C101 40.1657 100.862 41.8874 100.566 43.9263C100.467 44.6121 99.9265 45.1511 99.2406 45.2496L93.1875 46.1135C92.4687 48.9195 91.3547 51.6036 89.8625 54.1127L93.539 59.0153C93.9562 59.5684 93.9562 60.3308 93.5422 60.8854C92.3312 62.5087 91.1781 63.8601 90.0172 65.0209C88.8563 66.1833 87.5032 67.3347 85.8797 68.5471C85.3266 68.9611 84.5625 68.9611 84.0094 68.544L79.1063 64.8678C76.5954 66.3598 73.9126 67.4738 71.1064 68.1924L70.2423 74.2449C70.1455 74.9292 69.6064 75.4698 68.9189 75.5698C66.8799 75.8666 65.158 76.0041 63.5002 76.0041L63.4986 76.0025Z" fill="black" stroke="black"/>
<path d="M64.6943 58.7561C63.8772 58.7561 63.1881 58.1202 63.1365 57.2922C63.0819 56.4298 63.7365 55.6893 64.5975 55.633C73.6193 55.0628 80.688 47.5386 80.688 38.5052C80.688 29.0296 72.9771 21.3195 63.5006 21.3195C54.4663 21.3195 46.9413 28.3859 46.371 37.4084C46.3179 38.2692 45.5523 38.8957 44.7117 38.8692C43.8507 38.8145 43.1961 38.0724 43.2507 37.21C43.9257 26.5486 52.8194 18.1948 63.499 18.1948C74.6989 18.1948 83.8114 27.3064 83.8114 38.5052C83.8114 49.1837 75.4568 58.0765 64.7943 58.7514C64.7615 58.7514 64.7271 58.7561 64.6943 58.7561Z" fill="black"/>
<path d="M71.2316 30.7747C69.1676 28.7093 66.4207 27.5703 63.4989 27.5703C60.577 27.5703 57.8302 28.7093 55.7661 30.7747L8.11024 78.4258C7.93993 78.5961 7.81024 78.8055 7.73368 79.0351L1.0806 98.9424C0.893106 99.5048 1.03842 100.125 1.45716 100.542C1.75404 100.839 2.15403 101 2.56184 101C2.72747 101 2.89465 100.973 3.05715 100.919L22.9664 94.2663C23.1945 94.1898 23.4039 94.0601 23.5757 93.8898L71.2316 46.2386C73.2972 44.1748 74.4363 41.4282 74.4363 38.5066C74.4363 35.5851 73.2972 32.8401 71.2316 30.7747ZM69.0223 44.0295L21.6273 91.4197L5.03526 96.9645L7.47274 89.6731C8.86336 90.3745 10.0946 91.3682 11.0852 92.604C11.3946 92.9883 11.8477 93.1883 12.3055 93.1883C12.6493 93.1883 12.993 93.0758 13.2821 92.8446C13.9555 92.3025 14.0633 91.3198 13.5227 90.648C12.154 88.9434 10.418 87.617 8.46336 86.7093L10.5805 80.374L52.1833 38.7754L56.2224 42.814L17.0711 82.7207C16.4664 83.3378 16.4758 84.3252 17.093 84.9298C17.3961 85.2282 17.7914 85.3766 18.1867 85.3766C18.5914 85.3766 18.9961 85.2188 19.3023 84.9079L58.4317 45.0231L60.8317 47.4229C61.1364 47.7275 61.5364 47.8806 61.9364 47.8806C62.3364 47.8806 62.7364 47.7275 63.0411 47.4229C63.652 46.812 63.652 45.8246 63.0411 45.2137L54.3927 36.5662L57.9755 32.9838C59.4505 31.509 61.4114 30.695 63.4989 30.695C65.5864 30.695 67.5473 31.509 69.0223 32.9838C70.4973 34.4586 71.3113 36.4209 71.3113 38.5066C71.3113 40.5924 70.4973 42.5546 69.0223 44.0295Z" fill="#C83F6F" stroke="#C83F6F"/>
</svg>
