<svg width="100" height="100" viewBox="0 0 100 100" fill="none" xmlns="http://www.w3.org/2000/svg">
<path d="M6.24997 0C2.81823 0 0 2.81826 0 6.25V41.3019C0 44.7336 2.81823 47.5519 6.24997 47.5519H41.3018C44.7336 47.5519 47.5485 44.7336 47.5485 41.3019V6.25C47.5485 2.81826 44.7336 0 41.3018 0H6.24997ZM58.6982 0C55.2664 0 52.4515 2.81826 52.4515 6.25V41.3019C52.4515 44.7336 55.2664 47.5519 58.6982 47.5519H93.75C97.1818 47.5519 100 44.7336 100 41.3019V6.25C100 2.81826 97.1818 0 93.75 0H58.6982ZM6.24997 3.45165H41.3018C42.8829 3.45165 44.1002 4.66896 44.1002 6.25V21.6629L40.3321 17.1707C39.2657 15.9 37.7573 15.1632 36.2103 15.1468C34.6633 15.1305 33.0947 15.8793 32.075 17.2481L21.9457 30.8526L15.9078 23.6497C14.902 22.4502 13.4709 21.7639 12.0151 21.7639C10.5592 21.7639 9.12489 22.4502 8.11895 23.6497L3.4483 29.2194V6.25C3.4483 4.66896 4.66896 3.45165 6.24997 3.45165ZM58.6982 3.45165H93.75C95.331 3.45165 96.5518 4.66896 96.5518 6.25V41.3019C96.5518 42.8829 95.331 44.1002 93.75 44.1002H58.6982C57.1171 44.1002 55.8998 42.8829 55.8998 41.3019V6.25C55.8998 4.66896 57.1171 3.45165 58.6982 3.45165ZM69.703 12.2912C69.3944 12.2803 69.0885 12.3524 68.8173 12.5C68.5463 12.6493 68.3205 12.8688 68.1635 13.1354C68.0064 13.402 67.9241 13.7059 67.925 14.0154V33.55C67.9279 33.8576 68.0131 34.1588 68.1717 34.4223C68.3303 34.6859 68.5565 34.9022 68.8269 35.0489C69.0973 35.1956 69.4019 35.2673 69.7094 35.2566C70.0168 35.2458 70.3157 35.1531 70.5752 34.9879L85.7456 25.2256C85.986 25.069 86.1835 24.8548 86.3202 24.6026C86.4569 24.3503 86.5285 24.0679 86.5285 23.781C86.5285 23.4941 86.4569 23.2117 86.3202 22.9594C86.1835 22.7072 85.986 22.493 85.7456 22.3363L70.5752 12.564C70.3143 12.3963 70.013 12.302 69.703 12.2912ZM71.3767 17.1707L81.6474 23.7877L71.3767 30.3947V17.1707ZM36.1698 18.5951C36.6573 18.6003 37.2134 18.8242 37.6852 19.3865L44.1002 27.034V41.3019C44.1002 42.8829 42.8829 44.1002 41.3018 44.1002H16.3692L34.8364 19.309C35.2463 18.7588 35.6821 18.59 36.1698 18.5951ZM11.9376 25.2155C11.9637 25.2143 11.9898 25.2155 12.0152 25.2155C12.4205 25.2155 12.8408 25.3608 13.2612 25.8621L19.8311 33.6914L12.0826 44.1002H6.2501C4.66909 44.1002 3.44836 42.8829 3.44843 41.3019V34.5939L10.7692 25.8621C11.1635 25.3922 11.5556 25.2336 11.9376 25.2155ZM6.24997 52.4515C2.81823 52.4515 0 55.2664 0 58.6982V93.7635C0 97.1952 2.81823 100 6.24997 100H41.3018C44.7336 100 47.5485 97.1952 47.5485 93.7635V58.6982C47.5485 55.2664 44.7336 52.4515 41.3018 52.4515H6.24997ZM58.6982 52.4515C55.2664 52.4515 52.4515 55.2664 52.4515 58.6982V93.7635C52.4515 97.1952 55.2664 100 58.6982 100H93.75C97.1818 100 100 97.1952 100 93.7635V58.6982C100 55.2664 97.1818 52.4515 93.75 52.4515H58.6982ZM6.24997 55.8998H41.3018C42.8829 55.8998 44.1002 57.1171 44.1002 58.6982V93.7635C44.1002 95.3445 42.8829 96.5652 41.3018 96.5652H6.24997C4.66896 96.5652 3.44823 95.3445 3.4483 93.7635V58.6982C3.4483 57.1171 4.66896 55.8998 6.24997 55.8998ZM58.6982 55.8998H93.75C95.331 55.8998 96.5518 57.1171 96.5518 58.6982V93.7635C96.5518 95.3445 95.331 96.5652 93.75 96.5652H58.6982C57.1171 96.5652 55.8998 95.3445 55.8998 93.7635V58.6982C55.8998 57.1171 57.1171 55.8998 58.6982 55.8998ZM83.2233 62.6213C81.5283 62.6219 79.8365 63.2702 78.5527 64.5542L76.8488 66.2615L64.9852 78.1217C64.7543 78.3561 64.5954 78.6517 64.5271 78.9736L62.6581 87.756C62.5979 88.0363 62.6086 88.3273 62.6892 88.6025C62.7698 88.8778 62.9178 89.1285 63.1197 89.3322C63.3217 89.5358 63.5712 89.6858 63.8458 89.7687C64.1203 89.8515 64.4112 89.8646 64.6921 89.8067L73.4744 87.9344C73.8026 87.8648 74.1034 87.701 74.3399 87.463L86.1899 75.6129C86.2077 75.5952 86.2251 75.5772 86.2421 75.5588L87.9056 73.8953C90.4734 71.3274 90.4743 67.1226 87.9056 64.5539C86.6213 63.2696 84.9183 62.6206 83.2233 62.6213ZM11.7356 64.1467C11.508 64.1458 11.2825 64.19 11.0722 64.2767C10.8618 64.3633 10.6706 64.4908 10.5097 64.6517C10.3488 64.8126 10.2213 65.0038 10.1347 65.2142C10.048 65.4246 10.0038 65.65 10.0047 65.8776C10.0065 66.3348 10.1899 66.7727 10.5145 67.0947C10.8391 67.4168 11.2783 67.5968 11.7356 67.595H35.8162C36.2712 67.5932 36.707 67.4117 37.0287 67.09C37.3504 66.7683 37.5319 66.3325 37.5336 65.8776C37.5345 65.6512 37.4908 65.4268 37.405 65.2173C37.3192 65.0078 37.1929 64.8172 37.0334 64.6565C36.874 64.4957 36.6844 64.368 36.4755 64.2805C36.2667 64.1931 36.0427 64.1476 35.8162 64.1467H11.7356ZM83.2301 66.0426C84.0322 66.0427 84.837 66.3563 85.4661 66.9855C86.7246 68.2439 86.7254 70.1948 85.4661 71.4541L84.9708 71.9491L80.4989 67.4838L80.9974 66.9855C81.6269 66.3558 82.4279 66.0425 83.2301 66.0426ZM78.0644 69.9185L82.5263 74.3939L72.2555 84.6646L66.578 85.8736L67.7869 80.196L78.0644 69.9185ZM11.7356 74.5084C11.2783 74.5066 10.8391 74.6865 10.5145 75.0086C10.1899 75.3307 10.0065 75.7685 10.0047 76.2258C10.0038 76.4533 10.048 76.6788 10.1347 76.8892C10.2213 77.0996 10.3488 77.2908 10.5097 77.4517C10.6706 77.6126 10.8618 77.74 11.0722 77.8267C11.2825 77.9134 11.508 77.9575 11.7356 77.9566H35.8162C36.0427 77.9558 36.2667 77.9103 36.4755 77.8228C36.6844 77.7354 36.8739 77.6076 37.0334 77.4469C37.1929 77.2862 37.3192 77.0956 37.405 76.8861C37.4908 76.6766 37.5345 76.4522 37.5336 76.2258C37.5319 75.7709 37.3504 75.3351 37.0287 75.0134C36.707 74.6917 36.2712 74.5102 35.8162 74.5084H11.7356ZM11.7356 84.8667C11.2783 84.8649 10.8391 85.0448 10.5145 85.3669C10.1899 85.689 10.0065 86.1268 10.0047 86.5841C10.0038 86.8116 10.048 87.0371 10.1347 87.2475C10.2213 87.4579 10.3488 87.6491 10.5097 87.81C10.6706 87.9709 10.8618 88.0983 11.0722 88.185C11.2825 88.2717 11.508 88.3158 11.7356 88.3149H35.8162C36.0427 88.3141 36.2667 88.2686 36.4755 88.1811C36.6844 88.0937 36.8739 87.9659 37.0334 87.8052C37.1929 87.6445 37.3192 87.4539 37.405 87.2444C37.4908 87.0349 37.5345 86.8105 37.5336 86.5841C37.5319 86.1292 37.3504 85.6933 37.0287 85.3717C36.707 85.05 36.2712 84.8684 35.8162 84.8667H11.7356Z" fill="black"/>
<mask id="mask0_62_244" style="mask-type:alpha" maskUnits="userSpaceOnUse" x="0" y="0" width="100" height="100">
<path d="M6.24997 0C2.81823 0 0 2.81826 0 6.25V41.3019C0 44.7336 2.81823 47.5519 6.24997 47.5519H41.3018C44.7336 47.5519 47.5485 44.7336 47.5485 41.3019V6.25C47.5485 2.81826 44.7336 0 41.3018 0H6.24997ZM58.6982 0C55.2664 0 52.4515 2.81826 52.4515 6.25V41.3019C52.4515 44.7336 55.2664 47.5519 58.6982 47.5519H93.75C97.1818 47.5519 100 44.7336 100 41.3019V6.25C100 2.81826 97.1818 0 93.75 0H58.6982ZM6.24997 3.45165H41.3018C42.8829 3.45165 44.1002 4.66896 44.1002 6.25V21.6629L40.3321 17.1707C39.2657 15.9 37.7573 15.1632 36.2103 15.1468C34.6633 15.1305 33.0947 15.8793 32.075 17.2481L21.9457 30.8526L15.9078 23.6497C14.902 22.4502 13.4709 21.7639 12.0151 21.7639C10.5592 21.7639 9.12489 22.4502 8.11895 23.6497L3.4483 29.2194V6.25C3.4483 4.66896 4.66896 3.45165 6.24997 3.45165ZM58.6982 3.45165H93.75C95.331 3.45165 96.5518 4.66896 96.5518 6.25V41.3019C96.5518 42.8829 95.331 44.1002 93.75 44.1002H58.6982C57.1171 44.1002 55.8998 42.8829 55.8998 41.3019V6.25C55.8998 4.66896 57.1171 3.45165 58.6982 3.45165ZM69.703 12.2912C69.3944 12.2803 69.0885 12.3524 68.8173 12.5C68.5463 12.6493 68.3205 12.8688 68.1635 13.1354C68.0064 13.402 67.9241 13.7059 67.925 14.0154V33.55C67.9279 33.8576 68.0131 34.1588 68.1717 34.4223C68.3303 34.6859 68.5565 34.9022 68.8269 35.0489C69.0973 35.1956 69.4019 35.2673 69.7094 35.2566C70.0168 35.2458 70.3157 35.1531 70.5752 34.9879L85.7456 25.2256C85.986 25.069 86.1835 24.8548 86.3202 24.6026C86.4569 24.3503 86.5285 24.0679 86.5285 23.781C86.5285 23.4941 86.4569 23.2117 86.3202 22.9594C86.1835 22.7072 85.986 22.493 85.7456 22.3363L70.5752 12.564C70.3143 12.3963 70.013 12.302 69.703 12.2912ZM71.3767 17.1707L81.6474 23.7877L71.3767 30.3947V17.1707ZM36.1698 18.5951C36.6573 18.6003 37.2134 18.8242 37.6852 19.3865L44.1002 27.034V41.3019C44.1002 42.8829 42.8829 44.1002 41.3018 44.1002H16.3692L34.8364 19.309C35.2463 18.7588 35.6821 18.59 36.1698 18.5951ZM11.9376 25.2155C11.9637 25.2143 11.9898 25.2155 12.0152 25.2155C12.4205 25.2155 12.8408 25.3608 13.2612 25.8621L19.8311 33.6914L12.0826 44.1002H6.2501C4.66909 44.1002 3.44836 42.8829 3.44843 41.3019V34.5939L10.7692 25.8621C11.1635 25.3922 11.5556 25.2336 11.9376 25.2155ZM6.24997 52.4515C2.81823 52.4515 0 55.2664 0 58.6982V93.7635C0 97.1952 2.81823 100 6.24997 100H41.3018C44.7336 100 47.5485 97.1952 47.5485 93.7635V58.6982C47.5485 55.2664 44.7336 52.4515 41.3018 52.4515H6.24997ZM58.6982 52.4515C55.2664 52.4515 52.4515 55.2664 52.4515 58.6982V93.7635C52.4515 97.1952 55.2664 100 58.6982 100H93.75C97.1818 100 100 97.1952 100 93.7635V58.6982C100 55.2664 97.1818 52.4515 93.75 52.4515H58.6982ZM6.24997 55.8998H41.3018C42.8829 55.8998 44.1002 57.1171 44.1002 58.6982V93.7635C44.1002 95.3445 42.8829 96.5652 41.3018 96.5652H6.24997C4.66896 96.5652 3.44823 95.3445 3.4483 93.7635V58.6982C3.4483 57.1171 4.66896 55.8998 6.24997 55.8998ZM58.6982 55.8998H93.75C95.331 55.8998 96.5518 57.1171 96.5518 58.6982V93.7635C96.5518 95.3445 95.331 96.5652 93.75 96.5652H58.6982C57.1171 96.5652 55.8998 95.3445 55.8998 93.7635V58.6982C55.8998 57.1171 57.1171 55.8998 58.6982 55.8998ZM83.2233 62.6213C81.5283 62.6219 79.8365 63.2702 78.5527 64.5542L76.8488 66.2615L64.9852 78.1217C64.7543 78.3561 64.5954 78.6517 64.5271 78.9736L62.6581 87.756C62.5979 88.0363 62.6086 88.3273 62.6892 88.6025C62.7698 88.8778 62.9178 89.1285 63.1197 89.3322C63.3217 89.5358 63.5712 89.6858 63.8458 89.7687C64.1203 89.8515 64.4112 89.8646 64.6921 89.8067L73.4744 87.9344C73.8026 87.8648 74.1034 87.701 74.3399 87.463L86.1899 75.6129C86.2077 75.5952 86.2251 75.5772 86.2421 75.5588L87.9056 73.8953C90.4734 71.3274 90.4743 67.1226 87.9056 64.5539C86.6213 63.2696 84.9183 62.6206 83.2233 62.6213ZM11.7356 64.1467C11.508 64.1458 11.2825 64.19 11.0722 64.2767C10.8618 64.3633 10.6706 64.4908 10.5097 64.6517C10.3488 64.8126 10.2213 65.0038 10.1347 65.2142C10.048 65.4246 10.0038 65.65 10.0047 65.8776C10.0065 66.3348 10.1899 66.7727 10.5145 67.0947C10.8391 67.4168 11.2783 67.5968 11.7356 67.595H35.8162C36.2712 67.5932 36.707 67.4117 37.0287 67.09C37.3504 66.7683 37.5319 66.3325 37.5336 65.8776C37.5345 65.6512 37.4908 65.4268 37.405 65.2173C37.3192 65.0078 37.1929 64.8172 37.0334 64.6565C36.874 64.4957 36.6844 64.368 36.4755 64.2805C36.2667 64.1931 36.0427 64.1476 35.8162 64.1467H11.7356ZM83.2301 66.0426C84.0322 66.0427 84.837 66.3563 85.4661 66.9855C86.7246 68.2439 86.7254 70.1948 85.4661 71.4541L84.9708 71.9491L80.4989 67.4838L80.9974 66.9855C81.6269 66.3558 82.4279 66.0425 83.2301 66.0426ZM78.0644 69.9185L82.5263 74.3939L72.2555 84.6646L66.578 85.8736L67.7869 80.196L78.0644 69.9185ZM11.7356 74.5084C11.2783 74.5066 10.8391 74.6865 10.5145 75.0086C10.1899 75.3307 10.0065 75.7685 10.0047 76.2258C10.0038 76.4533 10.048 76.6788 10.1347 76.8892C10.2213 77.0996 10.3488 77.2908 10.5097 77.4517C10.6706 77.6126 10.8618 77.74 11.0722 77.8267C11.2825 77.9134 11.508 77.9575 11.7356 77.9566H35.8162C36.0427 77.9558 36.2667 77.9103 36.4755 77.8228C36.6844 77.7354 36.8739 77.6076 37.0334 77.4469C37.1929 77.2862 37.3192 77.0956 37.405 76.8861C37.4908 76.6766 37.5345 76.4522 37.5336 76.2258C37.5319 75.7709 37.3504 75.3351 37.0287 75.0134C36.707 74.6917 36.2712 74.5102 35.8162 74.5084H11.7356ZM11.7356 84.8667C11.2783 84.8649 10.8391 85.0448 10.5145 85.3669C10.1899 85.689 10.0065 86.1268 10.0047 86.5841C10.0038 86.8116 10.048 87.0371 10.1347 87.2475C10.2213 87.4579 10.3488 87.6491 10.5097 87.81C10.6706 87.9709 10.8618 88.0983 11.0722 88.185C11.2825 88.2717 11.508 88.3158 11.7356 88.3149H35.8162C36.0427 88.3141 36.2667 88.2686 36.4755 88.1811C36.6844 88.0937 36.8739 87.9659 37.0334 87.8052C37.1929 87.6445 37.3192 87.4539 37.405 87.2444C37.4908 87.0349 37.5345 86.8105 37.5336 86.5841C37.5319 86.1292 37.3504 85.6933 37.0287 85.3717C36.707 85.05 36.2712 84.8684 35.8162 84.8667H11.7356Z" fill="black"/>
</mask>
<g mask="url(#mask0_62_244)">
<circle cx="75.5786" cy="25.0576" r="15.1157" fill="#C83F6F"/>
<rect x="7.55811" y="60.0127" width="31.1762" height="32.1209" fill="#C83F6F"/>
</g>
</svg>
