<svg width="72" height="99" viewBox="0 0 72 99" fill="none" xmlns="http://www.w3.org/2000/svg">
<path d="M42.8124 12.6415C41.1055 12.6415 39.3985 12.8008 37.7188 13.1058L39.8992 9.34135C41.069 7.3112 41.4513 5.76359 41.0963 4.46174C40.5865 3.11444 39.5396 2.04472 38.2058 1.50752L37.8553 1.30724L37.5048 1.1024V1.09785C36.3714 0.210235 34.9147 -0.167526 33.4901 0.069131C32.1882 0.415079 31.0366 1.51664 29.8668 3.54679L3.04202 50.0076L0.861671 53.7857C0.747874 53.9814 0.684151 54.1999 0.670494 54.423L0.0650972 64.1412H0.0605456C0.0286822 64.692 0.310894 65.2154 0.788845 65.4931C1.2668 65.7708 1.85854 65.7526 2.32282 65.4476L10.4342 60.0627C10.6208 59.9398 10.7756 59.7714 10.8894 59.5757L16.7841 49.3659C17.9995 51.5052 19.3878 53.5399 20.9399 55.4472C24.4585 60.0355 28.0909 64.7786 28.4641 73.3319L26.8027 73.3274C26.0016 73.3274 25.3461 73.9829 25.3461 74.784V78.8397C25.3506 81.3205 27.0075 83.4918 29.3973 84.1518V86.9466C29.4018 89.9873 31.8644 92.4499 34.9051 92.4544H35.6334V94.2751C35.6425 96.8834 37.7546 98.9955 40.3628 99H45.2606C47.8734 98.9954 49.99 96.8788 49.9945 94.2661V92.4408H50.7228C53.7635 92.4408 56.2261 89.9736 56.2306 86.9375V84.1382C58.6159 83.4781 60.2681 81.316 60.2773 78.8397V74.784C60.2773 74.3971 60.1226 74.0284 59.8494 73.7553C59.5763 73.4821 59.2076 73.3274 58.8207 73.3274H57.1593C57.5325 64.7745 61.1649 60.0362 64.6835 55.4473C67.9381 51.205 71.0106 47.2039 71.0106 40.8406C71.0015 33.3663 68.0291 26.1977 62.7443 20.9119C57.455 15.6226 50.29 12.6507 42.8124 12.6415ZM11.2729 53.0895L6.28868 50.2127L25.2699 17.339L30.2542 20.2158L11.2729 53.0895ZM31.7061 17.6895L26.7219 14.8126L28.8977 11.0437L33.8774 13.9205L31.7061 17.6895ZM32.3889 5.00308C33.3903 3.2688 34.0139 2.94567 34.2324 2.88647C34.6193 2.78633 35.2656 3.16413 36.0166 3.61021L36.3899 3.8287L36.7631 4.04263C37.5233 4.47051 38.1787 4.84377 38.2789 5.22609C38.3381 5.44458 38.37 6.14557 37.3686 7.88433L35.3384 11.3983L30.3542 8.5215L32.3889 5.00308ZM3.15203 61.3968L3.55259 54.9514L4.83626 52.7392L9.82051 55.6161L8.53684 57.8282L3.15203 61.3968ZM47.0819 94.2565V94.2611C47.0819 94.7436 46.8907 95.2078 46.5493 95.5493C46.2079 95.8907 45.7436 96.0864 45.2611 96.0864H40.3633C39.3574 96.0864 38.5426 95.2716 38.5426 94.2656V92.4403H47.0728L47.0819 94.2565ZM50.7234 89.5226H34.9059C33.472 89.5226 32.3113 88.3618 32.3113 86.9325V84.3424H53.3131V86.937C53.3131 88.3663 52.1524 89.5271 50.7185 89.5271L50.7234 89.5226ZM57.3646 78.8302C57.3646 80.2641 56.2038 81.4202 54.7745 81.4248H30.8548C29.4255 81.4202 28.2693 80.2686 28.2602 78.8393V76.2401H57.3654L57.3646 78.8302ZM62.3762 53.6671C58.7301 58.4147 54.6289 63.7723 54.2465 73.3219H44.2688V50.4766C49.9223 49.7346 54.1555 44.9233 54.1646 39.2198C54.1646 38.4141 53.5137 37.7632 52.708 37.7632C51.9023 37.7632 51.2514 38.4141 51.2514 39.2198C51.2514 43.8809 47.4733 47.659 42.8122 47.659C38.1511 47.659 34.373 43.8809 34.373 39.2198C34.373 38.4141 33.7221 37.7632 32.9164 37.7632C32.1107 37.7632 31.4598 38.4141 31.4598 39.2198C31.4689 44.9232 35.7021 49.7391 41.3556 50.4766V73.3266H31.3779C30.9955 63.7767 26.8897 58.4191 23.2482 53.6718C21.3546 51.4368 19.7796 48.956 18.5598 46.2887L35.7209 16.5648C43.3635 14.3388 51.6071 15.8364 57.9754 20.6114C64.3481 25.3864 68.0942 32.883 68.0988 40.8395C68.0988 46.2107 65.4496 49.6701 62.377 53.6716L62.3762 53.6671Z" fill="black"/>
<mask id="mask0_62_263" style="mask-type:alpha" maskUnits="userSpaceOnUse" x="0" y="0" width="72" height="99">
<path d="M42.8124 12.6415C41.1055 12.6415 39.3985 12.8008 37.7188 13.1058L39.8992 9.34135C41.069 7.3112 41.4513 5.76359 41.0963 4.46174C40.5865 3.11444 39.5396 2.04472 38.2058 1.50752L37.8553 1.30724L37.5048 1.1024V1.09785C36.3714 0.210235 34.9147 -0.167526 33.4901 0.069131C32.1882 0.415079 31.0366 1.51664 29.8668 3.54679L3.04202 50.0076L0.861671 53.7857C0.747874 53.9814 0.684151 54.1999 0.670494 54.423L0.0650972 64.1412H0.0605456C0.0286822 64.692 0.310894 65.2154 0.788845 65.4931C1.2668 65.7708 1.85854 65.7526 2.32282 65.4476L10.4342 60.0627C10.6208 59.9398 10.7756 59.7714 10.8894 59.5757L16.7841 49.3659C17.9995 51.5052 19.3878 53.5399 20.9399 55.4472C24.4585 60.0355 28.0909 64.7786 28.4641 73.3319L26.8027 73.3274C26.0016 73.3274 25.3461 73.9829 25.3461 74.784V78.8397C25.3506 81.3205 27.0075 83.4918 29.3973 84.1518V86.9466C29.4018 89.9873 31.8644 92.4499 34.9051 92.4544H35.6334V94.2751C35.6425 96.8834 37.7546 98.9955 40.3628 99H45.2606C47.8734 98.9954 49.99 96.8788 49.9945 94.2661V92.4408H50.7228C53.7635 92.4408 56.2261 89.9736 56.2306 86.9375V84.1382C58.6159 83.4781 60.2681 81.316 60.2773 78.8397V74.784C60.2773 74.3971 60.1226 74.0284 59.8494 73.7553C59.5763 73.4821 59.2076 73.3274 58.8207 73.3274H57.1593C57.5325 64.7745 61.1649 60.0362 64.6835 55.4473C67.9381 51.205 71.0106 47.2039 71.0106 40.8406C71.0015 33.3663 68.0291 26.1977 62.7443 20.9119C57.455 15.6226 50.29 12.6507 42.8124 12.6415ZM11.2729 53.0895L6.28868 50.2127L25.2699 17.339L30.2542 20.2158L11.2729 53.0895ZM31.7061 17.6895L26.7219 14.8126L28.8977 11.0437L33.8774 13.9205L31.7061 17.6895ZM32.3889 5.00308C33.3903 3.2688 34.0139 2.94567 34.2324 2.88647C34.6193 2.78633 35.2656 3.16413 36.0166 3.61021L36.3899 3.8287L36.7631 4.04263C37.5233 4.47051 38.1787 4.84377 38.2789 5.22609C38.3381 5.44458 38.37 6.14557 37.3686 7.88433L35.3384 11.3983L30.3542 8.5215L32.3889 5.00308ZM3.15203 61.3968L3.55259 54.9514L4.83626 52.7392L9.82051 55.6161L8.53684 57.8282L3.15203 61.3968ZM47.0819 94.2565V94.2611C47.0819 94.7436 46.8907 95.2078 46.5493 95.5493C46.2079 95.8907 45.7436 96.0864 45.2611 96.0864H40.3633C39.3574 96.0864 38.5426 95.2716 38.5426 94.2656V92.4403H47.0728L47.0819 94.2565ZM50.7234 89.5226H34.9059C33.472 89.5226 32.3113 88.3618 32.3113 86.9325V84.3424H53.3131V86.937C53.3131 88.3663 52.1524 89.5271 50.7185 89.5271L50.7234 89.5226ZM57.3646 78.8302C57.3646 80.2641 56.2038 81.4202 54.7745 81.4248H30.8548C29.4255 81.4202 28.2693 80.2686 28.2602 78.8393V76.2401H57.3654L57.3646 78.8302ZM62.3762 53.6671C58.7301 58.4147 54.6289 63.7723 54.2465 73.3219H44.2688V50.4766C49.9223 49.7346 54.1555 44.9233 54.1646 39.2198C54.1646 38.4141 53.5137 37.7632 52.708 37.7632C51.9023 37.7632 51.2514 38.4141 51.2514 39.2198C51.2514 43.8809 47.4733 47.659 42.8122 47.659C38.1511 47.659 34.373 43.8809 34.373 39.2198C34.373 38.4141 33.7221 37.7632 32.9164 37.7632C32.1107 37.7632 31.4598 38.4141 31.4598 39.2198C31.4689 44.9232 35.7021 49.7391 41.3556 50.4766V73.3266H31.3779C30.9955 63.7767 26.8897 58.4191 23.2482 53.6718C21.3546 51.4368 19.7796 48.956 18.5598 46.2887L35.7209 16.5648C43.3635 14.3388 51.6071 15.8364 57.9754 20.6114C64.3481 25.3864 68.0942 32.883 68.0988 40.8395C68.0988 46.2107 65.4496 49.6701 62.377 53.6716L62.3762 53.6671Z" fill="black"/>
</mask>
<g mask="url(#mask0_62_263)">
<path d="M45.6206 0L30.4331 -3.9375L-10.0669 54L-5.56689 69.1875L6.80811 66.9375L45.6206 0Z" fill="#C83F6F"/>
</g>
</svg>
