<svg width="96" height="96" viewBox="0 0 96 96" fill="none" xmlns="http://www.w3.org/2000/svg">
<path d="M9.49904 50.1652C10.147 52.3722 11.0177 54.4983 12.1312 56.5027L7.35271 61.2812C6.56304 62.0708 6.56304 63.3465 7.35271 64.1361L17.8208 74.6041C18.2257 75.0091 18.7319 75.1913 19.2584 75.1913C19.7849 75.1913 20.291 74.9888 20.696 74.6041L26.5476 68.7526C27.3373 67.9629 27.3373 66.6872 26.5476 65.8977C25.7579 65.1081 24.4823 65.108 23.6927 65.8977L19.2584 70.332L11.6655 62.739L16.0997 58.3047C16.0997 58.3047 16.1605 58.2035 16.1807 58.163C16.282 58.0617 16.3427 57.9402 16.4237 57.8188C16.4845 57.7175 16.5452 57.596 16.5655 57.4948C16.6059 57.3733 16.6262 57.2518 16.6464 57.1101C16.6464 56.9886 16.6667 56.8671 16.6464 56.7254C16.6464 56.6039 16.6059 56.4824 16.5655 56.3609C16.525 56.2192 16.4845 56.0977 16.4237 55.9762C16.4035 55.9357 16.4035 55.875 16.363 55.8142C14.8241 53.2833 13.6903 50.5498 13.0018 47.6747C13.0018 47.6139 12.941 47.5734 12.941 47.5329C12.9005 47.3912 12.8398 47.29 12.7588 47.1685C12.6981 47.047 12.6373 46.9457 12.5563 46.8648C12.4753 46.7635 12.3741 46.6825 12.2729 46.6015C12.1716 46.5206 12.0704 46.4396 11.9489 46.3788C11.8274 46.3181 11.7262 46.2776 11.6047 46.2573C11.4629 46.2168 11.3415 46.1966 11.1997 46.1763C11.139 46.1763 11.0985 46.1358 11.0378 46.1358H4.78122V35.3842H11.0378C11.301 35.3842 11.5439 35.3235 11.7667 35.2425C11.8477 35.2223 11.9084 35.1615 11.9894 35.121C12.1311 35.04 12.2729 34.959 12.3944 34.8578C12.4551 34.7971 12.5158 34.7363 12.5766 34.6553C12.6778 34.5338 12.7588 34.4123 12.8196 34.2909C12.8601 34.2099 12.9005 34.1086 12.941 34.0276C12.9613 33.9669 13.0018 33.9264 13.022 33.8454C13.7105 30.9702 14.8443 28.2368 16.3832 25.7059C16.4035 25.6654 16.4237 25.6046 16.444 25.5439C16.5047 25.4224 16.5452 25.3009 16.5857 25.1592C16.6262 25.0377 16.6465 24.9162 16.6667 24.7947V24.41C16.6667 24.2683 16.6262 24.1468 16.5857 24.0253C16.5452 23.9038 16.4845 23.8026 16.4237 23.7013C16.363 23.5798 16.282 23.4584 16.1808 23.3571C16.1403 23.3166 16.1403 23.2559 16.0998 23.2154L11.6655 18.7811L19.2584 11.1881L23.6927 15.6224C23.8749 15.8047 24.0774 15.9262 24.2799 16.0274C24.3204 16.0476 24.3811 16.0679 24.4216 16.0881C24.6444 16.1691 24.8671 16.2299 25.1101 16.2299C25.353 16.2299 25.5555 16.1691 25.7782 16.0881C25.839 16.0679 25.8997 16.0476 25.9604 16.0071C26.0212 15.9667 26.1022 15.9667 26.1629 15.9262C28.6737 14.3873 31.4273 13.2534 34.3025 12.565C34.3632 12.565 34.4037 12.5042 34.4442 12.5042C34.5859 12.4637 34.6872 12.403 34.8087 12.322C34.9099 12.2613 35.0314 12.2005 35.1124 12.1195C35.2136 12.0385 35.2946 11.9373 35.3756 11.836C35.4566 11.7348 35.5376 11.6336 35.5983 11.5121C35.6591 11.3906 35.6996 11.2893 35.7198 11.1679C35.7603 11.0261 35.7806 10.9047 35.8008 10.7629C35.8008 10.7022 35.8413 10.6617 35.8413 10.6009V4.34441H46.5929V10.6009C46.5929 10.6009 46.6132 10.7022 46.6334 10.7629C46.6334 10.9047 46.6739 11.0261 46.7144 11.1679C46.7549 11.2894 46.7954 11.4109 46.8359 11.5121C46.8966 11.6336 46.9776 11.7348 47.0586 11.836C47.1396 11.9373 47.2206 12.0385 47.3218 12.1195C47.4231 12.2005 47.5243 12.2613 47.6256 12.322L47.99 12.5042C48.0508 12.5042 48.0913 12.565 48.1318 12.565C51.007 13.2534 53.7404 14.3872 56.2713 15.9262C56.332 15.9667 56.413 15.9869 56.4738 16.0071C56.5345 16.0274 56.5953 16.0679 56.656 16.0881C56.8787 16.1691 57.1014 16.2299 57.3242 16.2299C57.5469 16.2299 57.7899 16.1691 58.0126 16.0881C58.0531 16.0881 58.1138 16.0476 58.1543 16.0274C58.3771 15.9262 58.5795 15.8047 58.7415 15.6224L63.1758 11.1881L70.7688 18.7811L66.3345 23.2154C65.5448 24.0051 65.5448 25.2807 66.3345 26.0703C66.7394 26.4752 67.2456 26.6575 67.7721 26.6575C68.2986 26.6575 68.8047 26.455 69.2097 26.0703L75.0613 20.2187C75.446 19.834 75.6485 19.3278 75.6485 18.7811C75.6485 18.2344 75.4257 17.7282 75.0613 17.3435L64.5932 6.8754C64.2085 6.49069 63.7023 6.28822 63.1556 6.28822C62.6089 6.28822 62.1027 6.51095 61.718 6.8754L56.9395 11.6539C54.9147 10.5605 52.8089 9.66966 50.602 9.02173V2.25891C50.602 1.14527 49.6908 0.234131 48.5772 0.234131H33.7759C32.6623 0.234131 31.7511 1.14527 31.7511 2.25891V9.02173C29.5442 9.66966 27.418 10.5403 25.4136 11.6539L20.6351 6.8754C19.8657 6.10598 18.5294 6.10598 17.7802 6.8754L7.31217 17.3435C6.92745 17.7282 6.72499 18.2344 6.72499 18.7811C6.72499 19.3278 6.94772 19.834 7.31217 20.2187L12.0906 24.9972C10.9973 27.022 10.1064 29.1277 9.4585 31.3347H2.69568C1.58204 31.3347 0.670898 32.2459 0.670898 33.3595V48.1608C0.670898 49.2744 1.58204 50.1855 2.69568 50.1855H9.4585L9.49904 50.1652Z" fill="black"/>
<path d="M41.2058 24.5316C43.757 24.5316 46.3082 25.139 48.5759 26.3134C49.5681 26.8196 50.7829 26.4349 51.3094 25.4427C51.8156 24.4506 51.4309 23.2358 50.4388 22.7093C47.5839 21.2514 44.405 20.4819 41.2058 20.4819C30.0492 20.4819 20.958 29.5732 20.958 40.7297C20.958 44.759 22.1324 48.6466 24.3798 51.9875C24.7646 52.5746 25.4125 52.8784 26.0604 52.8784C26.4452 52.8784 26.8501 52.7771 27.1943 52.5342C28.1257 51.9065 28.3687 50.6511 27.741 49.7197C25.9592 47.047 25.0075 43.9491 25.0075 40.7297C25.0075 31.8004 32.2765 24.5316 41.2058 24.5316Z" fill="black"/>
<path d="M59.2889 36.4784C48.0514 36.4784 38.8999 45.6304 38.8999 56.8674C38.8999 68.1044 48.0519 77.2564 59.2889 77.2564C70.526 77.2564 79.6779 68.1044 79.6779 56.8674C79.6779 45.6304 70.526 36.4784 59.2889 36.4784ZM59.2889 73.1874C50.2787 73.1874 42.9495 65.8578 42.9495 56.848C42.9495 47.8381 50.2791 40.5085 59.2889 40.5085C68.2988 40.5085 75.6284 47.8381 75.6284 56.848C75.6284 65.8578 68.2988 73.1874 59.2889 73.1874Z" fill="#C83F6F"/>
<path d="M94.0538 84.7282L86.9468 77.6414C86.1571 76.8517 84.8815 76.8517 84.0919 77.6414L82.4923 79.241L79.2729 76.0216C84.0513 71.0405 86.9872 64.2981 86.9872 56.8869C86.9872 41.5997 74.555 29.1672 59.2675 29.1672C43.98 29.1672 31.5479 41.5994 31.5479 56.8869C31.5479 72.1744 43.98 84.6066 59.2675 84.6066C65.6658 84.6066 71.5378 82.3996 76.2355 78.755L79.5967 82.1162L77.9971 83.7158C77.6124 84.1006 77.4099 84.6067 77.4099 85.1535C77.4099 85.7002 77.6326 86.2063 77.9971 86.5911L85.1041 93.6779C86.3189 94.8927 87.9186 95.5001 89.5384 95.5001C91.1582 95.5001 92.7376 94.8927 93.9727 93.6779L94.0334 93.6171C96.4834 91.1672 96.4834 87.1986 94.0334 84.7689L94.0538 84.7282ZM35.6391 56.8672C35.6391 43.8283 46.249 33.1971 59.3093 33.1971C72.3696 33.1971 82.9794 43.8069 82.9794 56.8672C82.9794 69.9275 72.3696 80.5374 59.3093 80.5374C46.249 80.5374 35.6391 69.9275 35.6391 56.8672ZM91.199 90.7215L91.1383 90.7822C90.2676 91.6326 88.8705 91.6326 88.0202 90.7822L82.3508 85.1129L85.55 81.9137L91.2194 87.583C92.0901 88.4537 92.0901 89.8508 91.2194 90.7011L91.199 90.7215Z" fill="#C83F6F"/>
</svg>
