<svg width="100" height="100" viewBox="0 0 100 100" fill="none" xmlns="http://www.w3.org/2000/svg">
<path d="M80.4566 96.1583H76.4948C75.5476 91.884 71.5618 88.4655 67.0903 88.4655C65.7777 88.4655 64.5035 88.73 63.316 89.2348C61.8736 87.5568 59.7389 86.5423 57.4743 86.5423C56.8011 86.5423 56.1521 86.6866 55.5511 86.9077V73.0803C55.5511 72.0178 54.6904 71.1571 53.6279 71.1571C52.5653 71.1571 51.7047 72.0178 51.7047 73.0803V90.3886C51.7047 91.1627 52.1758 91.8598 52.8874 92.1579C53.599 92.456 54.4308 92.2926 54.9837 91.7541C55.5414 91.2059 56.7242 90.3886 57.4742 90.3886C58.955 90.3886 60.3205 91.254 60.9552 92.5907C61.1956 93.1003 61.6523 93.485 62.2004 93.6244C62.7485 93.7686 63.3303 93.6677 63.7967 93.3455C64.7679 92.6676 65.9074 92.3118 67.095 92.3118C69.5759 92.3118 71.629 94.1197 72.4608 96.1582H27.1113C27.9479 94.1197 29.9962 92.3118 32.4771 92.3118C33.6598 92.3118 34.8041 92.6676 35.7754 93.3455C36.2369 93.6725 36.8235 93.7734 37.3717 93.6244C37.9198 93.4801 38.3717 93.1003 38.6169 92.5907C39.2516 91.2541 40.6171 90.3886 42.0979 90.3886C42.848 90.3886 44.0307 91.2059 44.5836 91.7493C45.1317 92.2974 45.9587 92.4608 46.6799 92.1627C47.4011 91.8646 47.8674 91.1627 47.8674 90.3838V73.0756C47.8674 72.013 47.0068 71.1523 45.9442 71.1523C44.8817 71.1523 44.021 72.013 44.021 73.0756V86.9029C43.42 86.6818 42.771 86.5375 42.0978 86.5375C39.8284 86.5375 37.6985 87.552 36.2561 89.23C35.0733 88.7204 33.7944 88.4607 32.4818 88.4607C28.0103 88.4607 24.0245 91.8792 23.0773 96.1536H18.9232C17.8606 96.1536 17 97.0142 17 98.0768C17 99.1393 17.8606 100 18.9232 100H80.4658C81.5284 100 82.389 99.1393 82.389 98.0768C82.389 97.0142 81.5284 96.1536 80.4658 96.1536L80.4566 96.1583Z" fill="#C83F6F"/>
<path d="M49.7813 34.6157C46.5985 34.6157 44.0117 37.2025 44.0117 40.3853C44.0117 43.5634 46.5985 46.155 49.7813 46.155C52.9642 46.155 55.551 43.5682 55.551 40.3853C55.551 37.2073 52.9642 34.6157 49.7813 34.6157ZM49.7813 42.3086C48.7236 42.3086 47.8581 41.4431 47.8581 40.3853C47.8581 39.3276 48.7236 38.4621 49.7813 38.4621C50.8439 38.4621 51.7045 39.3276 51.7045 40.3853C51.7045 41.4431 50.8391 42.3086 49.7813 42.3086Z" fill="black"/>
<path d="M21.6737 61.1369C22.0151 61.4062 22.4334 61.5408 22.8565 61.5408C23.0104 61.5408 23.169 61.5215 23.3229 61.4831L36.3195 58.2329V59.6176C36.3195 60.6802 37.1801 61.5408 38.2427 61.5408H42.0891V67.3104C42.0891 68.373 42.9497 69.2336 44.0123 69.2336H55.5515C56.6141 69.2336 57.4747 68.373 57.4747 67.3104V61.5408H61.3212C62.3837 61.5408 63.2444 60.6802 63.2444 59.6176V41.5388C64.5522 42.2793 66.2061 43.3563 67.8409 44.7986C71.7642 48.27 74.0433 52.4049 74.6298 57.117L67.461 55.3236C66.4321 55.064 65.384 55.6891 65.1292 56.7228C64.8695 57.7517 65.4946 58.7998 66.5283 59.0546L76.2404 61.4827C76.3943 61.5212 76.5482 61.5404 76.7068 61.5404C77.1299 61.5404 77.5482 61.401 77.8896 61.1365C78.356 60.7711 78.63 60.2134 78.63 59.6172C78.63 52.7561 75.7452 46.6021 70.2834 41.8227C67.5332 39.414 64.783 37.9282 63.2444 37.207V21.1579C63.2444 8.73372 51.3541 0.666716 50.8497 0.324539C50.2054 -0.10818 49.3593 -0.10818 48.7149 0.324539C48.2053 0.661103 36.3202 8.72892 36.3202 21.1579V37.207C34.7817 37.933 32.0362 39.4188 29.2812 41.8227C23.8193 46.6019 20.9346 52.7561 20.9346 59.6172C20.9346 60.2086 21.2038 60.7711 21.675 61.1365L21.6737 61.1369ZM53.6279 65.3872H45.9351V61.5407H53.6279V65.3872ZM49.7815 4.32087C52.4884 6.47486 59.3975 12.7878 59.3975 21.154V57.6956H40.1655V23.0778H55.4551C56.5177 23.0778 57.3783 22.2172 57.3783 21.1546C57.3783 20.0921 56.5177 19.2314 55.4551 19.2314H40.291C41.2238 11.8319 47.2867 6.30747 49.782 4.3221L49.7815 4.32087ZM31.7224 44.7999C33.3571 43.3527 35.0111 42.2805 36.3189 41.5401V54.2721L24.9335 57.1184C25.5201 52.4066 27.7991 48.2715 31.7224 44.7999Z" fill="black"/>
</svg>
