<svg width="100" height="75" viewBox="0 0 100 75" fill="none" xmlns="http://www.w3.org/2000/svg">
<path d="M11.7801 74.9098C11.5072 74.9098 11.2302 74.8353 10.9862 74.6906C10.5231 74.4094 10.2419 73.9091 10.2419 73.3674V62.5867L2.54237 62.5909C1.69053 62.5909 1.00413 61.9003 1.00413 61.0526L1 8.69814C1 7.84631 1.69056 7.15991 2.53823 7.15991H73.3682C74.2201 7.15991 74.9065 7.85047 74.9065 8.69814V21.1365C74.9065 21.9884 74.2159 22.6748 73.3682 22.6748C72.5164 22.6748 71.83 21.9842 71.83 21.1365V10.2363H4.08049V59.5103H11.78C12.6318 59.5103 13.3182 60.2008 13.3182 61.0485V70.799L34.1512 59.6881C34.3745 59.5682 34.6226 59.5062 34.8749 59.5062H71.8301V34.3891C71.8301 33.5373 72.5207 32.8509 73.3683 32.8509C74.2202 32.8509 74.9066 33.5414 74.9066 34.3891L74.9107 61.0485C74.9107 61.9004 74.2201 62.5868 73.3725 62.5868L35.2591 62.5909L12.5038 74.7276C12.2763 74.8475 12.0282 74.9098 11.7801 74.9098Z" fill="black" stroke="black" stroke-width="1.05859"/>
<path d="M57.2691 45.6538C56.868 45.6538 56.4752 45.4967 56.1816 45.2031C55.7474 44.7689 55.611 44.1156 55.8425 43.5408L60.1968 32.6532C60.2712 32.4671 60.3829 32.2976 60.5235 32.1529L89.0143 2.81839L89.0308 2.80185C91.4333 0.399385 95.3409 0.399385 97.7394 2.80185C100.138 5.20018 100.142 9.09958 97.7476 11.5022L69.2611 40.8324C69.1122 40.9895 68.9303 41.1094 68.7277 41.188L57.8401 45.5423C57.6582 45.6167 57.4634 45.6538 57.2691 45.6538ZM62.9425 34.0792L60.0355 41.3487L67.2844 38.45L95.5518 9.3516C95.5559 9.34746 95.5642 9.33919 95.5683 9.33506C96.7675 8.13589 96.7675 6.17994 95.5683 4.98078C94.3692 3.78161 92.4215 3.78161 91.2182 4.97251L62.9425 34.0792Z" fill="#C83F6F" stroke="#C83F6F" stroke-width="1.05859"/>
<path d="M92.2987 16.3192C91.9059 16.3192 91.5089 16.1703 91.2112 15.8684L84.6777 9.33495C84.0781 8.73536 84.0781 7.75946 84.6777 7.15575C85.2814 6.55616 86.2532 6.55616 86.8569 7.15575L93.3863 13.6934C93.9859 14.293 93.9859 15.2689 93.3863 15.8726C93.0844 16.1703 92.6915 16.3192 92.2987 16.3192Z" fill="#C83F6F" stroke="#C83F6F" stroke-width="1.05859"/>
<path d="M68.1581 41.2996C67.7652 41.2996 67.3683 41.1508 67.0706 40.8489L60.5371 34.3154C59.9375 33.7158 59.9375 32.7399 60.5371 32.1362C61.1367 31.5366 62.1126 31.5366 62.7163 32.1362L69.2498 38.6697C69.8494 39.2693 69.8494 40.2452 69.2498 40.8489C68.9479 41.1466 68.5508 41.2996 68.1581 41.2996Z" fill="#C83F6F" stroke="#C83F6F" stroke-width="1.05859"/>
<path d="M59.5115 27.1739H8.69936C7.84753 27.1739 7.16113 26.4833 7.16113 25.6356C7.16113 24.7838 7.85169 24.0974 8.69936 24.0974H59.5115C60.3633 24.0974 61.0497 24.788 61.0497 25.6356C61.0539 26.4875 60.3633 27.1739 59.5115 27.1739Z" fill="black" stroke="black" stroke-width="1.05859"/>
<path d="M67.2106 17.9367H8.69936C7.84753 17.9367 7.16113 17.2461 7.16113 16.3985C7.16113 15.5466 7.85169 14.8602 8.69936 14.8602H67.2106C68.0624 14.8602 68.7488 15.5508 68.7488 16.3985C68.7488 17.2503 68.0624 17.9367 67.2106 17.9367Z" fill="black" stroke="black" stroke-width="1.05859"/>
<path d="M54.8919 36.4164H8.69839C7.84655 36.4164 7.16016 35.7259 7.16016 34.8782C7.16016 34.0264 7.85071 33.34 8.69839 33.34H54.8919C55.7437 33.34 56.4301 34.0305 56.4301 34.8782C56.4301 35.7259 55.7437 36.4164 54.8919 36.4164Z" fill="black" stroke="black" stroke-width="1.05859"/>
<path d="M57.2695 45.6536H8.69839C7.84655 45.6536 7.16016 44.9631 7.16016 44.1154C7.16016 43.2635 7.85071 42.5771 8.69839 42.5771H57.2695C58.1213 42.5771 58.8077 43.2677 58.8077 44.1154C58.8077 44.9631 58.1213 45.6536 57.2695 45.6536Z" fill="#C83F6F" stroke="#C83F6F" stroke-width="1.05859"/>
<path d="M67.2106 54.8919H8.69936C7.84753 54.8919 7.16113 54.2013 7.16113 53.3537C7.16113 52.5018 7.85169 51.8154 8.69936 51.8154H67.2106C68.0624 51.8154 68.7488 52.506 68.7488 53.3537C68.7488 54.2013 68.0624 54.8919 67.2106 54.8919Z" fill="black" stroke="black" stroke-width="1.05859"/>
</svg>
