<svg width="100" height="84" viewBox="0 0 100 84" fill="none" xmlns="http://www.w3.org/2000/svg">
<path d="M98.4571 50.6315L93.5503 46.6302C91.7576 45.168 89.1094 45.4373 87.6484 47.23L86.3714 48.7967L77.7939 41.7609C78.1132 41.0895 78.3188 40.3533 78.3801 39.5864C78.5108 37.9709 78.0143 36.3599 77.0202 35.1659C76.5056 34.5479 75.8739 34.0491 75.173 33.6901C76.284 31.8792 76.4681 29.6081 75.7012 28.0085C74.6606 25.8363 72.9496 25.0331 71.592 24.6843C73.011 22.6678 74.33 19.7582 71.7124 16.6135C70.6934 15.3888 69.3312 14.6651 67.9145 14.4731C68.5325 12.6759 68.4064 10.7127 67.0681 9.03582C66.1547 7.89178 64.705 7.14082 63.0884 6.97609C61.4729 6.81249 59.9391 7.24989 58.7587 8.2042L51.3923 5.76388C49.3746 5.097 47.5648 5.18902 46.0095 6.04109C44.5712 6.82953 43.4317 8.23374 42.6081 10.2276L40.2371 8.22465C39.0555 7.22603 37.5502 6.7466 36.0017 6.87952C34.4521 7.01017 33.049 7.73273 32.0504 8.91426C31.0529 10.0958 30.5746 11.6 30.7053 13.1485C30.7416 13.579 30.828 13.9971 30.9529 14.3993C29.5669 14.6129 28.3195 15.3036 27.4106 16.3852C25.9257 18.1507 25.6781 20.5512 26.5665 22.5314C25.4225 22.8325 24.4011 23.4721 23.6263 24.3969C21.7972 26.5793 21.8483 29.7376 23.6013 31.8678C22.6708 32.2109 21.8404 32.7881 21.1871 33.5708C19.6318 35.434 19.4398 38.0095 20.5009 40.0511L12.137 47.0153C10.6431 45.4316 8.16071 45.2328 6.44975 46.629L1.54185 50.6303C-0.249768 52.0914 -0.520157 54.7384 0.941991 56.5312L21.5825 81.8455C22.288 82.7112 23.2923 83.252 24.4091 83.3645C24.5545 83.3793 24.6999 83.3872 24.8442 83.3872C25.8065 83.3872 26.7312 83.06 27.4833 82.4465L32.3912 78.4452C34.1828 76.9842 34.4544 74.336 32.9922 72.5444L30.3963 69.3599L44.4633 58.0944C45.1859 58.1728 45.8937 58.258 46.5867 58.3421C48.8634 58.6171 51.0856 58.8806 53.2623 58.8022L68.2156 71.0686L67.0124 72.5444C65.5514 74.336 65.8207 76.9842 67.6123 78.4452L72.5202 82.4465C73.2734 83.0612 74.1982 83.3884 75.1605 83.3884C75.3047 83.3884 75.4502 83.3815 75.5956 83.3656C76.7124 83.252 77.7167 82.7124 78.4222 81.8467L99.0627 56.5312C100.519 54.7396 100.249 52.0925 98.4571 50.6315ZM47.4637 8.70068C48.2624 8.26328 49.2349 8.24397 50.438 8.64273L56.0094 10.4889L49.4144 15.9796L45.0711 12.3112C45.6562 10.4832 46.4742 9.24259 47.4637 8.70068ZM34.3635 10.8706C34.9122 10.2208 35.6973 9.88562 36.488 9.88562C37.1219 9.88562 37.7593 10.1003 38.2784 10.5411L47.9988 18.7517C48.5623 19.2277 48.9066 19.8991 48.9691 20.641C49.0327 21.384 48.8043 22.1031 48.3283 22.6678C47.8523 23.2313 47.182 23.5755 46.439 23.638C45.696 23.6982 44.9768 23.4732 44.4133 22.9961L34.6929 14.7856C34.1306 14.3096 33.7841 13.6393 33.7216 12.8963C33.6591 12.1532 33.8886 11.4341 34.3635 10.8706ZM29.7271 18.3381C30.202 17.7746 30.87 17.4304 31.6085 17.3679C32.3424 17.3077 33.0638 17.5349 33.625 18.0098L41.6447 24.815C42.8149 25.8079 42.9637 27.5734 41.9741 28.7481C41.5015 29.3116 40.8324 29.6558 40.0939 29.7183C39.3486 29.7831 38.6386 29.5525 38.0774 29.0764L37.6865 28.7447L31.7914 23.7152C31.6732 23.6141 31.5483 23.5221 31.4244 23.4312L30.0566 22.2713C28.8875 21.2772 28.7387 19.5128 29.7271 18.3381ZM25.9473 26.3453C26.4188 25.7818 27.0846 25.4375 27.8196 25.3762C27.898 25.3694 27.9764 25.3671 28.0536 25.3671C28.6194 25.3671 29.1579 25.5489 29.6192 25.8738L35.7552 31.0805L36.2244 31.4804C37.3957 32.479 37.5434 34.2525 36.555 35.4329C36.0835 35.9964 35.4178 36.3406 34.6827 36.4019C33.9613 36.4633 33.2615 36.2395 32.7071 35.7794L29.3454 32.8948C29.2624 32.8233 29.1738 32.7608 29.0863 32.6938L26.2791 30.2977C25.1066 29.298 24.9578 27.5257 25.9473 26.3453ZM23.5116 35.5147C23.9819 34.9512 24.6431 34.6081 25.3759 34.5467C26.053 34.4899 26.7051 34.6933 27.2402 35.1L30.7098 38.0606C30.7314 38.0788 30.7541 38.0947 30.7757 38.1118L32.4935 39.5853C33.6636 40.5896 33.8113 42.371 32.8218 43.5548C32.3515 44.1183 31.6903 44.4614 30.9586 44.5227C30.2293 44.5818 29.5181 44.3534 28.9614 43.8763L23.841 39.483C22.6697 38.4799 22.522 36.6985 23.5116 35.5147ZM30.4724 76.0981L25.5645 80.0994C25.3259 80.2937 25.0191 80.3845 24.7124 80.3516C24.4011 80.3198 24.1216 80.1709 23.9274 79.9324L3.28802 54.618C2.88243 54.1204 2.95741 53.3854 3.45502 52.9798L8.36293 48.9785C8.57765 48.8024 8.83895 48.7172 9.09684 48.7172C9.43426 48.7172 9.77054 48.8637 10 49.1455L10.7862 50.11L10.7873 50.1111L10.7885 50.1123L27.0675 70.0791L27.0698 70.0825L27.0732 70.0859L30.6405 74.461C31.045 74.9574 30.97 75.6925 30.4724 76.0981ZM46.9468 55.3349C46.0391 55.2258 45.1086 55.1133 44.1498 55.0168C43.7555 54.9747 43.3602 55.094 43.0512 55.3417L28.4774 67.0128L14.0741 49.3466L22.5027 42.3289L26.9891 46.178C28.0411 47.0812 29.3522 47.5652 30.7234 47.5652C30.8848 47.5652 31.0472 47.5584 31.2097 47.5447C32.7559 47.4163 34.1544 46.6904 35.1497 45.4998C36.6493 43.7036 36.8799 41.2462 35.9449 39.2433C37.0867 38.9411 38.1058 38.3026 38.8794 37.379C39.9951 36.0464 40.4075 34.3513 40.1655 32.7471C40.2268 32.7437 40.2882 32.7449 40.3495 32.7392C41.898 32.6085 43.3 31.8849 44.2952 30.6999C45.2858 29.5229 45.7232 28.0608 45.6449 26.6316C45.8289 26.6486 46.0095 26.6793 46.1959 26.6793C46.3617 26.6793 46.5287 26.6725 46.6957 26.6588C48.2454 26.5282 49.6484 25.8056 50.6459 24.6241C51.6434 23.4426 52.1228 21.9384 51.9922 20.3888C51.9286 19.6389 51.7241 18.9255 51.3991 18.2734L60.6378 10.5809C61.1866 10.1253 61.9693 9.91175 62.7816 9.99468C63.5803 10.0765 64.2972 10.4253 64.7005 10.9297C65.8638 12.3861 64.9516 14.4754 63.4497 15.7853C62.8248 16.3307 62.7544 17.2782 63.2929 17.9098C63.8302 18.5415 64.7766 18.6221 65.4151 18.0916C66.6 17.1043 68.3451 17.3066 69.3835 18.5563C70.8979 20.3751 70.1514 21.7078 68.2144 24.114L68.0838 24.2765C67.418 25.1058 67.5555 25.8318 67.6964 26.1896C68.0872 27.1826 69.0915 27.3291 69.8254 27.4359C71.1421 27.6268 72.2884 27.9006 72.9689 29.3218C73.3723 30.1625 73.0837 32.3382 71.4261 33.2311C70.7967 33.5697 70.4911 34.3013 70.6899 34.9875C70.8888 35.6737 71.5341 36.1304 72.2521 36.077C73.1803 36.0089 74.0994 36.3963 74.6924 37.1086C75.1843 37.6982 75.4274 38.5139 75.3604 39.3456C75.2945 40.1715 74.9264 40.919 74.3516 41.3985L60.1664 53.2036C56.2571 56.4596 52.1478 55.9631 46.9468 55.3349ZM57.2682 58.1728C58.9064 57.6775 60.5185 56.8527 62.1057 55.5314L75.8512 44.0876L84.4548 51.145L70.1265 68.7203L57.2682 58.1728ZM96.7087 54.618L76.0693 79.9335C75.8751 80.1721 75.5967 80.3209 75.2843 80.3527C74.9753 80.3857 74.6697 80.2948 74.4311 80.1005L69.5232 76.0992C69.0256 75.6936 68.9517 74.9586 69.3573 74.461L89.9955 49.1466C90.4034 48.6479 91.1373 48.574 91.6349 48.9796L96.5417 52.9809C97.0393 53.3854 97.1143 54.1204 96.7087 54.618Z" fill="black"/>
<mask id="mask0_62_222" style="mask-type:alpha" maskUnits="userSpaceOnUse" x="0" y="5" width="100" height="79">
<path d="M98.4571 50.6315L93.5503 46.6302C91.7576 45.168 89.1094 45.4373 87.6484 47.23L86.3714 48.7967L77.7939 41.7609C78.1132 41.0895 78.3188 40.3533 78.3801 39.5864C78.5108 37.9709 78.0143 36.3599 77.0202 35.1659C76.5056 34.5479 75.8739 34.0491 75.173 33.6901C76.284 31.8792 76.4681 29.6081 75.7012 28.0085C74.6606 25.8363 72.9496 25.0331 71.592 24.6843C73.011 22.6678 74.33 19.7582 71.7124 16.6135C70.6934 15.3888 69.3312 14.6651 67.9145 14.4731C68.5325 12.6759 68.4064 10.7127 67.0681 9.03582C66.1547 7.89178 64.705 7.14082 63.0884 6.97609C61.4729 6.81249 59.9391 7.24989 58.7587 8.2042L51.3923 5.76388C49.3746 5.097 47.5648 5.18902 46.0095 6.04109C44.5712 6.82953 43.4317 8.23374 42.6081 10.2276L40.2371 8.22465C39.0555 7.22603 37.5502 6.7466 36.0017 6.87952C34.4521 7.01017 33.049 7.73273 32.0504 8.91426C31.0529 10.0958 30.5746 11.6 30.7053 13.1485C30.7416 13.579 30.828 13.9971 30.9529 14.3993C29.5669 14.6129 28.3195 15.3036 27.4106 16.3852C25.9257 18.1507 25.6781 20.5512 26.5665 22.5314C25.4225 22.8325 24.4011 23.4721 23.6263 24.3969C21.7972 26.5793 21.8483 29.7376 23.6013 31.8678C22.6708 32.2109 21.8404 32.7881 21.1871 33.5708C19.6318 35.434 19.4398 38.0095 20.5009 40.0511L12.137 47.0153C10.6431 45.4316 8.16071 45.2328 6.44975 46.629L1.54185 50.6303C-0.249768 52.0914 -0.520157 54.7384 0.941991 56.5312L21.5825 81.8455C22.288 82.7112 23.2923 83.252 24.4091 83.3645C24.5545 83.3793 24.6999 83.3872 24.8442 83.3872C25.8065 83.3872 26.7312 83.06 27.4833 82.4465L32.3912 78.4452C34.1828 76.9842 34.4544 74.336 32.9922 72.5444L30.3963 69.3599L44.4633 58.0944C45.1859 58.1728 45.8937 58.258 46.5867 58.3421C48.8634 58.6171 51.0856 58.8806 53.2623 58.8022L68.2156 71.0686L67.0124 72.5444C65.5514 74.336 65.8207 76.9842 67.6123 78.4452L72.5202 82.4465C73.2734 83.0612 74.1982 83.3884 75.1605 83.3884C75.3047 83.3884 75.4502 83.3815 75.5956 83.3656C76.7124 83.252 77.7167 82.7124 78.4222 81.8467L99.0627 56.5312C100.519 54.7396 100.249 52.0925 98.4571 50.6315ZM47.4637 8.70068C48.2624 8.26328 49.2349 8.24397 50.438 8.64273L56.0094 10.4889L49.4144 15.9796L45.0711 12.3112C45.6562 10.4832 46.4742 9.24259 47.4637 8.70068ZM34.3635 10.8706C34.9122 10.2208 35.6973 9.88562 36.488 9.88562C37.1219 9.88562 37.7593 10.1003 38.2784 10.5411L47.9988 18.7517C48.5623 19.2277 48.9066 19.8991 48.9691 20.641C49.0327 21.384 48.8043 22.1031 48.3283 22.6678C47.8523 23.2313 47.182 23.5755 46.439 23.638C45.696 23.6982 44.9768 23.4732 44.4133 22.9961L34.6929 14.7856C34.1306 14.3096 33.7841 13.6393 33.7216 12.8963C33.6591 12.1532 33.8886 11.4341 34.3635 10.8706ZM29.7271 18.3381C30.202 17.7746 30.87 17.4304 31.6085 17.3679C32.3424 17.3077 33.0638 17.5349 33.625 18.0098L41.6447 24.815C42.8149 25.8079 42.9637 27.5734 41.9741 28.7481C41.5015 29.3116 40.8324 29.6558 40.0939 29.7183C39.3486 29.7831 38.6386 29.5525 38.0774 29.0764L37.6865 28.7447L31.7914 23.7152C31.6732 23.6141 31.5483 23.5221 31.4244 23.4312L30.0566 22.2713C28.8875 21.2772 28.7387 19.5128 29.7271 18.3381ZM25.9473 26.3453C26.4188 25.7818 27.0846 25.4375 27.8196 25.3762C27.898 25.3694 27.9764 25.3671 28.0536 25.3671C28.6194 25.3671 29.1579 25.5489 29.6192 25.8738L35.7552 31.0805L36.2244 31.4804C37.3957 32.479 37.5434 34.2525 36.555 35.4329C36.0835 35.9964 35.4178 36.3406 34.6827 36.4019C33.9613 36.4633 33.2615 36.2395 32.7071 35.7794L29.3454 32.8948C29.2624 32.8233 29.1738 32.7608 29.0863 32.6938L26.2791 30.2977C25.1066 29.298 24.9578 27.5257 25.9473 26.3453ZM23.5116 35.5147C23.9819 34.9512 24.6431 34.6081 25.3759 34.5467C26.053 34.4899 26.7051 34.6933 27.2402 35.1L30.7098 38.0606C30.7314 38.0788 30.7541 38.0947 30.7757 38.1118L32.4935 39.5853C33.6636 40.5896 33.8113 42.371 32.8218 43.5548C32.3515 44.1183 31.6903 44.4614 30.9586 44.5227C30.2293 44.5818 29.5181 44.3534 28.9614 43.8763L23.841 39.483C22.6697 38.4799 22.522 36.6985 23.5116 35.5147ZM30.4724 76.0981L25.5645 80.0994C25.3259 80.2937 25.0191 80.3845 24.7124 80.3516C24.4011 80.3198 24.1216 80.1709 23.9274 79.9324L3.28802 54.618C2.88243 54.1204 2.95741 53.3854 3.45502 52.9798L8.36293 48.9785C8.57765 48.8024 8.83895 48.7172 9.09684 48.7172C9.43426 48.7172 9.77054 48.8637 10 49.1455L10.7862 50.11L10.7873 50.1111L10.7885 50.1123L27.0675 70.0791L27.0698 70.0825L27.0732 70.0859L30.6405 74.461C31.045 74.9574 30.97 75.6925 30.4724 76.0981ZM46.9468 55.3349C46.0391 55.2258 45.1086 55.1133 44.1498 55.0168C43.7555 54.9747 43.3602 55.094 43.0512 55.3417L28.4774 67.0128L14.0741 49.3466L22.5027 42.3289L26.9891 46.178C28.0411 47.0812 29.3522 47.5652 30.7234 47.5652C30.8848 47.5652 31.0472 47.5584 31.2097 47.5447C32.7559 47.4163 34.1544 46.6904 35.1497 45.4998C36.6493 43.7036 36.8799 41.2462 35.9449 39.2433C37.0867 38.9411 38.1058 38.3026 38.8794 37.379C39.9951 36.0464 40.4075 34.3513 40.1655 32.7471C40.2268 32.7437 40.2882 32.7449 40.3495 32.7392C41.898 32.6085 43.3 31.8849 44.2952 30.6999C45.2858 29.5229 45.7232 28.0608 45.6449 26.6316C45.8289 26.6486 46.0095 26.6793 46.1959 26.6793C46.3617 26.6793 46.5287 26.6725 46.6957 26.6588C48.2454 26.5282 49.6484 25.8056 50.6459 24.6241C51.6434 23.4426 52.1228 21.9384 51.9922 20.3888C51.9286 19.6389 51.7241 18.9255 51.3991 18.2734L60.6378 10.5809C61.1866 10.1253 61.9693 9.91175 62.7816 9.99468C63.5803 10.0765 64.2972 10.4253 64.7005 10.9297C65.8638 12.3861 64.9516 14.4754 63.4497 15.7853C62.8248 16.3307 62.7544 17.2782 63.2929 17.9098C63.8302 18.5415 64.7766 18.6221 65.4151 18.0916C66.6 17.1043 68.3451 17.3066 69.3835 18.5563C70.8979 20.3751 70.1514 21.7078 68.2144 24.114L68.0838 24.2765C67.418 25.1058 67.5555 25.8318 67.6964 26.1896C68.0872 27.1826 69.0915 27.3291 69.8254 27.4359C71.1421 27.6268 72.2884 27.9006 72.9689 29.3218C73.3723 30.1625 73.0837 32.3382 71.4261 33.2311C70.7967 33.5697 70.4911 34.3013 70.6899 34.9875C70.8888 35.6737 71.5341 36.1304 72.2521 36.077C73.1803 36.0089 74.0994 36.3963 74.6924 37.1086C75.1843 37.6982 75.4274 38.5139 75.3604 39.3456C75.2945 40.1715 74.9264 40.919 74.3516 41.3985L60.1664 53.2036C56.2571 56.4596 52.1478 55.9631 46.9468 55.3349ZM57.2682 58.1728C58.9064 57.6775 60.5185 56.8527 62.1057 55.5314L75.8512 44.0876L84.4548 51.145L70.1265 68.7203L57.2682 58.1728ZM96.7087 54.618L76.0693 79.9335C75.8751 80.1721 75.5967 80.3209 75.2843 80.3527C74.9753 80.3857 74.6697 80.2948 74.4311 80.1005L69.5232 76.0992C69.0256 75.6936 68.9517 74.9586 69.3573 74.461L89.9955 49.1466C90.4034 48.6479 91.1373 48.574 91.6349 48.9796L96.5417 52.9809C97.0393 53.3854 97.1143 54.1204 96.7087 54.618Z" fill="black"/>
</mask>
<g mask="url(#mask0_62_222)">
<path d="M91.2297 43.1064L64.9666 75.3594L64.5059 75.8201L76.4855 86.4175L104.592 53.2431L91.2297 43.1064Z" fill="#C83F6F"/>
<path d="M9.67603 43.1064L35.9391 75.3594L36.3999 75.8201L24.4202 86.4175L-3.6859 53.2431L9.67603 43.1064Z" fill="#C83F6F"/>
</g>
</svg>
