<svg width="100" height="100" viewBox="0 0 100 100" fill="none" xmlns="http://www.w3.org/2000/svg">
<path d="M2 50L18.0131 63.9469M18.0131 50L2 63.9469" stroke="black" stroke-width="3.09931" stroke-linecap="round"/>
<path fill-rule="evenodd" clip-rule="evenodd" d="M29.4451 89.8804H74.4014C75.3461 89.8804 76.1191 89.1117 76.1191 88.1627C76.1191 87.218 75.3461 86.4451 74.4014 86.4451H29.3726L35.8439 79.9737C36.5181 79.3038 36.5181 78.2131 35.8439 77.5433C35.174 76.8734 34.0875 76.8734 33.4177 77.5433L24.0478 86.9131C23.378 87.583 23.378 88.6738 24.0478 89.3436L33.4177 98.7135C34.0876 99.3834 35.1741 99.3834 35.8439 98.7135C36.5181 98.0393 36.5181 96.9528 35.8439 96.283L29.4451 89.8804ZM89.8259 78.3805C84.4152 78.3805 80.0222 82.7477 80.0222 88.1283C80.0222 93.5046 84.4152 97.8761 89.8259 97.8761C95.2365 97.8761 99.6252 93.5046 99.6252 88.1283C99.6252 82.7477 95.2365 78.3805 89.8259 78.3805ZM9.79936 78.3805C4.38867 78.3805 0 82.7477 0 88.1283C0 93.5046 4.38867 97.8761 9.79936 97.8761C15.2101 97.8761 19.603 93.5046 19.603 88.1283C19.603 82.7477 15.2101 78.3805 9.79936 78.3805ZM89.8259 81.8159C93.3342 81.8159 96.1899 84.6414 96.1899 88.1283C96.1899 91.6152 93.3342 94.4408 89.8259 94.4408C86.3132 94.4408 83.4575 91.6152 83.4575 88.1283C83.4575 84.6414 86.3132 81.8159 89.8259 81.8159ZM9.79936 81.8159C13.312 81.8159 16.1677 84.6414 16.1677 88.1283C16.1677 91.6152 13.312 94.4408 9.79936 94.4408C6.29102 94.4408 3.43534 91.6152 3.43534 88.1283C3.43534 84.6414 6.29102 81.8159 9.79936 81.8159ZM77.9049 73.7814C77.9049 73.7814 75.0321 70.9086 70.6177 66.4899C69.9478 65.82 68.8571 65.82 68.1872 66.4899C67.5173 67.1641 67.5173 68.2506 68.1872 68.9204C72.6016 73.3348 75.4745 76.2076 75.4745 76.2076C76.1444 76.8775 77.2351 76.8775 77.9049 76.2076C78.5748 75.5377 78.5748 74.4513 77.9049 73.7814ZM63.3303 59.2024C61.02 56.8964 58.5638 54.4402 56.0388 51.9152C55.3689 51.2453 54.2824 51.2453 53.6126 51.9152C52.9427 52.5851 52.9427 53.6758 53.6126 54.3456C56.1333 56.8664 58.5938 59.3268 60.8998 61.6329C61.5697 62.3028 62.6562 62.3028 63.3303 61.6329C64.0002 60.963 64.0002 59.8722 63.3303 59.2024ZM48.7556 44.6277C46.2693 42.1457 43.813 39.6851 41.4684 37.3405C40.7942 36.6706 39.7077 36.6706 39.0336 37.3405C38.3638 38.0104 38.3638 39.1012 39.0336 39.771C41.3868 42.1156 43.8431 44.5762 46.3251 47.0582C46.995 47.7281 48.0858 47.7281 48.7556 47.0582C49.4255 46.384 49.4255 45.3018 48.7556 44.6277ZM24.6005 25.3334L31.7503 32.4832C32.4202 33.1531 33.5066 33.1531 34.1765 32.4832C34.8463 31.8133 34.8464 30.7226 34.1765 30.0528L26.9751 22.8514H36.1303C37.0793 22.8514 37.8479 22.0785 37.8479 21.1337C37.8479 20.1847 37.0793 19.4161 36.1303 19.4161H22.8825C21.9335 19.4161 21.1648 20.1847 21.1648 21.1337V34.3815C21.1648 35.3305 21.9335 36.0992 22.8825 36.0992C23.8315 36.0992 24.6001 35.3305 24.6001 34.3815L24.6005 25.3334ZM12.0958 0.543213C6.68084 0.543213 2.29217 4.91473 2.29217 10.2953C2.29217 15.6716 6.68084 20.0388 12.0958 20.0388C17.5065 20.0388 21.8952 15.6716 21.8952 10.2953C21.8952 4.91473 17.5065 0.543213 12.0958 0.543213ZM12.0958 3.97856C15.6042 3.97856 18.4598 6.80411 18.4598 10.2953C18.4598 13.7822 15.6042 16.6035 12.0958 16.6035C8.58319 16.6035 5.72752 13.7822 5.72752 10.2953C5.72752 6.80411 8.58319 3.97856 12.0958 3.97856Z" fill="black"/>
<mask id="mask0_62_225" style="mask-type:alpha" maskUnits="userSpaceOnUse" x="0" y="0" width="100" height="100">
<path fill-rule="evenodd" clip-rule="evenodd" d="M29.4451 89.8804H74.4014C75.3461 89.8804 76.1191 89.1117 76.1191 88.1627C76.1191 87.218 75.3461 86.4451 74.4014 86.4451H29.3726L35.8439 79.9737C36.5181 79.3038 36.5181 78.2131 35.8439 77.5433C35.174 76.8734 34.0875 76.8734 33.4177 77.5433L24.0478 86.9131C23.378 87.583 23.378 88.6738 24.0478 89.3436L33.4177 98.7135C34.0876 99.3834 35.1741 99.3834 35.8439 98.7135C36.5181 98.0393 36.5181 96.9528 35.8439 96.283L29.4451 89.8804ZM89.8259 78.3805C84.4152 78.3805 80.0222 82.7477 80.0222 88.1283C80.0222 93.5046 84.4152 97.8761 89.8259 97.8761C95.2365 97.8761 99.6252 93.5046 99.6252 88.1283C99.6252 82.7477 95.2365 78.3805 89.8259 78.3805ZM9.79936 78.3805C4.38867 78.3805 0 82.7477 0 88.1283C0 93.5046 4.38867 97.8761 9.79936 97.8761C15.2101 97.8761 19.603 93.5046 19.603 88.1283C19.603 82.7477 15.2101 78.3805 9.79936 78.3805ZM89.8259 81.8159C93.3342 81.8159 96.1899 84.6414 96.1899 88.1283C96.1899 91.6152 93.3342 94.4408 89.8259 94.4408C86.3132 94.4408 83.4575 91.6152 83.4575 88.1283C83.4575 84.6414 86.3132 81.8159 89.8259 81.8159ZM9.79936 81.8159C13.312 81.8159 16.1677 84.6414 16.1677 88.1283C16.1677 91.6152 13.312 94.4408 9.79936 94.4408C6.29102 94.4408 3.43534 91.6152 3.43534 88.1283C3.43534 84.6414 6.29102 81.8159 9.79936 81.8159ZM77.9049 73.7814C77.9049 73.7814 75.0321 70.9086 70.6177 66.4899C69.9478 65.82 68.8571 65.82 68.1872 66.4899C67.5173 67.1641 67.5173 68.2506 68.1872 68.9204C72.6016 73.3348 75.4745 76.2076 75.4745 76.2076C76.1444 76.8775 77.2351 76.8775 77.9049 76.2076C78.5748 75.5377 78.5748 74.4513 77.9049 73.7814ZM63.3303 59.2024C61.02 56.8964 58.5638 54.4402 56.0388 51.9152C55.3689 51.2453 54.2824 51.2453 53.6126 51.9152C52.9427 52.5851 52.9427 53.6758 53.6126 54.3456C56.1333 56.8664 58.5938 59.3268 60.8998 61.6329C61.5697 62.3028 62.6562 62.3028 63.3303 61.6329C64.0002 60.963 64.0002 59.8722 63.3303 59.2024ZM48.7556 44.6277C46.2693 42.1457 43.813 39.6851 41.4684 37.3405C40.7942 36.6706 39.7077 36.6706 39.0336 37.3405C38.3638 38.0104 38.3638 39.1012 39.0336 39.771C41.3868 42.1156 43.8431 44.5762 46.3251 47.0582C46.995 47.7281 48.0858 47.7281 48.7556 47.0582C49.4255 46.384 49.4255 45.3018 48.7556 44.6277ZM24.6005 25.3334L31.7503 32.4832C32.4202 33.1531 33.5066 33.1531 34.1765 32.4832C34.8463 31.8133 34.8464 30.7226 34.1765 30.0528L26.9751 22.8514H36.1303C37.0793 22.8514 37.8479 22.0785 37.8479 21.1337C37.8479 20.1847 37.0793 19.4161 36.1303 19.4161H22.8825C21.9335 19.4161 21.1648 20.1847 21.1648 21.1337V34.3815C21.1648 35.3305 21.9335 36.0992 22.8825 36.0992C23.8315 36.0992 24.6001 35.3305 24.6001 34.3815L24.6005 25.3334ZM12.0958 0.543213C6.68084 0.543213 2.29217 4.91473 2.29217 10.2953C2.29217 15.6716 6.68084 20.0388 12.0958 20.0388C17.5065 20.0388 21.8952 15.6716 21.8952 10.2953C21.8952 4.91473 17.5065 0.543213 12.0958 0.543213ZM12.0958 3.97856C15.6042 3.97856 18.4598 6.80411 18.4598 10.2953C18.4598 13.7822 15.6042 16.6035 12.0958 16.6035C8.58319 16.6035 5.72752 13.7822 5.72752 10.2953C5.72752 6.80411 8.58319 3.97856 12.0958 3.97856Z" fill="black"/>
</mask>
<g mask="url(#mask0_62_225)">
<ellipse cx="92.342" cy="86.8389" rx="15.3903" ry="15.94" fill="#C83F6F"/>
<ellipse cx="7.69503" cy="89.0377" rx="15.3903" ry="15.94" fill="#C83F6F"/>
<ellipse cx="9.89376" cy="7.68853" rx="15.3903" ry="15.94" fill="#C83F6F"/>
</g>
<path d="M64 2L80.0131 15.9469M80.0131 2L64 15.9469" stroke="black" stroke-width="3.09931" stroke-linecap="round"/>
</svg>
