<svg width="100" height="73" viewBox="0 0 100 73" fill="none" xmlns="http://www.w3.org/2000/svg">
<path d="M41.7791 46.2055C42.9765 46.9063 44.4572 46.9063 45.6546 46.2055L63.1617 36.0965C64.3359 35.4188 65.0693 34.1749 65.0971 32.8196C65.125 31.469 64.4473 30.1973 63.3055 29.4685L45.7985 18.3198C44.6057 17.5586 43.0926 17.5076 41.8533 18.1899C40.6094 18.8675 39.839 20.1718 39.839 21.5874V42.8456C39.8297 44.2334 40.5723 45.5186 41.7791 46.2055ZM43.6356 21.448V21.4434C43.6588 21.4295 43.6867 21.4202 43.7145 21.4202C43.747 21.4202 43.7749 21.4341 43.8027 21.448L61.3097 32.5967L62.3076 31.0326L61.3051 32.8752L43.7981 42.9843L43.5521 42.845L43.6356 21.448Z" fill="#C83F6F"/>
<path d="M15.095 23.6206C15.587 23.6206 16.0605 23.4257 16.4086 23.0776C16.7567 22.7295 16.9516 22.256 16.9516 21.764V11.7663C16.9516 11.344 17.2905 11.0051 17.7128 11.0051H26.5686C27.5944 11.0051 28.4252 10.1743 28.4252 9.14856C28.4252 8.12281 27.5944 7.29199 26.5686 7.29199H17.7082C15.239 7.29199 13.2339 9.29709 13.2339 11.7663V21.764C13.2339 22.2606 13.4288 22.734 13.7769 23.0822C14.1297 23.4303 14.603 23.6253 15.095 23.6206Z" fill="#C83F6F"/>
<path d="M96.959 66.3261L99.5577 66.354L94.2758 61.0814V61.086C94.7538 60.2738 95.0137 59.3455 95.0184 58.4033V5.37009C95.0091 2.40885 92.6095 0.004634 89.6483 0H10.3723C7.40645 0.00464113 5.00688 2.40885 4.99761 5.37009V58.408C5.00225 59.3502 5.26217 60.2785 5.74024 61.0908L0.449042 66.3634L3.045 66.3402C2.3163 65.6347 1.16063 65.644 0.445805 66.3634C-0.273618 67.0782 0.0939889 68.9397 0.0939889 68.9397L0.82032 71.9842C1.16843 72.3323 1.64186 72.5272 2.13388 72.5272H97.8677C98.3597 72.5272 98.8331 72.3323 99.1812 71.9842L99.9061 68.9397C99.9061 68.9397 100.272 67.0735 99.5577 66.354C98.8429 65.6393 97.6826 65.63 96.9539 66.3308L96.959 66.3261ZM10.359 63.778H89.635C90.2337 63.7734 90.8232 63.6666 91.3849 63.4624L96.7503 68.814H3.25273L8.61819 63.4624C9.17516 63.6667 9.76497 63.7734 10.359 63.778ZM8.70208 5.3706C8.70672 4.46089 9.4447 3.71828 10.359 3.71365H89.635C90.5493 3.71829 91.2873 4.46092 91.2919 5.3706V58.4085C91.2919 58.8077 91.1388 59.1976 90.8649 59.49C90.6839 59.5735 90.5122 59.6896 90.3636 59.8242C90.3358 59.852 90.3265 59.8892 90.3033 59.917C90.0944 60.0145 89.867 60.0655 89.6349 60.0655H10.359C10.1315 60.0655 9.90412 60.0191 9.69526 59.9263C9.66741 59.8938 9.65813 59.8567 9.63028 59.8288L9.63492 59.8242C9.48639 59.6849 9.31466 59.5735 9.12901 59.49C8.85981 59.1929 8.70664 58.8077 8.702 58.4085L8.70208 5.3706Z" fill="black"/>
</svg>
