<svg width="100" height="100" viewBox="0 0 100 100" fill="none" xmlns="http://www.w3.org/2000/svg">
<rect width="100" height="100" fill=""/>
<path d="M80.2481 16.0324C79.3629 16.0324 78.5605 16.3923 77.9814 16.9714L77.9078 17.0397C77.372 17.6097 77.0424 18.3845 77.0424 19.2368C77.0424 20.1259 77.3996 20.9283 77.9748 21.5022C78.5605 22.0814 79.3629 22.4412 80.2481 22.4412C81.1358 22.4412 81.9382 22.084 82.5135 21.5088C83.0952 20.9283 83.4524 20.1259 83.4524 19.2368C83.4524 18.3491 83.0952 17.5466 82.52 16.9714C81.9382 16.3897 81.1358 16.0324 80.2481 16.0324ZM92.9093 43.5692C92.9093 42.6814 92.5521 41.879 91.9769 41.3038C91.3912 40.7246 90.5888 40.3648 89.7036 40.3648C88.8145 40.3648 88.0121 40.722 87.4382 41.2972C86.8565 41.879 86.4992 42.6814 86.4992 43.5692C86.4992 44.4582 86.8564 45.2607 87.4317 45.8346C88.0121 46.4163 88.8145 46.7735 89.7036 46.7735C90.5888 46.7735 91.3912 46.4137 91.9703 45.8346L92.0439 45.7649C92.5797 45.1963 92.9093 44.4228 92.9093 43.5692ZM94.3263 38.9478C95.5109 40.1336 96.245 41.77 96.245 43.5692C96.245 45.3171 95.5529 46.9101 94.4262 48.0868L94.329 48.1932C93.1457 49.3764 91.5094 50.1093 89.7036 50.1093C87.9084 50.1093 86.2747 49.3778 85.0901 48.1971L85.0796 48.1866C84.2759 47.3803 83.6796 46.3677 83.3802 45.237H67.9834C67.4371 48.2943 66.1343 51.0903 64.276 53.424C61.9936 56.2895 58.868 58.4604 55.2775 59.5596V59.7211C55.9078 59.4598 56.5973 59.314 57.3183 59.314C58.7984 59.314 60.1445 59.9194 61.1176 60.8925L61.2187 61.0029C61.4223 61.2182 61.6088 61.4494 61.7742 61.6963C62.6252 61.1316 63.6443 60.8019 64.737 60.8019C66.2131 60.8019 67.5579 61.41 68.531 62.3844C68.7792 62.6248 69.0012 62.894 69.1955 63.1816C70.0452 62.6195 71.0643 62.2899 72.1544 62.2899C73.6331 62.2899 74.9766 62.8966 75.9497 63.8697C76.9229 64.8429 77.5309 66.1942 77.5309 67.6664V97.9203C77.5309 98.8409 76.7836 99.5882 75.863 99.5882C74.9424 99.5882 74.1952 98.8409 74.1952 97.9203V67.6664C74.1952 67.1122 73.9627 66.6 73.5911 66.2284C73.2207 65.858 72.7099 65.6256 72.1544 65.6256C71.5962 65.6256 71.0854 65.8567 70.715 66.2271C70.3447 66.5974 70.1135 67.1083 70.1135 67.6664V73.3713C70.1135 74.2919 69.3663 75.0391 68.4457 75.0391C67.5251 75.0391 66.7778 74.2919 66.7778 73.3713V66.1798C66.7778 65.6203 66.5467 65.1095 66.1763 64.7391C65.8099 64.3662 65.2991 64.1376 64.737 64.1376C64.1775 64.1376 63.6667 64.3688 63.2963 64.7391C62.926 65.1095 62.6948 65.6203 62.6948 66.1798V71.8833C62.6948 72.8039 61.9476 73.5512 61.027 73.5512C60.1064 73.5512 59.3591 72.8039 59.3591 71.8833V64.6918C59.3591 64.1613 59.1556 63.6754 58.8246 63.3129L58.759 63.2512C58.3886 62.8808 57.8778 62.6497 57.3183 62.6497C56.7877 62.6497 56.3031 62.8546 55.9433 63.1829L55.879 63.2512C55.5086 63.6215 55.2775 64.1324 55.2775 64.6918V69.6744C55.2775 70.595 54.5302 71.3423 53.6096 71.3423C52.689 71.3423 51.9418 70.595 51.9418 69.6744V45.7623C51.9418 45.2002 51.7119 44.6868 51.3442 44.319C50.9765 43.9513 50.463 43.7215 49.9009 43.7215C49.3717 43.7215 48.8845 43.9251 48.522 44.256L48.4603 44.3217C48.0899 44.692 47.8588 45.2029 47.8588 45.7623V80.6442C47.8562 81.0053 47.7406 81.3691 47.5003 81.6738C46.9329 82.3961 45.8836 82.5208 45.1613 81.9535L38.6186 76.7779C37.9843 76.183 37.1556 75.902 36.3374 75.9282C35.5272 75.9545 34.7208 76.292 34.1233 76.9289C33.5284 77.5593 33.2499 78.3867 33.2749 79.2022C33.2998 79.9902 33.6111 80.7663 34.1981 81.3507L51.0409 97.1245C51.7093 97.7535 51.7421 98.8081 51.1131 99.4765C50.484 100.145 49.4295 100.178 48.761 99.5488L31.8973 83.7435C30.6588 82.5327 30.0048 80.9278 29.9523 79.3073C29.8998 77.6473 30.4776 75.9611 31.699 74.6557C32.9203 73.3463 34.5658 72.6595 36.2324 72.6056C37.849 72.5531 39.4893 73.0994 40.7803 74.2577L44.5231 77.2073V59.5635C40.9273 58.4669 37.8004 56.2987 35.5153 53.4345C33.6518 51.0982 32.3464 48.2983 31.7988 45.237H15.8648C15.5654 46.3677 14.9692 47.3803 14.1655 48.1866L14.1549 48.1971C12.9704 49.3778 11.3367 50.1093 9.54142 50.1093C7.73566 50.1093 6.09933 49.3764 4.91607 48.1932L4.81888 48.0868C3.69209 46.9101 3 45.3171 3 43.5692C3 41.77 3.73412 40.1336 4.92001 38.9491C6.09933 37.7619 7.73566 37.0291 9.54142 37.0291C11.338 37.0291 12.973 37.7619 14.1589 38.9451L14.1694 38.9556C14.9718 39.7607 15.5667 40.7719 15.8648 41.9013H31.5125C31.5348 37.1157 33.3878 32.757 36.407 29.4987V20.9047H25.8601C25.5607 22.0367 24.9632 23.0519 24.1568 23.8569C22.9775 25.0441 21.3412 25.7769 19.5354 25.7769C17.7389 25.7769 16.1038 25.0441 14.918 23.8609L14.9075 23.8504C13.7268 22.6658 12.9953 21.0321 12.9953 19.2368C12.9953 17.4403 13.7281 15.8052 14.9114 14.6194L14.9219 14.6089C16.1065 13.4282 17.7402 12.6967 19.5354 12.6967C21.3412 12.6967 22.9775 13.4295 24.1608 14.6128L24.258 14.7192C25.0131 15.5084 25.5752 16.4842 25.8615 17.569H38.0749C38.9955 17.569 39.7428 18.3162 39.7428 19.2368V26.6634C42.2157 25.0244 45.1088 23.9633 48.2239 23.6836V12.8635C47.0932 12.5641 46.0806 11.9679 45.2743 11.1641L45.2638 11.1536C44.0831 9.96906 43.3516 8.33535 43.3516 6.5401C43.3516 4.74092 44.0844 3.10852 45.2677 1.92263L45.2782 1.91213C46.4628 0.731494 48.0939 0 49.8917 0C51.6909 0 53.3233 0.732807 54.5092 1.91607L54.5197 1.92657C55.7004 3.11115 56.4318 4.74223 56.4318 6.5401C56.4318 8.33666 55.699 9.97168 54.5158 11.1576L54.5053 11.1681C53.7002 11.9705 52.689 12.5654 51.5596 12.8635V23.6836C54.6747 23.9633 57.5678 25.0244 60.0407 26.6634V19.2368C60.0407 18.3162 60.788 17.569 61.7086 17.569H73.922C74.2083 16.4842 74.7704 15.5084 75.5255 14.7192L75.6227 14.6128C76.806 13.4295 78.4423 12.6967 80.2481 12.6967C82.0433 12.6967 83.677 13.4282 84.8616 14.6089L84.8721 14.6194C86.0554 15.8052 86.7882 17.4403 86.7882 19.2368C86.7882 21.0321 86.0567 22.6658 84.876 23.8504L84.8655 23.8609C83.6796 25.0441 82.0446 25.7769 80.2481 25.7769C78.4423 25.7769 76.806 25.0441 75.6227 23.8609C74.819 23.0532 74.2228 22.038 73.9233 20.9047H63.3764V29.4987C66.3956 32.757 68.2487 37.1157 68.271 41.9013H83.3802C83.6783 40.7719 84.2732 39.7607 85.0757 38.9556L85.0862 38.9451C86.272 37.7619 87.9071 37.0291 89.7036 37.0291C91.5094 37.0291 93.1457 37.7619 94.3263 38.9478ZM7.27076 41.3038C6.69292 41.879 6.33571 42.6814 6.33571 43.5692C6.33571 44.4228 6.66535 45.1963 7.20116 45.7649L7.2747 45.8346C7.85386 46.4137 8.65627 46.7735 9.54142 46.7735C10.4305 46.7735 11.2329 46.4163 11.8068 45.8411C12.3886 45.2607 12.7458 44.4582 12.7458 43.5692C12.7458 42.6814 12.3886 41.879 11.8134 41.3038C11.2329 40.722 10.4305 40.3648 9.54142 40.3648C8.65627 40.3648 7.85386 40.7246 7.27076 41.3038ZM21.8021 16.9714C21.223 16.3923 20.4206 16.0324 19.5354 16.0324C18.6477 16.0324 17.8452 16.3897 17.27 16.9649C16.6882 17.5466 16.331 18.3491 16.331 19.2368C16.331 20.1259 16.6882 20.9283 17.2635 21.5022C17.8452 22.084 18.6477 22.4412 19.5354 22.4412C20.4206 22.4412 21.223 22.0814 21.8021 21.5022C22.3839 20.9283 22.7411 20.1259 22.7411 19.2368C22.7411 18.3845 22.4115 17.6097 21.8757 17.0397L21.8021 16.9714ZM52.1598 4.27077C51.5819 3.69293 50.7808 3.33571 49.8917 3.33571C49.0027 3.33571 48.2016 3.69292 47.6263 4.26814C47.0446 4.84992 46.6874 5.65102 46.6874 6.5401C46.6874 7.42919 47.0446 8.2316 47.6198 8.8055C48.2016 9.38728 49.004 9.74449 49.8917 9.74449C50.7795 9.74449 51.5819 9.38728 52.1571 8.81207C52.7389 8.2316 53.0961 7.42919 53.0961 6.5401C53.0961 5.65102 52.7389 4.84992 52.1598 4.27077ZM44.5231 53.6498C42.4704 52.7017 40.7067 51.2242 39.4092 49.3896C37.9226 47.2975 37.0519 44.7419 37.0519 41.988C37.0519 38.4461 38.4899 35.2378 40.8118 32.9146C43.1415 30.5861 46.3498 29.1481 49.8917 29.1481C53.4284 29.1481 56.638 30.5861 58.9638 32.9093L58.9743 32.9198C61.2949 35.2456 62.7316 38.4526 62.7316 41.988C62.7316 44.7367 61.8622 47.2897 60.3874 49.3804C59.0952 51.2111 57.3314 52.6925 55.2775 53.6433V56.0413C57.8068 55.0708 60.0105 53.4358 61.6705 51.3516C63.7126 48.7855 64.9353 45.5299 64.9353 41.988C64.9353 37.8341 63.2504 34.0716 60.5293 31.3505C57.8082 28.6294 54.0456 26.9444 49.8917 26.9444C45.7379 26.9444 41.9753 28.6294 39.2542 31.3505C36.5331 34.0716 34.8482 37.8341 34.8482 41.988C34.8482 45.5338 36.0735 48.7947 38.1209 51.3621C39.7848 53.4489 41.9911 55.0853 44.5231 56.0518V53.6498ZM55.2775 49.8243C56.2046 49.1847 57.0149 48.3849 57.6637 47.4656C58.7537 45.9212 59.3959 44.0301 59.3959 41.988C59.3959 39.3601 58.3335 36.9818 56.6183 35.268C54.8979 33.5463 52.5196 32.4838 49.8917 32.4838C47.2639 32.4838 44.8855 33.5463 43.1678 35.264C41.45 36.9818 40.3876 39.3601 40.3876 41.988C40.3876 44.0327 41.0324 45.9278 42.1264 47.4748C42.7751 48.3967 43.588 49.1965 44.5231 49.8361V45.7623C44.5231 44.2823 45.1285 42.9362 46.1016 41.963L46.2119 41.8632C47.1759 40.9492 48.476 40.3858 49.9009 40.3858C51.3771 40.3858 52.7205 40.9912 53.6937 41.963C54.6721 42.9427 55.2775 44.2862 55.2775 45.7623V49.8243Z" fill="black"/>
<mask id="mask0_62_253" style="mask-type:alpha" maskUnits="userSpaceOnUse" x="3" y="0" width="94" height="100">
<path d="M80.2481 16.0324C79.3629 16.0324 78.5605 16.3923 77.9814 16.9714L77.9078 17.0397C77.372 17.6097 77.0424 18.3845 77.0424 19.2368C77.0424 20.1259 77.3996 20.9283 77.9748 21.5022C78.5605 22.0814 79.3629 22.4412 80.2481 22.4412C81.1358 22.4412 81.9382 22.084 82.5135 21.5088C83.0952 20.9283 83.4524 20.1259 83.4524 19.2368C83.4524 18.3491 83.0952 17.5466 82.52 16.9714C81.9382 16.3897 81.1358 16.0324 80.2481 16.0324ZM92.9093 43.5692C92.9093 42.6814 92.5521 41.879 91.9769 41.3038C91.3912 40.7246 90.5888 40.3648 89.7036 40.3648C88.8145 40.3648 88.0121 40.722 87.4382 41.2972C86.8565 41.879 86.4992 42.6814 86.4992 43.5692C86.4992 44.4582 86.8564 45.2607 87.4317 45.8346C88.0121 46.4163 88.8145 46.7735 89.7036 46.7735C90.5888 46.7735 91.3912 46.4137 91.9703 45.8346L92.0439 45.7649C92.5797 45.1963 92.9093 44.4228 92.9093 43.5692ZM94.3263 38.9478C95.5109 40.1336 96.245 41.77 96.245 43.5692C96.245 45.3171 95.5529 46.9101 94.4262 48.0868L94.329 48.1932C93.1457 49.3764 91.5094 50.1093 89.7036 50.1093C87.9084 50.1093 86.2747 49.3778 85.0901 48.1971L85.0796 48.1866C84.2759 47.3803 83.6796 46.3677 83.3802 45.237H67.9834C67.4371 48.2943 66.1343 51.0903 64.276 53.424C61.9936 56.2895 58.868 58.4604 55.2775 59.5596V59.7211C55.9078 59.4598 56.5973 59.314 57.3183 59.314C58.7984 59.314 60.1445 59.9194 61.1176 60.8925L61.2187 61.0029C61.4223 61.2182 61.6088 61.4494 61.7742 61.6963C62.6252 61.1316 63.6443 60.8019 64.737 60.8019C66.2131 60.8019 67.5579 61.41 68.531 62.3844C68.7792 62.6248 69.0012 62.894 69.1955 63.1816C70.0452 62.6195 71.0643 62.2899 72.1544 62.2899C73.6331 62.2899 74.9766 62.8966 75.9497 63.8697C76.9229 64.8429 77.5309 66.1942 77.5309 67.6664V97.9203C77.5309 98.8409 76.7836 99.5882 75.863 99.5882C74.9424 99.5882 74.1952 98.8409 74.1952 97.9203V67.6664C74.1952 67.1122 73.9627 66.6 73.5911 66.2284C73.2207 65.858 72.7099 65.6256 72.1544 65.6256C71.5962 65.6256 71.0854 65.8567 70.715 66.2271C70.3447 66.5974 70.1135 67.1083 70.1135 67.6664V73.3713C70.1135 74.2919 69.3663 75.0391 68.4457 75.0391C67.5251 75.0391 66.7778 74.2919 66.7778 73.3713V66.1798C66.7778 65.6203 66.5467 65.1095 66.1763 64.7391C65.8099 64.3662 65.2991 64.1376 64.737 64.1376C64.1775 64.1376 63.6667 64.3688 63.2963 64.7391C62.926 65.1095 62.6948 65.6203 62.6948 66.1798V71.8833C62.6948 72.8039 61.9476 73.5512 61.027 73.5512C60.1064 73.5512 59.3591 72.8039 59.3591 71.8833V64.6918C59.3591 64.1613 59.1556 63.6754 58.8246 63.3129L58.759 63.2512C58.3886 62.8808 57.8778 62.6497 57.3183 62.6497C56.7877 62.6497 56.3031 62.8546 55.9433 63.1829L55.879 63.2512C55.5086 63.6215 55.2775 64.1324 55.2775 64.6918V69.6744C55.2775 70.595 54.5302 71.3423 53.6096 71.3423C52.689 71.3423 51.9418 70.595 51.9418 69.6744V45.7623C51.9418 45.2002 51.7119 44.6868 51.3442 44.319C50.9765 43.9513 50.463 43.7215 49.9009 43.7215C49.3717 43.7215 48.8845 43.9251 48.522 44.256L48.4603 44.3217C48.0899 44.692 47.8588 45.2029 47.8588 45.7623V80.6442C47.8562 81.0053 47.7406 81.3691 47.5003 81.6738C46.9329 82.3961 45.8836 82.5208 45.1613 81.9535L38.6186 76.7779C37.9843 76.183 37.1556 75.902 36.3374 75.9282C35.5272 75.9545 34.7208 76.292 34.1233 76.9289C33.5284 77.5593 33.2499 78.3867 33.2749 79.2022C33.2998 79.9902 33.6111 80.7663 34.1981 81.3507L51.0409 97.1245C51.7093 97.7535 51.7421 98.8081 51.1131 99.4765C50.484 100.145 49.4295 100.178 48.761 99.5488L31.8973 83.7435C30.6588 82.5327 30.0048 80.9278 29.9523 79.3073C29.8998 77.6473 30.4776 75.9611 31.699 74.6557C32.9203 73.3463 34.5658 72.6595 36.2324 72.6056C37.849 72.5531 39.4893 73.0994 40.7803 74.2577L44.5231 77.2073V59.5635C40.9273 58.4669 37.8004 56.2987 35.5153 53.4345C33.6518 51.0982 32.3464 48.2983 31.7988 45.237H15.8648C15.5654 46.3677 14.9692 47.3803 14.1655 48.1866L14.1549 48.1971C12.9704 49.3778 11.3367 50.1093 9.54142 50.1093C7.73566 50.1093 6.09933 49.3764 4.91607 48.1932L4.81888 48.0868C3.69209 46.9101 3 45.3171 3 43.5692C3 41.77 3.73412 40.1336 4.92001 38.9491C6.09933 37.7619 7.73566 37.0291 9.54142 37.0291C11.338 37.0291 12.973 37.7619 14.1589 38.9451L14.1694 38.9556C14.9718 39.7607 15.5667 40.7719 15.8648 41.9013H31.5125C31.5348 37.1157 33.3878 32.757 36.407 29.4987V20.9047H25.8601C25.5607 22.0367 24.9632 23.0519 24.1568 23.8569C22.9775 25.0441 21.3412 25.7769 19.5354 25.7769C17.7389 25.7769 16.1038 25.0441 14.918 23.8609L14.9075 23.8504C13.7268 22.6658 12.9953 21.0321 12.9953 19.2368C12.9953 17.4403 13.7281 15.8052 14.9114 14.6194L14.9219 14.6089C16.1065 13.4282 17.7402 12.6967 19.5354 12.6967C21.3412 12.6967 22.9775 13.4295 24.1608 14.6128L24.258 14.7192C25.0131 15.5084 25.5752 16.4842 25.8615 17.569H38.0749C38.9955 17.569 39.7428 18.3162 39.7428 19.2368V26.6634C42.2157 25.0244 45.1088 23.9633 48.2239 23.6836V12.8635C47.0932 12.5641 46.0806 11.9679 45.2743 11.1641L45.2638 11.1536C44.0831 9.96906 43.3516 8.33535 43.3516 6.5401C43.3516 4.74092 44.0844 3.10852 45.2677 1.92263L45.2782 1.91213C46.4628 0.731494 48.0939 0 49.8917 0C51.6909 0 53.3233 0.732807 54.5092 1.91607L54.5197 1.92657C55.7004 3.11115 56.4318 4.74223 56.4318 6.5401C56.4318 8.33666 55.699 9.97168 54.5158 11.1576L54.5053 11.1681C53.7002 11.9705 52.689 12.5654 51.5596 12.8635V23.6836C54.6747 23.9633 57.5678 25.0244 60.0407 26.6634V19.2368C60.0407 18.3162 60.788 17.569 61.7086 17.569H73.922C74.2083 16.4842 74.7704 15.5084 75.5255 14.7192L75.6227 14.6128C76.806 13.4295 78.4423 12.6967 80.2481 12.6967C82.0433 12.6967 83.677 13.4282 84.8616 14.6089L84.8721 14.6194C86.0554 15.8052 86.7882 17.4403 86.7882 19.2368C86.7882 21.0321 86.0567 22.6658 84.876 23.8504L84.8655 23.8609C83.6796 25.0441 82.0446 25.7769 80.2481 25.7769C78.4423 25.7769 76.806 25.0441 75.6227 23.8609C74.819 23.0532 74.2228 22.038 73.9233 20.9047H63.3764V29.4987C66.3956 32.757 68.2487 37.1157 68.271 41.9013H83.3802C83.6783 40.7719 84.2732 39.7607 85.0757 38.9556L85.0862 38.9451C86.272 37.7619 87.9071 37.0291 89.7036 37.0291C91.5094 37.0291 93.1457 37.7619 94.3263 38.9478ZM7.27076 41.3038C6.69292 41.879 6.33571 42.6814 6.33571 43.5692C6.33571 44.4228 6.66535 45.1963 7.20116 45.7649L7.2747 45.8346C7.85386 46.4137 8.65627 46.7735 9.54142 46.7735C10.4305 46.7735 11.2329 46.4163 11.8068 45.8411C12.3886 45.2607 12.7458 44.4582 12.7458 43.5692C12.7458 42.6814 12.3886 41.879 11.8134 41.3038C11.2329 40.722 10.4305 40.3648 9.54142 40.3648C8.65627 40.3648 7.85386 40.7246 7.27076 41.3038ZM21.8021 16.9714C21.223 16.3923 20.4206 16.0324 19.5354 16.0324C18.6477 16.0324 17.8452 16.3897 17.27 16.9649C16.6882 17.5466 16.331 18.3491 16.331 19.2368C16.331 20.1259 16.6882 20.9283 17.2635 21.5022C17.8452 22.084 18.6477 22.4412 19.5354 22.4412C20.4206 22.4412 21.223 22.0814 21.8021 21.5022C22.3839 20.9283 22.7411 20.1259 22.7411 19.2368C22.7411 18.3845 22.4115 17.6097 21.8757 17.0397L21.8021 16.9714ZM52.1598 4.27077C51.5819 3.69293 50.7808 3.33571 49.8917 3.33571C49.0027 3.33571 48.2016 3.69292 47.6263 4.26814C47.0446 4.84992 46.6874 5.65102 46.6874 6.5401C46.6874 7.42919 47.0446 8.2316 47.6198 8.8055C48.2016 9.38728 49.004 9.74449 49.8917 9.74449C50.7795 9.74449 51.5819 9.38728 52.1571 8.81207C52.7389 8.2316 53.0961 7.42919 53.0961 6.5401C53.0961 5.65102 52.7389 4.84992 52.1598 4.27077ZM44.5231 53.6498C42.4704 52.7017 40.7067 51.2242 39.4092 49.3896C37.9226 47.2975 37.0519 44.7419 37.0519 41.988C37.0519 38.4461 38.4899 35.2378 40.8118 32.9146C43.1415 30.5861 46.3498 29.1481 49.8917 29.1481C53.4284 29.1481 56.638 30.5861 58.9638 32.9093L58.9743 32.9198C61.2949 35.2456 62.7316 38.4526 62.7316 41.988C62.7316 44.7367 61.8622 47.2897 60.3874 49.3804C59.0952 51.2111 57.3314 52.6925 55.2775 53.6433V56.0413C57.8068 55.0708 60.0105 53.4358 61.6705 51.3516C63.7126 48.7855 64.9353 45.5299 64.9353 41.988C64.9353 37.8341 63.2504 34.0716 60.5293 31.3505C57.8082 28.6294 54.0456 26.9444 49.8917 26.9444C45.7379 26.9444 41.9753 28.6294 39.2542 31.3505C36.5331 34.0716 34.8482 37.8341 34.8482 41.988C34.8482 45.5338 36.0735 48.7947 38.1209 51.3621C39.7848 53.4489 41.9911 55.0853 44.5231 56.0518V53.6498ZM55.2775 49.8243C56.2046 49.1847 57.0149 48.3849 57.6637 47.4656C58.7537 45.9212 59.3959 44.0301 59.3959 41.988C59.3959 39.3601 58.3335 36.9818 56.6183 35.268C54.8979 33.5463 52.5196 32.4838 49.8917 32.4838C47.2639 32.4838 44.8855 33.5463 43.1678 35.264C41.45 36.9818 40.3876 39.3601 40.3876 41.988C40.3876 44.0327 41.0324 45.9278 42.1264 47.4748C42.7751 48.3967 43.588 49.1965 44.5231 49.8361V45.7623C44.5231 44.2823 45.1285 42.9362 46.1016 41.963L46.2119 41.8632C47.1759 40.9492 48.476 40.3858 49.9009 40.3858C51.3771 40.3858 52.7205 40.9912 53.6937 41.963C54.6721 42.9427 55.2775 44.2862 55.2775 45.7623V49.8243Z" fill="black"/>
</mask>
<g mask="url(#mask0_62_253)">
<path d="M44.4895 68.6175H31.1915L22.1489 96.8092L55.6598 115.958L87.575 105.32L83.3196 62.2345L74.8089 55.3195L55.1279 59.5749V45.213L55.6598 38.2981H44.4895V68.6175Z" fill="#C83F6F"/>
</g>
</svg>
