<?xml version="1.0" encoding="UTF-8"?>
<svg id="Layer_2" data-name="Layer 2" xmlns="http://www.w3.org/2000/svg" viewBox="0 0 24 24">
  <defs>
    <style>
      .cls-1, .cls-2 {
        fill: none;
      }

      .cls-1, .cls-3 {
        stroke-width: 0px;
      }

      .cls-2 {
        stroke: #282828;
        stroke-linecap: round;
        stroke-miterlimit: 10;
      }

      .cls-3 {
        fill: #c83e6f;
      }
    </style>
  </defs>
  <g id="Layer_1-2" data-name="Layer 1">
    <g>
      <rect class="cls-3" x="9" y="11.5" width=".5" height="1.5" rx=".25" ry=".25"/>
      <rect class="cls-3" x="10.5" y="11.5" width=".5" height="1.5" rx=".25" ry=".25"/>
      <rect class="cls-3" x="12" y="11.5" width=".5" height="1.5" rx=".25" ry=".25"/>
      <rect class="cls-3" x="13.5" y="11.5" width=".5" height="1.5" rx=".25" ry=".25"/>
      <rect class="cls-3" x="15" y="11.5" width=".5" height="1.5" rx=".25" ry=".25"/>
      <polygon class="cls-2" points="19 13 19 15 18 16.5 16.5 16.5 16.5 15 16.5 13 19 13"/>
      <rect class="cls-2" x="5" y="13" width="14" height="2" rx=".33" ry=".33"/>
      <rect class="cls-2" x="7.5" y="10.5" width="9" height="2.5" rx=".51" ry=".51"/>
      <rect class="cls-1" width="24" height="24"/>
      <line class="cls-2" x1="2.5" y1="21.5" x2="21.5" y2="21.5"/>
      <rect class="cls-2" x="7.5" y="15" width="2.5" height="6.5"/>
      <rect class="cls-2" x="6" y="16.5" width="1.5" height="5"/>
      <rect class="cls-2" x="6" y="6.5" width="1.5" height="2"/>
      <path class="cls-2" d="m6.75,3h0c.41,0,.75.34.75.75v1.25h-1.5v-1.25c0-.41.34-.75.75-.75Z"/>
      <path class="cls-2" d="m17.25,3h0c.41,0,.75.34.75.75v1.25h-1.5v-1.25c0-.41.34-.75.75-.75Z"/>
      <rect class="cls-2" x="16.5" y="6.5" width="1.5" height="2"/>
      <rect class="cls-2" x="6" y="11" width="1.5" height="2"/>
      <rect class="cls-2" x="16.5" y="11" width="1.5" height="2"/>
      <rect class="cls-3" x="8.5" y="16.5" width=".5" height="1" rx=".25" ry=".25"/>
      <rect class="cls-3" x="8.5" y="18" width=".5" height="1" rx=".25" ry=".25"/>
      <rect class="cls-3" x="8.5" y="19.5" width=".5" height="1" rx=".25" ry=".25"/>
      <rect class="cls-2" x="14" y="15" width="2.5" height="6.5" transform="translate(30.5 36.5) rotate(-180)"/>
      <rect class="cls-2" x="16.5" y="16.5" width="1.5" height="5" transform="translate(34.5 38) rotate(-180)"/>
      <rect class="cls-3" x="15" y="16.5" width=".5" height="1" rx=".25" ry=".25" transform="translate(30.5 34) rotate(180)"/>
      <rect class="cls-3" x="15" y="18" width=".5" height="1" rx=".25" ry=".25" transform="translate(30.5 37) rotate(180)"/>
      <rect class="cls-3" x="15" y="19.5" width=".5" height="1" rx=".25" ry=".25" transform="translate(30.5 40) rotate(180)"/>
      <path class="cls-2" d="m10,18.5c0-1,2-2,2-2,0,0,2,1,2,2"/>
      <polygon class="cls-2" points="5.5 8.5 5.5 9.5 6 11 7.5 11 8 9.5 8 8.5 5.5 8.5"/>
      <rect class="cls-2" x="5.5" y="5" width="2.5" height="1.5"/>
      <rect class="cls-2" x="16" y="5" width="2.5" height="1.5"/>
      <polygon class="cls-2" points="16 8.5 16 9.5 16.5 11 18 11 18.5 9.5 18.5 8.5 16 8.5"/>
      <polygon class="cls-2" points="5 13 5 15 6 16.5 7.5 16.5 7.5 15 7.5 13 5 13"/>
    </g>
  </g>
</svg>