<svg width="256" height="244" viewBox="0 0 256 244" fill="none" xmlns="http://www.w3.org/2000/svg">
<path d="M25.8552 0.859557C27.2117 0.855101 27.2117 0.855101 28.5956 0.850554C31.6324 0.841867 34.6692 0.840359 37.7061 0.838866C39.8809 0.834238 42.0557 0.829214 44.2304 0.823821C50.1438 0.810695 56.0571 0.804252 61.9704 0.799811C65.6644 0.79688 69.3585 0.792775 73.0525 0.788306C84.609 0.774631 96.1655 0.764965 107.722 0.761105C121.064 0.756624 134.407 0.739074 147.749 0.710104C158.061 0.688491 168.373 0.678401 178.685 0.677063C184.844 0.676015 191.004 0.670102 197.163 0.652244C202.958 0.63577 208.752 0.633604 214.547 0.642383C216.672 0.643154 218.798 0.638806 220.923 0.628925C223.828 0.616212 226.732 0.622078 229.637 0.632507C230.475 0.62445 231.312 0.616394 232.176 0.608093C238.958 0.664903 244.541 1.86891 249.813 6.4375C254.542 11.9779 256.12 15.1681 256.154 22.571C256.158 23.2417 256.163 23.9124 256.167 24.6034C256.181 26.8556 256.187 29.1078 256.193 31.3601C256.201 32.9732 256.209 34.5862 256.218 36.1993C256.244 41.5013 256.259 46.8034 256.273 52.1055C256.279 53.9314 256.284 55.7573 256.29 57.5832C256.311 65.1794 256.33 72.7756 256.341 80.3719C256.357 91.2541 256.391 102.136 256.448 113.018C256.486 120.672 256.506 128.325 256.511 135.979C256.515 140.549 256.527 145.119 256.559 149.689C256.589 153.99 256.596 158.292 256.584 162.594C256.584 164.169 256.592 165.745 256.61 167.32C256.775 183.035 256.775 183.035 251 189C245.44 193.834 240.901 195.151 233.683 195.114C232.57 195.114 232.57 195.114 231.435 195.114C228.984 195.113 226.533 195.105 224.082 195.098C222.382 195.096 220.683 195.094 218.983 195.093C214.51 195.09 210.037 195.08 205.563 195.069C200.196 195.057 194.829 195.052 189.461 195.046C181.308 195.037 173.154 195.017 165 195C165 208.53 165 222.06 165 236C171.6 236 178.2 236 185 236C185.99 236.66 186.98 237.32 188 238C187.67 239.98 187.34 241.96 187 244C149.05 244 111.1 244 72.0001 244C71.6701 242.02 71.3401 240.04 71.0001 238C74.0001 236 74.0001 236 91.0001 236C91.0001 222.47 91.0001 208.94 91.0001 195C85.6066 195.046 80.2132 195.093 74.6563 195.141C71.2292 195.161 67.8022 195.18 64.3751 195.195C58.9413 195.219 53.5078 195.247 48.0743 195.302C43.6911 195.345 39.3083 195.369 34.9249 195.38C33.2568 195.387 31.5887 195.401 29.9208 195.423C11.8101 195.649 11.8101 195.649 5.50213 189.552C1.04362 184.526 -0.249302 180.953 -0.260642 174.295C-0.264468 173.622 -0.268294 172.949 -0.272235 172.256C-0.28255 170.002 -0.278576 167.749 -0.274604 165.495C-0.278952 163.878 -0.284135 162.262 -0.290092 160.645C-0.303491 156.255 -0.304059 151.864 -0.301528 147.474C-0.300459 143.808 -0.305341 140.143 -0.310134 136.477C-0.321233 127.829 -0.321665 119.181 -0.31562 110.532C-0.309581 101.612 -0.32189 92.6914 -0.343191 83.771C-0.360808 76.1114 -0.366806 68.4519 -0.363552 60.7923C-0.361739 56.218 -0.364377 51.6438 -0.378267 47.0694C-0.390842 42.7668 -0.388904 38.4644 -0.375856 34.1617C-0.37349 32.5839 -0.376226 31.0061 -0.384479 29.4283C-0.394946 27.2715 -0.386847 25.1155 -0.374168 22.9586C-0.374336 21.7526 -0.374502 20.5466 -0.374675 19.304C0.338726 13.0139 3.34392 9.10183 8.00005 5C13.877 0.986464 18.872 0.852411 25.8552 0.859557ZM9.0851 15.3897C7.84224 18.3796 7.63033 20.5304 7.63929 23.7644C7.63516 24.9132 7.63103 26.062 7.62677 27.2456C7.63756 28.5017 7.64836 29.7578 7.65948 31.052C7.6604 32.4143 7.65999 33.7766 7.65838 35.1389C7.65771 38.781 7.67507 42.4229 7.69621 46.065C7.71332 49.4849 7.7141 52.9047 7.71624 56.3246C7.73197 66.3206 7.77386 76.3166 7.81255 86.3125C7.87443 108.649 7.9363 130.986 8.00005 154C87.2001 154 166.4 154 248 154C248.124 120.526 248.124 120.526 248.25 86.375C248.286 79.3295 248.323 72.2839 248.36 65.0249C248.374 58.7075 248.374 58.7075 248.382 52.39C248.386 49.5768 248.401 46.764 248.422 43.9508C248.45 40.3601 248.458 36.7698 248.452 33.179C248.454 31.2426 248.476 29.3063 248.498 27.37C248.528 18.9102 248.528 18.9102 244 12C238.903 8.79585 234.799 8.57033 228.974 8.61232C228.075 8.60693 227.176 8.60155 226.251 8.596C223.245 8.58171 220.24 8.58883 217.235 8.59595C215.078 8.59024 212.921 8.58328 210.764 8.57515C204.908 8.5572 199.053 8.55839 193.198 8.56409C188.31 8.56718 183.421 8.56109 178.533 8.55505C167.001 8.541 155.47 8.54257 143.938 8.55395C132.041 8.56544 120.144 8.55136 108.247 8.52456C98.0319 8.50241 87.817 8.49576 77.6019 8.50163C71.5012 8.50501 65.4006 8.50257 59.2999 8.48538C53.5633 8.46993 47.827 8.47385 42.0904 8.49269C39.9857 8.49638 37.881 8.49325 35.7763 8.4828C32.9017 8.46962 30.0281 8.48112 27.1535 8.49879C26.322 8.48919 25.4905 8.47958 24.6337 8.46969C18.0434 8.55297 13.3763 10.0346 9.0851 15.3897ZM8.00005 162C6.52085 176.983 6.52085 176.983 12.0001 184C16.3336 187.665 20.5772 187.426 25.9889 187.388C27.3488 187.396 27.3488 187.396 28.7362 187.404C31.7747 187.418 34.8128 187.411 37.8514 187.404C40.0295 187.41 42.2077 187.417 44.3859 187.425C50.3032 187.443 56.2204 187.442 62.1377 187.436C67.0757 187.433 72.0138 187.439 76.9518 187.445C88.6 187.459 100.248 187.457 111.896 187.446C123.918 187.435 135.939 187.449 147.96 187.475C158.278 187.498 168.596 187.504 178.914 187.498C185.077 187.495 191.241 187.497 197.405 187.515C203.201 187.53 208.996 187.526 214.792 187.507C216.919 187.504 219.047 187.507 221.175 187.517C224.078 187.53 226.981 187.519 229.884 187.501C231.149 187.516 231.149 187.516 232.438 187.53C237.741 187.464 240.857 186.61 245 183C249.372 176.685 249.372 176.685 248 162C168.8 162 89.6001 162 8.00005 162ZM99.0001 195C99.0001 208.53 99.0001 222.06 99.0001 236C118.14 236 137.28 236 157 236C157 222.47 157 208.94 157 195C137.86 195 118.72 195 99.0001 195Z" fill="#C83E6F"/>
<path d="M45.375 25.6875C48 28 48 28 49.3125 31.125C50.6532 34.1242 50.6532 34.1242 53.0039 34.6875C54.5937 34.9808 56.1863 35.2593 57.7812 35.5234C61.0294 36.2211 62.7403 37.6073 65 40C67.0868 43.3538 67.9674 45.7593 68.5 49.6875C68.7865 52.8746 68.7865 52.8746 70.0625 54.9375C72.6406 56.3513 75.0312 56.7798 77.9609 56.668C81.4821 55.5145 82.5977 52.6376 84.4102 49.5703C91.0978 38.7583 102.889 32.1361 114.953 28.8008C129.15 25.5823 144.368 27.9767 156.816 35.4687C163.26 39.9875 168.455 44.8719 172.625 51.5625C174.739 54.9287 174.739 54.9287 178.102 56.7344C181.025 56.8407 183.302 56.5192 185.68 54.75C187.344 52.5443 187.531 50.9155 187.875 48.1875C188.78 43.0211 190.211 40.6089 194 37C196.7 35.1099 198.129 34.9931 201.5 34.8125C203.232 34.4103 203.232 34.4103 205 34C206 32.2908 206.993 30.5735 207.859 28.793C210.02 25.3973 213.201 24.0184 217 23C222.989 22.5947 227.4 24.0571 232 28C235.6 31.9602 235.512 36.2184 235.34 41.3437C234.842 45.2349 233.736 47.1958 231 50C226.984 52.9736 223.398 54.3473 218.375 54C214.186 53.2909 211.295 51.7322 208 49C206 46 206 46 206 43C200.592 44.0979 200.592 44.0979 197 48C196.682 49.4278 196.415 50.8674 196.188 52.3125C195.056 57.7831 192.771 61.1231 188.062 64.3125C186 65 186 65 180 66C180.99 71.94 180.99 71.94 182 78C190.58 78 199.16 78 208 78C208.99 75.03 208.99 75.03 210 72C215.103 67.2793 218.443 66.6526 225.234 66.7148C230.047 67.2111 232.715 69.5381 235.812 73.0625C238.25 77.0394 238.375 80.4269 238 85C236.59 89.8142 234.641 93.0528 230.188 95.5C225.141 97.6064 221.055 97.7396 215.875 95.875C212.369 93.5884 210.45 91.3872 208 88C208 87.34 208 86.68 208 86C199.42 86 190.84 86 182 86C181.34 89.96 180.68 93.92 180 98C181.031 98.0825 182.062 98.165 183.125 98.25C187.439 99.085 189.65 100.183 193 103C196.253 107.88 197.044 113.31 198 119C200.31 119.33 202.62 119.66 205 120C205.536 119.092 206.072 118.185 206.625 117.25C208.969 113.815 211.189 111.835 215 110C219.617 109.34 223.573 109.38 227.875 111.25C234.669 116.845 234.669 116.845 235.238 122.27C235.407 128.061 235.054 131.52 231 136C226.648 139.937 223.085 140.63 217.402 140.391C212.849 139.65 210.141 137.255 207.125 133.938C206 132 206 132 206 129C205.432 128.997 204.863 128.995 204.277 128.992C198.654 128.711 195.425 127.547 191.367 123.602C189.072 120.913 188.305 118.381 187.555 114.98C186.616 110.159 186.616 110.159 183 107C179.63 106.082 179.63 106.082 176 107C173.555 109.729 171.838 112.843 170 116C162.38 126.584 150.208 132.57 137.688 135.375C121.079 137.864 106.143 133.231 92.8477 123.41C87.5373 119.078 83.4591 113.913 80 108C80 107.34 80 106.68 80 106C78.5389 106.256 77.0811 106.53 75.625 106.812C74.8129 106.963 74.0008 107.114 73.1641 107.27C70.6418 107.875 70.6418 107.875 69 111C68.7053 112.408 68.459 113.827 68.25 115.25C67.1888 120.372 64.9146 123.581 61 127C57.3008 129.127 54.224 129.196 50 129C49.9587 129.722 49.9175 130.444 49.875 131.188C48.6053 135.269 46.4228 136.485 43 139C39.2854 140.857 35.0541 140.443 31 140C26.1614 137.67 23.3297 134.839 21 130C20.3404 125.383 20.3797 121.427 22.25 117.125C27.8448 110.331 27.8448 110.331 33.2695 109.762C39.0609 109.593 42.5196 109.946 47 114C48.5161 115.942 49.7412 117.87 51 120C53.31 119.67 55.62 119.34 58 119C58.1702 118.12 58.3403 117.239 58.5156 116.332C58.758 115.171 59.0003 114.009 59.25 112.812C59.598 111.09 59.598 111.09 59.9531 109.332C61.4736 104.492 63.6438 101.837 67.9375 99.1875C71 98 71 98 76 98C75.34 94.04 74.68 90.08 74 86C65.42 86 56.84 86 48 86C47.34 87.65 46.68 89.3 46 91C42.5278 94.8301 38.9811 96.8058 33.8125 97.3125C29.1103 96.9271 25.7479 95.9024 22 93C19.1732 89.3497 18.1123 85.9303 17.5625 81.375C18.2278 76.2427 19.7121 73.1623 23.5625 69.6875C28.52 66.2554 33.0837 66.3983 39 67C43.4946 69.167 45.8652 71.4933 48 76C48 76.66 48 77.32 48 78C56.58 78 65.16 78 74 78C74.33 75.03 74.66 72.06 75 69C75.33 67.68 75.66 66.36 76 65C75.1338 65.0825 74.2675 65.165 73.375 65.25C69.0964 64.9331 67.2908 63.7185 64 61C60.5303 56.8556 59.3606 53.1638 58.4922 47.9531C58.1222 45.7803 58.1222 45.7803 56 44C54.0118 43.6024 52.0106 43.2622 50 43C49.9072 43.8353 49.9072 43.8353 49.8125 44.6875C48.3817 48.7597 45.363 51.167 41.75 53.375C36.2672 54.6211 31.5856 53.8222 26.625 51.25C23.0497 48.1854 21.2756 46.2249 20.6836 41.4453C20.4947 36.9494 20.6862 33.7192 22.5 29.5625C29.3388 22.5527 36.5975 21.2987 45.375 25.6875ZM30 34C28.9282 37.6843 28.4595 39.859 30.125 43.375C32.5072 45.4396 33.8451 45.9249 37 46C39.857 45.1525 39.857 45.1525 42 43C43.0718 39.3157 43.5405 37.141 41.875 33.625C37.7045 30.0105 34.0544 30.3961 30 34ZM214 34C212.928 37.6843 212.46 39.859 214.125 43.375C216.507 45.4396 217.845 45.9249 221 46C223.857 45.1525 223.857 45.1525 226 43C227.072 39.3157 227.54 37.141 225.875 33.625C221.704 30.0105 218.054 30.3961 214 34ZM92.0625 52.375C83.9474 62.9825 80.7054 74.6768 82 88C84.6254 101.159 91.0372 112.147 102 120C112.166 126.654 123.881 129.232 135.938 127.375C147.886 124.553 158.889 118.139 166 108C173.064 96.2161 175.812 84.6106 172.875 71.125C169.373 58.3648 162.239 48.8048 151.125 41.625C131.17 30.5901 106.844 35.1058 92.0625 52.375ZM27.5 77.125C25.7591 79.9213 25.7591 79.9213 26 83.125C26.8075 86.0219 26.8075 86.0219 28.6875 87.9375C31.873 89.4011 33.6788 88.9893 37 88C39.0389 86.5236 39.8172 85.3917 40.875 83.125C41.0557 80.0539 39.7308 78.4631 38 76C36.8413 74.6336 36.8413 74.6336 33.6875 74.625C29.9266 74.6552 29.9266 74.6552 27.5 77.125ZM217.125 76.25C215.814 78.2897 215.214 79.5726 215 82C215.762 84.9088 216.369 86.5039 218.75 88.375C221.911 89.2531 223.879 88.9959 227 88C229.295 85.3349 230.043 83.9029 229.875 80.375C228.887 77.6941 228.422 76.5339 226 75C221.315 74.4496 221.315 74.4496 217.125 76.25ZM30.625 119.625C28.5129 122.712 28.388 124.328 29 128C30.4167 130.583 30.4167 130.583 33 132C36.8239 132 39.0561 131.853 41.9375 129.25C43.2337 126.505 43.5249 124.999 43 122C41.4798 119.563 41.4798 119.563 39 118C35.3283 117.388 33.7119 117.513 30.625 119.625ZM214.562 119.562C212.68 122.017 212.68 122.017 213 125.562C213.722 128.975 213.722 128.975 215.75 130.938C218.495 132.234 220.001 132.525 223 132C225.437 130.48 225.437 130.48 227 128C227.612 124.328 227.487 122.712 225.375 119.625C221.47 116.953 218.526 117.022 214.562 119.562Z" fill="#020102"/>
<path d="M118.848 57.9023C120.898 57.9349 122.949 57.9674 125 58C128.214 65.6404 130.852 73.4 133.313 81.3125C133.684 82.4656 134.056 83.6186 134.439 84.8066C134.786 85.9185 135.132 87.0303 135.488 88.1758C135.803 89.1752 136.118 90.1746 136.443 91.2043C137.036 94.1787 136.807 96.1018 136 99C133.03 99.495 133.03 99.495 130 100C127 93.25 127 93.25 127 91C123.04 91 119.08 91 115 91C113.515 95.455 113.515 95.455 112 100C110.02 99.67 108.04 99.34 106 99C104.46 94.219 105.762 90.4805 107.273 85.8906C107.517 85.1232 107.76 84.3558 108.01 83.5651C108.525 81.9497 109.044 80.3361 109.569 78.7241C110.376 76.2481 111.166 73.7673 111.953 71.2852C112.455 69.7159 112.957 68.1468 113.461 66.5781C113.7 65.8334 113.938 65.0887 114.184 64.3214C116.234 58.0405 116.234 58.0405 118.848 57.9023ZM120 71C118.515 77.435 118.515 77.435 117 84C119.64 84 122.28 84 125 84C124.552 82.0185 124.091 80.0399 123.625 78.0625C123.242 76.4093 123.242 76.4093 122.852 74.7227C122.571 73.8242 122.29 72.9257 122 72C121.34 71.67 120.68 71.34 120 71Z" fill="#C83E6F"/>
<path d="M141 58C143.339 58.2873 145.674 58.6194 148 59C148.074 64.5175 148.129 70.0348 148.165 75.5527C148.18 77.4307 148.2 79.3087 148.226 81.1865C148.263 83.8823 148.28 86.5775 148.293 89.2734C148.308 90.1162 148.324 90.9589 148.34 91.8272C148.341 94.1929 148.341 94.1929 148 98C145 100 145 100 142.313 99.625C141.549 99.4188 140.786 99.2125 140 99C139.975 93.3217 139.957 87.6434 139.945 81.9651C139.94 80.0318 139.933 78.0985 139.925 76.1653C139.913 73.3927 139.907 70.6202 139.902 67.8477C139.897 66.9779 139.892 66.1081 139.887 65.2119C139.887 63.1409 139.938 61.0701 140 59C140.33 58.67 140.66 58.34 141 58Z" fill="#C83E6F"/>
</svg>
