<svg width="54" height="54" viewBox="0 0 54 54" fill="none" xmlns="http://www.w3.org/2000/svg">
<g clip-path="url(#clip0_2_2)">
<path d="M27 3.21865e-06C12.0883 3.21865e-06 3.21865e-06 12.0883 3.21865e-06 27C3.21865e-06 41.9117 12.0883 54 27 54C41.9117 54 54 41.9117 54 27C54 12.0883 41.9117 3.21865e-06 27 3.21865e-06Z" fill="white"/>
<path d="M15.2929 26.2929C14.9024 26.6834 14.9024 27.3166 15.2929 27.7071L21.6569 34.0711C22.0474 34.4616 22.6805 34.4616 23.0711 34.0711C23.4616 33.6805 23.4616 33.0474 23.0711 32.6569L17.4142 27L23.0711 21.3431C23.4616 20.9526 23.4616 20.3195 23.0711 19.9289C22.6805 19.5384 22.0474 19.5384 21.6569 19.9289L15.2929 26.2929ZM38 26H16V28H38V26Z" fill="black"/>
</g>
<defs>
<clipPath id="clip0_2_2">
<rect x="54" y="54" width="54" height="54" transform="rotate(180 54 54)" fill="white"/>
</clipPath>
</defs>
</svg>
