<svg width="256" height="256" viewBox="0 0 256 256" fill="none" xmlns="http://www.w3.org/2000/svg">
<path d="M38.6272 2.83937C39.4116 2.83428 40.1959 2.82919 41.004 2.82395C43.6409 2.80821 46.2777 2.7997 48.9146 2.79126C50.8018 2.78172 52.6891 2.77183 54.5764 2.76161C60.7827 2.73021 66.989 2.70995 73.1953 2.6914C74.2512 2.68811 75.3072 2.68481 76.3951 2.68141C86.3542 2.65063 96.3132 2.62392 106.272 2.60699C119.009 2.58509 131.746 2.54313 144.483 2.47355C153.439 2.4263 162.395 2.40206 171.352 2.3948C176.701 2.38984 182.049 2.37479 187.397 2.33505C192.432 2.29814 197.466 2.28979 202.501 2.30306C204.346 2.303 206.19 2.29274 208.034 2.27131C224.833 2.08657 224.833 2.08657 231.44 7.3496C237.154 13.3959 237.566 19.6057 237.391 27.625C237.385 28.6125 237.379 29.6 237.373 30.6174C237.351 33.7455 237.301 36.8723 237.25 40C237.23 42.1315 237.212 44.263 237.195 46.3945C237.151 51.5967 237.085 56.7983 237 62C238.096 62.116 239.191 62.232 240.32 62.3516C244.791 63.1394 246.185 64.5227 249 68C250.02 71.0611 250.139 73.1795 250.161 76.386C250.171 77.4876 250.18 78.5891 250.19 79.7241C250.197 81.51 250.197 81.51 250.203 83.332C250.209 84.5565 250.215 85.781 250.22 87.0426C250.23 89.6359 250.236 92.2292 250.24 94.8225C250.25 98.7862 250.281 102.749 250.312 106.713C250.319 109.232 250.324 111.751 250.328 114.27C250.34 115.454 250.353 116.639 250.366 117.859C250.347 124.654 250.139 129.753 245.188 134.875C242.361 136.329 240.139 136.077 237 136C237.046 136.918 237.093 137.836 237.141 138.781C237.546 152.558 237.546 152.558 233 158C228.006 162.656 223.78 165.122 216.89 165.129C215.694 165.134 215.694 165.134 214.474 165.139C213.623 165.137 212.771 165.135 211.895 165.133C210.575 165.134 210.575 165.134 209.228 165.136C207.373 165.136 205.518 165.135 203.663 165.13C200.813 165.125 197.962 165.13 195.111 165.137C193.31 165.136 191.508 165.135 189.707 165.133C188.421 165.136 188.421 165.136 187.109 165.139C181.115 165.115 181.115 165.115 180 164C179.875 161.5 179.875 161.5 180 159C182.099 156.901 186.733 157.838 189.637 157.824C191.429 157.801 193.221 157.777 195.014 157.752C197.847 157.717 200.679 157.688 203.512 157.674C206.242 157.659 208.97 157.618 211.699 157.574C212.54 157.576 213.381 157.578 214.247 157.58C219.62 157.469 222.753 156.592 227 153C230.222 148.634 230.222 148.634 231 136C201.3 136 171.6 136 141 136C140 132 140 132 141 130C142.832 129.991 142.832 129.991 144.7 129.982C156.193 129.925 167.685 129.852 179.177 129.764C185.086 129.72 190.995 129.68 196.904 129.654C202.603 129.628 208.302 129.587 214.002 129.537C216.179 129.52 218.356 129.509 220.534 129.502C223.577 129.493 226.62 129.465 229.663 129.432C231.022 129.435 231.022 129.435 232.408 129.437C233.236 129.424 234.065 129.412 234.919 129.399C235.999 129.392 235.999 129.392 237.1 129.385C239.465 129.088 239.465 129.088 242 126C242 107.52 242 89.04 242 70C166.76 70 91.52 70 14 70C14 88.48 14 106.96 14 126C17.0896 129.228 17.0896 129.228 21.0053 129.399C21.8172 129.411 22.6291 129.424 23.4655 129.437C24.3524 129.435 25.2393 129.434 26.1531 129.432C27.0899 129.443 28.0266 129.453 28.9918 129.463C32.0923 129.493 35.1924 129.503 38.293 129.512C40.441 129.529 42.5891 129.547 44.7371 129.566C50.394 129.614 56.0509 129.643 61.7079 129.67C67.4792 129.699 73.2503 129.746 79.0215 129.791C90.3476 129.877 101.674 129.944 113 130C113.382 131.656 113.714 133.325 114 135C112.178 136.822 109.652 136.12 107.228 136.124C106.399 136.121 105.57 136.117 104.717 136.114C103.414 136.114 103.414 136.114 102.086 136.114C99.2016 136.113 96.3176 136.105 93.4336 136.098C91.4396 136.096 89.4456 136.094 87.4517 136.093C82.1925 136.09 76.9334 136.08 71.6743 136.069C66.3122 136.058 60.95 136.054 55.5879 136.049C45.0586 136.038 34.5293 136.021 24 136C24.1364 137.926 24.2796 139.852 24.4258 141.777C24.5048 142.85 24.5839 143.922 24.6653 145.027C25.0744 148.661 25.8091 151.054 28 154C33.0531 157.222 37.2521 157.441 43.0469 157.441C43.8993 157.455 44.7517 157.468 45.6299 157.481C48.3367 157.522 51.043 157.544 53.75 157.562C56.4711 157.586 59.192 157.614 61.9129 157.654C63.6022 157.679 65.2917 157.694 66.9811 157.698C72.7754 157.775 72.7754 157.775 75 160C74.4643 163.536 74.4643 163.536 73 165C67.4646 165.294 61.9265 165.314 56.384 165.35C54.519 165.367 52.654 165.394 50.7893 165.432C30.576 165.846 30.576 165.846 23 160C18.7735 155.879 17.1391 151.443 16.8047 145.57C16.8279 144.433 16.8511 143.296 16.875 142.125C16.893 140.973 16.9111 139.82 16.9297 138.633C16.9645 137.33 16.9645 137.33 17 136C16.0577 135.884 15.1154 135.768 14.1445 135.648C11 135 11 135 8.6875 132.625C6.2421 128.821 5.87003 126.041 5.83887 121.614C5.82926 120.512 5.81965 119.411 5.80975 118.276C5.80338 116.49 5.80338 116.49 5.79688 114.668C5.79117 113.443 5.78547 112.219 5.7796 110.957C5.77015 108.364 5.76362 105.771 5.75977 103.177C5.75006 99.2138 5.71904 95.2507 5.6875 91.2871C5.68097 88.7682 5.67572 86.2494 5.67188 83.7305C5.65953 82.5459 5.64718 81.3614 5.63446 80.1409C5.66283 69.6366 5.66283 69.6366 9 65C13.9 62 13.9 62 17 62C16.9791 60.709 16.9581 59.418 16.9365 58.0879C16.8638 53.2722 16.8181 48.4567 16.7803 43.6406C16.7602 41.5611 16.733 39.4817 16.6982 37.4023C16.6494 34.4035 16.627 31.4054 16.6094 28.4062C16.5887 27.4851 16.5681 26.5639 16.5468 25.6149C16.5444 18.5887 18.1164 13.2681 22.8164 7.9414C23.6807 7.25884 23.6807 7.25884 24.5625 6.5625C25.1413 6.08941 25.7201 5.61632 26.3164 5.1289C30.1744 2.54199 34.1755 2.8465 38.6272 2.83937ZM26.6875 14.5625C20.8668 22.9702 24 23.0746 24 39C92.31 39 160.62 39 231 39C231.967 25.1149 231.967 25.1149 226.688 13.1875C221.837 9.23944 217.565 8.70618 211.454 8.7393C210.702 8.73547 209.951 8.73165 209.177 8.72771C206.663 8.7174 204.15 8.72136 201.637 8.72534C199.833 8.72099 198.029 8.71581 196.226 8.70985C191.329 8.69646 186.432 8.69588 181.536 8.69841C177.448 8.69948 173.36 8.6946 169.272 8.68981C159.627 8.67871 149.983 8.67828 140.339 8.68432C130.39 8.69036 120.441 8.67805 110.492 8.65675C101.949 8.63914 93.4061 8.63313 84.8632 8.63639C79.7613 8.6382 74.6595 8.63556 69.5576 8.62168C64.76 8.60911 59.9626 8.61103 55.165 8.62409C53.405 8.62645 51.645 8.62371 49.885 8.61546C47.4808 8.60501 45.0774 8.61308 42.6732 8.62577C41.9782 8.6184 41.2831 8.61103 40.567 8.60343C34.6717 8.66881 30.649 10.1727 26.6875 14.5625ZM24 46C24 51.28 24 56.56 24 62C92.31 62 160.62 62 231 62C231 56.72 231 51.44 231 46C162.69 46 94.38 46 24 46Z" fill="#C83E6F"/>
<path d="M127 137.437C127.889 137.427 128.779 137.416 129.695 137.404C133.8 137.45 136.402 137.671 140.043 139.676C142.36 142.428 142.848 144.206 143.312 147.75C143.453 148.735 143.594 149.72 143.738 150.734C143.825 151.482 143.911 152.23 144 153C146.937 152.414 147.957 152.039 150.25 149.937C153.205 147.856 155.257 147.23 158.887 147.422C163.211 148.605 165.986 151.837 169 155C169.606 155.575 170.212 156.15 170.836 156.742C173.695 159.655 175.396 161.914 175.688 166.062C174.829 170.979 173.337 172.412 170 176C170 176.99 170 177.98 170 179C170.748 179.086 171.495 179.173 172.266 179.262C173.25 179.402 174.235 179.543 175.25 179.687C176.712 179.879 176.712 179.879 178.203 180.074C181.982 181.325 183.07 182.515 185 186C185.538 189.185 185.514 192.278 185.438 195.5C185.445 196.342 185.452 197.184 185.459 198.051C185.41 202.821 185.123 206.151 182 210C179.566 211.217 177.582 211.32 174.875 211.562C173.965 211.646 173.055 211.73 172.117 211.816C171.419 211.877 170.72 211.938 170 212C170.377 215.301 170.813 216.79 173.062 219.312C175.206 222.286 175.557 224.237 175.466 227.876C174.577 231.931 171.617 234.252 168.625 236.937C168.022 237.513 167.418 238.089 166.797 238.682C161.401 243.772 161.401 243.772 157.312 244.437C153.127 243.885 151.605 242.247 148.711 239.312C146.83 237.594 146.83 237.594 143 238C143.093 239.794 143.093 239.794 143.188 241.625C143.195 245.744 142.233 248.479 140 252C136.129 253.935 131.383 253.272 127.125 253.312C125.615 253.356 125.615 253.356 124.074 253.4C116.726 253.464 116.726 253.464 113.352 251.309C111.793 248.646 111.412 246.821 111.25 243.75C111.193 242.858 111.137 241.966 111.078 241.047C111.052 240.371 111.027 239.696 111 239C110.01 238.67 109.02 238.34 108 238C105.943 239.595 103.941 241.265 102 243C98.9822 244.509 97.3768 244.5 94 244C90.9939 242 88.5299 239.564 86 237C84.9771 236.01 84.9771 236.01 83.9336 235C80.9009 231.863 79.1868 229.805 78.1875 225.5C79.2995 220.71 81.807 217.659 85 214C84.67 213.34 84.34 212.68 84 212C81.7741 211.684 81.7741 211.684 79.1875 211.625C74.3222 211.236 74.3222 211.236 71.4375 209.125C68.6538 205.01 68.7847 200.977 68.75 196.187C68.7294 195.488 68.7087 194.789 68.6875 194.068C68.6517 189.286 69.3484 185.995 72 182C74.8809 179.917 77.2524 179.772 80.75 179.875C81.9488 179.902 81.9488 179.902 83.1719 179.93C83.7752 179.953 84.3784 179.976 85 180C84.6707 176.268 83.964 174.959 81.4375 172.062C79 169 79 169 78.25 166.125C79.4203 161.249 82.5607 158.513 86 155C86.5749 154.318 87.1498 153.636 87.7422 152.934C90.5702 149.708 92.6473 147.552 97.0625 147.25C100.213 147.518 101.846 148.411 104.187 150.5C106.708 153.26 106.708 153.26 109.676 153.156C110.443 153.105 111.21 153.053 112 153C111.942 152.336 111.884 151.672 111.824 150.988C111.779 150.105 111.734 149.222 111.687 148.312C111.629 147.442 111.571 146.572 111.512 145.676C113.054 137.225 119.971 137.249 127 137.437ZM119 145C117.716 147.569 117.67 149.766 117.437 152.625C117.354 153.628 117.27 154.631 117.184 155.664C117.093 156.82 117.093 156.82 117 158C110.238 160.97 110.238 160.97 106.437 161.062C102.703 159.435 99.9438 156.774 97 154C95.728 155.103 94.4574 156.207 93.1875 157.312C92.4798 157.927 91.7721 158.542 91.043 159.176C88.4277 161.494 88.4277 161.494 86 164C85.8669 165.984 85.8669 165.984 87 168C87.8456 168.784 88.6912 169.567 89.5625 170.375C92 173 92 173 92.5 175.875C91.8914 179.679 90.6651 182.531 89 186C88.1453 186.061 87.2907 186.121 86.4102 186.184C85.3054 186.267 84.2007 186.351 83.0625 186.437C81.9603 186.519 80.8582 186.6 79.7227 186.684C77.0889 186.704 77.0889 186.704 76 188C75.8735 190.492 75.8148 192.945 75.8125 195.437C75.8003 196.132 75.788 196.826 75.7754 197.541C75.7701 199.362 75.8783 201.183 76 203C78.5893 205.589 80.0271 205.374 83.625 205.625C84.6279 205.7 85.6308 205.775 86.6641 205.852C87.4349 205.901 88.2058 205.95 89 206C92.871 214.226 92.871 214.226 92 218C90.4943 219.633 88.9338 221.066 87.2148 222.473C85.7965 223.92 85.7965 223.92 86.0469 225.883C87.3369 228.748 89.1084 230.58 91.3125 232.812C92.0924 233.623 92.8723 234.434 93.6758 235.27C95.7924 237.216 95.7924 237.216 98.0586 236.953C100.283 235.861 101.912 234.598 103.75 232.937C104.822 231.968 105.895 230.999 107 230C110.3 231.32 113.6 232.64 117 234C117.049 234.771 117.098 235.542 117.148 236.336C117.223 237.339 117.298 238.342 117.375 239.375C117.479 240.872 117.479 240.872 117.586 242.398C117.764 245.155 117.764 245.155 120 247C122.563 247.172 125.003 247.233 127.562 247.187C128.61 247.187 128.61 247.187 129.678 247.186C133.128 247.455 133.129 247.455 136 246C136.234 243.984 136.413 241.962 136.562 239.937C136.646 238.833 136.73 237.728 136.816 236.59C136.907 235.308 136.907 235.308 137 234C145.175 230.076 145.175 230.076 150 231C152.311 232.825 154.045 234.765 156 237C159.681 235.464 161.988 233.218 164.75 230.375C165.549 229.558 166.348 228.74 167.172 227.898C167.775 227.272 168.378 226.645 169 226C168.021 224.854 167.042 223.708 166.062 222.562C165.517 221.924 164.972 221.286 164.41 220.629C163.632 219.73 162.841 218.841 162 218C162.42 213.635 163.301 210.021 165 206C165.771 205.939 166.542 205.879 167.336 205.816C168.339 205.733 169.342 205.649 170.375 205.562C171.373 205.481 172.37 205.4 173.398 205.316C175.979 205.15 175.979 205.15 178 204C178.027 201.354 178.047 198.708 178.062 196.062C178.075 194.93 178.075 194.93 178.088 193.775C178.097 191.85 178.052 189.925 178 188C176.914 186.687 176.914 186.687 174.277 186.902C173.175 186.914 172.073 186.926 170.938 186.937C169.833 186.947 168.728 186.956 167.59 186.965C166.308 186.982 166.308 186.982 165 187C162 179.22 162 179.22 162 175.25C163 173 163 173 165.625 170.5C166.409 169.675 167.192 168.85 168 168C167.904 164.585 167.143 163.17 164.934 160.543C164.11 159.766 163.286 158.988 162.438 158.187C161.611 157.397 160.785 156.607 159.934 155.793C159.296 155.201 158.657 154.61 158 154C155.226 155.585 153.162 156.812 151.062 159.25C149 161 149 161 146.188 160.875C145.136 160.586 144.084 160.297 143 160C142.359 159.826 141.719 159.652 141.059 159.473C139.366 159.004 137.682 158.505 136 158C136.012 157.145 136.023 156.291 136.035 155.41C136.044 154.305 136.053 153.201 136.062 152.062C136.074 150.96 136.086 149.858 136.098 148.723C136.313 146.086 136.313 146.086 135 145C132.303 144.927 129.633 144.908 126.937 144.937C125.8 144.944 125.8 144.944 124.639 144.951C122.759 144.963 120.88 144.981 119 145Z" fill="black"/>
<path d="M147.25 166.75C154.603 172.766 158.965 179.387 161.75 188.438C162.885 200.075 161.112 209.227 154.02 218.738C150.797 222.348 147.251 224.74 143 227C142.41 227.339 141.819 227.678 141.211 228.027C133.633 231.65 123.621 231.103 115.613 229.191C106.969 225.993 100.187 220.263 95.5625 212.25C91.2932 202.354 91.165 191.87 94.7852 181.82C99.369 171.621 106.724 166.046 117 162C128.005 159.232 137.422 161.458 147.25 166.75ZM105 178C99.8276 186.469 97.629 193.943 99.9375 203.812C102.364 211.308 108.046 217.662 114.875 221.562C122.264 224.641 130.069 224.785 137.582 222.133C145.516 218.416 150.654 213.082 154 205C156.279 197.677 155.803 189.945 152.324 183.133C147.374 175.16 141.82 170.94 133 168C121.97 166.99 112.396 169.316 105 178Z" fill="black"/>
<path d="M149.162 14.7412C149.887 14.7377 150.613 14.7342 151.36 14.7306C153.76 14.7218 156.159 14.7276 158.559 14.7344C160.226 14.733 161.894 14.7311 163.562 14.7286C167.058 14.7256 170.554 14.7299 174.05 14.7393C178.53 14.7506 183.01 14.7441 187.491 14.7321C190.935 14.7249 194.379 14.7272 197.824 14.7324C199.475 14.7337 201.127 14.7321 202.779 14.7274C205.089 14.7223 207.399 14.7301 209.709 14.7412C211.023 14.7428 212.338 14.7444 213.692 14.746C216.8 14.9847 218.478 15.2303 221 17C223.112 20.1682 223.332 22.1322 223.559 25.8672C222.656 29.3137 220.72 30.773 218 33C215.265 33.4912 213.154 33.6769 210.427 33.6311C209.682 33.6383 208.937 33.6454 208.169 33.6528C205.715 33.6696 203.263 33.6503 200.809 33.6289C199.099 33.6297 197.389 33.6322 195.68 33.6362C192.101 33.6391 188.523 33.6244 184.945 33.5969C180.359 33.5628 175.774 33.5689 171.188 33.5876C167.66 33.5982 164.131 33.5892 160.603 33.5742C158.912 33.569 157.221 33.5695 155.53 33.5757C153.167 33.5812 150.806 33.5608 148.443 33.5334C147.396 33.5432 147.396 33.5432 146.329 33.5532C143.019 33.4881 141.264 33.1996 138.593 31.1815C136.344 28.1024 136.066 25.7852 136 22C138.893 15.4903 142.394 14.7494 149.162 14.7412ZM144 22C144 23.32 144 24.64 144 26C145.092 27.3175 145.092 27.3175 147.778 27.1203C149.64 27.1169 149.64 27.1169 151.539 27.1135C152.222 27.1137 152.905 27.1138 153.609 27.114C155.876 27.1133 158.143 27.1055 160.41 27.0977C161.978 27.0958 163.546 27.0944 165.114 27.0934C169.249 27.0895 173.383 27.0797 177.518 27.0687C181.734 27.0584 185.95 27.0539 190.166 27.0488C198.444 27.0381 206.722 27.021 215 27C215.33 25.35 215.66 23.7 216 22C192.24 22 168.48 22 144 22Z" fill="#020102"/>
<path d="M110 73C113.246 73.2062 114.621 73.5889 116.853 76.0095C117.413 76.8713 117.973 77.7332 118.551 78.6211C119.166 79.5563 119.782 80.4915 120.416 81.4551C121.042 82.4393 121.668 83.4235 122.312 84.4375C122.958 85.4178 123.603 86.3982 124.268 87.4082C129 94.6846 129 94.6846 129 97C132.917 93.5097 135.378 89.4436 138.062 85C143.324 76.3697 143.324 76.3697 146 73C148.437 73.375 148.437 73.375 151 74C152.155 76.3104 152.132 77.6477 152.145 80.2185C152.152 81.0896 152.158 81.9607 152.165 82.8581C152.166 83.8009 152.167 84.7436 152.168 85.7148C152.173 87.1649 152.173 87.1649 152.178 88.6442C152.183 90.6911 152.185 92.738 152.185 94.7849C152.187 97.9212 152.206 101.057 152.225 104.193C152.228 106.18 152.23 108.166 152.23 110.152C152.238 111.093 152.245 112.034 152.252 113.003C152.249 113.877 152.246 114.751 152.243 115.652C152.244 116.421 152.246 117.19 152.247 117.982C152 120 152 120 150 123C148.35 122.67 146.7 122.34 145 122C144.67 111.44 144.34 100.88 144 90C140.547 95.5415 140.547 95.5415 137.12 101.099C136.683 101.787 136.247 102.475 135.797 103.184C135.137 104.244 135.137 104.244 134.464 105.326C132.704 107.339 131.644 107.771 129 108C125.144 105.069 122.783 100.809 120.25 96.75C118.847 94.5225 117.445 92.295 116 90C115.67 100.56 115.34 111.12 115 122C112.525 122.495 112.525 122.495 110 123C108.399 121.399 108.873 119.712 108.871 117.496C108.867 116.538 108.864 115.581 108.861 114.594C108.863 113.552 108.865 112.511 108.867 111.438C108.866 110.376 108.865 109.314 108.864 108.22C108.864 105.971 108.865 103.721 108.87 101.472C108.875 98.0149 108.87 94.5583 108.863 91.1016C108.864 88.9219 108.865 86.7422 108.867 84.5625C108.865 83.5209 108.863 82.4792 108.861 81.406C108.864 80.4483 108.867 79.4906 108.871 78.5039C108.871 77.6564 108.872 76.809 108.873 75.9358C109 74 109 74 110 73Z" fill="#C83E6F"/>
<path d="M193.563 76.6875C196.821 78.632 198.672 80.3481 200 84C200.218 86.721 200.139 89.2607 200 92C198.35 92.33 196.7 92.66 195 93C194.818 92.3619 194.636 91.7238 194.449 91.0664C194.198 90.2401 193.946 89.4138 193.688 88.5625C193.322 87.3269 193.322 87.3269 192.949 86.0664C192.636 85.3845 192.323 84.7026 192 84C188.967 82.989 186.741 82.8017 183.563 82.75C182.141 82.7113 182.141 82.7113 180.691 82.6719C177.548 83.0551 176.215 83.7589 174 86C173.333 89.5 173.333 89.5 174 93C177.178 96.2922 179.935 96.3495 184.375 96.4375C191.247 96.8227 193.845 98.0625 198.813 102.688C200.683 106.33 201.12 109.926 201 114C199.482 118.235 197.434 121.102 194 124C190.41 125.197 187.41 125.205 183.625 125.25C182.318 125.276 181.011 125.302 179.664 125.328C174.674 124.881 172.23 123.23 168.75 119.75C166.639 116.433 166.221 113.9 166 110C166.33 109.34 166.66 108.68 167 108C168.65 108 170.3 108 172 108C172.619 109.64 172.619 109.64 173.25 111.312C174.669 114.542 175.679 116.474 179 118C183.305 118.41 185.922 118.413 189.938 116.875C192.233 115.092 192.233 115.092 193 112.062C193.219 109.068 193.219 109.068 191.988 106.867C188.681 103.761 184.4 104.175 180.068 103.955C174.493 103.501 171.924 102.029 168 98C165.31 93.9417 165.328 89.7189 166 85C171.42 74.5463 182.933 71.7877 193.563 76.6875Z" fill="#C83E6F"/>
<path d="M90 77C90.0427 78.6661 90.0406 80.3338 90 82C89.67 82.33 89.34 82.66 89 83C86.9785 82.9673 84.9575 82.8983 82.9375 82.8125C77.0556 82.7802 72.6603 83.2465 68 87C64.2058 91.7671 62.6283 95.6715 62.7188 101.809C63.3609 106.812 65.8142 110.675 69.125 114.375C75.2135 117.816 82.1188 118.299 89 118C89.495 120.475 89.495 120.475 90 123C85.0702 126.286 79.7543 125.629 74 125C67.1693 122.915 61.721 119.14 58 113C54.7734 106.081 54.0107 99.8074 56.25 92.4375C59.4069 83.9326 63.9502 79.9604 72 76C78.2034 74.0336 84.0388 74.6155 90 77Z" fill="#C83E6F"/>
<path d="M97 16C99.6078 18.8523 99.9585 20.668 100.438 24.5C99.9068 28.7454 99.2997 30.2636 96 33C92.2521 34.2801 88.8274 34.7146 85.082 33.25C82.6062 31.5563 81.1863 29.748 80.4609 26.8359C80.1834 22.4683 80.5885 20.5338 83.3125 17C88.1511 13.3992 91.6486 13.7591 97 16ZM89 21C88.34 22.32 87.68 23.64 87 25C87.66 25.66 88.32 26.32 89 27C91.1082 26.6815 91.1082 26.6815 93 26C93 24.68 93 23.36 93 22C91.68 21.67 90.36 21.34 89 21Z" fill="#020102"/>
<path d="M73 16C75.7593 18.6673 76.7211 21.1877 77 25C76.2183 28.2052 75.1039 29.8804 72.9375 32.375C69.2787 34.399 67.1356 34.1568 63.0859 33.6523C60.5798 32.8686 59.5633 32.1036 58 30C57.418 27.8789 57.418 27.8789 57.1875 25.5625C57.0541 24.4197 57.0541 24.4197 56.918 23.2539C57.0142 20.6094 57.545 19.2013 59 17C64.2733 13.8981 67.3821 13.5152 73 16ZM66 21C65.34 21.66 64.68 22.32 64 23C64.3185 25.1082 64.3185 25.1082 65 27C66.32 26.67 67.64 26.34 69 26C69 24.68 69 23.36 69 22C68.01 21.67 67.02 21.34 66 21Z" fill="#020102"/>
<path d="M49 16C51.0161 17.6129 51.851 18.702 53 21C52.9844 23.0586 52.9844 23.0586 52.75 25.4375C52.683 26.22 52.6159 27.0024 52.5469 27.8086C51.8874 30.4511 51.1777 31.3852 49 33C45.3657 34.2184 41.6593 34.7764 38.1133 33.1172C35.7117 31.268 34.172 29.3845 32.9375 26.625C33.0292 22.7738 34.0875 20.3315 36 17C40.7312 13.4516 43.646 13.7776 49 16ZM42 21C41.34 22.32 40.68 23.64 40 25C40.66 25.66 41.32 26.32 42 27C44.1082 26.6815 44.1082 26.6815 46 26C46 24.68 46 23.36 46 22C44.68 21.67 43.36 21.34 42 21Z" fill="#020102"/>
</svg>
