<svg width="256" height="256" viewBox="0 0 256 256" fill="none" xmlns="http://www.w3.org/2000/svg">
<path d="M178.875 23.875C196.31 37.3429 209.139 56.8286 212 79C214.002 104.931 209.079 127.816 192 148C183.098 157.601 183.098 157.601 178 161C177.34 161 176.68 161 176 161C175.994 164.731 176.053 168.458 176.125 172.188C176.122 173.243 176.12 174.298 176.117 175.385C176.091 180.93 176.091 180.93 178.358 185.784C180.154 187.3 180.154 187.3 183 189C184.23 191.46 184.133 193.132 184.125 195.875C184.128 196.739 184.13 197.602 184.133 198.492C184 201 184 201 183.43 203.195C182.775 205.086 182.775 205.086 184 207C184.515 211.092 184.944 215.236 182.953 218.957C181.186 221.093 179.491 222.754 177 224C176.76 226.288 176.76 226.288 176.75 229C176.286 235.158 174.375 239.599 170 244C163.222 249.35 155.56 248.619 147.32 248.602C145.782 248.609 144.245 248.618 142.707 248.628C139.491 248.642 136.275 248.642 133.059 248.631C128.958 248.62 124.858 248.654 120.757 248.7C117.583 248.73 114.409 248.731 111.234 248.725C109.723 248.726 108.212 248.736 106.701 248.757C97.7861 248.861 90.7102 248.491 84 242C80.5582 237.935 79.8669 234.676 79.625 229.375C79.4783 225.514 79.4783 225.514 77.6484 222.254C75.8302 220.757 75.8302 220.757 73 219C71.7699 216.54 71.8668 214.868 71.875 212.125C71.8711 210.829 71.8711 210.829 71.8672 209.508C72 207 72 207 72.5703 204.805C73.2246 202.914 73.2246 202.914 72 201C71.4848 196.908 71.0563 192.764 73.0468 189.043C74.814 186.907 76.5089 185.246 79 184C79.33 176.41 79.66 168.82 80 161C78.68 160.34 77.36 159.68 76 159C58.8274 146.056 47.0291 126.312 44 105C42.0668 78.9511 46.9636 56.3174 64 36C93.2982 2.19432 143.038 -1.02465 178.875 23.875ZM73.664 39.2383C57.7642 55.8164 52.3062 75.5968 52.6914 98.0312C53.4049 116.886 62.2362 133.569 75.6562 146.574C80.1145 150.747 80.1145 150.747 85.1032 154.216C87 156 87 156 87.5459 158.911C87.5668 160.068 87.5878 161.226 87.6093 162.418C87.6577 164.298 87.6577 164.298 87.707 166.217C87.7212 167.527 87.7354 168.837 87.75 170.188C87.7781 171.523 87.8081 172.858 87.8398 174.193C87.9106 177.462 87.9633 180.731 88 184C90.64 184 93.28 184 96 184C96.0093 182.719 96.0187 181.439 96.0283 180.12C96.0684 175.33 96.1342 170.54 96.2075 165.75C96.2356 163.685 96.2568 161.619 96.271 159.553C96.2926 156.569 96.3393 153.586 96.3906 150.602C96.3924 149.235 96.3924 149.235 96.3943 147.841C96.5968 138.804 99.8338 131.6 104.355 123.863C104.974 122.798 105.592 121.732 106.229 120.634C106.875 119.538 107.521 118.442 108.187 117.312C108.855 116.175 109.523 115.038 110.211 113.866C111.536 111.61 112.863 109.355 114.192 107.101C115.76 104.411 117.28 101.704 118.773 98.9726C119.169 98.2652 119.564 97.5577 119.972 96.8288C120.984 95.015 121.979 93.1915 122.973 91.3672C125 89 125 89 127.893 88.5225C131 89 131 89 132.991 91.1929C133.566 92.2095 134.142 93.226 134.734 94.2734C135.386 95.4005 136.039 96.5275 136.71 97.6887C137.391 98.9171 138.071 100.146 138.75 101.375C139.455 102.615 140.163 103.853 140.872 105.091C142.282 107.561 143.678 110.039 145.061 112.524C146.753 115.558 148.467 118.577 150.195 121.59C151.09 123.163 151.983 124.737 152.875 126.312C153.273 127.015 153.671 127.717 154.081 128.441C154.444 129.096 154.806 129.751 155.18 130.426C155.486 130.977 155.793 131.527 156.109 132.095C158.964 138.198 159.332 143.58 159.414 150.211C159.433 151.179 159.453 152.147 159.473 153.145C159.532 156.221 159.579 159.298 159.625 162.375C159.663 164.467 159.702 166.56 159.742 168.652C159.838 173.768 159.922 178.884 160 184C162.64 184 165.28 184 168 184C167.959 182.798 167.959 182.798 167.917 181.573C167.302 157.178 167.302 157.178 171.164 152.523C173.999 150.391 176.908 148.732 180 147C193.496 134.273 202.585 117.143 203.336 98.3984C203.677 75.9016 198.68 56.7752 183 40C168.8 25.6595 150.7 17.1619 130.488 16C108.659 16 89.4077 24.1528 73.664 39.2383ZM127 102C125.35 105.3 123.7 108.6 122 112C125.96 112 129.92 112 134 112C132.35 108.7 130.7 105.4 129 102C128.34 102 127.68 102 127 102ZM112.647 124.512C110.669 128.222 109.325 132.024 108 136C121.2 136 134.4 136 148 136C142.969 125.043 142.969 125.043 139 120C130.885 117.6 117.839 116.854 112.647 124.512ZM105 144C103.912 148.386 103.871 152.656 103.902 157.145C103.904 157.914 103.905 158.684 103.907 159.477C103.912 161.922 103.925 164.367 103.937 166.812C103.942 168.476 103.947 170.139 103.951 171.803C103.962 175.869 103.979 179.934 104 184C106.64 184 109.28 184 112 184C112 170.8 112 157.6 112 144C109.69 144 107.38 144 105 144ZM120 144C120 157.2 120 170.4 120 184C125.28 184 130.56 184 136 184C136 170.8 136 157.6 136 144C130.72 144 125.44 144 120 144ZM144 144C144 157.2 144 170.4 144 184C146.64 184 149.28 184 152 184C152.025 179.107 152.043 174.214 152.055 169.321C152.06 167.658 152.067 165.994 152.075 164.331C152.088 161.935 152.093 159.54 152.098 157.145C152.105 156.035 152.105 156.035 152.113 154.903C152.114 151.139 151.908 147.659 151 144C148.69 144 146.38 144 144 144ZM81 194C81.3444 196.473 81.3444 196.473 82 199C85.2166 200.608 88.724 200.147 92.2575 200.145C93.5382 200.15 93.5382 200.15 94.8448 200.155C97.6765 200.165 100.508 200.167 103.34 200.168C105.303 200.171 107.266 200.175 109.229 200.178C113.347 200.184 117.465 200.186 121.584 200.185C126.868 200.185 132.152 200.199 137.436 200.216C141.491 200.227 145.546 200.229 149.601 200.229C151.55 200.23 153.498 200.234 155.447 200.242C158.169 200.252 160.891 200.249 163.613 200.243C164.826 200.251 164.826 200.251 166.064 200.26C169.908 200.238 171.724 200.184 175 198C174.656 195.527 174.656 195.527 174 193C170.783 191.392 167.276 191.853 163.742 191.855C162.889 191.851 162.035 191.848 161.155 191.845C158.323 191.835 155.492 191.833 152.66 191.832C150.697 191.829 148.734 191.825 146.771 191.822C142.653 191.816 138.535 191.814 134.416 191.815C129.132 191.815 123.848 191.801 118.564 191.784C114.509 191.773 110.454 191.771 106.399 191.771C104.45 191.77 102.502 191.766 100.553 191.758C97.8311 191.748 95.1091 191.751 92.3869 191.757C91.1735 191.749 91.1735 191.749 89.9356 191.74C86.0916 191.762 84.2755 191.816 81 194ZM81 210C81.3444 212.473 81.3444 212.473 82 215C85.2166 216.608 88.724 216.147 92.2575 216.145C93.5382 216.15 93.5382 216.15 94.8448 216.155C97.6765 216.165 100.508 216.167 103.34 216.168C105.303 216.171 107.266 216.175 109.229 216.178C113.347 216.184 117.465 216.186 121.584 216.185C126.868 216.185 132.152 216.199 137.436 216.216C141.491 216.227 145.546 216.229 149.601 216.229C151.55 216.23 153.498 216.234 155.447 216.242C158.169 216.252 160.891 216.249 163.613 216.243C164.826 216.251 164.826 216.251 166.064 216.26C169.908 216.238 171.724 216.184 175 214C174.656 211.527 174.656 211.527 174 209C170.783 207.392 167.276 207.853 163.742 207.855C162.889 207.851 162.035 207.848 161.155 207.845C158.323 207.835 155.492 207.833 152.66 207.832C150.697 207.829 148.734 207.825 146.771 207.822C142.653 207.816 138.535 207.814 134.416 207.815C129.132 207.815 123.848 207.801 118.564 207.784C114.509 207.773 110.454 207.771 106.399 207.771C104.45 207.77 102.502 207.766 100.553 207.758C97.8311 207.748 95.1091 207.751 92.3869 207.757C91.1735 207.749 91.1735 207.749 89.9356 207.74C86.0916 207.762 84.2755 207.816 81 210ZM88 224C88.8945 232.376 88.8945 232.376 94 238C99.8737 240.816 106.222 240.306 112.59 240.301C113.808 240.305 115.026 240.309 116.28 240.314C118.852 240.319 121.423 240.32 123.994 240.316C127.92 240.313 131.845 240.336 135.771 240.361C138.273 240.364 140.775 240.364 143.277 240.363C144.447 240.372 145.617 240.382 146.823 240.391C154.214 240.349 159.731 240.01 165.375 234.812C167.605 231.374 167.605 231.374 168 224C141.6 224 115.2 224 88 224Z" fill="#282828"/>
<path d="M83 56C86.7513 57.2952 89.1453 58.7618 91.9531 61.5547C92.6544 62.2521 93.3556 62.9495 94.0781 63.668C94.7948 64.3963 95.5116 65.1246 96.25 65.875C96.9822 66.5956 97.7144 67.3162 98.4688 68.0586C99.5129 69.1085 99.5129 69.1085 100.578 70.1797C101.211 70.8163 101.845 71.453 102.497 72.1089C104.112 74.1415 104.776 75.4173 105 78C103.062 80.25 103.062 80.25 101 82C97.2487 80.7048 94.8547 79.2382 92.0469 76.4453C91.3456 75.7479 90.6444 75.0505 89.9219 74.332C89.2052 73.6037 88.4884 72.8754 87.75 72.125C87.0178 71.4044 86.2856 70.6838 85.5312 69.9414C84.8352 69.2414 84.1391 68.5415 83.4219 67.8203C82.7886 67.1837 82.1554 66.547 81.5029 65.8911C79.8875 63.8585 79.2241 62.5827 79 60C80.9375 57.75 80.9375 57.75 83 56Z" fill="#C83E6F"/>
<path d="M172.767 57.4296C175.204 58.7421 175.204 58.7421 176.029 60.6015C176.204 62.7421 176.204 62.7421 175.158 64.496C173.185 66.5906 171.208 68.6772 169.204 70.7421C168.301 71.7293 167.399 72.7176 166.497 73.707C165.547 74.7201 164.595 75.7318 163.642 76.7421C162.754 77.6909 161.866 78.6396 160.95 79.6171C158.204 81.7421 158.204 81.7421 154.927 82.1171C152.204 81.7421 152.204 81.7421 151.204 80.7421C150.847 77.3038 150.746 75.41 152.733 72.5163C153.433 71.8419 154.132 71.1675 154.853 70.4726C155.611 69.7294 156.369 68.9863 157.15 68.2206C157.951 67.4646 158.753 66.7086 159.579 65.9296C160.373 65.1543 161.168 64.3789 161.986 63.58C169.296 56.4985 169.296 56.4985 172.767 57.4296Z" fill="#C83E6F"/>
<path d="M172.875 104.867C173.86 104.866 174.845 104.865 175.859 104.863C176.896 104.867 177.932 104.871 179 104.875C180.555 104.869 180.555 104.869 182.141 104.863C183.125 104.865 184.11 104.866 185.125 104.867C186.035 104.868 186.945 104.869 187.883 104.871C190 105 190 105 191 106C191.125 109 191.125 109 191 112C189.346 113.654 187.397 113.13 185.125 113.133C184.14 113.134 183.155 113.135 182.141 113.137C181.104 113.133 180.068 113.129 179 113.125C177.445 113.131 177.445 113.131 175.859 113.137C174.875 113.135 173.89 113.134 172.875 113.133C171.965 113.132 171.055 113.131 170.117 113.129C168 113 168 113 167 112C166.875 109 166.875 109 167 106C168.654 104.346 170.603 104.87 172.875 104.867Z" fill="#C83E6F"/>
<path d="M84.875 104.867C85.8598 104.866 86.8447 104.865 87.8594 104.863C88.8958 104.867 89.9322 104.871 91 104.875C92.5546 104.869 92.5546 104.869 94.1406 104.863C95.1255 104.865 96.1103 104.866 97.125 104.867C98.0351 104.868 98.9452 104.869 99.8828 104.871C102 105 102 105 103 106C103.125 109 103.125 109 103 112C101.346 113.654 99.3968 113.13 97.125 113.133C96.1402 113.134 95.1553 113.135 94.1406 113.137C93.1042 113.133 92.0678 113.129 91 113.125C89.4454 113.131 89.4454 113.131 87.8594 113.137C86.8745 113.135 85.8897 113.134 84.875 113.133C83.9649 113.132 83.0548 113.131 82.1172 113.129C80 113 80 113 79 112C78.875 109 78.875 109 79 106C80.6539 104.346 82.6032 104.87 84.875 104.867Z" fill="#C83E6F"/>
<path d="M128.209 57C131.209 57.125 131.209 57.125 132.209 58.125C132.309 59.7476 132.34 61.3744 132.342 63C132.344 64.4773 132.344 64.4773 132.346 65.9844C132.342 67.0208 132.338 68.0572 132.334 69.125C132.338 70.1614 132.342 71.1978 132.346 72.2656C132.345 73.2505 132.344 74.2353 132.342 75.25C132.341 76.1601 132.34 77.0702 132.339 78.0078C132.209 80.125 132.209 80.125 131.209 81.125C128.209 81.25 128.209 81.25 125.209 81.125C123.556 79.4711 124.079 77.5218 124.077 75.25C124.075 74.2652 124.074 73.2803 124.073 72.2656C124.077 71.2292 124.08 70.1928 124.084 69.125C124.079 67.5704 124.079 67.5704 124.073 65.9844C124.074 64.9995 124.075 64.0147 124.077 63C124.078 62.0899 124.079 61.1798 124.08 60.2422C124.286 56.8786 124.772 57.1432 128.209 57Z" fill="#C83E6F"/>
</svg>
