<svg width="282" height="224" viewBox="0 0 282 224" fill="none" xmlns="http://www.w3.org/2000/svg">
<path d="M99.0513 0.0215549C99.6994 0.0144418 100.347 0.00732866 101.015 0C101.71 0.00456785 102.404 0.0091357 103.12 0.013842C103.838 0.011683 104.555 0.0095241 105.294 0.00729975C106.81 0.00576511 108.324 0.00878293 109.84 0.0193512C111.78 0.0322213 113.719 0.0247931 115.658 0.0112896C117.513 0.00116473 119.367 0.00825751 121.222 0.013842C121.917 0.00927412 122.613 0.00470627 123.33 0C123.976 0.00711312 124.622 0.0142262 125.288 0.0215549C125.857 0.0233502 126.425 0.0251456 127.01 0.0269953C128.912 0.391447 129.561 1.08442 130.764 2.57013C131.53 4.09412 131.53 4.09412 132.2 5.81617C132.567 6.74829 132.567 6.74829 132.942 7.69923C133.19 8.34537 133.437 8.9915 133.693 9.65721C134.074 10.6297 134.074 10.6297 134.464 11.6218C136.24 16.164 136.24 16.164 136.974 18.3662C138.411 18.9083 139.806 19.3566 141.279 19.7766C144.507 20.7213 147.379 21.8163 150.284 23.5295C155.677 26.9195 155.677 26.9195 161.783 27.7647C165.001 26.824 167.839 25.3003 170.71 23.5953C173.129 22.2289 175.512 21.1492 178.329 21.2575C179.929 21.7663 182.033 23.4107 183.241 24.5718C183.241 24.9442 183.202 24.1567 183.202 24.5404C183.575 24.5404 182.885 24.5718 183.269 24.5718C184.186 25.3475 185.315 26.4758 186.092 27.3926C186.092 27.0089 186.092 27.7649 186.092 27.3926C185.708 27.3926 186.464 27.3926 186.092 27.3926C188.783 29.8197 188.783 29.8197 189.479 31.9057C189.852 31.9057 190.224 31.9057 190.608 31.9057C190.608 32.2781 190.608 32.6504 190.608 33.034C191.167 33.2202 191.726 33.4064 192.302 33.5982C193.233 34.5612 193.233 34.5612 194.207 35.749C195.713 37.5281 197.25 38.9171 199.077 40.3679C202.271 43.3088 202.271 43.3088 202.698 45.5356C202.716 47.1533 202.63 48.4987 201.9 49.9584C213.823 49.9584 225.747 49.9584 238.032 49.9584C238.032 46.0489 238.032 42.1393 238.032 38.1113C239.726 35.2906 239.726 35.2906 241.419 34.1623C244.147 33.8516 245.451 34.3308 247.594 35.9958C248.131 36.4074 248.667 36.819 249.22 37.2431C249.82 37.7195 250.419 38.197 251.017 38.6755C251.345 38.9353 251.672 39.1951 252.009 39.4627C253.799 40.8838 255.582 42.3126 257.362 43.7462C259.285 45.291 261.231 46.8036 263.191 48.3012C281.287 62.135 281.287 62.135 281.793 63.9959C281.956 66.077 281.931 67.457 280.626 69.1504C279.278 70.3617 277.879 71.445 276.423 72.5242C275.562 73.1935 274.702 73.8628 273.842 74.5325C272.907 75.2564 271.966 75.9725 271.024 76.687C269.102 78.1465 267.203 79.6336 265.308 81.1275C260.941 84.5624 256.568 87.9897 252.166 91.3804C251.142 92.1724 250.125 92.9724 249.109 93.7745C248.575 94.1854 248.04 94.5962 247.489 95.0196C247.043 95.3672 246.598 95.7148 246.139 96.0729C244.447 96.9744 243.312 96.9853 241.419 96.7825C239.535 95.5691 238.746 94.9749 238.032 92.8335C238.032 88.924 238.032 85.0144 238.032 80.9864C222.103 81.2657 222.103 81.2657 205.852 81.5506C204.622 84.0076 204.705 84.6344 205.287 87.192C205.722 87.3066 205.722 87.3066 206.165 87.4234C209.583 88.3838 212.906 89.57 216.226 90.8237C216.89 91.0676 216.89 91.0676 217.568 91.3164C220.366 92.3911 222.516 93.4173 223.918 96.2184C223.978 97.2115 224.002 98.2069 224.009 99.2018C224.014 99.8251 224.02 100.448 224.025 101.091C224.029 102.105 224.029 102.105 224.033 103.14C224.036 103.833 224.039 104.526 224.042 105.24C224.048 106.709 224.051 108.177 224.053 109.646C224.057 111.893 224.076 114.141 224.094 116.388C224.098 117.813 224.101 119.239 224.103 120.664C224.11 121.337 224.117 122.01 224.124 122.703C224.123 123.332 224.121 123.96 224.119 124.608C224.121 125.16 224.123 125.711 224.125 126.28C223.878 128.107 223.316 129.155 222.224 130.631C220.599 131.521 220.599 131.521 218.64 132.264C218.295 132.398 217.949 132.532 217.593 132.67C216.493 133.092 215.389 133.501 214.285 133.91C213.54 134.196 212.796 134.482 212.052 134.769C206.636 136.837 206.636 136.837 205.287 136.837C204.61 139.817 204.61 139.817 205.852 142.478C207.263 142.748 207.263 142.748 208.934 142.722C209.9 142.739 209.9 142.739 210.886 142.756C211.584 142.76 212.282 142.763 213.001 142.767C213.714 142.777 214.427 142.787 215.161 142.798C217.056 142.823 218.951 142.841 220.847 142.856C222.781 142.873 224.714 142.899 226.648 142.925C230.443 142.973 234.237 143.011 238.032 143.043C238.023 142.698 238.014 142.354 238.005 142C237.97 140.432 237.948 138.864 237.926 137.295C237.905 136.483 237.905 136.483 237.883 135.655C237.83 130.578 237.83 130.578 239.726 128.375C241.711 127.052 242.47 126.985 244.807 127.246C246.262 128.079 246.262 128.079 247.771 129.291C248.053 129.514 248.336 129.737 248.627 129.966C249.262 130.467 249.894 130.971 250.525 131.479C251.675 132.398 252.837 133.301 254.003 134.201C258.6 137.751 263.172 141.333 267.736 144.924C269.423 146.252 271.116 147.574 272.809 148.894C273.813 149.68 274.81 150.471 275.807 151.264C276.829 152.066 277.863 152.851 278.926 153.596C280.319 154.613 281.336 155.539 281.914 157.19C282.155 159.212 281.933 160.527 280.694 162.166C279.336 163.42 277.908 164.507 276.423 165.608C275.696 166.165 274.971 166.724 274.246 167.283C272.606 168.545 270.959 169.799 269.308 171.047C267.038 172.77 264.809 174.538 262.591 176.327C259.517 178.802 256.41 181.229 253.275 183.626C252.688 184.076 252.688 184.076 252.088 184.535C250.982 185.377 249.872 186.213 248.759 187.046C248.397 187.319 248.034 187.593 247.661 187.875C246.081 189.042 245.003 189.831 243.043 190.184C241.012 189.787 240.05 189.063 238.597 187.61C237.167 183.325 238.032 178.588 238.032 174.071C226.108 174.071 214.185 174.071 201.9 174.071C202.086 174.443 202.272 174.815 202.464 175.199C202.87 177.601 202.99 178.93 201.609 180.983C200.338 182.406 199.013 183.741 197.643 185.069C197.15 185.562 196.657 186.055 196.149 186.564C194.838 187.868 193.518 189.16 192.193 190.45C191.385 191.242 190.584 192.04 189.785 192.842C188.249 194.385 186.703 195.917 185.152 197.445C184.676 197.922 184.199 198.398 183.708 198.889C183.256 199.326 182.805 199.764 182.339 200.214C181.945 200.6 181.552 200.986 181.146 201.384C179.589 202.484 178.379 202.682 176.494 202.842C175.336 202.588 175.336 202.588 174.302 202.132C173.915 201.966 173.528 201.8 173.129 201.629C172.725 201.448 172.322 201.266 171.907 201.079C171.482 200.902 171.058 200.724 170.62 200.541C168.697 199.731 166.89 198.889 165.081 197.842C163.343 196.882 162.1 196.303 160.122 196.072C157.274 197.029 154.824 198.428 152.242 199.944C150.44 200.946 148.562 201.707 146.643 202.454C146.004 202.708 145.365 202.962 144.706 203.223C142.62 203.97 142.62 203.97 141.222 204.184C139.583 204.484 138.412 204.809 136.974 205.663C135.486 207.943 134.698 210.38 133.869 212.961C133.405 214.295 132.94 215.628 132.475 216.961C132.281 217.553 132.086 218.145 131.885 218.755C130.633 222.298 130.633 222.298 128.506 223.715C127.078 223.866 127.078 223.866 125.352 223.879C124.706 223.886 124.06 223.894 123.394 223.901C122.695 223.902 121.996 223.904 121.277 223.905C120.559 223.909 119.841 223.912 119.102 223.916C117.582 223.922 116.063 223.925 114.543 223.924C112.599 223.924 110.656 223.94 108.713 223.959C106.855 223.975 104.998 223.974 103.14 223.975C102.095 223.988 102.095 223.988 101.03 224C100.38 223.997 99.7299 223.993 99.0603 223.989C98.2048 223.992 98.2048 223.992 97.332 223.994C95.326 223.638 94.3854 222.866 92.938 221.459C92.2535 219.824 92.2535 219.824 91.7603 217.942C89.8037 210.508 89.8037 210.508 85.3444 204.563C82.1701 202.974 78.8127 202.324 75.3581 201.608C73.6802 201.132 72.5026 200.5 71.0521 199.543C67.3209 197.063 67.3209 197.063 63.0159 196.072C58.1579 197.24 53.7438 199.713 49.4502 202.204C47.1638 203.073 46.1642 203.045 43.8205 202.278C41.9194 200.836 40.2945 199.161 38.638 197.45C38.1562 196.965 37.6744 196.48 37.178 195.98C35.6438 194.432 34.122 192.872 32.5997 191.312C31.5625 190.264 30.5245 189.216 29.4858 188.169C27.5945 186.255 25.7041 184.341 23.825 182.415C23.447 182.028 23.069 181.642 22.6796 181.243C21.2254 179.64 21.2358 179.214 21.304 176.933C21.7956 172.986 23.7554 169.632 25.5184 166.121C27.0056 163.109 27.0056 163.109 27.4657 159.835C26.742 157.895 25.8336 156.099 24.8369 154.29C23.3814 151.636 22.2842 149.203 21.6855 146.222C20.5843 140.55 20.5843 140.55 16.9079 136.353C13.3702 134.565 9.66986 133.334 5.85415 132.282C3.66297 131.545 1.9828 130.572 0.34878 128.939C0.194002 127.533 0.194001 127.533 0.175799 125.739C0.166773 125.069 0.157747 124.399 0.148447 123.708C0.14542 122.981 0.142392 122.253 0.139273 121.504C0.134176 120.759 0.129078 120.015 0.123827 119.248C0.11451 117.671 0.110169 116.093 0.108536 114.516C0.105497 112.496 0.0842317 110.477 0.058433 108.457C0.0416279 106.903 0.0375573 105.35 0.0369912 103.796C0.0334644 102.69 0.0168201 101.584 0 100.478C0.00343128 99.8037 0.00686259 99.1299 0.0103979 98.4356C0.00753514 97.8427 0.0046724 97.2498 0.00172293 96.6389C0.472609 94.5375 1.39296 93.9754 3.17162 92.8335C4.82866 92.1957 4.82866 92.1957 6.64283 91.6722C13.7496 89.6713 13.7496 89.6713 19.4396 85.3266C20.8537 82.4437 21.4229 79.3925 22.0133 76.2562C22.6741 73.4995 24.0728 71.1253 25.4317 68.6597C26.5806 66.5267 27.2521 64.7869 27.4481 62.3696C26.9725 60.7058 26.9725 60.7058 26.1447 59.0729C25.8627 58.4627 25.5807 57.8526 25.2901 57.224C24.8387 56.2804 24.8387 56.2804 24.3782 55.3178C23.7851 54.0688 23.1975 52.8172 22.6161 51.5627C22.3524 51.0111 22.0886 50.4595 21.8168 49.8912C21.1249 47.949 20.8529 46.9244 21.2378 44.8811C22.3912 43.2158 23.7705 41.8083 25.1898 40.3679C25.5361 40.002 25.8823 39.636 26.2391 39.2589C28.5342 36.8399 30.8847 34.474 33.2307 32.1045C34.0839 31.2397 34.9335 30.3714 35.7796 29.4997C37.011 28.2315 38.2531 26.9748 39.4981 25.72C39.8728 25.3298 40.2475 24.9397 40.6336 24.5377C42.3674 22.8127 43.4864 21.8544 45.859 21.1207C48.0711 21.1973 49.1934 21.6802 51.096 22.7912C58.2661 27.0899 58.2662 27.0899 66.2092 27.397C68.6253 26.3848 70.8297 25.053 73.0317 23.6421C75.0238 22.4509 77.1323 21.6998 79.3178 20.9401C80.015 20.6849 80.7122 20.4296 81.4305 20.1666C83.3403 19.4945 83.3403 19.4945 85.054 19.1062C86.8459 18.5081 86.8459 18.5081 87.6376 16.8239C87.862 16.1824 88.0865 15.5409 88.3178 14.88C88.5743 14.1811 88.8309 13.4823 89.0952 12.7622C89.3539 12.0214 89.6116 11.2803 89.8681 10.5387C90.2532 9.44036 90.642 8.34402 91.0416 7.2509C91.4044 6.25686 91.7532 5.25774 92.1012 4.25844C93.651 1.13147 95.6155 0.0324027 99.0513 0.0215549Z" fill="#C83E6F"/>
<path d="M98.9644 9C106.604 9 114.243 9 122.114 9C125.079 16.817 125.079 16.817 125.999 19.277C126.369 20.2358 126.369 20.2358 126.746 21.214C126.995 21.869 127.243 22.524 127.499 23.1988C128.544 25.2813 129.549 26.1276 131.682 26.9855C132.062 27.0937 132.442 27.2018 132.834 27.3133C133.264 27.4406 133.695 27.5679 134.138 27.699C134.825 27.8976 134.825 27.8976 135.525 28.1003C142.422 30.1929 148.955 32.829 155.075 36.6932C157.739 37.778 159.903 37.7282 162.555 36.7514C164.188 36.0144 165.791 35.2363 167.391 34.4317C168.478 33.8874 169.568 33.3499 170.662 32.8201C171.139 32.58 171.616 32.34 172.107 32.0926C173.86 31.5182 174.591 31.543 176.319 32.2033C177.574 33.2285 178.69 34.2346 179.826 35.3778C180.15 35.6969 180.473 36.016 180.806 36.3448C181.485 37.0193 182.162 37.6969 182.836 38.3772C183.87 39.4175 184.919 40.4419 185.969 41.466C186.628 42.1239 187.286 42.7827 187.943 43.4424C188.416 43.9006 188.416 43.9006 188.898 44.3681C189.761 45.2546 189.761 45.2546 191 46.9176C190.938 50.0797 189.043 52.842 186.869 55.0175C185.234 56.6588 183.836 58.384 182.425 60.217C182.028 60.7277 182.028 60.7277 181.623 61.2486C180.794 62.3177 179.968 63.3892 179.143 64.4615C178.867 64.8196 178.591 65.1776 178.307 65.5464C176.699 67.634 175.096 69.725 173.496 71.8187C171.647 70.0665 170.171 68.1747 168.662 66.124C157.387 51.2312 140.491 41.8778 122.219 38.6582C118.691 38.2078 115.148 38.2332 111.598 38.2517C110.999 38.253 110.999 38.253 110.388 38.2543C104.349 38.2772 98.6269 38.6124 92.7534 40.1264C91.7293 40.3726 91.7293 40.3726 90.6845 40.6238C86.029 41.8386 81.7967 43.6183 77.5082 45.7857C76.9034 46.0826 76.2985 46.3795 75.6754 46.6855C70.9688 49.0923 66.8614 52.0218 62.8277 55.4066C62.5372 55.6488 62.2467 55.891 61.9474 56.1405C48.0439 67.8869 38.7751 85.6706 37.0375 103.814C35.4744 123.642 40.2783 143.345 53.2223 158.791C53.5971 159.225 53.972 159.658 54.3582 160.104C54.9292 160.789 54.9292 160.789 55.5117 161.488C60.8317 167.685 66.9939 172.551 74.1204 176.516C74.466 176.71 74.8117 176.903 75.1678 177.102C80.8132 180.218 86.4946 182.356 92.7534 183.874C93.3149 184.021 93.8764 184.168 94.4549 184.319C99.4897 185.541 104.262 185.853 109.412 185.824C110.709 185.819 112.005 185.835 113.302 185.853C132.466 185.944 150.492 176.803 163.897 163.5C167.312 159.986 170.232 156.271 172.932 152.181C175.466 154.577 177.554 157.231 179.672 159.998C180.176 160.651 180.176 160.651 180.69 161.317C182.596 163.791 184.476 166.283 186.326 168.8C187.084 169.816 187.084 169.816 188.283 170.928C189.603 172.297 190.302 173.618 191 175.385C190.651 177.934 189.025 179.346 187.288 181.108C186.971 181.433 186.654 181.758 186.327 182.092C185.656 182.776 184.982 183.457 184.307 184.137C183.275 185.179 182.259 186.235 181.243 187.292C180.589 187.955 179.934 188.618 179.277 189.279C178.975 189.596 178.673 189.914 178.362 190.241C177.478 191.112 177.478 191.112 175.755 192.363C173.486 192.34 171.741 191.622 169.725 190.627C169.007 190.285 169.007 190.285 168.276 189.936C167.289 189.457 166.304 188.973 165.32 188.486C162.202 187.009 160.008 186.206 156.557 186.703C154.815 187.41 153.233 188.329 151.617 189.285C145.735 192.583 139.604 194.859 133.136 196.729C132.686 196.865 132.235 197 131.771 197.14C131.164 197.313 131.164 197.313 130.546 197.49C128.032 198.715 127.296 201.24 126.36 203.726C126.135 204.317 125.91 204.909 125.678 205.519C125.399 206.267 125.12 207.014 124.832 207.784C123.935 210.166 123.038 212.547 122.114 215C114.475 215 106.835 215 98.9644 215C98.0444 212.514 97.1244 210.028 96.1765 207.466C95.742 206.293 95.742 206.293 95.2988 205.095C94.957 204.171 94.957 204.171 94.6083 203.228C94.3747 202.597 94.1411 201.966 93.9004 201.315C93.5018 200.223 93.1202 199.125 92.7534 198.022C91.5756 197.596 91.5756 197.596 90.0714 197.35C82.2317 195.547 74.6203 192.434 67.7292 188.285C65.1873 186.815 62.9559 186.091 60.0045 186.703C57.8247 187.514 55.7645 188.524 53.6876 189.568C52.6009 190.113 51.5106 190.65 50.4167 191.18C49.7014 191.54 49.7014 191.54 48.9716 191.907C47.2161 192.483 46.4887 192.465 44.7593 191.797C43.5104 190.737 42.4015 189.698 41.2723 188.523C40.9504 188.197 40.6286 187.871 40.297 187.535C39.2734 186.497 38.258 185.451 37.2426 184.404C36.5488 183.697 35.8544 182.991 35.1594 182.285C33.4598 180.557 31.7675 178.822 30.0788 177.082C31.3254 173.043 32.9452 169.281 34.7668 165.473C36.3363 162.082 36.3363 162.082 36.2898 158.407C35.4467 156.474 34.4287 154.655 33.3961 152.818C29.8424 146.266 27.0544 139.755 25.414 132.451C24.9169 131.009 24.4725 130.519 23.3032 129.544C21.7401 128.803 21.7401 128.803 19.9463 128.16C19.2919 127.913 18.6376 127.665 17.9634 127.411C17.28 127.158 16.5965 126.904 15.8923 126.644C14.5376 126.136 13.1834 125.628 11.8296 125.118C11.2283 124.895 10.627 124.672 10.0075 124.441C8.62266 123.885 8.62266 123.885 8.05802 123.319C8.00795 121.645 7.99298 119.985 8.00288 118.311C8.00368 117.81 8.00448 117.308 8.0053 116.791C8.00847 115.182 8.01556 113.574 8.02273 111.965C8.02556 110.877 8.02814 109.789 8.03045 108.701C8.03669 106.027 8.04645 103.354 8.05802 100.681C13.4047 98.2779 13.4047 98.2779 15.7997 97.3498C16.2342 97.1809 16.6688 97.0121 17.1165 96.8381C17.551 96.6706 17.9855 96.5032 18.4332 96.3307C18.8808 96.1567 19.3285 95.9827 19.7897 95.8035C21.5182 95.1336 23.2385 94.4776 24.9971 93.8901C25.4192 92.5328 25.7367 91.2449 26.0205 89.8578C27.7202 82.4526 30.6925 75.8982 34.4539 69.3332C35.9398 66.6514 36.8307 64.7626 36.2898 61.6319C35.1022 58.6293 33.6309 55.7681 32.1874 52.8831C31.9035 52.2955 31.6197 51.7078 31.3272 51.1024C31.0611 50.5704 30.795 50.0385 30.5208 49.4904C30.0788 48.0495 30.0788 48.0495 30.373 46.9353C31.5507 45.314 32.8912 43.8803 34.2871 42.4498C34.5908 42.1376 34.8945 41.8254 35.2074 41.5038C35.8493 40.8473 36.4929 40.1924 37.1381 39.539C38.1227 38.5369 39.0929 37.522 40.0636 36.5064C40.6899 35.8692 41.317 35.2329 41.945 34.5975C42.2327 34.2922 42.5205 33.9869 42.8169 33.6723C43.6615 32.836 43.6615 32.836 45.324 31.6374C47.5902 31.6698 49.3394 32.379 51.3541 33.3727C51.8323 33.6007 52.3105 33.8287 52.8032 34.0636C53.7901 34.5435 54.7753 35.0269 55.7587 35.5138C58.8722 36.9889 61.0739 37.7703 64.5216 37.2967C66.066 36.6926 67.4435 35.8873 68.8622 35.033C72.5486 32.9495 76.2674 31.2298 80.2255 29.7273C80.7285 29.5354 81.2315 29.3435 81.7497 29.1458C84.9634 27.9573 88.1052 27.0798 91.5227 26.6877C93.3245 25.6487 93.4649 24.3294 94.0183 22.3814C94.4682 20.8118 95.016 19.3114 95.6008 17.7875C95.78 17.3176 95.9592 16.8477 96.1438 16.3636C96.3642 15.7895 96.5846 15.2155 96.8117 14.624C97.8773 11.8401 97.8773 11.8401 98.9644 9Z" fill="#FFFEFE"/>
<path d="M150.637 60.8078C152.567 62.446 154.433 64.1379 156.276 65.8726C156.657 66.2172 157.039 66.5618 157.432 66.9168C159.883 69.2162 161.888 71.7413 163.852 74.4547C164.099 74.794 164.346 75.1333 164.6 75.4828C167.038 78.941 167.038 78.941 166.988 80.5044C166.197 81.7775 165.425 82.8683 164.486 84.0216C164.242 84.3336 163.997 84.6455 163.745 84.9669C163.141 85.7355 162.528 86.4972 161.914 87.2575C159.386 84.8529 157.329 82.2253 155.257 79.4261C152.924 76.3712 150.359 74.4592 146.691 73.1885C145.325 73.0207 145.325 73.0207 143.901 73.0418C143.354 73.0378 142.807 73.0338 142.244 73.0297C141.65 73.0311 141.057 73.0325 140.445 73.0339C139.5 73.0296 139.5 73.0296 138.536 73.0252C136.454 73.0174 134.373 73.0179 132.291 73.0192C130.845 73.017 129.4 73.0146 127.954 73.0119C124.926 73.0077 121.897 73.0078 118.868 73.0109C115.367 73.0143 111.865 73.0073 108.364 72.9953C104.993 72.9842 101.623 72.9825 98.2529 72.9845C96.8191 72.9842 95.3853 72.9812 93.9515 72.9756C91.9509 72.9687 89.9507 72.9724 87.9501 72.979C87.3543 72.9747 86.7585 72.9704 86.1447 72.9659C85.6009 72.9699 85.0571 72.9738 84.4967 72.9779C83.7874 72.9778 83.7874 72.9778 83.0636 72.9776C81.568 73.2377 81.09 73.7044 80.1593 74.8768C79.2027 76.7864 79.479 78.9588 79.4611 81.0606C79.4565 81.5644 79.452 82.0683 79.4473 82.5874C79.4395 83.6551 79.4334 84.7229 79.429 85.7906C79.4193 87.4211 79.3946 89.051 79.3697 90.6814C79.364 91.7186 79.3592 92.7558 79.3554 93.793C79.3455 94.2797 79.3356 94.7663 79.3255 95.2677C79.3279 95.9548 79.3279 95.9548 79.3305 96.6559C79.3271 97.0561 79.3238 97.4564 79.3204 97.8688C79.7508 99.7571 80.3999 100.598 81.8507 101.889C83.5463 102.273 85.195 102.197 86.9253 102.135C87.4381 102.129 87.9509 102.122 88.4792 102.115C89.5927 102.099 90.7061 102.077 91.8193 102.05C93.5859 102.01 95.3514 101.991 97.1184 101.979C102.141 101.944 107.163 101.884 112.185 101.772C115.259 101.705 118.331 101.676 121.406 101.672C122.573 101.663 123.741 101.64 124.908 101.601C133.758 101.314 133.758 101.314 136.529 103.218C139.26 105.788 141.96 109.29 142.18 113.145C141.185 114.694 141.185 114.694 139.784 116.275C139.327 116.798 138.871 117.321 138.401 117.86C137.76 118.59 137.76 118.59 137.106 119.335C136.904 119.731 136.703 120.128 136.496 120.536C135.039 121.95 133.798 121.854 131.83 121.87C131.338 121.863 130.847 121.856 130.341 121.848C129.822 121.85 129.303 121.851 128.768 121.852C127.64 121.854 126.512 121.85 125.385 121.842C123.6 121.83 121.816 121.832 120.032 121.838C115.6 121.85 111.169 121.84 106.737 121.826C102.993 121.814 99.2501 121.813 95.5066 121.827C93.7473 121.83 91.9886 121.816 90.2295 121.802C89.1519 121.805 88.0744 121.809 86.9969 121.813C86.5068 121.805 86.0167 121.797 85.5118 121.788C83.1762 121.816 82.2107 121.828 80.4186 123.426C79.6186 124.919 79.3148 125.7 79.3215 127.364C79.318 127.819 79.3146 128.273 79.311 128.741C79.3191 129.225 79.3272 129.708 79.3355 130.205C79.3361 130.708 79.3366 131.211 79.3371 131.729C79.3405 132.789 79.3494 133.849 79.3634 134.909C79.384 136.531 79.3865 138.152 79.3862 139.773C79.3917 140.805 79.3983 141.836 79.406 142.868C79.4073 143.352 79.4085 143.836 79.4098 144.335C79.417 144.788 79.4242 145.24 79.4316 145.707C79.4359 146.103 79.4402 146.5 79.4447 146.908C79.6228 148.24 80.0207 149.144 80.7231 150.287C82.0694 150.959 82.9068 150.926 84.41 150.936C84.9489 150.941 85.4879 150.946 86.0432 150.951C86.6366 150.953 87.23 150.956 87.8414 150.958C88.4649 150.963 89.0884 150.967 89.7309 150.972C91.8027 150.986 93.8745 150.995 95.9464 151.003C96.6536 151.006 97.3609 151.009 98.0896 151.012C101.064 151.024 104.039 151.035 107.013 151.041C111.268 151.051 115.522 151.069 119.776 151.101C123.134 151.126 126.491 151.135 129.848 151.138C131.272 151.142 132.697 151.151 134.121 151.164C136.12 151.182 138.118 151.182 140.116 151.178C140.993 151.192 140.993 151.192 141.887 151.206C146.616 151.166 150.393 149.881 153.851 146.585C154.406 145.841 154.406 145.841 154.972 145.081C155.38 144.547 155.789 144.012 156.21 143.461C156.604 142.928 156.997 142.395 157.403 141.845C158.165 140.871 158.928 139.897 159.694 138.926C160.247 138.211 160.799 137.497 161.35 136.78C162.814 138.213 164.215 139.658 165.508 141.247C165.815 141.612 166.122 141.977 166.438 142.353C166.988 143.534 166.988 143.534 166.625 144.919C164.072 149.691 160.545 153.692 156.839 157.603C156.291 158.195 156.291 158.195 155.732 158.798C145.237 169.766 129.893 176.411 114.79 176.932C113.255 176.963 111.719 176.976 110.183 176.983C109.102 176.991 109.102 176.991 107.999 177C91.1037 176.846 75.5525 169.357 63.5969 157.673C51.3451 145.183 44.8907 127.963 45.0014 110.617C45.1099 105.855 45.7381 101.448 46.8936 96.8245C47.044 96.1759 47.1945 95.5274 47.3495 94.8592C51.4301 78.8935 62.3864 64.8663 76.4481 56.3584C99.3914 42.8668 129.657 43.6334 150.637 60.8078Z" fill="white"/>
<path d="M245.994 49C248.035 49.9014 249.667 51.1363 251.425 52.4963C251.889 52.855 251.889 52.855 252.364 53.2209C253.053 53.7535 253.743 54.2868 254.432 54.8207C255.699 55.8003 256.973 56.773 258.247 57.745C259.158 58.4428 260.07 59.1405 260.982 59.8384C261.418 60.171 261.855 60.5036 262.305 60.8463C264.323 62.3962 266.258 63.9217 268 65.7821C267.734 65.9871 267.467 66.1921 267.193 66.4033C262.6 69.9401 258.008 73.4777 253.435 77.04C253.122 77.284 252.809 77.528 252.486 77.7793C251.105 78.8565 249.735 79.94 248.385 81.0564C247.122 82.0047 247.122 82.0047 245.994 82.0047C245.96 81.4589 245.925 80.913 245.89 80.3506C245.819 79.283 245.819 79.283 245.747 78.1938C245.701 77.4864 245.655 76.779 245.608 76.0502C245.502 74.1777 245.502 74.1777 244.865 72.4949C242.879 71.6747 240.658 71.8324 238.539 71.7921C238.133 71.7839 237.727 71.7758 237.309 71.7673C233.574 71.697 229.839 71.6584 226.103 71.6287C223.597 71.6087 221.092 71.5788 218.586 71.525C216.158 71.4729 213.73 71.4458 211.301 71.436C210.379 71.4282 209.456 71.4117 208.534 71.3861C203.381 71.1329 203.381 71.1329 198.751 73.0139C197.6 74.2791 196.683 75.5279 195.774 76.9701C195.206 77.7061 194.632 78.4384 194.051 79.164C193.518 79.8762 192.988 80.5901 192.459 81.3055C191.87 82.0931 191.281 82.8805 190.692 83.6677C190.261 84.2432 190.261 84.2432 189.823 84.8304C188.672 86.3606 187.5 87.8717 186.323 89.3819C180.839 96.4279 175.403 103.509 170.03 110.639C167.01 114.646 163.939 118.609 160.83 122.548C158.642 125.324 156.495 128.128 154.371 130.952C147.309 140.328 147.309 140.328 144.991 141.861C143.892 141.998 143.892 141.998 142.623 141.995C141.901 141.998 141.901 141.998 141.163 142C140.373 141.994 140.373 141.994 139.567 141.988C138.733 141.988 138.733 141.988 137.882 141.988C136.041 141.988 134.2 141.979 132.359 141.97C131.083 141.968 129.808 141.966 128.533 141.965C125.174 141.961 121.815 141.95 118.456 141.938C115.029 141.926 111.602 141.921 108.176 141.915C101.45 141.903 94.7252 141.884 88 141.861C88 137.984 88 134.107 88 130.113C89.5207 130.111 91.0413 130.109 92.6081 130.106C97.635 130.097 102.662 130.072 107.689 130.039C110.736 130.02 113.784 130.006 116.831 130.004C119.773 130.002 122.714 129.986 125.656 129.96C126.777 129.953 127.899 129.951 129.021 129.953C130.593 129.956 132.165 129.941 133.738 129.923C134.2 129.928 134.663 129.932 135.14 129.937C138.435 129.872 139.851 129.083 142.169 126.757C143.082 125.771 143.082 125.771 143.783 124.782C144.048 124.424 144.313 124.067 144.587 123.699C144.86 123.324 145.133 122.948 145.414 122.561C146.013 121.753 146.612 120.946 147.212 120.138C147.506 119.74 147.8 119.343 148.103 118.933C149.253 117.386 150.434 115.865 151.621 114.345C155.247 109.692 158.833 105.009 162.426 100.33C163.583 98.8233 164.742 97.3179 165.901 95.8128C169.604 91.0047 173.29 86.1862 176.942 81.3405C180.593 76.498 184.312 71.7104 188.08 66.9569C188.743 66.1135 189.399 65.2649 190.05 64.4128C190.397 63.9611 190.744 63.5094 191.101 63.0441C191.415 62.6317 191.729 62.2194 192.053 61.7946C192.953 60.7475 192.953 60.7475 194.646 59.6286C196.182 59.5237 197.66 59.4835 199.196 59.4947C199.659 59.4935 200.123 59.4924 200.601 59.4913C201.607 59.4893 202.614 59.4897 203.621 59.4922C205.215 59.4954 206.808 59.4903 208.402 59.4826C212.934 59.4618 217.465 59.4515 221.997 59.4578C224.768 59.4611 227.54 59.4508 230.311 59.4321C231.367 59.4277 232.423 59.4284 233.479 59.4344C234.957 59.4424 236.434 59.4333 237.912 59.4204C238.348 59.427 238.783 59.4335 239.232 59.4403C241.474 59.4019 242.502 59.1518 244.287 57.7653C245.703 55.9144 245.818 54.7637 245.888 52.4613C245.915 51.8116 245.942 51.1619 245.969 50.4925C245.977 50 245.985 49.5074 245.994 49Z" fill="black"/>
<path d="M174.692 120C175.062 120 175.433 120 175.816 120C176.823 121.23 177.764 122.468 178.696 123.753C179.307 124.581 179.918 125.408 180.53 126.235C180.858 126.679 181.185 127.124 181.523 127.582C183.332 130.019 185.178 132.427 187.023 134.837C187.785 135.835 188.548 136.832 189.31 137.83C189.684 138.318 190.057 138.806 190.442 139.309C191.528 140.73 192.611 142.154 193.693 143.578C194.35 144.441 195.008 145.304 195.665 146.167C195.964 146.562 196.264 146.958 196.573 147.365C196.851 147.729 197.128 148.094 197.415 148.469C197.655 148.785 197.895 149.101 198.142 149.426C198.38 149.717 198.617 150.007 198.862 150.306C199.072 150.598 199.282 150.89 199.498 151.19C201.126 152.43 202.553 152.195 204.574 152.19C204.982 152.191 205.389 152.192 205.81 152.193C207.158 152.195 208.507 152.185 209.856 152.174C210.793 152.172 211.73 152.171 212.668 152.171C214.633 152.168 216.598 152.16 218.563 152.148C221.082 152.132 223.6 152.126 226.118 152.123C228.054 152.121 229.99 152.115 231.927 152.109C232.855 152.105 233.783 152.103 234.712 152.101C236.01 152.097 237.309 152.089 238.607 152.08C239.346 152.076 240.085 152.073 240.846 152.069C242.337 152.005 243.543 151.876 244.954 151.429C245.543 149.43 245.687 147.469 245.832 145.395C245.879 144.739 245.926 144.082 245.975 143.405C246.009 142.904 246.043 142.404 246.078 141.888C248.164 142.81 249.834 144.104 251.629 145.501C251.945 145.746 252.261 145.991 252.587 146.243C255.314 148.362 258.028 150.499 260.742 152.635C263.134 154.515 265.553 156.355 268 158.163C265.772 160.514 263.356 162.436 260.763 164.372C257.051 167.167 253.4 170.022 249.814 172.976C247.323 175 247.323 175 246.078 175C246.07 174.459 246.062 173.918 246.054 173.36C246.014 172.297 246.014 172.297 245.973 171.212C245.953 170.509 245.934 169.805 245.913 169.081C245.684 167.111 245.684 167.111 244.377 165.916C242.245 164.618 240.475 164.596 238.054 164.636C237.363 164.634 237.363 164.634 236.657 164.632C235.659 164.631 234.661 164.634 233.663 164.642C232.082 164.655 230.502 164.653 228.921 164.647C224.995 164.635 221.069 164.644 217.143 164.659C213.824 164.671 210.505 164.672 207.186 164.657C205.631 164.655 204.077 164.668 202.522 164.683C201.565 164.68 200.608 164.676 199.651 164.671C199.221 164.68 198.791 164.688 198.348 164.697C195.068 164.653 193.78 163.758 191.554 161.531C190.574 160.394 190.574 160.394 189.78 159.279C189.477 158.859 189.173 158.439 188.86 158.007C188.544 157.561 188.227 157.114 187.901 156.655C187.205 155.693 186.508 154.732 185.811 153.772C185.458 153.286 185.105 152.801 184.741 152.3C183.122 150.104 181.439 147.96 179.75 145.816C178.436 144.135 177.124 142.451 175.816 140.765C175.446 140.289 175.077 139.814 174.696 139.323C173.574 137.869 172.463 136.407 171.354 134.943C171.004 134.492 170.655 134.041 170.295 133.577C169.978 133.155 169.662 132.733 169.336 132.299C169.054 131.928 168.771 131.557 168.48 131.175C167.946 130.102 167.946 130.102 168.061 128.955C168.81 127.116 170.09 125.643 171.319 124.104C171.71 123.604 171.71 123.604 172.109 123.094C173.992 120.699 173.992 120.699 174.692 120Z" fill="black"/>
<path d="M88 81.3522C95.356 81.2883 102.712 81.2363 110.068 81.2056C113.484 81.1908 116.899 81.1707 120.315 81.1387C123.612 81.1079 126.908 81.091 130.205 81.0836C131.462 81.0784 132.72 81.0682 133.977 81.0529C135.739 81.0324 137.5 81.0295 139.262 81.0308C139.782 81.0207 140.301 81.0105 140.836 81C143.285 81.0197 144.906 81.1255 146.842 82.718C148.673 84.6325 150.26 86.6176 151.833 88.7481C152.14 89.1485 152.447 89.5488 152.763 89.9613C153.053 90.3499 153.342 90.7386 153.641 91.139C153.902 91.4886 154.164 91.8383 154.433 92.1985C155 93.2423 155 93.2423 155 95.5071C154.214 96.7185 153.431 97.816 152.537 98.9396C152.075 99.5358 151.613 100.132 151.151 100.729C150.749 101.248 150.347 101.767 149.933 102.301C149.561 102.862 149.19 103.422 148.807 104C146.37 103.132 145.193 101.248 143.739 99.2227C141.587 96.1123 141.587 96.1123 138.672 93.8085C136.998 93.6363 135.44 93.5608 133.765 93.5637C133.27 93.5579 132.776 93.5522 132.266 93.5462C130.633 93.5291 129.001 93.5239 127.368 93.5188C126.235 93.5092 125.102 93.499 123.969 93.488C120.989 93.4611 118.008 93.4442 115.028 93.4294C111.986 93.4125 108.944 93.3862 105.902 93.3606C99.935 93.3119 93.9676 93.2747 88 93.2423C88 89.3186 88 85.3949 88 81.3522Z" fill="black"/>
<path d="M195.01 93C195.338 93.165 195.666 93.3299 196.004 93.4999C200.226 95.5904 204.6 97.2688 209.001 98.9379C209.429 99.1013 209.857 99.2647 210.298 99.433C210.686 99.5797 211.073 99.7265 211.472 99.8776C212.382 100.265 212.382 100.265 212.942 100.824C212.992 102.476 213.007 104.115 212.997 105.768C212.996 106.263 212.996 106.759 212.995 107.269C212.992 108.858 212.985 110.446 212.977 112.035C212.975 113.109 212.972 114.184 212.97 115.258C212.964 117.897 212.954 120.537 212.942 123.176C208.966 125.028 204.99 126.689 200.846 128.121C198.926 128.81 197.41 129.367 196.131 131C193.75 130.209 192.819 128.451 191.402 126.494C190.807 125.681 190.21 124.867 189.614 124.054C189.306 123.633 188.998 123.213 188.681 122.78C187.728 121.504 186.745 120.258 185.748 119.016C185.434 118.618 185.119 118.221 184.796 117.811C184.189 117.045 183.574 116.284 182.952 115.531C182.125 114.473 182.125 114.473 181 112.559C181.351 109.953 183.514 107.902 185.168 105.923C188.61 101.727 191.833 97.3968 195.01 93Z" fill="white"/>
</svg>
