<svg width="256" height="256" viewBox="0 0 256 256" fill="none" xmlns="http://www.w3.org/2000/svg">
<path d="M23.125 31.9375C23.8791 31.942 24.6332 31.9465 25.4102 31.9512C27.2735 31.963 29.1367 31.9809 31 32C32.125 34.3125 32.125 34.3125 33 37C32.01 38.485 32.01 38.485 31 40C28.5039 40.4062 28.5039 40.4062 25.5625 40.5C21.6856 40.5287 21.6856 40.5287 18.3606 42.2276C16.5911 44.5326 16.6169 45.8746 16.6013 48.7646C16.5887 49.7427 16.5762 50.7208 16.5633 51.7286C16.5647 52.8045 16.5662 53.8805 16.5676 54.989C16.5574 56.1392 16.5471 57.2894 16.5365 58.4744C16.5066 62.2056 16.4971 65.9366 16.4883 69.668C16.4728 71.9683 16.456 74.2686 16.4379 76.569C16.3799 85.1084 16.3478 93.648 16.3125 102.188C16.2094 121.266 16.1063 140.344 16 160C89.59 160 163.18 160 239 160C238.67 121.06 238.34 82.12 238 42C235.431 40.7155 233.234 40.6702 230.375 40.4375C229.372 40.3537 228.369 40.2699 227.336 40.1836C226.565 40.123 225.794 40.0624 225 40C223.875 37.6875 223.875 37.6875 223 35C223.66 34.01 224.32 33.02 225 32C227.686 31.6386 230.063 31.4904 232.75 31.5C233.806 31.4575 233.806 31.4575 234.883 31.4141C238.88 31.3992 241.306 31.8496 244.453 34.4062C248.137 38.1579 248.128 39.8946 248.154 45.0466C248.162 46.3364 248.171 47.6263 248.18 48.9552C248.184 50.393 248.189 51.8308 248.193 53.2686C248.201 54.7763 248.209 56.2841 248.218 57.7919C248.244 62.7519 248.259 67.7119 248.273 72.6719C248.279 74.3786 248.284 76.0854 248.29 77.7922C248.311 84.8917 248.33 91.9912 248.341 99.0907C248.357 109.268 248.391 119.446 248.448 129.623C248.486 136.777 248.506 143.931 248.511 151.086C248.515 155.36 248.527 159.633 248.559 163.907C248.589 167.929 248.596 171.95 248.584 175.972C248.584 177.447 248.592 178.921 248.609 180.396C248.751 192.926 248.751 192.926 245.589 196.862C241.202 200.486 237.712 200.151 232.22 200.154C231.3 200.158 230.379 200.163 229.431 200.167C226.328 200.181 223.225 200.187 220.122 200.193C217.905 200.201 215.688 200.209 213.471 200.218C206.173 200.244 198.876 200.259 191.578 200.273C189.069 200.279 186.56 200.284 184.051 200.29C173.616 200.311 163.181 200.33 152.746 200.341C150.038 200.344 147.33 200.347 144.621 200.35C143.948 200.351 143.275 200.352 142.581 200.352C131.676 200.365 120.771 200.398 109.867 200.44C98.6726 200.482 87.4787 200.505 76.2846 200.511C69.9988 200.515 63.7133 200.527 57.4275 200.559C51.5145 200.589 45.6019 200.596 39.6888 200.584C37.5176 200.584 35.3463 200.592 33.1752 200.609C30.2122 200.632 27.2509 200.624 24.2879 200.608C23.4274 200.622 22.5669 200.636 21.6803 200.65C17.4773 200.594 14.8125 200.274 11.482 197.587C7.87506 193.827 7.8714 192.066 7.8461 186.953C7.8375 185.664 7.8289 184.374 7.82004 183.045C7.8156 181.607 7.8113 180.169 7.80713 178.731C7.79923 177.224 7.79096 175.716 7.78235 174.208C7.75612 169.248 7.74082 164.288 7.72656 159.328C7.7212 157.621 7.71583 155.915 7.71043 154.208C7.6888 147.108 7.67006 140.009 7.65881 132.909C7.64257 122.732 7.6094 112.554 7.55241 102.377C7.51371 95.2227 7.49418 88.0686 7.48889 80.9143C7.48523 76.6405 7.4732 72.3671 7.44078 68.0934C7.41071 64.0714 7.40439 60.05 7.41617 56.0279C7.41639 54.5533 7.40808 53.0786 7.39051 51.6041C7.24942 39.0741 7.24942 39.0741 10.4115 35.1384C14.652 31.6353 17.8184 31.8779 23.125 31.9375ZM16 168C16 174.6 16 181.2 16 188C20.1197 192.12 20.7241 192.46 26.1557 192.526C26.9825 192.515 27.8092 192.505 28.661 192.494C29.5444 192.499 30.4277 192.504 31.3378 192.509C34.3037 192.52 37.2688 192.503 40.2346 192.486C42.3584 192.488 44.4822 192.492 46.6059 192.497C52.3786 192.507 58.1509 192.492 63.9235 192.471C69.9572 192.454 75.991 192.457 82.0248 192.458C92.1573 192.456 102.29 192.439 112.422 192.412C124.148 192.38 135.873 192.37 147.598 192.371C158.866 192.372 170.133 192.362 181.4 192.346C186.201 192.338 191.002 192.335 195.803 192.334C201.452 192.332 207.102 192.32 212.751 192.299C214.828 192.294 216.906 192.291 218.983 192.292C221.811 192.293 224.638 192.282 227.466 192.267C228.295 192.271 229.124 192.274 229.978 192.277C233.842 192.244 235.709 192.194 239 190C239 182.74 239 175.48 239 168C165.41 168 91.82 168 16 168Z" fill="#282828"/>
<path d="M53.3503 7.84611C54.0093 7.84172 54.6683 7.83734 55.3473 7.83283C57.5658 7.81942 59.7843 7.81326 62.0029 7.80713C63.5895 7.79923 65.1761 7.79097 66.7627 7.78235C71.9824 7.75612 77.2021 7.74082 82.4219 7.72657C84.2178 7.72121 86.0137 7.71583 87.8096 7.71044C95.2797 7.6888 102.75 7.67007 110.22 7.65881C120.93 7.64257 131.64 7.6094 142.35 7.55241C149.878 7.51372 157.405 7.49418 164.933 7.48889C169.431 7.48524 173.928 7.4732 178.425 7.44079C182.657 7.41073 186.889 7.40439 191.121 7.41617C192.673 7.41639 194.225 7.40808 195.777 7.39052C208.969 7.24942 208.969 7.24942 212.908 10.4115C215.869 14.0755 216.125 15.7642 216.12 20.4036C216.122 22.1242 216.122 22.1242 216.124 23.8796C216.121 25.1441 216.117 26.4086 216.114 27.7114C216.113 29.0516 216.113 30.3918 216.114 31.732C216.114 35.3764 216.108 39.0208 216.101 42.6651C216.095 46.4715 216.095 50.2778 216.093 54.0842C216.09 61.2948 216.082 68.5055 216.072 75.7161C216.061 83.9239 216.055 92.1318 216.05 100.34C216.04 117.226 216.022 134.113 216 151C213.688 152.125 213.688 152.125 211 153C208 151 208 151 207 148C206.912 146.617 206.878 145.229 206.88 143.843C206.878 142.577 206.878 142.577 206.876 141.286C206.879 140.36 206.883 139.434 206.886 138.48C206.886 137.488 206.886 136.497 206.886 135.475C206.887 132.261 206.894 129.046 206.902 125.832C206.904 123.849 206.905 121.867 206.905 119.884C206.911 112.527 206.925 105.17 206.938 97.8125C206.958 81.3744 206.979 64.9363 207 48C154.86 48 102.72 48 49 48C49.0792 80.73 49.0792 80.73 49.1802 113.46C49.1892 119.79 49.1892 119.79 49.1909 122.753C49.194 124.822 49.201 126.892 49.2112 128.962C49.2258 132.097 49.2278 135.231 49.2271 138.366C49.2342 139.289 49.2414 140.211 49.2489 141.161C49.2447 142.429 49.2447 142.429 49.2405 143.723C49.2424 144.456 49.2442 145.19 49.2461 145.946C48.9627 148.312 48.1704 149.941 47 152C45.0005 152.043 42.9996 152.041 41 152C39.2943 150.294 39.8592 148.09 39.8461 145.757C39.8375 144.62 39.8289 143.483 39.82 142.311C39.8158 141.053 39.8115 139.794 39.8071 138.497C39.799 137.18 39.7908 135.863 39.7823 134.506C39.7561 130.125 39.7408 125.744 39.7266 121.363C39.7212 119.856 39.7158 118.349 39.7104 116.842C39.6888 110.572 39.6701 104.302 39.6588 98.0322C39.6426 89.043 39.6094 80.0544 39.5524 71.0654C39.5137 64.7477 39.4942 58.4301 39.4889 52.1123C39.4852 48.3382 39.4732 44.5645 39.4408 40.7905C39.4107 37.2371 39.4044 33.6844 39.4162 30.131C39.4165 28.2093 39.392 26.2877 39.3668 24.3662C39.4349 14.94 39.4349 14.94 42.4115 11.2407C46.308 7.8678 48.2516 7.87008 53.3503 7.84611ZM49 18C49 25.26 49 32.52 49 40C101.14 40 153.28 40 207 40C207 32.74 207 25.48 207 18C203.48 15.653 202.056 15.7489 197.889 15.746C196.61 15.7404 195.331 15.7348 194.014 15.7289C192.594 15.7328 191.174 15.7369 189.754 15.7412C188.261 15.7385 186.768 15.7349 185.275 15.7306C181.217 15.7215 177.159 15.725 173.101 15.7314C168.859 15.7364 164.616 15.7317 160.373 15.7286C153.248 15.7249 146.122 15.7297 138.997 15.7393C130.754 15.7501 122.512 15.7466 114.269 15.7356C107.197 15.7265 100.125 15.7253 93.0533 15.7305C88.8273 15.7336 84.6013 15.734 80.3753 15.7274C76.4026 15.7216 72.4301 15.7256 68.4575 15.7372C66.9977 15.7399 65.538 15.7391 64.0783 15.7347C62.0892 15.7292 60.1001 15.7373 58.1111 15.746C56.9968 15.7468 55.8826 15.7475 54.7346 15.7483C51.7824 15.8012 51.7824 15.8012 49 18Z" fill="#282828"/>
<path d="M109 208C109.495 208.495 109.495 208.495 110 209C109.734 215.652 108.264 217.03 104 223C119.84 223 135.68 223 152 223C150.02 220.03 148.04 217.06 146 214C146 212.35 146 210.7 146 209C149 207 149 207 151.469 207.078C154.789 208.287 155.639 209.782 157.5 212.75C158.103 213.651 158.707 214.552 159.328 215.48C159.88 216.312 160.432 217.143 161 218C163.064 221.15 163.064 221.15 166 223C168.781 223.372 171.535 223.505 174.336 223.648C178.677 224.221 180.179 225.673 183 229C185.108 234.079 185.355 238.592 185 244C183.984 246.238 183.984 246.238 183 248C168.675 248.023 154.35 248.041 140.025 248.052C133.374 248.057 126.723 248.064 120.073 248.075C113.66 248.086 107.247 248.092 100.835 248.095C98.3824 248.097 95.9298 248.1 93.4773 248.106C90.0552 248.113 86.6332 248.114 83.2112 248.114C81.6737 248.119 81.6737 248.119 80.1052 248.124C79.1782 248.123 78.2513 248.122 77.2963 248.12C76.486 248.121 75.6758 248.122 74.841 248.123C73 248 73 248 72 247C71.7916 244.419 71.6754 241.897 71.625 239.313C71.5876 238.604 71.5502 237.896 71.5117 237.166C71.4448 233.14 71.8156 230.719 74.3984 227.543C77.9527 224.069 79.3879 223.968 84.1875 223.875C89.5533 223.419 92.0175 222.089 95.5039 218.051C97.4917 215.326 99.2965 212.537 100.957 209.602C103.173 206.2 105.473 207.096 109 208ZM81 234C81 235.98 81 237.96 81 240C112.35 240 143.7 240 176 240C175.505 237.03 175.505 237.03 175 234C171.172 231.448 168.065 231.719 163.629 231.741C162.775 231.738 161.921 231.734 161.041 231.731C158.215 231.722 155.389 231.728 152.563 231.734C150.601 231.733 148.639 231.731 146.678 231.729C142.566 231.726 138.453 231.73 134.341 231.739C129.065 231.751 123.789 231.744 118.512 231.732C114.461 231.725 110.411 231.727 106.36 231.732C104.414 231.734 102.468 231.732 100.523 231.727C97.8054 231.722 95.0884 231.73 92.3711 231.741C91.16 231.735 91.16 231.735 89.9245 231.729C86.0864 231.758 84.2703 231.82 81 234Z" fill="#282828"/>
<path d="M139 63C140.65 63.66 142.3 64.32 144 65C144.22 70.1813 143.565 74.1738 141.92 79.0811C141.699 79.7503 141.478 80.4195 141.25 81.1089C140.523 83.3001 139.782 85.4859 139.039 87.6719C138.527 89.2014 138.017 90.7312 137.506 92.2613C136.438 95.4575 135.364 98.6512 134.283 101.843C132.899 105.934 131.527 110.03 130.161 114.127C129.108 117.282 128.05 120.435 126.99 123.587C126.483 125.097 125.976 126.608 125.471 128.118C124.765 130.226 124.052 132.331 123.338 134.437C122.934 135.635 122.53 136.833 122.114 138.067C121 141 121 141 119 144C115.875 144.188 115.875 144.188 113 144C111.264 140.812 110.94 139.308 111.644 135.692C112.05 134.418 112.474 133.15 112.913 131.886C113.14 131.19 113.367 130.493 113.602 129.776C114.356 127.479 115.134 125.191 115.914 122.902C116.447 121.305 116.978 119.708 117.508 118.11C118.623 114.763 119.749 111.421 120.883 108.081C122.335 103.804 123.762 99.52 125.18 95.2324C126.274 91.9325 127.38 88.6366 128.49 85.3419C129.021 83.7638 129.548 82.1846 130.071 80.6042C130.806 78.3933 131.556 76.1883 132.311 73.9841C132.524 73.3331 132.737 72.6821 132.957 72.0114C134.31 68.1248 135.867 65.6736 139 63Z" fill="#C83E6F"/>
<path d="M159 79C165.362 80.9794 169.285 84.7553 174.066 89.3047C177.827 92.7596 181.864 95.7801 185.98 98.7969C188 101 188 101 188.723 103.871C187.649 108.521 184.886 110.408 181.25 113.312C180.573 113.871 179.896 114.43 179.198 115.006C177.812 116.142 176.419 117.268 175.019 118.386C173.16 119.872 171.333 121.388 169.508 122.914C168.466 123.758 167.421 124.599 166.375 125.438C165.455 126.179 164.534 126.92 163.586 127.684C161 129 161 129 158.23 128.336C156 127 156 127 154.938 125.188C155.033 121.853 156.825 120.466 159 118C160.773 116.433 162.588 114.913 164.438 113.438C165.364 112.694 166.291 111.95 167.246 111.184C168.155 110.463 169.064 109.742 170 109C171.667 107.667 173.334 106.334 175 105C173.464 101.063 171.029 99.147 167.75 96.5625C166.277 95.383 166.277 95.383 164.773 94.1797C163.18 92.9276 161.583 91.6799 159.977 90.4453C157.838 88.766 156.186 87.3418 154.875 84.9375C155 83 155 83 156.938 80.75C157.618 80.1725 158.299 79.595 159 79Z" fill="#C83E6F"/>
<path d="M99 80C100 81 100 81 100.516 83.6445C99.7366 88.7143 96.6284 90.5941 92.75 93.6875C92.0681 94.2553 91.3862 94.8232 90.6836 95.4082C87.5215 98.0269 84.3177 100.58 81 103C82.5315 106.913 84.9228 108.808 88.1875 111.375C89.1672 112.155 90.1469 112.935 91.1562 113.738C92.0947 114.485 93.0331 115.231 94 116C96.3531 117.978 98.6767 119.986 101 122C100.25 126.75 100.25 126.75 98 129C92.9391 128.928 89.9231 125.722 86.375 122.5C85.1421 121.402 83.9077 120.306 82.6719 119.211C82.0589 118.667 81.446 118.122 80.8145 117.562C79.1307 116.112 77.414 114.751 75.6406 113.414C74.6455 112.659 73.6503 111.903 72.625 111.125C71.2831 110.139 71.2831 110.139 69.9141 109.133C68 107 68 107 67.2812 104.141C68.3557 99.4458 71.2033 97.5458 74.875 94.625C75.5581 94.0621 76.2412 93.4992 76.9451 92.9192C78.3176 91.7915 79.6961 90.671 81.0806 89.5581C82.7534 88.2002 84.3864 86.7934 86.0117 85.3789C86.8535 84.6557 87.6952 83.9326 88.5625 83.1875C89.2857 82.5623 90.0088 81.9371 90.7539 81.293C93.6551 79.6229 95.707 79.6906 99 80Z" fill="#C83E6F"/>
<path d="M145 24C147.284 23.6325 147.284 23.6325 150.168 23.6436C151.785 23.6391 151.785 23.6391 153.434 23.6345C155.186 23.653 155.186 23.653 156.973 23.6719C158.166 23.6737 159.359 23.6756 160.589 23.6776C163.115 23.6843 165.641 23.6982 168.167 23.7188C172.05 23.7499 175.932 23.7597 179.814 23.7656C182.263 23.7748 184.712 23.7852 187.16 23.7969C188.33 23.8011 189.5 23.8054 190.705 23.8098C191.779 23.8194 192.854 23.829 193.961 23.8389C195.388 23.8491 195.388 23.8491 196.843 23.8596C199 24 199 24 200 25C200.125 28 200.125 28 200 31C199 32 199 32 196.83 32.1203C195.873 32.118 194.916 32.1158 193.929 32.1135C192.848 32.1134 191.767 32.1134 190.654 32.1133C188.89 32.1056 188.89 32.1056 187.09 32.0977C185.893 32.0962 184.696 32.0948 183.462 32.0934C179.621 32.0877 175.779 32.0752 171.938 32.0625C169.34 32.0575 166.743 32.0529 164.146 32.0488C157.764 32.0378 151.382 32.021 145 32C143.875 29.6875 143.875 29.6875 143 27C143.66 26.01 144.32 25.02 145 24Z" fill="black"/>
<path d="M127.938 175.813C128.966 175.8 129.994 175.788 131.053 175.775C132.525 175.772 132.525 175.772 134.027 175.77C134.932 175.765 135.837 175.761 136.769 175.757C139 176 139 176 141 178C140.625 181.125 140.625 181.125 140 184C136.188 184.029 132.375 184.047 128.562 184.062C127.474 184.071 126.385 184.079 125.264 184.088C124.229 184.091 123.195 184.094 122.129 184.098C120.691 184.106 120.691 184.106 119.225 184.114C117 184 117 184 116 183C115.875 180 115.875 180 116 177C118.418 174.582 124.688 175.815 127.938 175.813Z" fill="#C83E6F"/>
<path d="M92 23.875C95 24 95 24 96 25C96.125 28 96.125 28 96 31C95 32 95 32 92 32.125C89 32 89 32 88 31C87.875 28 87.875 28 88 25C89 24 89 24 92 23.875Z" fill="black"/>
<path d="M76 23.875C79 24 79 24 80 25C80.125 28 80.125 28 80 31C79 32 79 32 76 32.125C73 32 73 32 72 31C71.875 28 71.875 28 72 25C73 24 73 24 76 23.875Z" fill="black"/>
<path d="M60 23.875C63 24 63 24 64 25C64.125 28 64.125 28 64 31C63 32 63 32 60 32.125C57 32 57 32 56 31C55.875 28 55.875 28 56 25C57 24 57 24 60 23.875Z" fill="black"/>
</svg>
