<svg width="248" height="222" viewBox="0 0 248 222" fill="none" xmlns="http://www.w3.org/2000/svg">
<path d="M24.7409 0.859557C26.0609 0.855101 26.0609 0.855101 27.4075 0.850554C30.356 0.841883 33.3044 0.84036 36.2529 0.838866C38.3671 0.834237 40.4813 0.829212 42.5955 0.823821C48.3394 0.810706 54.0833 0.804254 59.8273 0.799811C63.4166 0.796879 67.0059 0.792774 70.5953 0.788306C81.8277 0.774634 93.0601 0.764966 104.292 0.761105C117.255 0.756624 130.217 0.739074 143.179 0.710104C153.201 0.688483 163.223 0.6784 173.245 0.677063C179.23 0.676016 185.214 0.670116 191.199 0.652244C196.83 0.635755 202.46 0.633612 208.091 0.642383C210.154 0.643153 212.218 0.638816 214.281 0.628925C217.105 0.616187 219.928 0.622092 222.751 0.632507C223.562 0.62445 224.373 0.616394 225.208 0.608093C231.2 0.659556 237.939 1.34326 242.632 5.41653C246.648 10.0642 247.126 13.6671 247.14 19.6224C247.143 20.2986 247.146 20.9748 247.149 21.6715C247.158 23.9422 247.16 26.2129 247.161 28.4836C247.166 30.1098 247.171 31.736 247.176 33.3621C247.189 37.7837 247.196 42.2052 247.2 46.6268C247.203 49.389 247.207 52.1511 247.212 54.9132C247.225 63.5544 247.235 72.1956 247.239 80.8369C247.243 90.8135 247.261 100.79 247.29 110.767C247.312 118.477 247.322 126.187 247.323 133.898C247.324 138.504 247.33 143.109 247.348 147.715C247.364 152.048 247.366 156.381 247.358 160.714C247.357 162.303 247.361 163.892 247.371 165.481C247.384 167.653 247.378 169.824 247.367 171.997C247.369 173.211 247.37 174.426 247.372 175.678C246.822 180.59 245.202 183.861 241.625 187.25C235.653 191.232 230.638 191.288 223.642 191.259C222.601 191.262 221.56 191.266 220.487 191.269C217.05 191.278 213.613 191.272 210.176 191.266C207.789 191.267 205.402 191.269 203.015 191.271C198.016 191.274 193.016 191.27 188.017 191.261C181.598 191.249 175.178 191.256 168.758 191.268C163.832 191.275 158.905 191.273 153.979 191.268C151.611 191.266 149.243 191.268 146.875 191.273C143.573 191.278 140.272 191.27 136.97 191.259C135.984 191.263 134.999 191.267 133.984 191.271C132.64 191.263 132.64 191.263 131.269 191.254C130.098 191.253 130.098 191.253 128.903 191.252C127 191 127 191 125 189C124.688 186.5 124.688 186.5 125 184C128.12 181.92 128.82 181.748 132.365 181.728C133.256 181.719 134.148 181.709 135.067 181.699C136.53 181.698 136.53 181.698 138.023 181.697C139.568 181.684 139.568 181.684 141.143 181.671C144.554 181.646 147.964 181.634 151.375 181.621C153.74 181.605 156.105 181.588 158.47 181.57C164.703 181.524 170.936 181.489 177.169 181.457C187.146 181.406 197.124 181.34 207.101 181.269C210.592 181.246 214.084 181.23 217.576 181.214C219.709 181.201 221.843 181.187 223.977 181.174C224.952 181.171 225.928 181.168 226.933 181.166C227.825 181.159 228.717 181.152 229.635 181.145C230.41 181.141 231.185 181.137 231.984 181.133C234.206 181.072 234.206 181.072 237 180C237.92 176.088 238.13 172.449 238.14 168.434C238.143 167.788 238.146 167.142 238.149 166.477C238.158 164.32 238.16 162.164 238.161 160.008C238.166 158.459 238.171 156.909 238.176 155.36C238.189 151.158 238.196 146.955 238.2 142.753C238.203 140.127 238.207 137.501 238.212 134.876C238.225 126.659 238.235 118.442 238.239 110.225C238.243 100.742 238.261 91.2582 238.29 81.7747C238.312 74.4412 238.322 67.1078 238.323 59.7743C238.324 55.3951 238.33 51.016 238.348 46.6368C238.364 42.5196 238.366 38.4027 238.358 34.2855C238.357 32.775 238.361 31.2645 238.371 29.7541C238.384 27.6911 238.378 25.6289 238.367 23.5659C238.369 22.4119 238.37 21.2578 238.372 20.0688C237.921 16.3484 236.669 13.669 234 11C231.19 10.8954 228.404 10.8567 225.593 10.8596C224.7 10.8566 223.808 10.8536 222.889 10.8506C219.875 10.8418 216.86 10.8404 213.846 10.8389C211.695 10.8342 209.544 10.8292 207.393 10.8238C201.531 10.8107 195.669 10.8042 189.808 10.7998C186.15 10.7969 182.491 10.7928 178.833 10.7883C167.398 10.7746 155.963 10.765 144.529 10.7611C131.308 10.7566 118.088 10.7391 104.868 10.7101C94.6632 10.6885 84.4586 10.6784 74.2539 10.6771C68.1527 10.676 62.0515 10.6701 55.9503 10.6522C50.2121 10.6358 44.4742 10.6336 38.7361 10.6424C36.6269 10.6432 34.5177 10.6388 32.4086 10.6289C29.535 10.6163 26.662 10.622 23.7884 10.6325C22.9486 10.6244 22.1088 10.6164 21.2436 10.6081C18.0388 10.6355 15.4325 10.8089 12.4821 12.1126C10.2829 14.9132 10.4994 17.032 10.4988 20.5667C10.4933 21.2368 10.4877 21.9069 10.482 22.5974C10.4684 24.8479 10.4834 27.0972 10.4983 29.3477C10.4945 30.959 10.489 32.5703 10.4819 34.1816C10.4679 38.5618 10.4792 42.9416 10.4956 47.3218C10.5095 51.9008 10.503 56.4798 10.4995 61.0588C10.4968 68.7493 10.5103 76.4395 10.5335 84.1299C10.5601 93.0271 10.5618 101.924 10.5501 110.821C10.5393 119.372 10.5455 127.923 10.5596 136.474C10.5654 140.117 10.5653 143.76 10.5606 147.402C10.5558 151.69 10.5659 155.978 10.5875 160.266C10.5931 161.842 10.5935 163.417 10.5886 164.993C10.5826 167.14 10.5951 169.286 10.6123 171.433C10.6148 172.636 10.6172 173.839 10.6197 175.078C10.7611 177.988 10.7611 177.988 12.373 179.885C14.6881 181.471 16.4653 181.401 19.2539 181.441C20.7824 181.481 20.7824 181.481 22.3418 181.521C23.4046 181.535 24.4675 181.549 25.5625 181.562C27.6681 181.597 29.7736 181.639 31.8789 181.691C32.8129 181.704 33.7469 181.716 34.7092 181.729C37 182 37 182 39 184C39.25 186.5 39.25 186.5 39 189C36.0496 191.95 33.4316 191.292 29.3945 191.322C28.3981 191.319 27.4016 191.316 26.375 191.312C25.4018 191.329 24.4285 191.345 23.4258 191.361C17.2403 191.365 12.6086 190.658 7 188C2.00106 183.001 0.75204 178.162 0.732578 171.226C0.728047 170.558 0.723516 169.89 0.718847 169.201C0.70622 166.969 0.707823 164.737 0.709477 162.505C0.70349 160.901 0.696685 159.298 0.689121 157.694C0.671464 153.343 0.666766 148.991 0.665489 144.64C0.664067 141.92 0.659796 139.2 0.654495 136.479C0.635995 126.984 0.627825 117.489 0.629399 107.994C0.6306 99.1512 0.609503 90.3088 0.577912 81.4662C0.551735 73.8677 0.541031 66.2693 0.542309 58.6708C0.542818 54.1355 0.537156 49.6004 0.515953 45.0651C0.496547 40.7977 0.496462 36.5307 0.510987 32.2632C0.513073 30.7008 0.508384 29.1383 0.496266 27.5759C0.388877 12.7663 0.388877 12.7663 5 6C11.202 0.853652 16.9624 0.851335 24.7409 0.859557Z" fill="#C83E6F"/>
<path d="M30.3824 55.7289C31.2791 55.733 32.1757 55.737 33.0996 55.7412C34.5144 55.736 34.5144 55.736 35.9577 55.7306C39.0865 55.7218 42.215 55.7276 45.3438 55.7344C47.5109 55.733 49.678 55.7311 51.8451 55.7286C56.3914 55.7256 60.9376 55.7299 65.4839 55.7393C71.3219 55.7507 77.1597 55.7441 82.9977 55.7321C87.474 55.7249 91.9502 55.7272 96.4265 55.7324C98.5795 55.7337 100.733 55.7321 102.886 55.7274C105.891 55.7224 108.895 55.73 111.9 55.7412C112.797 55.7372 113.694 55.7331 114.618 55.7289C120.771 55.7715 120.771 55.7715 123 58C123.254 60.5361 123.254 60.5361 123.259 63.7791C123.265 64.9905 123.271 66.2019 123.278 67.4501C123.274 68.7646 123.27 70.0792 123.266 71.4336C123.267 72.7912 123.269 74.1488 123.271 75.5064C123.274 78.3537 123.27 81.2008 123.261 84.0481C123.249 87.6978 123.256 91.3473 123.268 94.997C123.275 97.8014 123.273 100.606 123.268 103.41C123.266 105.41 123.272 107.411 123.278 109.411C123.268 111.233 123.268 111.233 123.259 113.092C123.257 114.163 123.256 115.233 123.254 116.337C123 119 123 119 121 122C117.901 122.297 115.002 122.399 111.9 122.372C110.957 122.376 110.014 122.38 109.042 122.383C105.913 122.392 102.785 122.378 99.6562 122.363C97.4891 122.363 95.322 122.363 93.1549 122.365C88.6086 122.365 84.0624 122.354 79.5161 122.336C73.6781 122.313 67.8404 122.313 62.0023 122.32C57.526 122.323 53.0498 122.316 48.5735 122.307C46.4205 122.303 44.2674 122.302 42.1143 122.303C39.1093 122.304 36.1046 122.291 33.0996 122.275C31.7546 122.278 31.7546 122.278 30.3824 122.282C24.2287 122.229 24.2287 122.229 22 120C21.746 117.419 21.746 117.419 21.7412 114.113C21.7349 112.879 21.7286 111.644 21.7221 110.372C21.7257 109.019 21.7298 107.666 21.7344 106.313C21.733 104.93 21.7311 103.548 21.7286 102.165C21.7256 99.2667 21.7299 96.3683 21.7393 93.4697C21.7507 89.7504 21.7441 86.0314 21.7321 82.312C21.7249 79.4571 21.7272 76.6021 21.7324 73.7472C21.7337 72.3756 21.7321 71.004 21.7274 69.6325C21.7223 67.7172 21.7314 65.802 21.7412 63.8867C21.7428 62.7958 21.7444 61.7048 21.746 60.5808C22.2828 55.1257 25.7197 55.7612 30.3824 55.7289ZM30 64C30 80.5 30 97 30 114C57.72 114 85.44 114 114 114C114 97.5 114 81 114 64C86.28 64 58.56 64 30 64Z" fill="#C83E6F"/>
<path d="M29.875 133.625C30.9752 133.569 30.9752 133.569 32.0977 133.512C34.2422 133.477 34.2422 133.477 38 134C40.5984 137.476 41.8783 141.204 43.1875 145.312C43.5317 146.381 43.8759 147.45 44.2305 148.551C44.4844 149.359 44.7384 150.167 45 151C46.5343 151.012 46.5343 151.012 48.0996 151.025C57.7234 151.102 67.3471 151.19 76.9708 151.288C81.9188 151.338 86.8668 151.384 91.8149 151.422C96.5872 151.459 101.359 151.505 106.131 151.558C107.955 151.577 109.779 151.592 111.602 151.603C114.15 151.62 116.698 151.649 119.246 151.681C120.005 151.683 120.765 151.685 121.547 151.688C126.772 151.772 126.772 151.772 129 154C128.67 155.98 128.34 157.96 128 160C101.6 160 75.2 160 48 160C48.99 163.3 49.98 166.6 51 170C51.8725 169.993 52.745 169.987 53.644 169.98C61.855 169.92 70.0658 169.874 78.277 169.845C82.4987 169.829 86.7203 169.808 90.9419 169.774C95.0138 169.741 99.0855 169.723 103.158 169.715C104.713 169.71 106.269 169.699 107.825 169.683C109.999 169.661 112.173 169.658 114.347 169.659C115.586 169.653 116.825 169.646 118.102 169.639C119.058 169.758 120.015 169.877 121 170C123 173 123 173 122.625 175.687C122.419 176.451 122.213 177.214 122 178C118.721 179.093 116.237 179.158 112.784 179.205C110.863 179.235 110.863 179.235 108.902 179.266C107.504 179.283 106.105 179.3 104.707 179.316C103.276 179.337 101.846 179.358 100.415 179.379C96.6522 179.435 92.8891 179.484 89.126 179.532C85.2851 179.582 81.4443 179.638 77.6035 179.693C70.0691 179.801 62.5346 179.902 55 180C55.66 182.64 56.32 185.28 57 188C58.0645 187.993 58.0645 187.993 59.1505 187.987C65.831 187.947 72.5114 187.916 79.192 187.896C82.6268 187.886 86.0614 187.872 89.4961 187.849C93.4427 187.823 97.3893 187.814 101.336 187.805C102.572 187.794 103.809 187.784 105.083 187.773C106.224 187.773 107.365 187.773 108.541 187.773C109.549 187.769 110.557 187.764 111.596 187.759C114 188 114 188 116 190C116.188 192.562 116.188 192.562 116 195C115 196 115 196 112.45 196.12C110.748 196.117 110.748 196.117 109.011 196.114C107.73 196.113 106.449 196.113 105.129 196.113C103.72 196.108 102.311 196.103 100.902 196.098C99.4689 196.096 98.0354 196.094 96.6019 196.093C92.8224 196.09 89.0429 196.08 85.2634 196.069C81.4093 196.058 77.5552 196.054 73.7012 196.049C66.1341 196.038 58.5671 196.021 51 196C47.959 188.877 45.1001 181.756 42.668 174.402C42.3865 173.561 42.105 172.719 41.815 171.852C41.2307 170.101 40.6485 168.349 40.0686 166.597C39.1782 163.909 38.278 161.225 37.377 158.541C36.8067 156.828 36.237 155.115 35.668 153.402C35.3993 152.602 35.1306 151.802 34.8538 150.978C33.8337 147.878 33 145.286 33 142C32.3013 142.023 31.6027 142.046 30.8828 142.07C29.9727 142.088 29.0627 142.106 28.125 142.125C27.2201 142.148 26.3152 142.171 25.3828 142.195C23 142 23 142 21 140C20.8125 137.437 20.8125 137.437 21 135C23.0573 132.943 27.0628 133.679 29.875 133.625Z" fill="black"/>
<path d="M28.2371 29.4988C29.0869 29.4933 29.9367 29.4877 30.8123 29.482C33.6707 29.4684 36.5283 29.4834 39.3867 29.4983C41.4315 29.4945 43.4763 29.489 45.5211 29.4819C51.0831 29.4679 56.6447 29.4792 62.2066 29.4956C68.0189 29.5094 73.8311 29.503 79.6433 29.4995C89.4052 29.4968 99.1669 29.5103 108.929 29.5334C120.225 29.5601 131.522 29.5618 142.818 29.5501C153.672 29.5393 164.525 29.5455 175.378 29.5596C180.003 29.5654 184.629 29.5653 189.254 29.5605C194.697 29.5558 200.141 29.5658 205.584 29.5875C207.586 29.5931 209.587 29.5935 211.589 29.5885C214.314 29.5826 217.038 29.595 219.763 29.6123C220.561 29.6063 221.36 29.6003 222.183 29.5941C227.487 29.6555 227.487 29.6555 230.027 31.3602C231 33 231 33 230.812 35.625C230 38 230 38 228 39C225.284 39.098 222.593 39.1345 219.876 39.127C219.027 39.1285 218.177 39.1301 217.302 39.1317C214.438 39.1357 211.575 39.1325 208.711 39.1294C206.665 39.1307 204.618 39.1325 202.572 39.1347C197.002 39.1393 191.432 39.1375 185.862 39.1343C180.044 39.1318 174.226 39.1341 168.408 39.1357C158.636 39.1375 148.864 39.1351 139.092 39.1304C127.78 39.1249 116.468 39.1267 105.156 39.1322C95.4593 39.1367 85.7625 39.1374 76.0657 39.1348C70.2675 39.1332 64.4693 39.133 58.6711 39.1363C53.2211 39.1392 47.7711 39.1372 42.3211 39.1314C40.3159 39.1301 38.3108 39.1305 36.3056 39.1327C33.5782 39.1354 30.8509 39.132 28.1235 39.127C26.9203 39.1303 26.9203 39.1303 25.6928 39.1337C20.2283 39.1141 20.2283 39.1141 18 38C17.1875 36.1875 17.1875 36.1875 17 34C19.3477 28.9224 23.271 29.4391 28.2371 29.4988Z" fill="#C83E6F"/>
<path d="M183.785 111.741C185.277 111.732 185.277 111.732 186.799 111.722C187.876 111.726 188.953 111.73 190.062 111.734C191.165 111.732 192.267 111.731 193.403 111.729C195.736 111.727 198.07 111.731 200.403 111.739C203.985 111.75 207.567 111.739 211.148 111.727C213.411 111.728 215.674 111.73 217.938 111.734C219.553 111.728 219.553 111.728 221.201 111.722C222.196 111.728 223.19 111.735 224.215 111.741C225.093 111.743 225.97 111.744 226.875 111.746C229 112 229 112 231 114C231.259 115.939 231.259 115.939 231.266 118.281C231.269 119.544 231.269 119.544 231.273 120.832C231.266 121.712 231.258 122.593 231.25 123.5C231.262 124.821 231.262 124.821 231.273 126.168C231.271 127.01 231.268 127.851 231.266 128.719C231.263 129.492 231.261 130.264 231.259 131.061C231 133 231 133 229 135C226.875 135.254 226.875 135.254 224.215 135.259C223.22 135.265 222.226 135.271 221.201 135.278C220.124 135.274 219.047 135.27 217.938 135.266C216.835 135.268 215.733 135.269 214.597 135.271C212.264 135.273 209.93 135.269 207.597 135.261C204.015 135.25 200.433 135.261 196.852 135.273C194.589 135.272 192.326 135.27 190.062 135.266C188.985 135.27 187.908 135.274 186.799 135.278C185.804 135.272 184.81 135.265 183.785 135.259C182.907 135.257 182.03 135.256 181.125 135.254C179 135 179 135 177 133C176.741 131.061 176.741 131.061 176.734 128.719C176.732 127.877 176.729 127.035 176.727 126.168C176.738 124.847 176.738 124.847 176.75 123.5C176.742 122.62 176.735 121.739 176.727 120.832C176.729 119.99 176.732 119.149 176.734 118.281C176.737 117.508 176.739 116.736 176.741 115.939C177.319 111.611 180.113 111.748 183.785 111.741ZM185 121C185 122.98 185 124.96 185 127C197.21 127 209.42 127 222 127C222 125.02 222 123.04 222 121C209.79 121 197.58 121 185 121Z" fill="black"/>
<path d="M102 201C105.152 203.644 105.759 206.919 106.129 210.969C105.904 214.508 104.32 216.436 102 219C98.9225 220.913 97.1419 221.003 93.5 220.938C89.2489 219.799 87.6405 218.495 85 215C83.6664 211.166 83.9327 209.248 85 205.313C87 202 87 202 90.1875 199.938C94.7665 198.812 97.7292 199.062 102 201ZM94 208C94 209.32 94 210.64 94 212C94.99 211.67 95.98 211.34 97 211C96.67 210.01 96.34 209.02 96 208C95.34 208 94.68 208 94 208Z" fill="black"/>
<path d="M76.8125 201.937C79.804 204.758 79.9559 205.559 80.375 209.75C80.3115 213.237 79.8675 214.228 78 217.437C74.7594 220.206 73.0751 220.953 68.9258 221.172C65.0663 220.827 62.9193 218.856 60.1875 216.312C58.428 212.886 58.2309 209.71 59 206C60.669 202.92 62.729 200.615 65.9375 199.062C70.3053 198.93 73.1721 199.43 76.8125 201.937ZM68 208C68 209.32 68 210.64 68 212C68.99 212 69.98 212 71 212C71 210.68 71 209.36 71 208C70.01 208 69.02 208 68 208Z" fill="black"/>
<path d="M172.996 55.832C174.352 55.827 174.352 55.827 175.735 55.8219C177.651 55.8169 179.567 55.8145 181.483 55.8147C184.422 55.8125 187.36 55.7944 190.299 55.7754C192.156 55.7725 194.014 55.7705 195.871 55.7695C196.754 55.7623 197.638 55.7552 198.548 55.7478C204.771 55.7712 204.771 55.7712 207 58C207.188 60.5625 207.188 60.5625 207 63C204.835 65.1649 199.794 64.1643 196.785 64.168C195.859 64.1713 194.933 64.1746 193.979 64.1781C192.016 64.1831 190.053 64.1855 188.09 64.1853C185.079 64.1875 182.068 64.2056 179.057 64.2246C177.154 64.2275 175.251 64.2295 173.348 64.2305C171.99 64.2412 171.99 64.2412 170.605 64.2522C169.767 64.2492 168.93 64.2461 168.067 64.2429C166.959 64.2451 166.959 64.2451 165.828 64.2472C164 64 164 64 162 62C162.911 54.5329 166.365 55.8404 172.996 55.832Z" fill="#C83E6F"/>
<path d="M148.246 83.7969C149.336 83.7883 149.336 83.7883 150.447 83.7796C151.986 83.7701 153.525 83.7636 155.065 83.7598C157.424 83.7501 159.783 83.719 162.143 83.6875C163.635 83.681 165.128 83.6757 166.621 83.6719C167.329 83.6595 168.038 83.6472 168.768 83.6345C170.76 83.6436 170.76 83.6436 174 84C176 87 176 87 175.688 89.125C175 91 175 91 174 92C171.575 92.1132 169.18 92.1642 166.754 92.168C166.028 92.1713 165.301 92.1746 164.553 92.1781C163.014 92.1831 161.475 92.1855 159.935 92.1853C157.576 92.1875 155.217 92.2056 152.857 92.2246C151.365 92.2275 149.872 92.2295 148.379 92.2305C147.316 92.2412 147.316 92.2412 146.232 92.2522C141.229 92.2288 141.229 92.2288 139 90C139.824 83.2398 142.098 83.8337 148.246 83.7969Z" fill="#C83E6F"/>
<path d="M208.812 83.7344C209.97 83.7318 211.128 83.7292 212.32 83.7266C213.535 83.7343 214.749 83.742 216 83.75C217.214 83.7423 218.429 83.7345 219.68 83.7266C221.416 83.7304 221.416 83.7304 223.188 83.7344C224.254 83.7366 225.32 83.7389 226.418 83.7412C229 84 229 84 231 86C230.67 87.98 230.34 89.96 230 92C220.76 92 211.52 92 202 92C201.67 90.02 201.34 88.04 201 86C203.685 83.3151 205.065 83.7423 208.812 83.7344Z" fill="#C83E6F"/>
<path d="M219.41 55.7266C220.445 55.7382 220.445 55.7382 221.5 55.75C222.19 55.7423 222.879 55.7345 223.59 55.7266C228.747 55.7467 228.747 55.7467 231 58C230.444 62.5556 230.444 62.5556 229 64C226.323 64.0998 223.677 64.1388 221 64.125C219.875 64.1308 219.875 64.1308 218.727 64.1367C213.127 64.1266 213.127 64.1266 212 63C211.812 60.5625 211.812 60.5625 212 58C214.492 55.5079 216.004 55.7398 219.41 55.7266Z" fill="black"/>
<path d="M144.379 55.9023C145.773 55.909 147.168 55.921 148.562 55.9375C149.273 55.942 149.984 55.9465 150.717 55.9512C152.478 55.963 154.239 55.9809 156 56C157.125 58.3125 157.125 58.3125 158 61C157.01 62.485 157.01 62.485 156 64C153.406 64.2767 151.087 64.373 148.5 64.3125C147.81 64.3157 147.121 64.3189 146.41 64.3223C141.267 64.2671 141.267 64.2671 139 62C139.727 56.0368 139.727 56.0368 144.379 55.9023Z" fill="#C83E6F"/>
<path d="M185.531 83.7344C186.511 83.7395 187.491 83.7447 188.5 83.75C189.48 83.7448 190.459 83.7397 191.469 83.7344C194 84 194 84 196 86C196.188 88.5625 196.188 88.5625 196 91C195 92 195 92 192.094 92.1328C190.908 92.1302 189.722 92.1277 188.5 92.125C187.314 92.1276 186.128 92.1302 184.906 92.1328C182 92 182 92 181 91C180.812 88.5625 180.812 88.5625 181 86C183 84 183 84 185.531 83.7344Z" fill="black"/>
<path d="M25.9375 15.8125C29 16 29 16 31 18C31.25 20.5 31.25 20.5 31 23C29 25 29 25 26 25.25C23 25 23 25 21 23C21.7059 16.0826 21.7059 16.0826 25.9375 15.8125Z" fill="black"/>
<path d="M60.9375 15.8125C64 16 64 16 66 18C66.25 20.5 66.25 20.5 66 23C64 25 64 25 61 25.3125C60.01 25.2094 59.02 25.1063 58 25C56 22 56 22 56.3125 19.375C57.3002 15.963 57.2815 16.0459 60.9375 15.8125Z" fill="black"/>
<path d="M44 15.6875C44.99 15.7906 45.98 15.8937 47 16C49 19 49 19 48.6875 21.625C48 24 48 24 47 25C44.0625 25.1875 44.0625 25.1875 41 25C39 23 39 23 38.75 20.5C39.1332 16.6677 40.2491 16.0782 44 15.6875Z" fill="black"/>
</svg>
