<svg width="242" height="242" viewBox="0 0 242 242" fill="none" xmlns="http://www.w3.org/2000/svg">
<path d="M169.438 16.875C181.898 27.6446 190.12 40.2685 195 56C195.955 56.0258 196.91 56.0516 197.895 56.0781C211.752 56.686 222.125 59.7506 231.973 70.0664C240.553 80.2495 242.119 91.0179 241.223 103.929C240.063 114.695 233.835 123 225.75 129.812C215.371 137.175 205.077 137.531 192.812 137.25C191.273 137.23 189.733 137.212 188.193 137.195C184.462 137.152 180.731 137.083 177 137C177.087 138.736 177.087 138.736 177.176 140.508C177.223 142.047 177.268 143.586 177.312 145.125C177.375 146.266 177.375 146.266 177.439 147.43C177.525 151.401 177.305 154.223 174.918 157.492C172 160 172 160 165 161C165 166.28 165 171.56 165 177C179.52 177 194.04 177 209 177C209.99 174.03 209.99 174.03 211 171C213.851 167.738 217.239 165.161 221.609 164.762C232.273 164.51 232.273 164.51 237 169C240.628 172.819 241.31 175.883 241.5 181C241.252 187.691 239.314 190.801 234.5 195.375C229.335 197.773 224.6 197.754 219 197C214.072 194.712 211.655 191.697 209 187C209 186.34 209 185.68 209 185C208.363 185.002 207.727 185.004 207.071 185.007C200.469 185.029 193.867 185.044 187.265 185.055C184.799 185.06 182.332 185.067 179.865 185.075C176.328 185.088 172.791 185.093 169.254 185.098C168.144 185.103 167.033 185.108 165.889 185.113C164.358 185.113 164.358 185.113 162.795 185.114C161.439 185.117 161.439 185.117 160.056 185.12C158 185 158 185 157 184C156.913 182.292 156.893 180.581 156.902 178.871C156.906 177.837 156.909 176.802 156.912 175.736C156.92 174.648 156.929 173.559 156.938 172.438C156.942 171.345 156.947 170.253 156.951 169.127C156.963 166.418 156.979 163.709 157 161C154.36 161 151.72 161 149 161C149 171.56 149 182.12 149 193C151.515 192.988 154.03 192.977 156.621 192.965C159.047 192.957 161.473 192.951 163.899 192.945C165.589 192.94 167.28 192.933 168.971 192.925C171.396 192.912 173.821 192.907 176.246 192.902C177.387 192.895 177.387 192.895 178.55 192.887C180.367 192.887 182.184 192.938 184 193C185 194 185 194 185.098 197.379C185.091 198.773 185.079 200.168 185.062 201.562C185.058 202.273 185.053 202.984 185.049 203.717C185.037 205.478 185.019 207.239 185 209C185.932 209.268 186.864 209.536 187.824 209.812C192.497 211.56 194.758 214.515 197 219C197.505 224.53 197.738 229.41 195.375 234.5C190.801 239.314 187.691 241.252 181 241.5C174.309 241.252 171.199 239.314 166.625 234.5C164.227 229.335 164.246 224.6 165 219C167.288 214.072 170.303 211.655 175 209C175.66 209 176.32 209 177 209C177 206.36 177 203.72 177 201C175.945 201.005 174.89 201.01 173.803 201.016C169.902 201.034 166.002 201.045 162.101 201.055C160.411 201.06 158.72 201.067 157.029 201.075C154.604 201.088 152.179 201.093 149.754 201.098C148.613 201.105 148.613 201.105 147.45 201.113C145.633 201.113 143.816 201.062 142 201C141 200 141 200 140.886 196.306C140.887 194.661 140.892 193.016 140.902 191.371C140.904 190.075 140.904 190.075 140.907 188.752C140.912 185.981 140.925 183.209 140.938 180.438C140.943 178.563 140.947 176.689 140.951 174.814C140.962 170.21 140.979 165.605 141 161C135.72 161 130.44 161 125 161C125 174.2 125 187.4 125 201C126.98 201.66 128.96 202.32 131 203C134.262 205.851 136.839 209.239 137.238 213.609C137.49 224.273 137.49 224.273 133 229C129.181 232.628 126.117 233.31 121 233.5C114.309 233.252 111.199 231.314 106.625 226.5C104.227 221.335 104.246 216.6 105 211C107.288 206.072 110.303 203.655 115 201C115.66 201 116.32 201 117 201C117 187.8 117 174.6 117 161C111.72 161 106.44 161 101 161C101.005 162.176 101.01 163.352 101.016 164.564C101.034 168.912 101.045 173.26 101.055 177.608C101.06 179.492 101.067 181.377 101.075 183.262C101.088 185.965 101.093 188.668 101.098 191.371C101.103 192.219 101.108 193.067 101.113 193.941C101.113 195.961 101.062 197.981 101 200C100 201 100 201 96.6736 201.114C95.1977 201.113 93.7219 201.108 92.2461 201.098C91.4706 201.096 90.6952 201.095 89.8963 201.093C87.41 201.088 84.9238 201.075 82.4375 201.062C80.7559 201.057 79.0742 201.053 77.3926 201.049C73.2617 201.038 69.1309 201.021 65 201C65 203.64 65 206.28 65 209C65.8869 209.206 66.7738 209.412 67.6875 209.625C72.3081 211.543 74.7392 214.478 77 219C77.505 224.53 77.7381 229.41 75.375 234.5C70.8013 239.314 67.6913 241.252 61 241.5C54.3087 241.252 51.1987 239.314 46.625 234.5C44.227 229.335 44.2462 224.6 45 219C47.2878 214.072 50.3031 211.655 55 209C55.66 209 56.32 209 57 209C56.9884 207.929 56.9768 206.858 56.9648 205.754C56.9555 204.357 56.9464 202.96 56.9375 201.562C56.9291 200.855 56.9207 200.148 56.9121 199.42C56.9035 197.613 56.9478 195.806 57 194C58 193 58 193 61.3264 192.886C62.8023 192.887 64.2781 192.892 65.7539 192.902C66.5294 192.904 67.3048 192.905 68.1037 192.907C70.59 192.912 73.0762 192.925 75.5625 192.938C77.2441 192.943 78.9258 192.947 80.6074 192.951C84.7383 192.961 88.8691 192.981 93 193C93 182.44 93 171.88 93 161C90.36 161 87.72 161 85 161C85.0052 161.692 85.0105 162.383 85.0159 163.095C85.0366 166.209 85.0496 169.323 85.0625 172.438C85.0709 173.526 85.0793 174.615 85.0879 175.736C85.0911 176.771 85.0943 177.805 85.0977 178.871C85.1029 179.829 85.1081 180.788 85.1135 181.775C85 184 85 184 84 185C82.4039 185.093 80.8037 185.117 79.2048 185.114C78.1839 185.113 77.1629 185.113 76.1109 185.113C75.0005 185.108 73.8901 185.103 72.7461 185.098C71.6155 185.096 70.4849 185.095 69.3201 185.093C65.6925 185.088 62.065 185.075 58.4375 185.062C55.985 185.057 53.5326 185.053 51.0801 185.049C45.0534 185.038 39.0267 185.021 33 185C32.6996 185.956 32.3993 186.912 32.0898 187.897C30.4538 192.555 27.4271 194.786 23 197C17.4696 197.505 12.5897 197.738 7.5 195.375C2.68562 190.801 0.748438 187.691 0.5 181C0.748438 174.309 2.68562 171.199 7.5 166.625C12.665 164.227 17.4002 164.246 23 165C27.9275 167.288 30.3452 170.303 33 175C33 175.66 33 176.32 33 177C47.52 177 62.04 177 77 177C77 171.72 77 166.44 77 161C74.69 160.67 72.38 160.34 70 160C66.9868 157.41 65.3373 155.825 64.6147 151.915C64.5087 149.629 64.5617 147.409 64.6875 145.125C64.7101 144.341 64.7326 143.558 64.7559 142.75C64.8143 140.832 64.904 138.916 65 137C64.2752 137.021 63.5504 137.042 62.8037 137.063C59.4526 137.148 56.1018 137.199 52.75 137.25C51.6105 137.284 50.4709 137.317 49.2969 137.352C34.6895 137.518 23.8655 132.536 13.25 122.688C3.25709 112.129 0.485602 100.582 0.580322 86.4697C0.991103 72.3473 6.83712 61.2713 17.0625 51.5938C28.5076 42.1792 39.6051 40.4818 54 41C54.3809 39.9288 54.3809 39.9288 54.7695 38.8359C61.7583 22.7285 77.5 11.5646 93.2734 4.99609C118.836 -4.34258 147.879 0.389353 169.438 16.875ZM70.4883 31.707C66.7997 36.0662 64.0294 39.7607 62.0625 45.125C60.9492 47.332 60.9492 47.332 59 49C54.4672 49.7366 50.108 49.8184 45.5273 49.8555C35.7185 49.9914 27.9854 54.3316 21 61C12.6577 69.7388 9.36007 79.0625 9.5293 91.0806C10.046 102.61 14.832 111.112 23.0664 118.973C35.4681 129.422 49.7007 129.167 65 129C66.1064 126.609 66.1064 126.609 67 124C66.67 123.34 66.34 122.68 66 122C65.903 120.088 65.8692 118.172 65.8672 116.258C65.8659 115.109 65.8646 113.961 65.8633 112.777C65.8671 111.572 65.871 110.367 65.875 109.125C65.8692 107.329 65.8692 107.329 65.8633 105.496C65.8646 104.345 65.8659 103.194 65.8672 102.008C65.8683 100.952 65.8694 99.8967 65.8706 98.8091C66 96 66 96 66.5708 93.7495C67.2231 91.9066 67.2231 91.9066 66 90C65.7021 85.7352 65.7219 81.4615 65.6875 77.1875C65.6585 75.9983 65.6295 74.8092 65.5996 73.584C65.5912 72.4361 65.5829 71.2882 65.5742 70.1055C65.5596 69.0551 65.5451 68.0048 65.53 66.9226C66.116 63.2783 67.4673 61.6323 70 59C73.4295 57.2853 77.3689 57.8343 81.1438 57.823C82.566 57.8131 82.566 57.8131 84.0169 57.8031C87.1636 57.7833 90.3103 57.7717 93.457 57.7617C95.0667 57.7556 95.0667 57.7556 96.7089 57.7494C102.388 57.7285 108.067 57.7142 113.746 57.7048C119.618 57.6938 125.489 57.6594 131.36 57.6197C135.87 57.5935 140.38 57.5851 144.89 57.5816C147.054 57.5767 149.219 57.565 151.383 57.5465C154.412 57.5222 157.439 57.5231 160.468 57.53C161.363 57.5172 162.259 57.5044 163.181 57.4912C167.323 57.5259 169.45 57.6544 173.033 59.9044C176.176 63.2535 176.128 65.2358 176.133 69.7422C176.134 70.8907 176.135 72.0393 176.137 73.2227C176.133 74.4279 176.129 75.6332 176.125 76.875C176.129 78.0725 176.133 79.2701 176.137 80.5039C176.135 82.2306 176.135 82.2306 176.133 83.9922C176.132 85.0478 176.131 86.1033 176.129 87.1909C176 90 176 90 175.429 92.2505C174.777 94.0934 174.777 94.0934 176 96C176.097 97.9121 176.131 99.8276 176.133 101.742C176.134 102.891 176.135 104.039 176.137 105.223C176.133 106.428 176.129 107.633 176.125 108.875C176.129 110.073 176.133 111.27 176.137 112.504C176.135 114.231 176.135 114.231 176.133 115.992C176.132 117.048 176.131 118.103 176.129 119.191C176 122 176 122 175.367 124.188C175.246 124.786 175.125 125.384 175 126C175.99 127.485 175.99 127.485 177 129C179.336 129.45 179.336 129.45 182.059 129.363C183.085 129.363 184.112 129.362 185.17 129.361C186.248 129.345 187.327 129.329 188.438 129.312C189.481 129.316 190.524 129.319 191.6 129.322C202.895 129.245 212.947 128.233 222 121C229.04 113.827 232.092 107.104 232.438 97.125C232.201 87.8937 229.623 80.5289 223.141 73.8281C213.991 66.0146 205.442 65.3794 193.93 65.8867C190 66 190 66 188 65C187.347 63.0849 186.778 61.1407 186.25 59.1875C180.637 40.4718 169.904 27.0984 153.062 17.2891C125.501 2.575 91.641 8.90945 70.4883 31.707ZM74.5039 66.798C72.2818 70.0516 72.4174 73.2014 72.5 77C72.4845 77.7116 72.4691 78.4231 72.4531 79.1562C72.4769 82.3473 72.686 84.5402 74.5039 87.202C78.0282 89.7406 81.2856 89.5598 85.4688 89.5176C86.3212 89.5246 87.1737 89.5316 88.052 89.5388C90.8683 89.5564 93.6837 89.5448 96.5 89.5312C98.4577 89.5339 100.415 89.5378 102.373 89.5428C106.475 89.5487 110.577 89.5402 114.68 89.5215C119.939 89.4987 125.198 89.5118 130.457 89.5358C134.5 89.5502 138.542 89.5456 142.584 89.5353C144.524 89.5326 146.463 89.5359 148.402 89.5452C151.112 89.5553 153.821 89.5399 156.531 89.5176C157.333 89.5257 158.136 89.5338 158.962 89.5421C162.488 89.4884 164.598 89.2894 167.496 87.202C169.718 83.9484 169.583 80.7986 169.5 77C169.515 76.2884 169.531 75.5769 169.547 74.8438C169.523 71.6527 169.314 69.4598 167.496 66.798C163.972 64.2594 160.714 64.4402 156.531 64.4824C155.679 64.4754 154.826 64.4684 153.948 64.4612C151.132 64.4436 148.316 64.4552 145.5 64.4688C143.542 64.4661 141.585 64.4622 139.627 64.4572C135.525 64.4513 131.423 64.4598 127.32 64.4785C122.061 64.5013 116.802 64.4882 111.543 64.4642C107.5 64.4498 103.458 64.4544 99.4158 64.4647C97.4765 64.4674 95.5372 64.4641 93.5979 64.4548C90.8877 64.4447 88.1788 64.4601 85.4688 64.4824C84.6666 64.4743 83.8644 64.4662 83.0378 64.4579C79.5119 64.5116 77.4017 64.7106 74.5039 66.798ZM74.5039 98.798C72.2818 102.052 72.4174 105.201 72.5 109C72.4845 109.712 72.4691 110.423 72.4531 111.156C72.4769 114.347 72.686 116.54 74.5039 119.202C78.0282 121.741 81.2856 121.56 85.4688 121.518C86.3212 121.525 87.1737 121.532 88.052 121.539C90.8683 121.556 93.6837 121.545 96.5 121.531C98.4577 121.534 100.415 121.538 102.373 121.543C106.475 121.549 110.577 121.54 114.68 121.521C119.939 121.499 125.198 121.512 130.457 121.536C134.5 121.55 138.542 121.546 142.584 121.535C144.524 121.533 146.463 121.536 148.402 121.545C151.112 121.555 153.821 121.54 156.531 121.518C157.333 121.526 158.136 121.534 158.962 121.542C162.488 121.488 164.598 121.289 167.496 119.202C169.718 115.948 169.583 112.799 169.5 109C169.515 108.288 169.531 107.577 169.547 106.844C169.523 103.653 169.314 101.46 167.496 98.798C163.972 96.2594 160.714 96.4402 156.531 96.4824C155.679 96.4754 154.826 96.4684 153.948 96.4612C151.132 96.4436 148.316 96.4552 145.5 96.4688C143.542 96.4661 141.585 96.4622 139.627 96.4572C135.525 96.4513 131.423 96.4598 127.32 96.4785C122.061 96.5013 116.802 96.4882 111.543 96.4642C107.5 96.4498 103.458 96.4544 99.4158 96.4647C97.4765 96.4674 95.5372 96.4641 93.5979 96.4548C90.8877 96.4447 88.1788 96.4601 85.4688 96.4824C84.6666 96.4743 83.8644 96.4662 83.0378 96.4579C79.5119 96.5116 77.4017 96.7106 74.5039 98.798ZM74.5039 130.798C72.2818 134.052 72.4174 137.201 72.5 141C72.4845 141.712 72.4691 142.423 72.4531 143.156C72.4769 146.347 72.686 148.54 74.5039 151.202C78.0282 153.741 81.2856 153.56 85.4688 153.518C86.3212 153.525 87.1737 153.532 88.052 153.539C90.8683 153.556 93.6837 153.545 96.5 153.531C98.4577 153.534 100.415 153.538 102.373 153.543C106.475 153.549 110.577 153.54 114.68 153.521C119.939 153.499 125.198 153.512 130.457 153.536C134.5 153.55 138.542 153.546 142.584 153.535C144.524 153.533 146.463 153.536 148.402 153.545C151.112 153.555 153.821 153.54 156.531 153.518C157.333 153.526 158.136 153.534 158.962 153.542C162.488 153.488 164.598 153.289 167.496 151.202C169.718 147.948 169.583 144.799 169.5 141C169.515 140.288 169.531 139.577 169.547 138.844C169.523 135.653 169.314 133.46 167.496 130.798C163.972 128.259 160.714 128.44 156.531 128.482C155.679 128.475 154.826 128.468 153.948 128.461C151.132 128.444 148.316 128.455 145.5 128.469C143.542 128.466 141.585 128.462 139.627 128.457C135.525 128.451 131.423 128.46 127.32 128.479C122.061 128.501 116.802 128.488 111.543 128.464C107.5 128.45 103.458 128.454 99.4158 128.465C97.4765 128.467 95.5372 128.464 93.5979 128.455C90.8877 128.445 88.1788 128.46 85.4688 128.482C84.6666 128.474 83.8644 128.466 83.0378 128.458C79.5119 128.512 77.4017 128.711 74.5039 130.798ZM11.625 175.625C9.51293 178.712 9.38805 180.328 10 184C11.5 186.5 11.5 186.5 14 188C17.6717 188.612 19.2881 188.487 22.375 186.375C24.4871 183.288 24.612 181.672 24 178C22.5 175.5 22.5 175.5 20 174C16.3283 173.388 14.7119 173.513 11.625 175.625ZM219.625 175.625C217.513 178.712 217.388 180.328 218 184C219.5 186.5 219.5 186.5 222 188C225.672 188.612 227.288 188.487 230.375 186.375C232.487 183.288 232.612 181.672 232 178C230.5 175.5 230.5 175.5 228 174C224.328 173.388 222.712 173.513 219.625 175.625ZM115.625 211.625C113.513 214.712 113.388 216.328 114 220C115.5 222.5 115.5 222.5 118 224C121.672 224.612 123.288 224.487 126.375 222.375C128.487 219.288 128.612 217.672 128 214C126.5 211.5 126.5 211.5 124 210C120.328 209.388 118.712 209.513 115.625 211.625ZM55.625 219.625C53.5129 222.712 53.388 224.328 54 228C55.5 230.5 55.5 230.5 58 232C61.6717 232.612 63.2881 232.487 66.375 230.375C68.4871 227.288 68.612 225.672 68 222C66.5 219.5 66.5 219.5 64 218C60.3283 217.388 58.7119 217.513 55.625 219.625ZM175.625 219.625C173.513 222.712 173.388 224.328 174 228C175.5 230.5 175.5 230.5 178 232C181.672 232.612 183.288 232.487 186.375 230.375C188.487 227.288 188.612 225.672 188 222C186.5 219.5 186.5 219.5 184 218C180.328 217.388 178.712 217.513 175.625 219.625Z" fill="#C83E6F"/>
<path d="M81 137C96.84 137 112.68 137 129 137C129 139.64 129 142.28 129 145C113.16 145 97.32 145 81 145C81 142.36 81 139.72 81 137Z" fill="black"/>
<path d="M81 105C96.84 105 112.68 105 129 105C129 107.64 129 110.28 129 113C113.16 113 97.32 113 81 113C81 110.36 81 107.72 81 105Z" fill="black"/>
<path d="M81 73C96.84 73 112.68 73 129 73C129 75.64 129 78.28 129 81C113.16 81 97.32 81 81 81C81 78.36 81 75.72 81 73Z" fill="black"/>
<path d="M153 137C155.64 137 158.28 137 161 137C161 139.64 161 142.28 161 145C158.36 145 155.72 145 153 145C153 142.36 153 139.72 153 137Z" fill="black"/>
<path d="M137 137C139.64 137 142.28 137 145 137C145 139.64 145 142.28 145 145C142.36 145 139.72 145 137 145C137 142.36 137 139.72 137 137Z" fill="black"/>
<path d="M153 105C155.64 105 158.28 105 161 105C161 107.64 161 110.28 161 113C158.36 113 155.72 113 153 113C153 110.36 153 107.72 153 105Z" fill="black"/>
<path d="M137 105C139.64 105 142.28 105 145 105C145 107.64 145 110.28 145 113C142.36 113 139.72 113 137 113C137 110.36 137 107.72 137 105Z" fill="black"/>
<path d="M153 73C155.64 73 158.28 73 161 73C161 75.64 161 78.28 161 81C158.36 81 155.72 81 153 81C153 78.36 153 75.72 153 73Z" fill="black"/>
<path d="M137 73C139.64 73 142.28 73 145 73C145 75.64 145 78.28 145 81C142.36 81 139.72 81 137 81C137 78.36 137 75.72 137 73Z" fill="black"/>
</svg>
