<svg width="256" height="256" viewBox="0 0 256 256" fill="none" xmlns="http://www.w3.org/2000/svg">
<path d="M22.5708 31.8865C23.7417 31.8863 23.7417 31.8863 24.9362 31.886C27.5226 31.8867 30.1089 31.8945 32.6953 31.9023C34.4861 31.9042 36.2768 31.9056 38.0676 31.9066C42.7858 31.9105 47.504 31.9203 52.2223 31.9313C57.0349 31.9416 61.8475 31.9461 66.6601 31.9512C76.1068 31.9619 85.5534 31.979 95 32C96.125 34.3125 96.125 34.3125 97 37C96.34 37.99 95.68 38.98 95 40C91.9324 40.3785 91.9324 40.3785 87.9358 40.3848C86.8453 40.3928 86.8453 40.3928 85.7328 40.401C84.1521 40.4108 82.5713 40.4138 80.9905 40.4107C78.4899 40.4062 75.99 40.4202 73.4895 40.4391C68.1805 40.4759 62.8716 40.4896 57.5625 40.5C51.415 40.5121 45.2678 40.5335 39.1204 40.58C36.6546 40.5936 34.1893 40.5894 31.7235 40.5846C30.2135 40.5939 28.7036 40.6041 27.1936 40.6152C25.2141 40.6183 25.2141 40.6183 23.1946 40.6215C20.0891 40.724 20.0891 40.724 18.3252 42.2259C16.6018 44.533 16.6168 45.8986 16.6013 48.7646C16.5887 49.7447 16.5762 50.7249 16.5633 51.7348C16.5647 52.8087 16.5661 53.8826 16.5676 54.989C16.5574 56.1209 16.5472 57.2527 16.5367 58.4189C16.5065 62.1686 16.4973 65.9181 16.4883 69.668C16.4714 72.2644 16.4533 74.8609 16.4339 77.4574C16.3911 83.5984 16.3616 89.7393 16.3385 95.8804C16.3115 102.872 16.2676 109.863 16.2223 116.855C16.1294 131.237 16.0599 145.618 16 160C27.88 160 39.76 160 52 160C52.33 158.02 52.66 156.04 53 154C56.0936 148.289 60.5 143.902 66.1992 140.805C69.293 139.916 71.9376 140.017 75.1299 140.231C82.1602 140.826 82.1602 140.826 88.4922 138.332C90.1612 136.296 91.5837 134.216 93 132C96.9826 128.814 99.9503 128.612 105 129C106 130 106 130 106.625 132.688C106 136 106 136 104.168 137.379C103.391 137.831 102.613 138.284 101.812 138.75C96.8782 141.646 95.2527 144.651 93.2656 149.926C92 152 92 152 89.5273 152.883C87 153 87 153 84.3125 151.562C79.797 149.433 75.9152 149.281 71 150C66.0274 152.441 64.9471 154.088 62 159C105.56 159 149.12 159 194 159C190.392 153.011 190.392 153.011 185 150C178.695 149.24 174.616 149.996 169 153C166.473 152.883 166.473 152.883 164 152C162.734 149.926 162.734 149.926 161.75 147.312C159.417 142.039 156.706 140.216 151.832 137.379C150 136 150 136 149.375 132.688C150 130 150 130 151 129C155.019 128.606 157.437 128.713 161.062 130.562C164 133 164 133 165.109 134.824C166.594 137.2 167.607 138.49 170 140C173.623 140.288 177.054 140.242 180.675 140.093C186.372 139.887 190.504 140.157 195 144C198.922 147.758 202.616 151.617 204 157C204 157.99 204 158.98 204 160C215.55 160 227.1 160 239 160C238.67 121.06 238.34 82.12 238 42C235.069 40.5346 232.103 40.8213 228.888 40.7947C228.156 40.7848 227.425 40.7749 226.671 40.7647C224.247 40.733 221.823 40.7083 219.398 40.6836C217.72 40.663 216.041 40.642 214.362 40.6206C209.94 40.5654 205.518 40.516 201.096 40.4678C196.584 40.4176 192.073 40.3619 187.562 40.3066C178.708 40.199 169.854 40.0976 161 40C159.875 37.6875 159.875 37.6875 159 35C159.66 34.01 160.32 33.02 161 32C163.57 31.6869 165.902 31.5698 168.476 31.5801C169.247 31.5716 170.017 31.5631 170.812 31.5544C173.369 31.5309 175.927 31.53 178.484 31.5312C180.261 31.5242 182.037 31.5165 183.814 31.5082C187.543 31.4947 191.272 31.4932 195.001 31.499C199.774 31.5049 204.546 31.4744 209.319 31.4339C212.991 31.408 216.662 31.4052 220.334 31.4088C222.093 31.4071 223.852 31.3975 225.611 31.3797C228.077 31.3574 230.541 31.3672 233.007 31.3848C234.092 31.3649 234.092 31.3649 235.199 31.3446C240.862 31.4381 243.166 33.1304 247 37C248.376 39.7513 248.139 41.9659 248.154 45.0466C248.162 46.3364 248.171 47.6263 248.18 48.9552C248.184 50.393 248.189 51.8308 248.193 53.2686C248.201 54.7763 248.209 56.2841 248.218 57.7919C248.244 62.7519 248.259 67.7119 248.273 72.6719C248.279 74.3786 248.284 76.0854 248.29 77.7922C248.311 84.8917 248.33 91.9912 248.341 99.0907C248.357 109.268 248.391 119.446 248.448 129.623C248.486 136.777 248.506 143.931 248.511 151.086C248.515 155.36 248.527 159.633 248.559 163.907C248.589 167.929 248.596 171.95 248.584 175.972C248.584 177.447 248.592 178.921 248.609 180.396C248.751 192.926 248.751 192.926 245.589 196.862C241.202 200.486 237.712 200.151 232.22 200.154C231.3 200.158 230.379 200.163 229.431 200.167C226.328 200.181 223.225 200.187 220.122 200.193C217.905 200.201 215.688 200.209 213.471 200.218C206.173 200.244 198.876 200.259 191.578 200.273C189.069 200.279 186.56 200.284 184.051 200.29C173.616 200.311 163.181 200.33 152.746 200.341C150.038 200.344 147.33 200.347 144.621 200.35C143.948 200.351 143.275 200.352 142.581 200.352C131.676 200.365 120.771 200.398 109.867 200.44C98.6726 200.482 87.4787 200.505 76.2846 200.511C69.9988 200.515 63.7133 200.527 57.4275 200.559C51.5145 200.589 45.6019 200.596 39.6888 200.584C37.5175 200.584 35.3463 200.592 33.1751 200.609C30.2122 200.632 27.2509 200.624 24.2879 200.608C23.4274 200.622 22.5669 200.636 21.6803 200.65C17.4773 200.594 14.8125 200.274 11.482 197.587C7.87505 193.827 7.87139 192.066 7.84609 186.953C7.83749 185.664 7.82889 184.374 7.82003 183.045C7.81559 181.607 7.81129 180.169 7.80712 178.731C7.79922 177.224 7.79095 175.716 7.78234 174.208C7.7561 169.248 7.74081 164.288 7.72655 159.328C7.72119 157.621 7.71581 155.915 7.71042 154.208C7.68879 147.108 7.67005 140.009 7.6588 132.909C7.64256 122.732 7.60938 112.554 7.5524 102.377C7.5137 95.2227 7.49416 88.0686 7.48888 80.9143C7.48522 76.6405 7.47319 72.3671 7.44077 68.0934C7.4107 64.0714 7.40438 60.05 7.41616 56.0279C7.41638 54.5533 7.40807 53.0786 7.3905 51.6041C7.24941 39.0741 7.24941 39.0741 10.4115 35.1384C14.5222 31.7425 17.4262 31.8615 22.5708 31.8865ZM16 168C16 174.6 16 181.2 16 188C20.1197 192.12 20.724 192.46 26.1557 192.526C26.9825 192.515 27.8092 192.505 28.661 192.494C29.5444 192.499 30.4277 192.504 31.3378 192.509C34.3037 192.52 37.2688 192.503 40.2346 192.486C42.3584 192.488 44.4822 192.492 46.6059 192.497C52.3786 192.507 58.1509 192.492 63.9235 192.471C69.9572 192.454 75.991 192.457 82.0248 192.458C92.1573 192.456 102.29 192.439 112.422 192.412C124.148 192.38 135.873 192.37 147.598 192.371C158.866 192.372 170.133 192.362 181.4 192.346C186.201 192.338 191.002 192.335 195.803 192.334C201.452 192.332 207.102 192.32 212.751 192.299C214.828 192.294 216.906 192.291 218.983 192.292C221.811 192.293 224.638 192.282 227.466 192.267C228.295 192.271 229.124 192.274 229.978 192.277C233.842 192.244 235.709 192.194 239 190C239 182.74 239 175.48 239 168C165.41 168 91.82 168 16 168Z" fill="#282828"/>
<path d="M127.902 7.61328C133.578 8.32182 136.497 12.7817 140 17C142.574 20.5444 144.836 24.1934 147 28C147.463 28.8018 147.926 29.6036 148.402 30.4297C153.621 40.1063 156.106 49.8866 156.25 60.8125C156.36 66.24 156.84 69.7856 160.75 73.8125C161.829 74.8122 161.829 74.8122 162.93 75.832C166.732 79.8139 168.282 84.853 170 90C170.246 90.727 170.492 91.4541 170.746 92.2031C172.768 99.5082 172.385 107.487 172 115C171 116 171 116 168.211 116.359C165 116 165 116 162.727 113.953C162.033 113.061 161.34 112.169 160.625 111.25C156.729 106.581 153.615 104.246 148 102C147.732 102.908 147.464 103.815 147.187 104.75C146.043 107.883 145.339 109.666 143 112C138.777 112.814 134.522 112.743 130.231 112.741C128.136 112.75 126.05 112.823 123.957 112.898C114.238 113.06 114.238 113.06 110.94 110.236C109.19 107.511 108 105.271 108 102C100.621 105.236 95.4931 109.26 91 116C87.9375 116.25 87.9375 116.25 85 116C83.0347 114.035 83.7606 110.364 83.75 107.688C83.7561 96.6672 85.932 86.3764 92 77C93.2334 75.7953 94.4838 74.6077 95.75 73.4375C99.8763 69.045 99.6178 64.321 99.7329 58.6294C100.123 41.8187 107.927 26.3633 119 14C119.538 13.358 120.075 12.7161 120.629 12.0547C122.957 9.44097 124.378 8.08286 127.902 7.61328ZM125.492 20.4609C124.958 21.0926 124.425 21.7242 123.875 22.375C123.336 23.0015 122.797 23.628 122.242 24.2734C120.805 25.9161 120.805 25.9161 121 28C125.62 28 130.24 28 135 28C133.247 24.4937 131.584 21.9067 129 19C126.889 18.768 126.889 18.768 125.492 20.4609ZM115 36C113.793 39.0628 113.793 39.0628 112.562 42.1875C111.884 43.9103 111.884 43.9103 111.191 45.668C105.622 61.245 107.873 81.195 114.344 96.0938C116.247 100.327 116.247 100.327 119 104C121.956 104.234 124.852 104.371 127.812 104.438C129.043 104.506 129.043 104.506 130.299 104.576C132.666 104.62 134.698 104.557 137 104C140.62 100.151 142.124 95.4765 143.687 90.5C143.9 89.8619 144.112 89.2238 144.33 88.5664C149.155 73.6821 149.133 55.4593 143 41C142.34 39.35 141.68 37.7 141 36C132.42 36 123.84 36 115 36ZM100 82C95.8365 89.6028 95.8365 89.6028 94 98C97.3 96.68 100.6 95.36 104 94C103.711 92.3913 103.422 90.7825 103.125 89.125C102.963 88.2201 102.8 87.3152 102.633 86.3828C102.17 83.8349 102.17 83.8349 100 82ZM155 82C154.494 83.4355 153.996 84.8735 153.5 86.3125C153.222 87.113 152.943 87.9135 152.656 88.7383C151.861 91.0877 151.861 91.0877 152 94C156.95 95.98 156.95 95.98 162 98C160.854 91.7912 159.395 87.3187 156 82C155.67 82 155.34 82 155 82Z" fill="#C83E6F"/>
<path d="M109 208C109.495 208.495 109.495 208.495 110 209C109.734 215.652 108.264 217.03 104 223C119.84 223 135.68 223 152 223C150.02 220.03 148.04 217.06 146 214C146 212.35 146 210.7 146 209C149 207 149 207 151.469 207.078C154.789 208.287 155.639 209.782 157.5 212.75C158.103 213.651 158.707 214.552 159.328 215.48C159.88 216.312 160.432 217.143 161 218C163.064 221.15 163.064 221.15 166 223C168.781 223.372 171.535 223.505 174.336 223.648C178.677 224.221 180.179 225.673 183 229C185.108 234.079 185.355 238.592 185 244C183.984 246.238 183.984 246.238 183 248C168.675 248.023 154.35 248.041 140.025 248.052C133.374 248.057 126.723 248.064 120.073 248.075C113.66 248.086 107.247 248.092 100.835 248.095C98.3824 248.097 95.9298 248.1 93.4773 248.106C90.0552 248.113 86.6332 248.114 83.2112 248.114C81.6737 248.119 81.6737 248.119 80.1052 248.124C79.1782 248.123 78.2513 248.122 77.2963 248.12C76.486 248.121 75.6758 248.122 74.841 248.123C73 248 73 248 72 247C71.7916 244.419 71.6754 241.897 71.625 239.313C71.5876 238.604 71.5502 237.896 71.5117 237.166C71.4448 233.14 71.8156 230.719 74.3984 227.543C77.9527 224.069 79.3879 223.968 84.1875 223.875C89.5533 223.419 92.0175 222.089 95.5039 218.051C97.4917 215.326 99.2965 212.537 100.957 209.602C103.173 206.2 105.473 207.096 109 208ZM81 234C81 235.98 81 237.96 81 240C112.35 240 143.7 240 176 240C175.505 237.03 175.505 237.03 175 234C171.172 231.448 168.065 231.719 163.629 231.741C162.775 231.738 161.921 231.734 161.041 231.731C158.215 231.722 155.389 231.728 152.563 231.734C150.601 231.733 148.639 231.731 146.678 231.729C142.566 231.726 138.453 231.73 134.341 231.739C129.065 231.751 123.789 231.744 118.512 231.732C114.461 231.725 110.411 231.727 106.36 231.732C104.414 231.734 102.468 231.732 100.523 231.727C97.8054 231.722 95.0884 231.73 92.3711 231.741C91.16 231.735 91.16 231.735 89.9245 231.729C86.0864 231.758 84.2703 231.82 81 234Z" fill="#282828"/>
<path d="M116.062 119.938C117.517 119.968 117.517 119.968 119 120C120.654 122.967 121.364 125.528 121.875 128.875C122.724 133.505 124.099 136.325 127 140C129.982 139.327 129.982 139.327 131.098 137.504C133.466 132.739 134.747 128.256 135.605 123.004C136 121 136 121 137 120C140 119.875 140 119.875 143 120C144.672 121.672 144.251 123.642 144.312 125.938C144.165 137.34 138.76 144.24 131 152C128.375 152.625 128.375 152.625 125 152C118.321 147.042 113.586 140.204 112 132C111.909 130.106 111.87 128.209 111.875 126.312C111.872 125.339 111.87 124.366 111.867 123.363C112.069 119.776 112.394 120.012 116.062 119.938Z" fill="#C83E6F"/>
<path d="M133 52C136.126 53.6721 138.393 55.7856 140 59C140.515 63.0916 140.944 67.2359 138.953 70.957C136.555 73.8559 134.604 75.7981 130.828 76.2734C123.011 76.5814 123.011 76.5814 119.438 73.625C115.694 69.5938 115.61 66.9052 115.641 61.5508C116.22 57.4413 117.999 55.7865 121 53C124.725 51.1377 128.945 51.4287 133 52ZM126 61C125.67 62.65 125.34 64.3 125 66C127.475 66.495 127.475 66.495 130 67C130.33 65.35 130.66 63.7 131 62C129.35 61.67 127.7 61.34 126 61Z" fill="#C83E6F"/>
<path d="M127.938 175.813C128.966 175.8 129.994 175.788 131.053 175.775C132.525 175.772 132.525 175.772 134.027 175.77C134.932 175.765 135.837 175.761 136.769 175.757C139 176 139 176 141 178C140.625 181.125 140.625 181.125 140 184C136.188 184.029 132.375 184.047 128.562 184.062C127.474 184.071 126.385 184.079 125.264 184.088C124.229 184.091 123.195 184.094 122.129 184.098C120.691 184.106 120.691 184.106 119.225 184.114C117 184 117 184 116 183C115.875 180 115.875 180 116 177C118.418 174.582 124.688 175.815 127.938 175.813Z" fill="#C83E6F"/>
</svg>
