<svg width="240" height="242" viewBox="0 0 240 242" fill="none" xmlns="http://www.w3.org/2000/svg">
<path d="M79.0151 0.450684C79.9966 0.440462 80.978 0.43024 81.9892 0.419708C85.2196 0.392006 88.4492 0.393823 91.6797 0.398438C93.935 0.390658 96.1903 0.381988 98.4456 0.372467C103.168 0.357562 107.89 0.358111 112.613 0.368652C118.651 0.380237 124.688 0.346383 130.726 0.299963C135.383 0.270433 140.039 0.268752 144.696 0.274982C146.922 0.273959 149.147 0.263534 151.372 0.243359C154.491 0.218554 157.607 0.232252 160.726 0.255371C162.092 0.23244 162.092 0.23244 163.485 0.209045C170.345 0.320878 174.923 2.36234 180 7C184.054 11.6941 184.568 16.4669 184.454 22.4138C184.455 23.2244 184.455 24.035 184.456 24.8701C184.453 27.5271 184.422 30.183 184.391 32.8398C184.383 34.6907 184.377 36.5416 184.373 38.3925C184.358 43.2473 184.319 48.1017 184.275 52.9563C184.234 57.9168 184.215 62.8773 184.195 67.8379C184.153 77.5588 184.084 87.2794 184 97C187.3 97 190.6 97 194 97C197 105.5 197 105.5 197 110C197.743 110.144 198.485 110.289 199.25 110.438C202 111 202 111 203.93 111.691C206.053 112.218 206.053 112.218 207.93 110.969C209.223 109.992 210.515 109.013 211.805 108.031C214.951 106.553 216.706 107.006 220 108C222.52 109.855 222.52 109.855 224.812 112.188C225.582 112.944 226.352 113.701 227.145 114.48C229.332 117.45 229.902 119.325 230 123C228.934 125.02 228.934 125.02 227.438 126.812C225.685 129.301 224.975 130.436 225.109 133.512C225.626 135.734 226.221 137.856 227 140C228.217 140.124 229.434 140.248 230.688 140.375C234.329 140.745 236.379 141.551 240 143C240 149.6 240 156.2 240 163C231 166 231 166 227 166C226.856 166.743 226.711 167.485 226.562 168.25C226 171 226 171 225.309 172.93C224.782 175.053 224.782 175.053 226.031 176.93C227.008 178.223 227.987 179.515 228.969 180.805C230.447 183.951 229.994 185.706 229 189C227.145 191.52 227.145 191.52 224.812 193.812C224.056 194.582 223.299 195.352 222.52 196.145C219.55 198.332 217.675 198.902 214 199C211.98 197.934 211.98 197.934 210.188 196.438C207.699 194.685 206.564 193.975 203.488 194.109C201.266 194.626 199.144 195.221 197 196C196.927 196.905 196.927 196.905 196.852 197.828C196.777 198.627 196.702 199.427 196.625 200.25C196.555 201.039 196.486 201.828 196.414 202.641C195.985 205.086 195.214 206.848 194 209C191.125 209.125 191.125 209.125 188 209C186 207 186 207 185.918 205.152C186.21 202.753 186.585 200.382 187 198C187.083 197.214 187.165 196.427 187.25 195.617C187.774 192.859 188.322 191.273 190 189C195.018 185.907 200.758 182.714 206.785 183.246C209 184 209 184 211.562 185.688C212.367 186.121 213.171 186.554 214 187C216.303 186.309 216.303 186.309 218 185C217.053 182.564 216.149 180.251 214.812 178C212.793 173.028 216.385 166.339 218.336 161.695C220.212 158.657 221.285 157.871 224.625 156.75C227.203 156.169 229.342 156 232 156C232 154.02 232 152.04 232 150C231.252 149.96 230.505 149.92 229.734 149.879C226.604 149.547 223.95 149.113 221 148C218.832 145.246 218.015 142.319 217 139C216.402 137.928 215.804 136.855 215.188 135.75C213.763 132.452 213.775 131.347 215 128C216.246 125.598 217.593 123.315 219 121C217.68 120.01 216.36 119.02 215 118C214.481 118.373 213.961 118.745 213.426 119.129C212.728 119.602 212.031 120.075 211.312 120.562C210.628 121.038 209.944 121.514 209.238 122.004C206.321 123.302 205.035 122.903 202 122C201.007 121.711 200.015 121.423 198.992 121.125C190.746 118.149 190.746 118.149 188.555 114.773C187.425 111.405 187 108.552 187 105C186.01 105 185.02 105 184 105C184 112.92 184 120.84 184 129C186.31 129 188.62 129 191 129C197.586 130.788 202.213 135.503 206 141C209.223 147.404 209.209 155.638 207.312 162.48C206.369 164.513 205.339 166.205 204 168C203.553 168.61 203.105 169.219 202.645 169.848C201.176 171.576 199.95 172.839 198 174C194.125 173.875 194.125 173.875 191 173C190.541 169.866 190.466 167.774 192.301 165.113C193.373 163.893 194.469 162.692 195.59 161.516C198.664 158.212 198.331 154.858 198.281 150.543C197.868 146.808 196.491 144.761 194 142C190.71 139.554 187.983 138.725 184 138C184.02 139.661 184.02 139.661 184.04 141.356C184.162 151.816 184.252 162.277 184.311 172.737C184.342 178.115 184.384 183.492 184.453 188.869C184.518 194.063 184.554 199.256 184.569 204.45C184.58 206.427 184.602 208.404 184.634 210.381C184.928 229.011 184.928 229.011 179.975 235.364C173.653 240.601 169.016 241.593 160.985 241.549C160.003 241.56 159.022 241.57 158.011 241.58C154.78 241.608 151.551 241.606 148.32 241.602C146.065 241.609 143.81 241.618 141.554 241.628C136.832 241.642 132.11 241.642 127.387 241.631C121.349 241.62 115.312 241.654 109.274 241.7C104.617 241.73 99.9607 241.731 95.3039 241.725C93.0784 241.726 90.853 241.736 88.6276 241.757C85.5089 241.781 82.3926 241.768 79.2739 241.745C78.3635 241.76 77.4531 241.775 76.5151 241.791C69.6554 241.679 65.0765 239.638 60 235C55.946 230.306 55.432 225.533 55.5459 219.586C55.5453 218.776 55.5447 217.965 55.5441 217.13C55.5469 214.473 55.5779 211.817 55.6094 209.16C55.6168 207.309 55.6225 205.458 55.6265 203.608C55.6417 198.753 55.681 193.898 55.7253 189.044C55.7664 184.083 55.7846 179.123 55.8047 174.162C55.8475 164.441 55.9157 154.721 56 145C52.7 145 49.4 145 46 145C43 136.5 43 136.5 43 132C42.2575 131.856 41.515 131.711 40.75 131.562C38 131 38 131 36.0703 130.309C33.947 129.782 33.947 129.782 32.0703 131.031C30.7768 132.008 29.4851 132.987 28.1953 133.969C25.0488 135.447 23.294 134.994 20 134C17.4805 132.145 17.4805 132.145 15.1875 129.812C14.4179 129.056 13.6484 128.299 12.8555 127.52C10.6684 124.55 10.0977 122.675 10 119C11.0664 116.98 11.0664 116.98 12.5625 115.188C14.3146 112.699 15.0246 111.564 14.8906 108.488C14.3743 106.266 13.779 104.144 13 102C11.7831 101.876 10.5662 101.752 9.3125 101.625C5.67108 101.255 3.62132 100.449 0 99C0 92.4 0 85.8 0 79C9 76 9 76 13 76C13.1444 75.2575 13.2887 74.515 13.4375 73.75C14 71 14 71 14.6914 69.0703C15.2182 66.947 15.2182 66.947 13.9688 65.0703C12.9921 63.7768 12.0129 62.4851 11.0312 61.1953C9.55316 58.0488 10.0063 56.294 11 53C12.8555 50.4805 12.8555 50.4805 15.1875 48.1875C15.9442 47.4179 16.7009 46.6484 17.4805 45.8555C20.4503 43.6684 22.3247 43.0977 26 43C28.0195 44.0664 28.0195 44.0664 29.8125 45.5625C32.301 47.3146 33.4362 48.0246 36.5117 47.8906C38.7342 47.3743 40.8564 46.779 43 46C43.1856 44.1747 43.1856 44.1747 43.375 42.3125C43.7889 38.9352 44.5457 36.1024 46 33C48.875 32.875 48.875 32.875 52 33C54 35 54 35 54.082 36.8477C53.79 39.2475 53.4155 41.6184 53 44C52.9175 44.7863 52.835 45.5727 52.75 46.3828C52.2265 49.1405 51.6783 50.7269 50 53C44.9819 56.0934 39.2421 59.2865 33.2148 58.7539C31 58 31 58 28.4375 56.3125C27.6331 55.8794 26.8288 55.4462 26 55C23.6971 55.6914 23.6971 55.6914 22 57C22.9473 59.4358 23.851 61.7491 25.1875 64C27.2075 68.9722 23.6151 75.6609 21.6641 80.3047C19.788 83.3433 18.7148 84.1295 15.375 85.25C12.7966 85.8308 10.6577 86 8 86C8 87.98 8 89.96 8 92C9.12148 92.0599 9.12148 92.0599 10.2656 92.1211C13.3957 92.4529 16.0502 92.8874 19 94C21.1677 96.7543 21.9852 99.6808 23 103C23.5981 104.072 24.1963 105.145 24.8125 106.25C26.2367 109.548 26.2247 110.653 25 114C23.754 116.402 22.4074 118.685 21 121C22.32 121.99 23.64 122.98 25 124C25.5195 123.627 26.039 123.255 26.5742 122.871C27.2716 122.398 27.969 121.925 28.6875 121.438C29.372 120.962 30.0565 120.486 30.7617 119.996C33.6785 118.698 34.9651 119.097 38 120C38.9926 120.289 39.9852 120.577 41.0078 120.875C49.2543 123.851 49.2543 123.851 51.4453 127.227C52.5753 130.595 53 133.448 53 137C53.99 137 54.98 137 56 137C56 129.08 56 121.16 56 113C53.69 113 51.38 113 49 113C42.4141 111.212 37.7872 106.497 34 101C30.7767 94.5963 30.7911 86.3618 32.6875 79.5195C34.7646 75.0451 37.859 70.7573 42 68C45.3125 67.5625 45.3125 67.5625 48 68C49 69 49 69 49.4375 71.625C48.8887 75.8582 47.2841 77.4677 44.4102 80.4844C41.3364 83.7881 41.6689 87.1421 41.7188 91.457C42.1318 95.1918 43.5087 97.2394 46 100C49.2897 102.446 52.0166 103.275 56 104C55.9867 102.892 55.9734 101.785 55.9596 100.644C55.8378 90.1836 55.7479 79.7235 55.6891 69.2627C55.6579 63.8852 55.6155 58.5083 55.5474 53.1311C55.482 47.9374 55.4462 42.7443 55.4307 37.5503C55.4197 35.5732 55.3981 33.5961 55.3656 31.6192C55.0717 12.989 55.0717 12.989 60.0245 6.63634C66.3468 1.39948 70.9845 0.407171 79.0151 0.450684ZM66.625 14.4375C63.6543 19.1221 63.8534 23.5992 63.8596 29.0267C63.8566 29.8419 63.8536 30.6571 63.8506 31.497C63.8419 34.2321 63.8404 36.9672 63.8389 39.7024C63.8342 41.662 63.8292 43.6217 63.8238 45.5813C63.8107 50.9079 63.8043 56.2344 63.7998 61.5609C63.7969 64.8884 63.7928 68.2159 63.7883 71.5433C63.7746 81.9535 63.765 92.3636 63.7611 102.774C63.7566 114.792 63.7391 126.811 63.7101 138.83C63.6885 148.119 63.6784 157.408 63.6771 166.697C63.676 172.246 63.6701 177.794 63.6522 183.343C63.6358 188.562 63.6336 193.782 63.6424 199.001C63.6432 200.916 63.6388 202.83 63.6289 204.744C63.6162 207.361 63.6221 209.976 63.6325 212.592C63.6245 213.347 63.6164 214.103 63.6081 214.88C63.6562 220.054 64.6462 223.489 67 228C72.3742 233.236 77.2156 233.151 84.4211 233.161C85.2688 233.166 86.1165 233.171 86.9898 233.176C89.7914 233.191 92.5929 233.198 95.3945 233.203C97.345 233.209 99.2955 233.215 101.246 233.22C105.336 233.231 109.425 233.237 113.515 233.24C118.747 233.246 123.979 233.27 129.211 233.298C133.241 233.317 137.27 233.322 141.3 233.324C143.228 233.327 145.156 233.335 147.085 233.348C149.787 233.365 152.489 233.363 155.191 233.356C155.982 233.366 156.774 233.375 157.589 233.384C162.786 233.345 166.382 232.43 171 230C176.165 224.699 176.149 220.092 176.14 212.973C176.143 212.158 176.146 211.343 176.149 210.503C176.158 207.768 176.16 205.033 176.161 202.298C176.166 200.338 176.171 198.378 176.176 196.419C176.189 191.092 176.196 185.766 176.2 180.439C176.203 177.112 176.207 173.784 176.212 170.457C176.225 160.047 176.235 149.636 176.239 139.226C176.243 127.208 176.261 115.189 176.29 103.17C176.311 93.8811 176.322 84.5918 176.323 75.3025C176.324 69.754 176.33 64.2056 176.348 58.657C176.364 53.4376 176.366 48.2183 176.358 42.9989C176.357 41.0845 176.361 39.1701 176.371 37.2557C176.384 34.6394 176.378 32.0239 176.367 29.4076C176.376 28.6526 176.384 27.8975 176.392 27.1195C176.344 21.9456 175.354 18.5114 173 14C167.626 8.7636 162.784 8.84897 155.579 8.83887C154.731 8.8339 153.884 8.82894 153.01 8.82382C150.209 8.80923 147.407 8.8024 144.605 8.79688C142.655 8.79112 140.704 8.78536 138.754 8.7796C134.664 8.7691 130.575 8.76325 126.485 8.75977C121.253 8.75428 116.021 8.73026 110.789 8.70179C106.759 8.68314 102.73 8.67796 98.7004 8.67643C96.7719 8.67341 94.8435 8.6654 92.9151 8.65224C90.213 8.63513 87.5115 8.63708 84.8093 8.64355C84.0179 8.63434 83.2265 8.62513 82.4111 8.61563C76.1169 8.66273 71.1777 9.76504 66.625 14.4375Z" fill="#C83E6F"/>
<path d="M139.793 100.718C143.607 101.053 144.624 101.854 147.305 104.508C148.052 105.248 148.8 105.988 149.57 106.75C150.331 107.534 151.091 108.317 151.875 109.125C152.659 109.886 153.442 110.646 154.25 111.43C154.99 112.177 155.73 112.925 156.492 113.695C157.166 114.376 157.84 115.057 158.535 115.758C160.49 118.749 160.513 120.488 160 124C158.535 126.242 158.535 126.242 156.492 128.305C155.752 129.052 155.012 129.8 154.25 130.57C153.466 131.331 152.683 132.091 151.875 132.875C151.114 133.659 150.354 134.442 149.57 135.25C148.823 135.99 148.075 136.73 147.305 137.492C146.284 138.503 146.284 138.503 145.242 139.535C142.338 141.433 140.402 141.343 137 141C136 140 136 140 135.562 137.336C136.183 132.602 138.576 130.749 142 127.625C142.572 127.08 143.145 126.534 143.734 125.973C145.143 124.634 146.57 123.315 148 122C146.021 117.064 141.98 114.124 138.117 110.633C136 108 136 108 135.633 104.742C136.122 101.089 136.122 101.089 139.793 100.718Z" fill="black"/>
<path d="M103 101C104 102 104 102 104.438 104.664C103.817 109.398 101.424 111.251 98 114.375C97.4277 114.92 96.8553 115.466 96.2656 116.027C94.857 117.366 93.4302 118.685 92 120C93.9791 124.936 98.0195 127.876 101.883 131.367C104 134 104 134 104.367 137.258C104 140 104 140 103 141C99.5976 141.343 97.6621 141.433 94.7583 139.535C94.0775 138.861 93.3967 138.187 92.6953 137.492C91.9477 136.752 91.2 136.012 90.4297 135.25C89.6691 134.466 88.9086 133.683 88.125 132.875C87.3413 132.114 86.5575 131.354 85.75 130.57C85.0101 129.823 84.2702 129.075 83.5078 128.305C82.8338 127.624 82.1598 126.943 81.4653 126.242C79.5101 123.251 79.4867 121.512 80 118C81.4653 115.758 81.4653 115.758 83.5078 113.695C84.6177 112.574 84.6177 112.574 85.75 111.43C86.5338 110.669 87.3175 109.909 88.125 109.125C88.8856 108.341 89.6461 107.558 90.4297 106.75C91.1773 106.01 91.925 105.27 92.6953 104.508C93.3761 103.834 94.0569 103.16 94.7583 102.465C97.6621 100.567 99.5976 100.657 103 101Z" fill="black"/>
<path d="M121 101C124.062 100.75 124.062 100.75 127 101C128 102 128 102 128.273 105.168C128.189 111.726 126.258 118.003 124.625 124.312C124.308 125.587 123.991 126.861 123.664 128.174C121.27 137.595 121.27 137.595 119 141C115.938 141.25 115.938 141.25 113 141C112 140 112 140 111.727 136.832C111.811 130.274 113.742 123.997 115.375 117.688C115.851 115.776 115.851 115.776 116.336 113.826C118.73 104.405 118.73 104.405 121 101Z" fill="black"/>
<path d="M111.625 16.8672C112.287 16.8662 112.949 16.8653 113.631 16.8643C115.034 16.8636 116.436 16.8655 117.838 16.8696C119.991 16.875 122.144 16.8697 124.297 16.8633C125.656 16.8639 127.016 16.8652 128.375 16.8672C130.243 16.8689 130.243 16.8689 132.148 16.8706C135 17 135 17 136 18C136.125 21 136.125 21 136 24C134.117 25.8832 130.881 25.1305 128.375 25.1328C127.713 25.1338 127.051 25.1347 126.369 25.1357C124.966 25.1364 123.564 25.1345 122.162 25.1304C120.009 25.125 117.856 25.1303 115.703 25.1367C114.344 25.1361 112.984 25.1348 111.625 25.1328C110.38 25.1317 109.135 25.1306 107.852 25.1294C105 25 105 25 104 24C103.875 21 103.875 21 104 18C105.883 16.1168 109.119 16.8695 111.625 16.8672Z" fill="black"/>
<path d="M36 199.875C39 200 39 200 40 201C40.1875 203.938 40.1875 203.938 40 207C38 209 38 209 35.4375 209.188C33 209 33 209 32 208C31.875 204.5 31.875 204.5 32 201C33 200 33 200 36 199.875Z" fill="black"/>
<path d="M36 183.875C39 184 39 184 40 185C40.1875 187.938 40.1875 187.938 40 191C38 193 38 193 35.4375 193.188C33 193 33 193 32 192C31.875 188.5 31.875 188.5 32 185C33 184 33 184 36 183.875Z" fill="black"/>
<path d="M36 167.875C39 168 39 168 40 169C40.1875 171.938 40.1875 171.938 40 175C38 177 38 177 35.4375 177.188C33 177 33 177 32 176C31.875 172.5 31.875 172.5 32 169C33 168 33 168 36 167.875Z" fill="black"/>
<path d="M204 64.875C207 65 207 65 208 66C208.188 68.9375 208.188 68.9375 208 72C207.34 72.66 206.68 73.32 206 74C202.875 73.625 202.875 73.625 200 73C199.958 70.6671 199.959 68.333 200 66C201 65 201 65 204 64.875Z" fill="black"/>
<path d="M204 48.875C207 49 207 49 208 50C208.188 52.9375 208.188 52.9375 208 56C207.34 56.66 206.68 57.32 206 58C202.875 57.625 202.875 57.625 200 57C199.958 54.6671 199.959 52.333 200 50C201 49 201 49 204 48.875Z" fill="black"/>
<path d="M204 32.875C207 33 207 33 208 34C208.188 36.9375 208.188 36.9375 208 40C207.34 40.66 206.68 41.32 206 42C202.875 41.625 202.875 41.625 200 41C199.958 38.6671 199.959 36.333 200 34C201 33 201 33 204 32.875Z" fill="black"/>
</svg>
