<svg width="268" height="268" viewBox="0 0 268 268" fill="none" xmlns="http://www.w3.org/2000/svg">
<path d="M98.8581 3.52911C104.549 6.87921 107.573 10.8965 109.398 17.2734C109.398 17.6189 109.398 17.9644 109.398 18.3203C109.853 18.213 110.308 18.1057 110.776 17.9952C111.38 17.8542 111.983 17.7132 112.604 17.5679C113.2 17.4282 113.795 17.2885 114.408 17.1446C119.017 16.1315 123.997 15.1703 128.242 17.7969C129.884 19.3503 131.413 20.9989 132.43 23.0312C133.012 23.0359 133.012 23.0359 133.607 23.0406C137.287 23.071 140.967 23.1088 144.648 23.1546C146.539 23.1779 148.431 23.1985 150.323 23.2126C152.152 23.2263 153.981 23.2475 155.811 23.2737C156.84 23.2865 157.869 23.2918 158.898 23.297C164.802 23.3927 169.717 24.381 174.305 28.2656C178.586 32.6967 179.26 37.6549 179.261 43.6191C179.265 44.2232 179.269 44.8274 179.273 45.4498C179.279 46.7189 179.28 47.9881 179.278 49.2572C179.277 51.2021 179.299 53.146 179.322 55.0908C179.325 56.3268 179.326 57.5628 179.326 58.7988C179.335 59.38 179.344 59.9613 179.352 60.5601C179.316 64.5509 179.316 64.5509 177.806 66.3348C175.872 67.2489 174.766 67.0786 172.734 66.4766C171.268 64.9522 170.968 63.88 170.963 61.7925C170.957 61.2788 170.952 60.7651 170.947 60.2358C170.948 59.684 170.95 59.1322 170.951 58.5637C170.946 57.9932 170.94 57.4227 170.934 56.8349C170.916 55.0106 170.908 53.1866 170.902 51.3623C170.895 48.9644 170.877 46.5669 170.853 44.1691C170.855 43.6194 170.856 43.0697 170.858 42.5034C170.829 39.6377 170.714 37.5303 169.07 35.0703C166.517 32.6511 164.19 31.8076 160.704 31.7628C160.086 31.7524 159.468 31.742 158.831 31.7313C158.169 31.7252 157.507 31.7192 156.825 31.7129C156.143 31.7028 155.461 31.6927 154.759 31.6822C152.953 31.6554 151.146 31.6347 149.34 31.6152C147.494 31.5942 145.649 31.5674 143.803 31.5412C140.187 31.4906 136.57 31.4464 132.953 31.4062C132.953 33.1336 132.953 34.8609 132.953 36.6406C133.526 36.6354 133.526 36.6354 134.111 36.6301C137.716 36.5986 141.32 36.5747 144.924 36.5593C146.777 36.5511 148.63 36.54 150.483 36.5222C152.614 36.5018 154.745 36.4942 156.876 36.4873C157.541 36.4792 158.205 36.4711 158.89 36.4627C159.817 36.4625 159.817 36.4625 160.763 36.4624C161.307 36.4589 161.851 36.4554 162.412 36.4518C164.065 36.671 164.767 37.0251 165.93 38.2109C166.403 39.6694 166.519 40.9982 166.52 42.5251C166.522 42.9671 166.524 43.4091 166.526 43.8644C166.525 44.3474 166.524 44.8304 166.523 45.3279C166.524 45.843 166.525 46.3581 166.527 46.8888C166.53 48.6195 166.53 50.3502 166.529 52.0809C166.531 53.3198 166.532 54.5587 166.534 55.7975C166.539 58.8162 166.54 61.8349 166.541 64.8535C166.541 67.307 166.542 69.7604 166.543 72.2138C166.548 79.1689 166.551 86.124 166.55 93.0791C166.55 93.6415 166.55 93.6415 166.55 94.2153C166.55 94.5907 166.55 94.9661 166.55 95.3528C166.55 101.439 166.555 107.524 166.562 113.61C166.57 119.858 166.573 126.106 166.573 132.354C166.573 135.862 166.574 139.37 166.58 142.878C166.585 146.177 166.585 149.475 166.581 152.773C166.58 153.985 166.582 155.197 166.585 156.409C166.589 158.06 166.587 159.712 166.582 161.363C166.585 161.845 166.588 162.327 166.591 162.823C166.568 167.071 166.568 167.071 165.406 169.07C163.58 170.288 162.843 170.336 160.695 170.117C159.564 169.628 159.564 169.628 158.601 168.547C158.28 166.919 158.329 165.303 158.35 163.648C158.348 163.141 158.346 162.633 158.344 162.109C158.341 160.4 158.352 158.69 158.364 156.981C158.364 155.758 158.364 154.536 158.363 153.313C158.362 149.988 158.375 146.663 158.389 143.337C158.401 140.216 158.403 137.095 158.405 133.974C158.41 127.792 158.424 121.609 158.444 115.427C158.463 109.42 158.478 103.414 158.486 97.4078C158.487 97.0377 158.488 96.6675 158.488 96.2862C158.491 94.4293 158.494 92.5725 158.496 90.7156C158.518 75.3078 158.556 59.9 158.601 44.4922C150.138 44.4922 141.674 44.4922 132.953 44.4922C132.608 45.3559 132.262 46.2195 131.906 47.1094C130.458 47.8336 129.285 47.7021 127.664 47.7063C126.982 47.7093 126.3 47.7123 125.598 47.7154C124.838 47.716 124.078 47.7166 123.318 47.7172C122.521 47.7196 121.724 47.7222 120.927 47.725C118.759 47.7319 116.59 47.7353 114.422 47.7376C113.068 47.7391 111.715 47.7413 110.361 47.7436C106.129 47.7508 101.897 47.7558 97.6643 47.7579C92.7731 47.7602 87.8819 47.7694 82.9907 47.7846C79.2135 47.7959 75.4363 47.8011 71.6591 47.8018C69.4014 47.8024 67.1437 47.8055 64.886 47.8148C62.7632 47.8234 60.6405 47.8246 58.5176 47.82C57.7375 47.8196 56.9574 47.8219 56.1773 47.827C55.1143 47.8337 54.0514 47.8297 52.9884 47.8252C52.0952 47.8263 52.0952 47.8263 51.1839 47.8275C49.7265 47.6328 49.7265 47.6328 48.7375 46.9338C48.1562 46.0625 48.1562 46.0625 48.1562 44.4922C39.6922 44.4922 31.2282 44.4922 22.5078 44.4922C22.516 46.6853 22.5242 48.8784 22.5327 51.1379C22.5587 58.3729 22.5761 65.608 22.5891 72.843C22.5972 77.2309 22.6083 81.6187 22.6262 86.0066C22.6419 89.8306 22.652 93.6546 22.6555 97.4787C22.6576 99.5039 22.6624 101.529 22.6738 103.554C22.6844 105.46 22.6877 107.366 22.6854 109.272C22.686 110.305 22.6945 111.339 22.7031 112.372C22.6999 113.295 22.6999 113.295 22.6966 114.236C22.698 114.771 22.6995 115.305 22.701 115.856C22.4752 117.485 22.1144 118.202 20.9374 119.344C18.1203 119.701 18.1203 119.701 16.7499 119.344C15.3186 118.215 14.7188 117.599 14.3927 115.782C14.3915 114.927 14.3915 114.927 14.3903 114.055C14.3815 113.072 14.3815 113.072 14.3724 112.069C14.3765 111.344 14.3808 110.619 14.3853 109.894C14.3824 109.13 14.3787 108.365 14.3742 107.601C14.3646 105.526 14.3683 103.45 14.3749 101.375C14.3802 99.2029 14.3753 97.0308 14.372 94.8587C14.3682 91.2104 14.3733 87.5622 14.3832 83.914C14.3946 79.6971 14.3909 75.4805 14.3794 71.2637C14.3699 67.6429 14.3686 64.0222 14.374 60.4014C14.3773 58.239 14.3777 56.0767 14.3708 53.9144C14.3648 51.8808 14.369 49.8475 14.3811 47.814C14.3838 47.0681 14.383 46.3222 14.3784 45.5763C14.3727 44.5573 14.3812 43.5383 14.3903 42.5193C14.3911 41.9493 14.3919 41.3793 14.3927 40.792C14.7205 38.8836 15.3951 38.0017 16.7499 36.6406C18.1742 36.3259 18.1742 36.3259 19.8226 36.3435C20.4407 36.3437 21.0589 36.3439 21.6957 36.3441C22.6928 36.3644 22.6928 36.3644 23.71 36.385C24.3925 36.3887 25.0751 36.3924 25.7782 36.3963C27.589 36.4062 29.3992 36.4319 31.2098 36.4609C33.0588 36.4877 34.9079 36.4997 36.7571 36.5128C40.3826 36.5409 44.0076 36.5855 47.6328 36.6406C47.6328 34.9133 47.6328 33.1859 47.6328 31.4062C43.7375 31.4384 39.8425 31.4788 35.9475 31.5296C34.1386 31.553 32.3297 31.5735 30.5207 31.5876C28.4378 31.6039 26.3551 31.6326 24.2723 31.6618C23.3046 31.6668 23.3046 31.6668 22.3173 31.672C18.9992 31.7286 16.5447 31.9246 13.6093 33.5C12.832 33.7591 12.832 33.7591 12.039 34.0234C11.4291 35.1746 11.4291 35.1746 10.9921 36.6406C10.812 37.1296 10.6319 37.6186 10.4463 38.1224C9.59682 41.1469 9.80151 44.2992 9.81232 47.4139C9.81111 48.1417 9.80944 48.8695 9.80736 49.5973C9.803 51.5921 9.80516 53.5869 9.8084 55.5818C9.81077 57.7352 9.80711 59.8886 9.80423 62.0419C9.79958 66.2586 9.80058 70.4752 9.80362 74.6918C9.80598 78.1191 9.80631 81.5465 9.80517 84.9738C9.80501 85.4616 9.80485 85.9495 9.80468 86.4522C9.80435 87.4433 9.804 88.4344 9.80366 89.4255C9.80067 98.7189 9.8041 108.012 9.80973 117.306C9.81441 125.278 9.8136 133.251 9.80877 141.223C9.80317 150.482 9.80096 159.742 9.80418 169.001C9.80451 169.989 9.80484 170.976 9.80517 171.964C9.80533 172.45 9.80549 172.936 9.80566 173.436C9.80656 176.859 9.80503 180.282 9.80256 183.704C9.79963 187.876 9.80043 192.048 9.80601 196.22C9.80876 198.348 9.80984 200.476 9.80637 202.604C9.80325 204.554 9.80498 206.503 9.81054 208.452C9.81225 209.489 9.80885 210.526 9.80524 211.563C9.76755 217.445 9.76755 217.445 12.2026 222.657C14.6937 225.09 17.0134 225.231 20.3787 225.206C20.7938 225.207 21.2089 225.209 21.6365 225.21C23.0256 225.213 24.4146 225.208 25.8038 225.203C26.8004 225.204 27.797 225.205 28.7935 225.207C30.9388 225.209 33.084 225.209 35.2293 225.206C38.6207 225.202 42.0121 225.207 45.4035 225.215C55.0471 225.235 64.6906 225.244 74.3342 225.238C79.6609 225.235 84.9875 225.241 90.3141 225.257C93.6863 225.267 97.0582 225.265 100.43 225.255C102.527 225.251 104.624 225.259 106.72 225.269C107.693 225.272 108.666 225.27 109.639 225.263C110.967 225.255 112.294 225.262 113.621 225.274C114.007 225.268 114.393 225.261 114.79 225.255C116.827 225.291 117.706 225.548 119.323 226.83C120.391 228.219 120.391 228.219 120.685 229.822C120.314 231.76 119.87 232.272 118.297 233.453C116.844 233.659 115.598 233.736 114.146 233.719C113.514 233.724 113.514 233.724 112.869 233.729C111.455 233.737 110.042 233.731 108.628 233.724C107.615 233.727 106.603 233.731 105.59 233.735C102.836 233.745 100.082 233.741 97.3288 233.734C94.4461 233.729 91.5634 233.734 88.6806 233.737C83.8358 233.741 78.9911 233.736 74.1463 233.726C68.5518 233.715 62.9573 233.718 57.3627 233.73C52.5572 233.739 47.7518 233.741 42.9463 233.735C40.0773 233.732 37.2084 233.732 34.3394 233.738C31.6387 233.745 28.9382 233.74 26.2375 233.728C25.2487 233.725 24.26 233.726 23.2712 233.731C16.6333 233.759 11.2463 233.525 6.15442 228.742C3.2507 225.438 2.03073 222.105 2.02344 217.76C2.0211 217.116 2.01876 216.471 2.01636 215.806C2.01641 215.089 2.01651 214.373 2.01666 213.656C2.01493 212.895 2.01298 212.135 2.01082 211.374C2.00558 209.281 2.00364 207.188 2.00225 205.095C2.0002 202.839 1.99519 200.583 1.99062 198.327C1.98027 192.877 1.975 187.427 1.97035 181.978C1.96805 179.411 1.96525 176.845 1.9625 174.279C1.9536 165.749 1.94601 157.219 1.94222 148.688C1.94122 146.475 1.94021 144.261 1.93919 142.048C1.93894 141.498 1.93868 140.947 1.93842 140.381C1.93408 131.467 1.92081 122.553 1.90381 113.639C1.88651 104.488 1.87708 95.3365 1.8754 86.1854C1.87427 81.0471 1.86968 75.9089 1.85632 70.7706C1.84496 66.395 1.84074 62.0194 1.84583 57.6438C1.84821 55.4117 1.84721 53.1796 1.83706 50.9475C1.82784 48.9026 1.82835 46.8579 1.83648 44.813C1.83773 44.0747 1.83545 43.3363 1.82924 42.598C1.78235 36.6556 2.74831 32.5429 6.84757 28.1552C11.8298 23.5078 17.2077 23.4012 23.7346 23.4525C24.4562 23.4544 25.1778 23.4559 25.8994 23.4569C27.7857 23.4609 29.6719 23.4712 31.5581 23.4828C33.488 23.4936 35.418 23.4983 37.348 23.5036C41.1253 23.5147 44.9024 23.5326 48.6796 23.5547C48.8294 23.1505 48.9792 22.7463 49.1335 22.3299C50.3379 19.5019 52.6503 17.8495 55.378 16.6069C59.7602 15.1617 67.6035 16.2666 71.7109 18.3203C71.7433 17.8237 71.7757 17.3271 71.809 16.8154C72.5185 12.0696 75.311 8.13683 79.039 5.23437C84.94 1.71477 92.4515 0.418261 98.8581 3.52911ZM81.4926 13.7075C79.7241 16.2169 79.424 19.0985 79.0517 22.0809C78.9179 23.1025 78.7208 24.1153 78.5156 25.125C74.7684 27.6231 69.2429 25.5965 65.1158 24.7764C61.0631 23.9873 61.0631 23.9873 57.0546 24.6016C54.4071 28.5054 54.4071 28.5054 55.4843 39.7812C78.458 39.7812 101.432 39.7812 125.102 39.7812C125.102 35.2902 125.102 30.7991 125.102 26.1719C123.361 24.0031 123.361 24.0031 121.857 23.933C121.427 23.9917 120.997 24.0504 120.554 24.1108C120.051 24.1756 119.549 24.2404 119.031 24.3071C116.928 24.6548 114.832 25.0358 112.735 25.4194C106.624 26.5319 106.624 26.5319 103.641 26.1719C102.103 24.6344 101.893 23.4579 101.841 21.3301C101.571 17.5014 100.506 14.9357 97.621 12.3662C92.6018 8.28242 85.8393 8.9782 81.4926 13.7075Z" fill="#282828"/>
<path d="M211.129 125.251C217.923 129.959 220.715 137.765 222.177 145.587C222.822 150.177 223.079 154.722 223.083 159.354C223.089 159.839 223.095 160.325 223.102 160.825C223.112 166.049 222.506 171.212 221.938 176.398C222.281 176.396 222.625 176.394 222.979 176.391C226.571 176.368 230.163 176.352 233.755 176.341C235.094 176.336 236.433 176.329 237.771 176.319C239.701 176.307 241.63 176.301 243.56 176.296C244.154 176.291 244.748 176.285 245.36 176.28C250.938 176.279 255.277 176.896 259.625 180.586C262.859 184.087 263.512 187.817 263.469 192.486C263.248 194.586 262.612 196.104 261.551 197.91C261.073 198.92 261.073 198.92 261.576 199.988C262.352 201.167 263.257 202.192 264.221 203.221C266.618 206.678 266.254 211.133 265.906 215.133C265.223 217.569 264.14 219 262.34 220.76C261.774 221.343 261.774 221.343 261.195 221.938C261.406 223.434 261.999 224.784 262.537 226.19C263.943 230.443 263.606 233.993 261.79 238.064C260.472 240.605 258.756 242.218 256.484 243.922C256.646 244.246 256.808 244.57 256.975 244.903C258.395 249.078 258.4 252.992 256.484 257.008C254.378 260.156 251.723 262.618 247.986 263.595C246.175 263.867 244.385 263.904 242.558 263.923C241.753 263.937 240.948 263.951 240.143 263.965C239.508 263.975 239.508 263.975 238.861 263.986C232.199 264.101 225.601 264.355 218.973 265.044C211.657 265.802 204.396 266.079 197.042 266.103C196.571 266.107 196.1 266.11 195.615 266.115C187.224 266.172 179.53 265.093 171.459 262.733C167.892 261.706 164.347 260.82 160.695 260.148C160.587 260.537 160.479 260.926 160.368 261.326C159.43 263.202 158.308 263.831 156.508 264.859C155.105 265.327 154.251 265.458 152.808 265.484C152.168 265.496 152.168 265.496 151.515 265.509C149.562 265.533 147.609 265.554 145.656 265.566C144.629 265.575 143.602 265.589 142.576 265.609C141.089 265.638 139.603 265.649 138.116 265.657C137.662 265.669 137.207 265.681 136.739 265.693C133.476 265.682 131.28 264.871 128.766 262.766C126.585 260.026 126.085 258.014 126.075 254.585C126.072 253.985 126.069 253.385 126.066 252.766C126.065 252.11 126.065 251.454 126.064 250.777C126.062 250.077 126.059 249.377 126.056 248.677C126.049 246.777 126.046 244.877 126.044 242.976C126.042 241.788 126.04 240.6 126.038 239.411C126.03 235.69 126.025 231.969 126.023 228.248C126.021 223.959 126.012 219.669 125.997 215.38C125.985 212.061 125.98 208.741 125.979 205.422C125.979 203.441 125.976 201.46 125.966 199.48C125.958 197.615 125.957 195.75 125.961 193.886C125.962 192.88 125.955 191.875 125.947 190.869C125.983 183.535 125.983 183.535 128.442 180.841C130.52 179.022 132.413 177.852 135.182 177.8C135.617 177.79 136.053 177.78 136.501 177.77C136.968 177.765 137.435 177.761 137.916 177.756C138.401 177.75 138.886 177.744 139.387 177.738C140.414 177.728 141.441 177.721 142.469 177.717C144.029 177.707 145.588 177.675 147.148 177.642C148.149 177.635 149.15 177.629 150.151 177.625C150.612 177.612 151.074 177.599 151.549 177.586C154.771 177.609 156.588 178.431 159.117 180.425C160.656 181.423 161.752 181.324 163.505 180.97C163.959 180.843 164.414 180.717 164.883 180.586C165.478 180.427 166.073 180.267 166.686 180.103C174.193 177.853 181.388 174.099 185.237 166.981C189.292 159.012 190.078 150.659 189.998 141.839C189.994 141.421 189.991 141.002 189.988 140.57C189.968 138.443 189.933 136.318 189.877 134.191C189.865 133.394 189.852 132.596 189.84 131.798C189.826 131.433 189.812 131.069 189.797 130.694C189.771 128.055 190.451 126.607 192.102 124.578C197.593 120.597 205.543 122.198 211.129 125.251ZM197.859 130.336C197.865 130.789 197.87 131.241 197.876 131.707C198.225 164.961 198.225 164.961 188.11 176.889C180.914 184.206 171.528 187.298 161.742 189.484C161.735 189.939 161.727 190.393 161.719 190.861C161.687 192.545 161.648 194.229 161.605 195.912C161.587 196.641 161.573 197.37 161.561 198.1C161.543 199.147 161.515 220.194 161.487 221.241C161.473 221.872 161.459 222.502 161.445 223.152C161.37 223.651 161.296 224.15 161.219 224.664C159.402 225.875 158.641 225.889 156.508 225.711C154.938 224.664 154.938 224.664 154.587 223.785C154.352 222.132 154.307 220.504 154.267 218.835C154.257 218.479 154.248 198.123 154.238 197.756C154.197 196.238 154.161 194.719 154.125 193.201C154.098 192.091 154.068 190.981 154.038 189.871C154.022 189.207 154.006 188.543 153.99 187.859C154.062 186.4 154.062 186.4 153.367 185.82C152.022 185.761 150.691 185.734 149.345 185.732C148.942 185.731 148.538 185.729 148.123 185.727C147.268 185.724 146.413 185.723 145.558 185.723C144.247 185.722 142.936 185.713 141.626 185.703C140.797 185.701 139.967 185.7 139.138 185.7C138.548 185.694 138.548 185.694 137.945 185.688C135.732 185.621 135.732 185.621 134 186.867C133.841 188.134 133.841 188.134 133.867 189.629C133.864 190.215 133.861 190.8 133.858 191.404C133.86 192.049 133.862 192.695 133.865 193.36C133.863 194.038 133.861 194.715 133.859 195.413C133.854 197.274 133.856 199.135 133.859 200.997C133.862 202.942 133.86 204.887 133.858 206.832C133.856 210.099 133.859 213.366 133.864 216.632C133.869 220.413 133.867 224.193 133.862 227.973C133.857 231.215 133.856 234.457 133.859 237.699C133.861 239.637 133.861 241.575 133.857 243.513C133.854 245.672 133.859 247.832 133.865 249.992C133.862 250.637 133.86 251.283 133.858 251.948C133.861 252.533 133.864 253.119 133.867 253.723C133.867 254.234 133.868 254.745 133.868 255.271C133.883 256.586 133.883 256.586 135.047 257.531C136.429 257.629 137.756 257.665 139.138 257.652C139.542 257.652 139.946 257.651 140.362 257.651C141.216 257.65 142.07 257.645 142.924 257.639C144.236 257.629 145.548 257.628 146.86 257.628C147.688 257.626 148.517 257.623 149.345 257.619C149.74 257.619 150.135 257.618 150.542 257.617C152.369 257.766 152.369 257.766 153.891 257.008C153.948 255.748 153.971 254.502 153.973 253.242C153.976 252.848 153.979 252.454 153.981 252.048C153.987 251.189 153.991 250.33 153.995 249.471C154.001 248.112 154.011 246.752 154.023 245.392C154.055 241.526 154.083 237.659 154.101 233.792C154.112 231.429 154.13 229.067 154.153 226.704C154.161 225.803 154.165 224.902 154.167 224.002C154.17 222.74 154.182 221.478 154.196 220.216C154.194 219.845 154.193 219.473 154.191 219.091C154.229 216.824 154.584 215.363 155.984 213.562C157.486 213.137 158.584 213.386 160.172 213.562C161.667 215.058 161.364 216.093 161.386 218.188C161.391 218.556 161.396 218.923 161.402 219.302C161.418 220.52 161.427 221.738 161.436 222.956C161.445 223.799 161.456 224.643 161.466 225.486C161.493 227.708 161.514 229.93 161.533 232.152C161.554 234.418 161.581 236.685 161.607 238.951C161.658 243.4 161.702 247.848 161.742 252.297C162.215 252.402 162.215 252.402 162.698 252.509C163.116 252.602 163.534 252.694 163.965 252.79C164.583 252.927 164.583 252.927 165.215 253.067C167.047 253.476 168.877 253.897 170.706 254.325C171.085 254.414 171.464 254.502 171.855 254.594C175.072 255.354 178.258 256.206 181.441 257.096C193.43 260.058 206.702 258.462 218.797 257.008C218.628 256.359 218.458 255.71 218.284 255.041C217.169 250.77 217.913 247.488 219.32 243.398C217.921 242.172 217.921 242.172 216.18 241.828C216.05 241.558 215.921 241.288 215.787 241.01C215.083 239.638 214.307 238.323 213.511 237.003C211.839 233.701 212.116 229.631 213.203 226.19C213.806 224.566 214.475 223.232 215.656 221.938C215.005 220.581 214.287 219.279 213.53 217.979C212.516 216.18 212.516 216.18 211.992 214.609C210.133 215.3 208.529 216.132 206.856 217.194C203.921 218.97 201.456 220.416 197.925 220.302C196.289 219.844 196.289 219.844 195.242 218.273C194.955 215.514 194.955 215.514 195.854 214.323C197.078 213.352 198.291 212.923 199.757 212.385C205.501 210.061 209.586 206.351 212.123 200.673C214.297 194.641 214.137 188.559 214.066 182.241C214.039 178.383 214.22 174.609 214.609 170.771C215.718 159.582 216.827 145.16 210.115 135.421C208.04 132.904 205.833 130.988 202.57 130.336C201.751 130.314 200.932 130.308 200.113 130.315C199.479 130.32 199.479 130.32 198.832 130.324C198.511 130.328 198.19 130.332 197.859 130.336ZM224.097 186.704C223.237 188.472 222.922 190.135 222.984 192.102C223.88 194.292 225.178 195.567 227.172 196.812C228.976 197.123 230.757 197.106 232.584 197.091C233.107 197.093 233.631 197.095 234.17 197.097C235.275 197.098 236.379 197.094 237.484 197.085C239.171 197.074 240.856 197.085 242.543 197.099C243.618 197.097 244.693 197.095 245.768 197.091C246.271 197.095 246.773 197.099 247.29 197.103C250.341 197.061 252.051 196.72 254.391 194.719C255.747 192.931 255.663 191.142 255.438 188.961C254.298 186.59 253.182 185.54 250.748 184.563C248.806 183.994 246.881 184.026 244.871 184.041C244.194 184.039 244.194 184.039 243.504 184.037C242.556 184.036 241.608 184.039 240.659 184.045C239.215 184.054 237.772 184.045 236.328 184.035C235.402 184.036 234.477 184.038 233.551 184.041C232.91 184.037 232.91 184.037 232.256 184.032C229.137 184.07 226.5 184.541 224.097 186.704ZM219.909 207.379C218.914 209.867 218.914 212.024 219.909 214.511C221.464 216.325 223.02 217.117 225.421 217.377C227.156 217.443 228.885 217.458 230.621 217.454C231.578 217.458 231.577 217.458 232.553 217.462C233.899 217.465 235.245 217.465 236.591 217.46C238.646 217.456 240.7 217.471 242.755 217.487C244.065 217.488 245.375 217.488 246.684 217.486C247.603 217.495 247.603 217.495 248.54 217.504C252.001 217.475 254.202 217.219 257.008 215.133C258.286 213.577 258.246 211.857 258.184 209.878C257.987 208.309 257.51 207.431 256.484 206.234C253.461 204.141 250.267 204.437 246.735 204.456C245.777 204.453 245.777 204.453 244.8 204.451C243.452 204.45 242.104 204.453 240.756 204.459C238.695 204.468 236.634 204.459 234.574 204.449C233.262 204.45 231.951 204.452 230.64 204.456C230.025 204.452 229.409 204.449 228.776 204.446C225.231 204.476 222.367 204.511 219.909 207.379ZM220.694 228.055C219.614 230.257 219.629 231.665 220.367 233.977C221.337 235.629 222.011 236.391 223.758 237.177C226.251 237.804 228.618 237.8 231.179 237.798C231.714 237.8 232.248 237.803 232.798 237.805C233.924 237.808 235.051 237.808 236.177 237.806C237.897 237.804 239.616 237.817 241.335 237.83C242.432 237.831 243.529 237.831 244.625 237.831C245.393 237.838 245.393 237.838 246.177 237.845C249.417 237.823 251.821 237.488 254.292 235.187C255.194 233.431 255.562 231.746 255.438 229.789C254.282 227.434 253.111 226.137 250.727 225.078C248.764 224.845 246.813 224.858 244.838 224.87C244.267 224.868 243.696 224.867 243.108 224.865C241.902 224.864 240.697 224.867 239.491 224.873C237.647 224.882 235.804 224.873 233.96 224.863C232.788 224.864 231.616 224.866 230.443 224.87C229.893 224.866 229.342 224.863 228.774 224.86C225.142 224.895 223.178 225.244 220.694 228.055ZM225.602 248.109C224.905 249.889 224.905 249.889 225.078 251.773C226.153 253.882 227.045 255.139 229.266 255.961C231.643 256.17 234.022 256.155 236.407 256.155C237.568 256.157 238.727 256.176 239.888 256.196C240.631 256.199 241.375 256.201 242.118 256.202C242.79 256.207 243.462 256.211 244.155 256.215C246.347 255.916 247.465 255.274 249.156 253.867C249.978 251.983 250.332 250.818 249.909 248.796C248.95 247.254 248.065 246.49 246.539 245.492C245.12 245.281 243.917 245.186 242.501 245.196C242.117 245.192 241.733 245.189 241.338 245.186C240.529 245.182 239.72 245.184 238.911 245.19C237.678 245.198 236.449 245.18 235.217 245.16C234.428 245.159 233.639 245.16 232.85 245.163C232.485 245.156 232.12 245.149 231.744 245.142C228.797 245.198 227.574 246.064 225.602 248.109Z" fill="#C83E6F"/>
<path d="M18.582 105.854C20.7233 106.198 21.2144 106.543 22.5078 108.242C22.7654 109.824 22.7654 109.824 22.7596 111.713C22.7613 112.061 22.7631 112.409 22.765 112.768C22.7684 113.933 22.7569 135.098 22.7455 136.264C22.7449 137.1 22.7452 137.935 22.7464 138.771C22.747 141.04 22.7347 143.309 22.7201 145.577C22.707 147.948 22.7057 150.319 22.7033 152.69C22.6967 157.18 22.6796 161.67 22.6586 166.16C22.6352 171.272 22.6236 176.383 22.6131 181.495C22.5912 192.01 22.5544 202.524 22.5078 213.039C22.9995 213.037 23.4912 213.035 23.9979 213.033C35.9543 212.987 47.9108 212.952 59.8673 212.931C65.6494 212.92 71.4314 212.905 77.2134 212.881C82.2521 212.86 87.2907 212.847 92.3294 212.842C94.9982 212.839 97.6669 212.833 100.336 212.818C102.846 212.804 105.357 212.799 107.868 212.802C108.79 212.802 109.713 212.797 110.636 212.789C111.893 212.779 113.151 212.782 114.409 212.787C114.775 212.781 115.142 212.775 115.519 212.769C117.265 212.79 118.163 212.938 119.572 214.004C120.681 215.533 120.66 216.423 120.391 218.273C119.459 219.915 119.07 220.284 117.25 220.891C115.93 220.943 114.624 220.966 113.303 220.964C112.897 220.966 112.492 220.967 112.074 220.969C110.711 220.973 109.347 220.974 107.984 220.975C107.008 220.977 106.032 220.98 105.056 220.983C102.402 220.99 99.7484 220.993 97.0944 220.995C95.4372 220.997 93.7799 220.999 92.1226 221.001C86.9396 221.009 81.7566 221.014 76.5736 221.016C70.5862 221.018 64.5989 221.027 58.6116 221.042C53.9862 221.054 49.3608 221.059 44.7354 221.06C41.9715 221.06 39.2077 221.063 36.4439 221.073C33.8446 221.081 31.2454 221.082 28.6461 221.078C27.6917 221.077 26.7373 221.08 25.7829 221.085C24.4807 221.091 23.1788 221.088 21.8766 221.083C21.4983 221.087 21.1201 221.091 20.7303 221.096C18.4459 221.073 16.9973 220.723 15.1796 219.32C14.4186 217.798 14.585 216.468 14.5792 214.767C14.5772 214.403 14.5753 214.038 14.5733 213.662C14.5676 212.435 14.5655 211.207 14.5636 209.98C14.5603 209.102 14.5568 208.224 14.5531 207.346C14.544 204.957 14.5385 202.568 14.5342 200.179C14.5315 198.687 14.5283 197.196 14.525 195.704C14.515 191.038 14.5076 186.373 14.5032 181.708C14.4981 176.318 14.4843 170.929 14.4632 165.539C14.4474 161.376 14.4397 157.213 14.4379 153.05C14.4367 150.562 14.432 148.075 14.4188 145.587C14.4067 143.247 14.4044 140.907 14.4098 138.566C14.4101 137.707 14.4067 136.848 14.3996 135.989C14.3903 134.816 14.394 113.644 14.4009 112.471C14.3996 111.815 14.3984 111.159 14.3971 110.483C14.8132 107.725 15.7964 106.302 18.582 105.854Z" fill="#282828"/>
<path d="M87.4141 64.9062C89.2686 66.3762 90.9743 67.9459 92.6484 69.6172C92.9885 69.9512 93.3286 70.2852 93.679 70.6293C99.345 76.6059 101.768 84.9979 101.657 93.0921C101.28 98.73 100.146 105.795 95.8054 109.834C94.7422 110.445 94.7422 110.445 92.8774 110.413C91.0781 109.922 91.0781 109.922 90.0312 109.071C89.2511 107.219 89.5526 106.111 90.0312 104.164C90.3555 103.406 90.6946 102.653 91.0454 101.907C93.9036 95.785 93.7554 89.5429 91.6016 83.2266C88.4301 76.1259 83.923 71.7144 76.6182 68.8647C70.5616 67.0478 63.8 67.3613 58.1016 70.1406C51.873 73.6504 47.775 78.7211 45.4818 85.4553C44.1306 91.1328 44.4377 97.3752 47.1094 102.594C47.3314 103.044 47.5534 103.494 47.7821 103.958C50.9943 109.872 56.225 113.61 62.6223 115.582C68.599 116.933 74.8328 116.473 80.2495 113.455C81.8083 112.611 82.275 112.539 84.1753 112.539C85.8438 113.062 85.8438 113.062 86.8906 113.913C87.6695 115.763 87.4366 116.909 86.8906 118.82C81.7147 123.63 74.1031 124.871 67.274 124.742C58.5026 123.964 50.1742 120.392 44.2775 113.731C37.5981 105.267 35.8812 96.8716 36.6406 86.3672C37.7191 78.1918 42.7622 70.9017 49.105 65.8223C60.5199 57.8273 75.6892 56.9425 87.4141 64.9062Z" fill="#C83E6F"/>
<path d="M42.3402 136.414C42.7654 136.411 43.1906 136.409 43.6287 136.406C45.0585 136.398 46.4881 136.402 47.9179 136.406C48.941 136.403 49.9641 136.399 50.9871 136.395C53.7698 136.385 56.5523 136.386 59.335 136.389C61.6557 136.391 63.9764 136.387 66.2971 136.384C71.7708 136.377 77.2444 136.378 82.7181 136.384C88.3701 136.39 94.022 136.382 99.674 136.368C104.522 136.357 109.37 136.353 114.218 136.356C117.116 136.358 120.013 136.357 122.911 136.348C125.635 136.34 128.359 136.342 131.084 136.352C132.085 136.354 133.086 136.352 134.087 136.346C135.451 136.34 136.815 136.346 138.179 136.355C138.577 136.35 138.976 136.345 139.386 136.34C141.197 136.365 142.199 136.486 143.67 137.582C144.754 139.114 144.737 140.013 144.469 141.852C143.537 143.493 143.148 143.862 141.328 144.469C139.975 144.522 138.635 144.546 137.282 144.546C136.657 144.549 136.657 144.549 136.02 144.552C134.621 144.557 133.221 144.559 131.822 144.561C130.82 144.565 129.818 144.568 128.817 144.572C126.093 144.581 123.368 144.586 120.644 144.591C118.943 144.593 117.242 144.597 115.541 144.6C110.221 144.61 104.901 144.617 99.5809 144.622C93.435 144.627 87.2893 144.641 81.1434 144.662C76.3958 144.678 71.6481 144.685 66.9005 144.687C64.0634 144.688 61.2265 144.693 58.3895 144.706C55.7215 144.718 53.0536 144.721 50.3855 144.715C49.4058 144.715 48.4261 144.718 47.4464 144.725C46.1097 144.735 44.7736 144.731 43.437 144.724C42.8543 144.733 42.8543 144.733 42.2598 144.741C40.3579 144.718 39.3236 144.511 37.7074 143.472C36.6406 142.375 36.6406 142.375 36.3298 141.31C36.4604 138.486 36.4604 138.486 37.1841 137.286C38.7961 136.236 40.4782 136.4 42.3402 136.414Z" fill="#282828"/>
<path d="M42.3636 159.969C42.7913 159.966 43.2191 159.963 43.6598 159.96C45.098 159.953 46.5361 159.957 47.9743 159.96C49.0034 159.957 50.0325 159.954 51.0616 159.949C53.8604 159.94 56.6591 159.941 59.458 159.944C61.7917 159.945 64.1255 159.942 66.4593 159.939C71.963 159.932 77.4668 159.932 82.9705 159.938C88.6553 159.944 94.3399 159.937 100.025 159.923C104.9 159.911 109.775 159.908 114.65 159.911C117.564 159.913 120.479 159.911 123.393 159.903C126.132 159.894 128.871 159.896 131.611 159.906C132.618 159.908 133.625 159.907 134.632 159.901C136.004 159.894 137.374 159.9 138.746 159.91C139.148 159.904 139.549 159.899 139.963 159.894C141.689 159.918 142.642 159.932 143.931 161.137C144.663 162.673 144.679 163.724 144.469 165.406C143.931 166.535 143.931 166.535 142.898 167.5C141.446 167.709 140.199 167.781 138.746 167.762C138.104 167.767 138.104 167.767 137.45 167.771C136.011 167.778 134.574 167.77 133.135 167.763C132.106 167.765 131.077 167.767 130.048 167.771C127.249 167.779 124.45 167.773 121.652 167.764C118.727 167.757 115.802 167.76 112.877 167.762C107.964 167.763 103.052 167.756 98.139 167.744C92.4542 167.73 86.7696 167.729 81.0849 167.736C75.623 167.741 70.1611 167.738 64.6991 167.731C62.3717 167.727 60.0442 167.728 57.7167 167.73C54.9774 167.733 52.2381 167.727 49.4988 167.716C48.4916 167.713 47.4845 167.713 46.4773 167.715C45.1059 167.718 43.7349 167.712 42.3636 167.703C41.7611 167.708 41.7611 167.708 41.1464 167.712C38.4641 167.68 38.4641 167.68 37.1793 166.766C36.508 165.724 36.4304 165.07 36.4444 163.836C36.4403 163.48 36.4363 163.123 36.4321 162.756C37.0716 159.647 39.7219 159.948 42.3636 159.969Z" fill="#282828"/>
<path d="M175.679 53.2812C178.029 53.9775 178.029 53.9775 179.016 55.375C179.215 56.9439 179.215 56.9439 179.219 58.9081C179.221 59.2692 179.224 59.6303 179.227 60.0023C179.235 61.2151 179.231 62.4276 179.227 63.6405C179.23 64.5088 179.234 85.3772 179.238 86.2456C179.247 88.6064 179.247 90.9672 179.244 93.3281C179.242 95.2976 179.245 97.267 179.249 99.2365C179.256 103.882 179.255 108.528 179.249 113.173C179.243 117.969 179.25 122.764 179.264 127.56C179.276 131.675 179.28 135.789 179.276 139.904C179.275 142.363 179.276 144.821 179.285 147.28C179.293 149.592 179.291 151.904 179.281 154.215C179.279 155.065 179.281 155.914 179.286 156.763C179.293 157.921 179.287 159.078 179.278 160.236C179.278 160.885 179.278 161.533 179.278 162.201C178.965 164.151 178.499 164.772 176.922 165.93C175.09 166.224 175.09 166.224 173.258 165.93C171.797 164.525 171.217 163.647 170.899 161.633C170.898 160.994 170.896 160.355 170.895 159.697C170.891 159.339 170.887 158.982 170.884 158.614C170.874 157.42 170.879 156.227 170.885 155.033C170.881 154.175 170.877 153.318 170.871 152.461C170.859 150.134 170.861 147.808 170.866 145.482C170.868 143.54 170.864 141.598 170.861 139.655C170.852 135.074 170.854 130.493 170.862 125.912C170.871 121.185 170.863 116.458 170.846 111.731C170.832 107.673 170.828 103.614 170.833 99.5555C170.835 97.1316 170.834 94.7078 170.823 92.2839C170.814 90.005 170.817 87.7264 170.83 85.4476C170.832 84.6113 170.831 63.7751 170.824 62.9389C170.816 61.7969 170.823 60.6561 170.835 59.5141C170.836 58.8753 170.836 58.2365 170.836 57.5783C171.388 54.7489 172.78 53.2812 175.679 53.2812Z" fill="#282828"/>
<path d="M42.5591 182.944C43.5575 182.938 43.5575 182.938 44.5761 182.931C45.3098 182.937 46.0435 182.943 46.7772 182.949C47.5529 182.948 48.3286 182.946 49.1043 182.943C51.2078 182.938 53.3111 182.946 55.4145 182.956C57.6162 182.966 59.8179 182.964 62.0195 182.963C65.7162 182.964 69.4127 182.973 73.1094 182.988C77.3836 183.004 81.6576 183.01 85.9319 183.009C90.0439 183.008 94.1559 183.014 98.2679 183.022C100.018 183.026 101.768 183.028 103.518 183.028C105.578 183.029 107.638 183.036 109.698 183.046C110.454 183.049 111.211 183.051 111.967 183.05C112.999 183.05 114.03 183.056 115.062 183.063C115.64 183.065 116.217 183.067 116.812 183.068C118.303 183.204 119.161 183.411 120.391 184.25C121.246 186.001 121.563 186.932 121.045 188.83C120.391 190.008 120.391 190.008 119.344 191.055C117.952 191.188 117.952 191.188 116.148 191.191C115.466 191.195 114.785 191.199 114.082 191.202C113.322 191.201 112.562 191.2 111.802 191.198C111.005 191.201 110.208 191.203 109.411 191.207C107.243 191.214 105.075 191.214 102.906 191.213C101.098 191.212 99.2899 191.215 97.4817 191.217C93.2169 191.223 88.9522 191.223 84.6874 191.22C80.2833 191.217 75.8792 191.223 71.4751 191.234C67.6979 191.244 63.9207 191.247 60.1435 191.245C57.8858 191.244 55.6281 191.245 53.3704 191.253C51.2476 191.259 49.1249 191.258 47.002 191.251C46.2219 191.25 45.4418 191.252 44.6617 191.256C43.5988 191.261 42.5358 191.256 41.4728 191.251C40.8774 191.251 40.2819 191.251 39.6683 191.251C38.2109 191.055 38.2109 191.055 37.2383 190.386C36.3974 189.117 36.3988 187.853 36.3298 186.362C37.1834 183.436 39.8688 182.942 42.5591 182.944Z" fill="#282828"/>
<path d="M82.7031 79.5625C83.75 80.0859 83.75 80.0859 84.2734 81.1328C84.5949 83.2706 84.7557 84.5727 83.5651 86.4184C82.5171 87.6137 81.4208 88.7257 80.2802 89.8329C79.8706 90.244 79.461 90.6551 79.0391 91.0786C78.1723 91.9436 77.3004 92.8034 76.4238 93.6584C75.085 94.9668 73.7669 96.2937 72.4501 97.6242C71.6044 98.4633 70.7576 99.3013 69.9096 100.138C69.5163 100.534 69.123 100.931 68.7178 101.339C65.6043 104.343 65.6043 104.343 63.4019 104.738C61.7656 104.687 61.7656 104.687 60.4182 103.72C58.7973 101.614 57.4324 99.4308 56.106 97.1304C55.8431 96.6941 55.5803 96.2579 55.3095 95.8085C52.9165 91.6899 52.9165 91.6899 53.3906 88.9844C54.4702 87.4468 54.4702 87.4468 56.0078 86.3672C57.8071 86.1709 57.8071 86.1709 59.6719 86.8906C60.9256 88.349 61.8444 89.9463 62.8125 91.6016C63.3309 92.3032 63.8536 93.0017 64.3828 93.6953C64.789 93.2672 65.1952 92.8391 65.6137 92.398C67.1286 90.807 68.6575 89.2302 70.191 87.6571C70.8517 86.9754 71.5086 86.2899 72.1615 85.6007C73.1028 84.6084 74.0572 83.6304 75.0151 82.654C75.3027 82.3449 75.5902 82.0358 75.8864 81.7173C78.1362 79.4649 79.5409 79.1943 82.7031 79.5625Z" fill="#282828"/>
<path d="M116.377 65.7333C116.934 65.725 117.491 65.7167 118.066 65.7081C118.665 65.708 119.264 65.7079 119.882 65.7078C120.5 65.7038 121.118 65.6998 121.755 65.6957C123.062 65.69 124.369 65.6885 125.677 65.6909C127.677 65.6914 129.676 65.6696 131.676 65.6464C132.946 65.6437 134.216 65.6423 135.486 65.6423C136.384 65.6295 136.384 65.6295 137.299 65.6163C141.438 65.6524 141.438 65.6524 143.54 67.181C144.679 68.8844 144.853 69.7018 144.469 71.7109C143.387 73.0878 142.761 73.7276 141.024 74.0741C140.515 74.0773 140.005 74.0806 139.48 74.0839C138.9 74.0922 138.32 74.1005 137.722 74.109C137.099 74.1064 136.475 74.1038 135.832 74.1012C135.189 74.1044 134.547 74.1077 133.884 74.111C132.526 74.1147 131.167 74.1131 129.808 74.1064C127.726 74.0992 125.646 74.117 123.564 74.137C122.244 74.1375 120.925 74.1365 119.605 74.1339C118.982 74.1408 118.358 74.1478 117.715 74.1549C113.425 74.1064 113.425 74.1064 111.607 72.5941C110.73 70.6601 110.894 69.5418 111.492 67.5234C113.065 65.9914 114.216 65.7528 116.377 65.7333Z" fill="#282828"/>
<path d="M115.898 112.851C116.768 112.841 116.768 112.841 117.656 112.831C118.282 112.832 118.909 112.834 119.554 112.836C120.52 112.831 120.52 112.831 121.504 112.827C123.215 112.823 124.926 112.827 126.636 112.833C128.374 112.834 130.111 112.816 131.848 112.802C133.17 112.801 134.492 112.801 135.814 112.803C136.439 112.797 137.065 112.791 137.709 112.785C138.581 112.792 138.581 112.792 139.471 112.8C140.238 112.8 140.238 112.8 141.021 112.8C142.771 113.139 143.391 113.76 144.469 115.156C144.763 116.988 144.763 116.988 144.469 118.82C143.315 120.238 142.354 120.838 140.54 121.112C138.858 121.201 137.189 121.218 135.505 121.211C134.579 121.215 134.579 121.215 133.634 121.22C132.33 121.224 131.026 121.222 129.722 121.216C127.726 121.209 125.731 121.226 123.736 121.246C122.468 121.247 121.2 121.246 119.933 121.243C119.336 121.25 118.74 121.257 118.125 121.264C114.011 121.216 114.011 121.216 111.881 119.703C110.969 118.297 110.969 118.297 110.969 116.399C111.845 113.443 112.864 112.868 115.898 112.851Z" fill="#282828"/>
<path d="M116.377 89.2963C117.213 89.2864 117.213 89.2864 118.066 89.2762C118.665 89.2777 119.264 89.2793 119.882 89.2809C120.5 89.2781 121.118 89.2754 121.755 89.2725C123.062 89.2692 124.369 89.2699 125.677 89.2743C127.677 89.2788 129.676 89.2637 131.676 89.2471C132.946 89.2463 134.216 89.2466 135.486 89.2481C136.384 89.2393 136.384 89.2393 137.299 89.2303C141.422 89.2665 141.422 89.2665 143.54 90.4564C144.469 91.6016 144.469 91.6016 144.763 93.4336C144.421 95.5644 144.042 96.0506 142.375 97.3594C141.024 97.6288 141.024 97.6288 139.48 97.6386C138.9 97.6469 138.32 97.6552 137.722 97.6637C137.099 97.6611 136.475 97.6585 135.832 97.6559C135.189 97.6591 134.547 97.6623 133.884 97.6657C132.526 97.6694 131.167 97.6677 129.808 97.6611C127.726 97.6538 125.646 97.6717 123.564 97.6916C122.244 97.6921 120.925 97.6912 119.605 97.6886C118.982 97.6955 118.358 97.7024 117.715 97.7096C113.425 97.6611 113.425 97.6611 111.607 96.1488C110.73 94.2148 110.894 93.0965 111.492 91.0781C113.066 89.544 114.214 89.3088 116.377 89.2963Z" fill="#282828"/>
</svg>
