<svg width="258" height="255" viewBox="0 0 258 255" fill="none" xmlns="http://www.w3.org/2000/svg">
<path d="M21.921 0.373816C22.866 0.37014 23.811 0.366463 24.7847 0.362675C27.9651 0.351623 31.1456 0.347792 34.3261 0.343985C36.6009 0.337722 38.8756 0.331075 41.1504 0.324073C47.3406 0.306653 53.5307 0.296109 59.7209 0.287867C63.5866 0.282719 67.4523 0.276644 71.318 0.270356C82.0222 0.253486 92.7264 0.238851 103.431 0.231607C106.208 0.229697 108.985 0.227777 111.763 0.225821C112.453 0.225338 113.143 0.224854 113.854 0.224355C125.037 0.216055 136.219 0.190718 147.401 0.158241C158.883 0.125164 170.365 0.107491 181.847 0.103963C188.294 0.10161 194.74 0.0926151 201.186 0.0675018C207.25 0.0442591 213.314 0.0399728 219.378 0.0502632C221.603 0.0507596 223.829 0.0444093 226.055 0.0307072C229.094 0.0130441 232.132 0.0200674 235.171 0.0332401C236.051 0.0222709 236.931 0.0113016 237.838 0C243.653 0.0608312 247.014 1.1754 251.8 4.52099C256.373 9.45551 256.949 13.304 256.954 19.8133C256.958 20.5616 256.962 21.3099 256.967 22.0808C256.98 24.5956 256.986 27.1104 256.993 29.6252C257 31.4255 257.009 33.2257 257.017 35.026C257.044 40.9449 257.059 46.8638 257.073 52.7827C257.079 54.8203 257.084 56.858 257.089 58.8956C257.111 67.372 257.13 75.8483 257.141 84.3247C257.157 96.4716 257.19 108.618 257.247 120.765C257.286 129.306 257.306 137.847 257.311 146.388C257.314 151.489 257.326 156.59 257.359 161.691C257.389 166.492 257.395 171.292 257.384 176.093C257.383 177.852 257.392 179.612 257.409 181.371C257.565 197.872 257.565 197.872 253.39 203.1C247.882 208.021 242.383 209.112 235.181 208.975C233.95 208.976 233.95 208.976 232.694 208.977C230.01 208.974 227.327 208.943 224.643 208.912C222.772 208.904 220.9 208.898 219.028 208.894C214.122 208.879 209.217 208.84 204.311 208.796C199.297 208.755 194.283 208.736 189.268 208.716C179.445 208.674 169.623 208.605 159.8 208.521C159.823 209.364 159.846 210.207 159.87 211.076C159.888 212.171 159.906 213.267 159.925 214.396C159.948 215.487 159.971 216.577 159.995 217.701C159.8 220.521 159.8 220.521 157.8 222.521C155.237 222.708 155.237 222.708 152.8 222.521C152.47 222.191 152.14 221.861 151.8 221.521C151.8 217.231 151.8 212.941 151.8 208.521C136.62 208.521 121.44 208.521 105.8 208.521C105.8 221.721 105.8 234.921 105.8 248.521C120.98 248.521 136.16 248.521 151.8 248.521C151.8 243.571 151.8 226.621 151.8 221.521C154.275 220.531 154.275 232.531 156.8 231.521C157.79 232.181 158.975 217.021 159.995 217.701C160.216 220.328 160.081 238.53 159.987 241.146C159.974 241.852 159.96 242.559 159.946 243.287C159.911 245.032 159.857 246.776 159.8 248.521C160.932 248.498 162.063 248.475 163.229 248.451C164.711 248.432 166.193 248.414 167.675 248.396C168.421 248.379 169.167 248.362 169.936 248.345C171.892 248.328 173.847 248.418 175.8 248.521C177.8 250.521 177.8 250.521 177.987 253.083C177.8 255.521 177.8 255.521 176.8 256.521C173.822 256.622 170.868 256.657 167.89 256.65C166.487 256.653 166.487 256.653 165.057 256.656C161.95 256.66 158.844 256.657 155.737 256.654C153.589 256.654 151.44 256.655 149.292 256.657C144.782 256.658 140.273 256.656 135.764 256.651C129.969 256.646 124.175 256.649 118.381 256.655C113.942 256.659 109.504 256.657 105.065 256.655C102.928 256.654 100.791 256.655 98.6537 256.657C95.6724 256.66 92.6912 256.656 89.7099 256.65C88.3711 256.653 88.3711 256.653 87.0053 256.656C80.914 256.635 80.914 256.635 79.7997 255.521C79.6122 253.083 79.6122 253.083 79.7997 250.521C80.4597 249.861 81.1197 249.201 81.7997 248.521C87.0797 248.521 92.3597 248.521 97.7997 248.521C97.7997 235.321 97.7997 222.121 97.7997 208.521C91.8288 208.567 85.8578 208.614 79.706 208.662C75.9143 208.682 72.1227 208.701 68.331 208.716C62.3178 208.74 56.3049 208.768 50.2919 208.823C45.4419 208.866 40.5922 208.89 35.742 208.9C33.8953 208.908 32.0486 208.922 30.202 208.944C27.6073 208.973 25.0137 208.977 22.4189 208.975C21.6622 208.989 20.9055 209.004 20.1258 209.019C13.7951 208.97 8.96857 207.36 4.21104 203.098C-1.146 196.376 0.109819 186.955 0.168608 178.833C0.163465 177.031 0.156182 175.228 0.146925 173.425C0.128448 168.545 0.141325 163.666 0.161015 158.785C0.177431 153.672 0.168585 148.558 0.163496 143.444C0.158979 134.859 0.174824 126.274 0.202788 117.689C0.234848 107.769 0.234819 97.8507 0.217574 87.9314C0.201699 78.3793 0.208447 68.8273 0.22551 59.2751C0.232374 55.2142 0.231355 51.1535 0.223965 47.0926C0.216293 42.3097 0.228459 37.5271 0.255814 32.7443C0.262689 30.9911 0.262805 29.238 0.255598 27.4848C0.24688 25.0875 0.262898 22.6915 0.285048 20.2943C0.276807 19.6042 0.268565 18.9141 0.260075 18.2031C0.351086 12.8488 1.88206 9.85718 4.79971 5.52099C10.254 0.46575 14.7559 0.372331 21.921 0.373816ZM9.79971 13.521C8.73018 16.7296 8.67654 19.0135 8.67946 22.3865C8.67808 23.6081 8.6767 24.8298 8.67528 26.0884C8.67883 27.4496 8.68247 28.8109 8.68619 30.1721C8.68649 31.6243 8.68636 33.0764 8.68582 34.5286C8.68559 38.4214 8.6914 42.3143 8.69843 46.2072C8.70412 49.8585 8.70439 53.5099 8.70511 57.1612C8.71036 67.8437 8.72432 78.5261 8.73721 89.2085C8.75784 113.072 8.77846 136.935 8.79971 161.521C87.9997 161.521 167.2 161.521 248.8 161.521C248.862 137.699 248.923 113.877 248.987 89.3335C249.015 81.809 249.042 74.2845 249.07 66.532C249.08 59.7927 249.08 59.7927 249.086 53.0535C249.089 50.0495 249.1 47.0456 249.116 44.0417C249.137 40.2099 249.143 36.3783 249.139 32.5465C249.14 31.1402 249.146 29.734 249.157 28.3278C249.172 26.4276 249.167 24.5273 249.16 22.627C249.163 21.5623 249.166 20.4977 249.169 19.4007C248.634 15.2309 246.961 12.7999 244.176 9.73314C240.466 7.84056 236.887 8.10124 232.779 8.12658C231.857 8.12049 230.935 8.1144 229.985 8.10812C226.888 8.09144 223.792 8.09627 220.695 8.10107C218.477 8.09373 216.26 8.08514 214.042 8.0754C208.014 8.05314 201.985 8.05026 195.956 8.05215C190.926 8.05227 185.896 8.04371 180.866 8.03537C168.322 8.01502 155.778 8.01399 143.233 8.02118C132.342 8.02675 121.45 8.00593 110.558 7.97282C99.373 7.93908 88.1881 7.92439 77.003 7.92853C70.7239 7.9306 64.4451 7.92508 58.1661 7.90064C52.2612 7.87842 46.3568 7.88022 40.4519 7.90057C38.2839 7.90399 36.1159 7.89886 33.948 7.88459C30.9894 7.86645 28.0326 7.8791 25.0742 7.89953C23.7854 7.88075 23.7854 7.88075 22.4707 7.86159C16.5596 7.94918 13.8701 9.17879 9.79971 13.521ZM8.79971 169.521C6.82748 190.206 6.82748 190.206 11.7997 197.521C16.1579 201.196 20.4355 200.947 25.8645 200.909C27.2366 200.917 27.2366 200.917 28.6365 200.925C31.7027 200.939 34.7684 200.932 37.8346 200.925C40.0325 200.931 42.2304 200.938 44.4282 200.946C50.3993 200.964 56.3702 200.963 62.3412 200.957C67.324 200.954 72.3067 200.96 77.2895 200.966C89.7154 200.981 102.141 200.977 114.567 200.965C125.355 200.955 136.144 200.968 146.932 200.992C158.013 201.016 169.094 201.026 180.175 201.019C186.395 201.016 192.615 201.018 198.834 201.036C204.683 201.051 210.53 201.047 216.379 201.028C218.526 201.025 220.673 201.028 222.82 201.038C225.749 201.051 228.678 201.04 231.608 201.022C232.884 201.037 232.884 201.037 234.186 201.051C239.5 200.985 242.641 200.139 246.8 196.521C250.514 189.838 250.514 189.838 248.8 169.521C169.6 169.521 90.3997 169.521 8.79971 169.521Z" fill="#C83E6F"/>
<path d="M112 33C115.489 35.8501 118.782 38.8482 122 42C122.588 42.5427 123.176 43.0854 123.781 43.6445C125 45 125 45 125 47C125.66 47 126.32 47 127 47C127.263 46.4173 127.526 45.8347 127.797 45.2344C133.669 34.3282 146.923 27.9412 158.312 24.5C174.847 20.6618 191.655 22.5233 206.438 31.2344C211.036 34.4031 215.05 38.0642 219 42C219.847 42.8121 219.847 42.8121 220.711 43.6406C231.254 54.6857 235.54 70.6137 235.42 85.5C234.817 102.817 227.313 117.03 215 129C203.034 139.803 187.42 144.781 171.426 144.352C155.161 142.682 139.592 136.484 129 123.563C128.01 122.294 128.01 122.294 127 121C126.34 120.67 125.68 120.34 125 120C124.728 120.593 124.456 121.186 124.176 121.797C118.805 131.861 106.48 138.151 96.0625 141.438C78.9223 146.27 61.5626 144.358 45.8789 135.887C31.6335 126.551 22.247 113.214 17.6875 96.8125C14.458 79.7336 18.1729 63.7309 27 49C29.0508 46.5781 29.0508 46.5781 31 45C33.75 45.25 33.75 45.25 36 46C36.8894 48.9491 37.2761 50.4207 35.9258 53.2539C35.3934 54.0157 34.861 54.7776 34.3125 55.5625C26.7664 67.3906 24.7537 80.0346 27.2187 93.7383C30.4542 107.246 37.5108 118.447 49.0547 126.277C61.734 133.693 75.2199 136.018 89.6523 133.316C96.7816 131.273 102.903 128.194 109 124C109.907 123.381 110.815 122.763 111.75 122.125C112.492 121.424 113.235 120.723 114 120C114.596 119.518 115.191 119.036 115.805 118.539C118.017 116.364 119.073 114.986 120 112C119.1 107.022 117.458 102.547 115.647 97.8428C111.743 86.7224 113.108 71.1931 118.113 60.6562C118.447 60.0066 118.781 59.3569 119.125 58.6875C120.37 55.1611 120.37 55.1611 118.91 52.7305C111.609 42.747 100.103 35.5042 88 33C75.6246 31.0961 61.9328 32.0382 51.2266 39.1836C50.4647 39.7424 50.4647 39.7424 49.6875 40.3125C47 42 47 42 44.1875 41.8125C42 41 42 41 41 40C40.707 37.625 40.707 37.625 41 35C58.0259 16.6983 93.3036 20.0629 112 33ZM142 43C140.969 43.7425 139.937 44.485 138.875 45.25C129.116 54.5844 123.062 67.305 122.707 80.8237C122.564 96.6451 127.301 109.075 138.187 120.75C149.205 131.188 161.664 135.526 176.585 135.422C190.301 134.956 203.519 128.997 213 119C222.433 107.632 227.486 94.235 226.844 79.3867C225.95 71.5192 223.844 64.9066 220 58C219.352 56.8302 219.352 56.8302 218.691 55.6367C211.589 43.9871 201.04 37.39 188.5 32.6875C171.088 29.2672 156.262 32.5097 142 43Z" fill="#020102"/>
<path d="M186 63C187.922 65.2852 187.922 65.2852 189.75 68.0625C190.364 68.9816 190.977 69.9007 191.609 70.8477C192.068 71.5579 192.527 72.2682 193 73C195.421 70.6746 197.199 68.6823 199 65.8125C201 63 201 63 203 61.9375C205.759 62.0237 206.983 63.1992 209 65C208.367 70.7239 205.077 73.9663 201.52 78.2812C199.69 80.8627 199.69 80.8627 200.504 83.5039C202.793 87.3232 205.544 90.7105 208.32 94.1836C210.258 97.4321 210.417 99.2808 210 103C209 104 209 104 206.242 104.469C203 104 203 104 200.445 101.156C199.651 99.9512 198.878 98.7316 198.125 97.5C197.723 96.88 197.321 96.2599 196.906 95.6211C195.919 94.0927 194.957 92.5478 194 91C191.107 93.707 189.103 96.3297 187.125 99.75C185.59 102.133 185.59 102.133 184 104C180.688 104.625 180.688 104.625 178 104C177 103 177 103 176.625 100.398C177.136 95.767 179.205 93.2428 182 89.625C182.477 88.9843 182.954 88.3437 183.445 87.6836C184.618 86.1128 185.807 84.5551 187 83C184.955 78.5884 182.128 74.7381 179.363 70.7539C177.795 67.585 177.916 66.2986 179 63C182.186 61.938 183.002 61.7125 186 63Z" fill="#C83E6F"/>
<path d="M142 62C144.688 62.875 144.688 62.875 147 64C147.025 64.7719 147.05 65.5438 147.076 66.3391C147.192 69.8304 147.315 73.3214 147.438 76.8125C147.477 78.0274 147.516 79.2424 147.557 80.4941C147.619 82.2392 147.619 82.2392 147.684 84.0195C147.72 85.0931 147.757 86.1666 147.795 87.2727C147.895 90.0931 147.895 90.0931 149 93C151.59 94.9184 152.875 95.01 156.125 94.75C159.106 94.2312 159.106 94.2312 161 92C161.323 89.2338 161.323 89.2338 161.309 86.0039C161.334 84.8057 161.359 83.6075 161.385 82.373C161.42 79.8366 161.451 77.3002 161.479 74.7637C161.505 73.5642 161.531 72.3647 161.559 71.1289C161.572 70.0262 161.586 68.9235 161.599 67.7874C162 65 162 65 163.364 63.1052C165 62 165 62 167.625 62.1875C170 63 170 63 171 65C171.273 69.3904 171.232 73.7896 171.25 78.1875C171.271 79.4076 171.291 80.6277 171.313 81.8848C171.341 88.3352 171.312 93.3772 168 99C162.883 103.861 158.549 104.358 151.727 104.277C147.85 103.883 145.839 102.631 143 100C139.474 95.5184 138.495 92.6031 138.504 86.9219C138.502 86.2692 138.501 85.6166 138.5 84.9442C138.501 83.576 138.513 82.2078 138.533 80.8398C138.563 78.7414 138.554 76.6454 138.541 74.5469C138.547 73.2135 138.556 71.8802 138.566 70.5469C138.576 69.3387 138.586 68.1305 138.596 66.8857C138.729 65.9334 138.863 64.9812 139 64C139.99 63.34 140.98 62.68 142 62Z" fill="#C83E6F"/>
<path d="M56 62C58.6875 62.875 58.6875 62.875 61 64C61.014 65.1954 61.014 65.1954 61.0283 66.415C61.082 70.0273 61.1657 73.6383 61.25 77.25C61.2642 78.5043 61.2784 79.7585 61.293 81.0508C61.3252 82.2561 61.3574 83.4613 61.3906 84.7031C61.4116 85.8133 61.4325 86.9235 61.4541 88.0674C62.1182 91.6352 63.0943 92.8722 66 95C69.6265 95.0892 69.6265 95.0892 73 94C75.3245 90.5132 75.2977 88.9303 75.4141 84.8008C75.4527 83.5923 75.4914 82.3838 75.5312 81.1387C75.5622 79.876 75.5931 78.6134 75.625 77.3125C75.6637 76.0383 75.7023 74.764 75.7422 73.4512C75.8366 70.3009 75.9222 67.1507 76 64C78.3125 62.875 78.3125 62.875 81 62C81.99 62.66 82.98 63.32 84 64C84.6345 68.312 84.5574 72.6578 84.5559 77.011C84.5624 79.1635 84.6167 81.3112 84.6738 83.4629C84.8169 94.9852 84.8169 94.9852 81.2148 99.3633C76.5167 103.861 72.0769 104.443 65.7617 104.316C61.5241 103.831 59.3836 102.608 56 100C52.9197 95.9342 52.6151 92.8421 52.6016 87.8008C52.5987 87.1245 52.5958 86.4483 52.5929 85.7515C52.5908 84.3303 52.5963 82.9091 52.6089 81.488C52.625 79.3085 52.609 77.1307 52.5898 74.9512C52.5918 73.5677 52.5957 72.1842 52.6016 70.8008C52.6049 69.5443 52.6083 68.2879 52.6118 66.9934C52.7399 66.0056 52.868 65.0178 53 64C53.99 63.34 54.98 62.68 56 62Z" fill="#C83E6F"/>
<path d="M97 62C99.6875 62.875 99.6875 62.875 102 64C102.025 69.5359 102.043 75.0717 102.055 80.6077C102.06 82.4924 102.067 84.3772 102.075 86.262C102.088 88.965 102.093 91.668 102.098 94.3711C102.103 95.219 102.108 96.0669 102.113 96.9405C102.113 98.9607 102.062 100.981 102 103C101 104 101 104 98 104.125C95 104 95 104 94 103C93.8741 100.139 93.8113 97.3036 93.7969 94.4414C93.7883 93.1522 93.7883 93.1522 93.7796 91.8369C93.7701 90.0152 93.7636 88.1935 93.7598 86.3718C93.7501 83.5777 93.719 80.7842 93.6875 77.9902C93.681 76.224 93.6757 74.4577 93.6719 72.6914C93.6595 71.8518 93.6472 71.0122 93.6345 70.1471C93.6436 67.7913 93.6436 67.7913 94 64C94.99 63.34 95.98 62.68 97 62Z" fill="#C83E6F"/>
<path d="M125.938 178.75C126.762 178.729 127.586 178.709 128.436 178.688C129.229 178.682 130.022 178.677 130.84 178.672C131.928 178.658 131.928 178.658 133.039 178.644C135.572 179.104 136.474 179.958 138 182C137.812 184.625 137.812 184.625 137 187C133.593 188.703 129.817 188.227 126.062 188.25C125.238 188.271 124.414 188.291 123.564 188.312C122.771 188.318 121.978 188.323 121.16 188.328C120.072 188.342 120.072 188.342 118.961 188.356C116.428 187.896 115.526 187.042 114 185C114.188 182.375 114.188 182.375 115 180C118.407 178.297 122.183 178.773 125.938 178.75Z" fill="#020102"/>
<rect x="152" y="219" width="7" height="15" fill="#C83E6F"/>
</svg>
